<svg id="expert.svg" xmlns="http://www.w3.org/2000/svg" width="40" height="40" viewBox="0 0 40 40">
  <defs>
    <style>
      .cls-1, .cls-2 {
        fill: #fff;
        fill-rule: evenodd;
      }

      .cls-1 {
        opacity: 0.9;
      }
    </style>
  </defs>
  <path id="Ellipse_311_copy_11" data-name="Ellipse 311 copy 11" class="cls-1" d="M586,438h8a10.057,10.057,0,0,1,2,.2V439a8,8,0,0,1-8,8H576.05A10,10,0,0,1,586,438Zm12,0.838A10,10,0,0,1,604,448v0.738A8,8,0,0,1,598,441v-2.162Z" transform="translate(-570 -436)"/>
  <path id="Ellipse_311_copy_10" data-name="Ellipse 311 copy 10" class="cls-2" d="M570,476V436h15.993A12,12,0,0,0,574,448v5a4,4,0,0,0-4,4l1,5a4,4,0,0,0,4,4h0.187a15.971,15.971,0,0,0,29.626,0H605a4,4,0,0,0,4-4l1-5a4,4,0,0,0-4-4h0v-2h0v-2h0v-1a12,12,0,0,0-11.993-12H610v40H570Zm26.531-31.8A10.009,10.009,0,0,0,604,450.8V455h-1.349a5.992,5.992,0,0,0-11.3,0h-2.7a5.992,5.992,0,0,0-11.3,0H576v-6h12A9.985,9.985,0,0,0,596.531,444.2ZM579,457a4,4,0,1,1,4,4A4,4,0,0,1,579,457Zm5-2a1,1,0,0,0-1-1,3,3,0,0,0-3,3,1,1,0,0,0,2,0,1,1,0,0,1,1-1A1,1,0,0,0,584,455Zm9,2a4,4,0,1,1,4,4A4,4,0,0,1,593,457Zm5-2a1,1,0,0,0-1-1,3,3,0,0,0-3,3,1,1,0,0,0,2,0,1,1,0,0,1,1-1A1,1,0,0,0,598,455Zm-25,6.5-1-4a2.5,2.5,0,0,1,2-2.45V457h3a6,6,0,0,0,12,0h2a6,6,0,0,0,12,0h3v-1h0v-0.95a2.5,2.5,0,0,1,2,2.45l-1,4a2.5,2.5,0,0,1-1.475,2.275,15.978,15.978,0,0,0,.337-1.775h-2.021a13.982,13.982,0,0,1-27.682,0h-2.021a15.822,15.822,0,0,0,.334,1.764A2.48,2.48,0,0,1,573,461.5Zm13,6.5h8a1,1,0,0,0,0-2h-8A1,1,0,0,0,586,468Z" transform="translate(-570 -436)"/>
</svg>
