<svg width="14" height="15" viewBox="0 0 14 15" xmlns="http://www.w3.org/2000/svg">
    <path d="M2.856 14.917c.08.054.155.083.228.083h5.773c.132 0 .288-.03.453-.082v.053h3.53c.64 0 1.159-.532 1.159-1.185V9.078c0-.654-.52-1.185-1.16-1.185h-1.954c-.181-1.17-3.178-3.743-3.096-4.737 0 0-.085-1.905 0-2.368-.085-.268.122-.789-.776-.789-.672 0-1.378.527-1.553 1-.442.669-1.54 1.928-.776 4.526H2.355a4.378 4.378 0 0 0-.498.025l-.278-.025c-.857 0-1.552.707-1.552 1.579l.003.104-.003.124c0 .224.083.684.227 1.272A1.591 1.591 0 0 0 0 9.472c0 .479.209.907.54 1.197a1.587 1.587 0 0 0-.511 1.172c0 .59.318 1.104.789 1.375l-.013.204c0 .872.694 1.579 1.552 1.579.175 0 .343-.029.5-.083v.001z" fill="#404040" fill-rule="evenodd" opacity=".33"/>
</svg>
