<svg id="audit_accounting.svg" xmlns="http://www.w3.org/2000/svg" width="40" height="40" viewBox="0 0 40 40">
  <defs>
    <style>
      .cls-1, .cls-2 {
        fill: #fff;
        fill-rule: evenodd;
      }

      .cls-1 {
        opacity: 0.9;
      }
    </style>
  </defs>
  <path id="Rounded_Rectangle_995_copy_4" data-name="Rounded Rectangle 995 copy 4" class="cls-1" d="M506,503a2,2,0,1,0,2,2A2,2,0,0,0,506,503Zm10,0a2,2,0,1,0,2,2A2,2,0,0,0,516,503Zm-10,12a2,2,0,1,0,2-2A2,2,0,0,0,506,515Zm11,0a2,2,0,1,0,2-2A2,2,0,0,0,517,515Zm-13,10a2,2,0,1,0,2-2A2,2,0,0,0,504,525Zm7,0a2,2,0,1,0,2-2A2,2,0,0,0,511,525Z" transform="translate(-492 -498)"/>
  <path id="Rounded_Rectangle_995_copy_3" data-name="Rounded Rectangle 995 copy 3" class="cls-2" d="M492,498h40v40H492V498Zm38,40H494a2,2,0,0,1-2-2v-2a2,2,0,0,1,2-2V500a2,2,0,0,1,2-2h2a2,2,0,0,1,2,2v4h2.141a3.981,3.981,0,0,1,7.717,0h2.283a3.982,3.982,0,0,1,7.718,0H524v-4a2,2,0,0,1,2-2h2a2,2,0,0,1,2,2v32a2,2,0,0,1,2,2v2A2,2,0,0,1,530,538Zm-32-38h-2v32h2V500Zm26,6h-4.141a3.982,3.982,0,0,1-7.718,0h-2.283a3.981,3.981,0,0,1-7.717,0H500v8h4.141a3.983,3.983,0,0,1,7.726.027A0.847,0.847,0,0,1,512,514h3.141a3.983,3.983,0,0,1,7.726.027A0.847,0.847,0,0,1,523,514h1v-8Zm0,10h-1a0.979,0.979,0,0,1-.133-0.027,3.983,3.983,0,0,1-7.726.027H512a0.979,0.979,0,0,1-.133-0.027,3.983,3.983,0,0,1-7.726.027H500v8h2.141a3.975,3.975,0,0,1,7.359-.9,3.976,3.976,0,0,1,7.367.927A0.847,0.847,0,0,1,517,524h7v-8Zm0,10h-7a0.979,0.979,0,0,1-.133-0.027,3.976,3.976,0,0,1-7.367.926,3.975,3.975,0,0,1-7.359-.9H500v6h24v-6Zm4-26h-2v32h2V500Zm2,34H494v2h36v-2Z" transform="translate(-492 -498)"/>
</svg>
