<svg id="leas_s.svg" xmlns="http://www.w3.org/2000/svg" width="40" height="40" viewBox="0 0 40 40">
  <defs>
    <style>
      .cls-1, .cls-2 {
        fill: #fff;
        fill-rule: evenodd;
      }

      .cls-1 {
        opacity: 0.9;
      }
    </style>
  </defs>
  <path id="Ellipse_307_copy_6" data-name="Ellipse 307 copy 6" class="cls-1" d="M494,445v-8a1,1,0,0,1,1-1h34a1,1,0,0,1,1,1v8a1,1,0,0,1-1,1H495A1,1,0,0,1,494,445Zm31,0a4,4,0,1,0-4-4A4,4,0,0,0,525,445Zm-20-2a2,2,0,0,0,2,2h4a1.938,1.938,0,0,1,2,0h4a2,2,0,0,0,2-2v-4a2,2,0,0,0-2-2h-4a1.944,1.944,0,0,1-2,0h-4a2,2,0,0,0-2,2v4Zm-6,2a4,4,0,1,0-4-4A4,4,0,0,0,499,445Zm0-6a2,2,0,1,1-2,2A2,2,0,0,1,499,439Zm12,4h-4v-4h4v4Zm6,0h-4v-4h4v4Zm8-4a2,2,0,1,1-2,2A2,2,0,0,1,525,439Z" transform="translate(-492 -414)"/>
  <path id="Ellipse_307_copy_5" data-name="Ellipse 307 copy 5" class="cls-2" d="M518.5,432a2.5,2.5,0,0,1,2.449,2h-4.9A2.5,2.5,0,0,1,518.5,432Zm4.5,20v-4h5v4h-5Zm-27,0v-4h5v4h-5Zm3-13a2,2,0,1,1-2,2A2,2,0,0,1,499,439Zm12,4h-4v-4h4v4Zm6,0h-4v-4h4v4Zm8-4a2,2,0,1,1-2,2A2,2,0,0,1,525,439Zm-33,15v-9a2.99,2.99,0,0,0,2,2.816V452a2,2,0,0,0,2,2h5a2,2,0,0,0,2-2v-4h18v4a2,2,0,0,0,2,2h5a2,2,0,0,0,2-2v-4.183A2.992,2.992,0,0,0,532,445v-8a2.992,2.992,0,0,0-2.533-2.953L527,425l-2-1h-4.75l-1.5,2h6.461l2.181,8h-4.443a4.475,4.475,0,0,0-8.9,0H496.608l1.6-6.284-1.5-1.615-2.167,7.947A2.992,2.992,0,0,0,492,437V414h24a1,1,0,0,0-1,1,3,3,0,0,1-3,3,1,1,0,0,0,0,2,3,3,0,0,1,3,3,1,1,0,0,0,2,0,3,3,0,0,1,3-3,1,1,0,0,0,0-2,3,3,0,0,1-3-3,1,1,0,0,0-1-1h16v40H492Zm18-31v-0.015l-0.026,0a4.521,4.521,0,0,1-3.963-3.979s0-.007,0-0.01H506a1,1,0,0,0-2,0h-0.012s0,0.006,0,.009a4.521,4.521,0,0,1-3.963,3.98l-0.026,0V423a1,1,0,0,0,0,2v0.014a0.2,0.2,0,0,0,.024,0,4.521,4.521,0,0,1,3.965,3.981s0,0.006,0,.009H504a1,1,0,0,0,2,0h0.012s0-.006,0-0.009a4.521,4.521,0,0,1,3.965-3.981,0.2,0.2,0,0,0,.024,0V425A1,1,0,0,0,510,423Zm-5,3.012A6.611,6.611,0,0,0,502.994,424,6.591,6.591,0,0,0,505,421.992a6.524,6.524,0,0,0,2,2.006A6.611,6.611,0,0,0,505,426.012Zm11-5.985a5.1,5.1,0,0,0-1.045-1.013,4.969,4.969,0,0,0,1.059-1.059,5.051,5.051,0,0,0,1.031,1.059A5.1,5.1,0,0,0,516,420.027Z" transform="translate(-492 -414)"/>
</svg>
