<svg id="audit_express.svg" xmlns="http://www.w3.org/2000/svg" width="40" height="40" viewBox="0 0 40 40">
  <defs>
    <style>
      .cls-1, .cls-2 {
        fill: #fff;
        fill-rule: evenodd;
      }

      .cls-1 {
        opacity: 0.9;
      }
    </style>
  </defs>
  <path id="Rounded_Rectangle_1013_copy_5" data-name="Rounded Rectangle 1013 copy 5" class="cls-1" d="M465,517a7,7,0,1,0,7,7A7,7,0,0,0,465,517Zm1.918,6.465A1.967,1.967,0,0,1,467,524a2,2,0,1,1-2-2,1.974,1.974,0,0,1,.5.071l1.787-1.79a1.008,1.008,0,0,1,1.414,0,0.977,0.977,0,0,1,0,1.4Z" transform="translate(-450 -498)"/>
  <path id="Rounded_Rectangle_1013_copy_3" data-name="Rounded Rectangle 1013 copy 3" class="cls-2" d="M450,498h40v40H450V498Zm37,40h-1l-3-8V499a5,5,0,0,1,3.473-1A5.186,5.186,0,0,1,490,499v31Zm-0.5-4.545L487.663,530h-2.327Zm1.5-33.236a5.246,5.246,0,0,0-3,0V503h3v-2.781Zm0,4.78h-3v23h3V505Zm-11,33H453a3,3,0,0,1-3-3V506l8-8h19a3,3,0,0,1,3,3v34A3,3,0,0,1,477,538Zm-19-37.125L452.875,506H457a1,1,0,0,0,1-1v-4.125ZM478,518V501a1,1,0,0,0-1-1H460v5a3,3,0,0,1-3,3h-5v27a1,1,0,0,0,1,1h24a1,1,0,0,0,1-1V518Zm-13,15a9,9,0,0,1-.989-17.943c0-.02-0.011-0.036-0.011-0.057v-1h-2a1,1,0,0,1,0-2h6a1,1,0,0,1,0,2h-2v1a0.523,0.523,0,0,1-.012.057A9,9,0,0,1,465,533Zm8-25h-9a1,1,0,0,1,0-2h9A1,1,0,0,1,473,508Zm-3-3h-6a1,1,0,1,1,0-2h6A1,1,0,1,1,470,505Z" transform="translate(-450 -498)"/>
</svg>
