<svg id="optimum.svg" xmlns="http://www.w3.org/2000/svg" width="40" height="40" viewBox="0 0 40 40">
  <defs>
    <style>
      .cls-1, .cls-2 {
        fill: #fff;
        fill-rule: evenodd;
      }

      .cls-1 {
        opacity: 0.9;
      }
    </style>
  </defs>
  <path id="Ellipse_315_copy_3" data-name="Ellipse 315 copy 3" class="cls-1" d="M760,244h6v2h-6v-2Zm5,4v7h-4v-7h4Zm1,11h-6v-2h6v2Zm-19-15h6v2h-6v-2Zm5,4v7h-4v-7h4Zm1,11h-6v-2h6v2Zm-19-15h6v2h-6v-2Zm5,4v7h-4v-7h4Zm1,11h-6v-2h6v2Z" transform="translate(-730 -226)"/>
  <path id="Ellipse_315_copy_2" data-name="Ellipse 315 copy 2" class="cls-2" d="M730,266v-2a2,2,0,0,0,2,2h36a2,2,0,0,0,2-2v-3a2,2,0,0,0-2-2v-2a1.991,1.991,0,0,0-1-1.722v-7.555A1.991,1.991,0,0,0,768,246v-2a2,2,0,0,0,2-2v-3a1.992,1.992,0,0,0-.792-1.585L769,237l-17-10.474L750,226h20v40H730Zm18-39.474L731,237l-0.208.415A1.989,1.989,0,0,0,730,239V226h20ZM768,264H732v-3h36v3Zm-13-5v-2a1.991,1.991,0,0,0-1-1.722v-7.555A1.991,1.991,0,0,0,755,246v-2h3v2a1.991,1.991,0,0,0,1,1.722v7.555A1.991,1.991,0,0,0,758,257v2h-3Zm-13,0v-2a1.991,1.991,0,0,0-1-1.722v-7.555A1.991,1.991,0,0,0,742,246v-2h3v2a1.991,1.991,0,0,0,1,1.722v7.555A1.991,1.991,0,0,0,745,257v2h-3Zm8-31,1.539,0.561L765,237H735l13.443-8.441Zm-3,5a3,3,0,1,0,3-3A3,3,0,0,0,747,233Zm4,0a1,1,0,1,1-1-1A1,1,0,0,1,751,233Zm17,9H732v-3h36v3Zm-38,19V242a2,2,0,0,0,2,2v2a1.991,1.991,0,0,0,1,1.722v7.555A1.991,1.991,0,0,0,732,257v2A2,2,0,0,0,730,261Z" transform="translate(-730 -226)"/>
</svg>
