<?xml version="1.0" encoding="utf-8"?>
<!-- Generator: Adobe Illustrator 18.1.1, SVG Export Plug-In . SVG Version: 6.00 Build 0)  -->
<svg version="1.1" id="Layer_1" xmlns="http://www.w3.org/2000/svg" xmlns:xlink="http://www.w3.org/1999/xlink" x="0px" y="0px"
	 viewBox="0 0 100 100" enable-background="new 0 0 100 100" xml:space="preserve">
<path fill="none" stroke="#6C7073" stroke-width="3" stroke-miterlimit="10" d="M34.6,43.3V36c0-3.9,3.2-7,7-7h16c3.8,0,7,3.1,7,7
	v7.1"/>
<path fill="none" stroke="#6C7073" stroke-width="3" stroke-miterlimit="10" d="M65.3,63.8H34c-1.7,0-3-1.4-3-3v-5c0-1.7,1.3-3,3-3
	h31.3c1.6,0,3,1.3,3,3v5C68.3,62.4,67,63.8,65.3,63.8z"/>
<g>
	<path fill="none" stroke="#6C7073" stroke-width="2" stroke-miterlimit="10" d="M38,70.6h-2.3c-1.1,0-2-0.9-2-2v-2.8
		c0-1.1,0.9-2,2-2H38c1.1,0,2,0.9,2,2v2.8C40,69.7,39.1,70.6,38,70.6z"/>
	<path fill="none" stroke="#6C7073" stroke-width="2" stroke-miterlimit="10" d="M63.7,70.6h-2.3c-1.1,0-2-0.9-2-2v-2.8
		c0-1.1,0.9-2,2-2h2.3c1.1,0,2,0.9,2,2v2.8C65.7,69.7,64.8,70.6,63.7,70.6z"/>
</g>
<g>
	<circle fill="none" stroke="#6C7073" stroke-width="3" stroke-miterlimit="10" cx="32.1" cy="47.3" r="5.2"/>
	<circle fill="none" stroke="#6C7073" stroke-width="3" stroke-miterlimit="10" cx="67.2" cy="47.3" r="5.2"/>
</g>
<line fill="#FFFFFF" stroke="#6C7073" stroke-width="3" stroke-miterlimit="10" x1="37.3" y1="47.3" x2="62" y2="47.3"/>
</svg>
