<?xml version="1.0" encoding="utf-8"?>
<!-- Generator: Adobe Illustrator 18.1.1, SVG Export Plug-In . SVG Version: 6.00 Build 0)  -->
<svg version="1.1" id="Layer_1" xmlns="http://www.w3.org/2000/svg" xmlns:xlink="http://www.w3.org/1999/xlink" x="0px" y="0px"
	 viewBox="0 0 100 100" enable-background="new 0 0 100 100" xml:space="preserve">
<g>
	<path fill="none" stroke="#6C7073" stroke-width="3" stroke-miterlimit="10" d="M48.2,62.1c0.8,0.6,1,1.7,0.4,2.5l-6.3,9
		c-0.3,0.5-0.9,0.8-1.5,0.8c0,0,0,0-0.1,0c-0.6,0-1.2-0.3-1.5-0.9L36.6,69c-0.1-0.1-0.2-0.2-0.3-0.2L31,67.7l0,0
		c-0.6-0.1-1.1-0.5-1.3-1.1c-0.2-0.6-0.2-1.2,0.2-1.7l6.3-9"/>
	<path fill="none" stroke="#6C7073" stroke-width="3" stroke-miterlimit="10" d="M63.8,55.9l6.3,9c0.3,0.5,0.4,1.1,0.2,1.7
		c-0.2,0.6-0.7,1-1.3,1.1l0,0l-5.3,1.1c-0.1,0-0.2,0.1-0.3,0.2l-2.8,4.6c-0.3,0.5-0.9,0.8-1.5,0.9c0,0,0,0-0.1,0
		c-0.6,0-1.1-0.3-1.5-0.8l-6.3-9c-0.6-0.8-0.4-1.9,0.4-2.5"/>
</g>
<path fill="none" stroke="#6C7073" stroke-width="3" stroke-miterlimit="10" d="M50,62.2C40,62.2,31.8,54,31.8,44
	c0-10,8.2-18.2,18.2-18.2c10,0,18.2,8.2,18.2,18.2C68.2,54,60,62.2,50,62.2z"/>
<polygon fill-rule="evenodd" clip-rule="evenodd" fill="none" stroke="#6C7073" stroke-width="3" stroke-miterlimit="10" points="
	50,33.3 53,40.1 60.1,41 54.9,46.2 56.2,53.6 50,50 43.8,53.6 45.1,46.2 39.9,41 47,40.1 "/>
</svg>
