<?xml version="1.0" encoding="utf-8"?>
<!-- Generator: Adobe Illustrator 22.0.1, SVG Export Plug-In . SVG Version: 6.00 Build 0)  -->
<svg version="1.1" id="Layer_2" xmlns="http://www.w3.org/2000/svg" xmlns:xlink="http://www.w3.org/1999/xlink" x="0px" y="0px"
	 viewBox="0 0 80 80" style="enable-background:new 0 0 80 80;" xml:space="preserve">
<style type="text/css">
	.st0{fill:#4C4E54;}
</style>
<g>
	<path class="st0" d="M61.3,43.9c-1.5-3.5-3.6-6.8-6-9.7c-2.3-2.8-4.9-5.2-7.8-7.4h-0.2l6.1-11.3c0.2-0.5,0.2-1-0.2-1.4
		c-1.3-1.3-3-2.1-4.9-2.2c-1.5,0.1-3.1,0.5-4.5,1.2c-1.1,0.7-2.4,0.9-3.7,0.8c-2.2-0.9-4.5-1.5-6.9-1.6c-2.6,0.1-5.2,1.2-6.9,3.2
		c-0.4,0.4-0.4,1-0.2,1.5l6.5,9.9L32.4,27c-2.8,2.1-5.4,4.6-7.7,7.3c-2.5,2.9-4.5,6.2-6.1,9.7c-1.8,4.2-2.7,8.7-2.8,13.2
		c0,5.9,4.8,10.8,10.8,10.8h26.6c5.9,0,10.8-4.8,10.8-10.8C64.1,52.7,63.1,48.1,61.3,43.9z M59.2,63c-1.6,1.6-3.7,2.4-5.9,2.4H26.7
		c-4.6,0-8.3-3.7-8.3-8.3c0,0,0,0,0,0c0.1-7.9,3-15.5,8.2-21.4c2.3-2.8,5-5.4,8-7.5l0,0h10.8l0,0c3,2.1,5.7,4.7,8,7.5
		c5.2,5.9,8.1,13.5,8.2,21.3C61.6,59.3,60.8,61.5,59.2,63z M45,25.9H35l-6.2-9.6l0.1-0.1c2.9-2.5,5.6-2.2,10.5-0.2
		c1.8,0.4,3.8,0.1,5.4-0.8c1.1-0.6,2.3-0.9,3.5-1c0.9,0,1.7,0.3,2.4,0.8h0.2L45,25.9z"/>
	<path class="st0" d="M39.9,52.8c0.2,0,0.5,0,0.7,0c2.1,0.1,4.3-0.7,5.9-2c2.8-2.9,2.8-7.5,0-10.4c-1.9-1.5-4.2-2.2-6.6-2h-5.8v12.2
		h-2.7v2.2h2.7v1.8h-2.7v2.2h2.7v4.1h2.2v-4h4.8v-2.2h-4.8v-1.8L39.9,52.8z M36.4,50.6v-10h3.7c1.7-0.1,3.5,0.4,4.9,1.4
		c0.9,0.9,1.4,2.3,1.3,3.6c0.1,1.3-0.4,2.6-1.3,3.6c-1.4,1.1-3.2,1.6-5,1.4L36.4,50.6z"/>
</g>
</svg>
