<?xml version="1.0" encoding="utf-8"?>
<!-- Generator: Adobe Illustrator 22.0.1, SVG Export Plug-In . SVG Version: 6.00 Build 0)  -->
<svg version="1.1" id="Layer_2" xmlns="http://www.w3.org/2000/svg" xmlns:xlink="http://www.w3.org/1999/xlink" x="0px" y="0px"
	 viewBox="0 0 80 80" style="enable-background:new 0 0 80 80;" xml:space="preserve">
<style type="text/css">
	.st0{fill:#4C4E54;}
	.st1{fill:none;stroke:#4C4E54;stroke-width:2.8346;stroke-linejoin:round;stroke-miterlimit:10;}
	.st2{fill:#4C4E54;stroke:#4C4E54;stroke-width:2.8346;stroke-linejoin:round;stroke-miterlimit:10;}
	.st3{fill:#FFFFFF;stroke:#4C4E54;stroke-width:2.8346;stroke-linejoin:round;stroke-miterlimit:10;}
</style>
<g>
	<g>
		<path class="st0" d="M47.9,12l2.2,25.5h-20L32.4,12H47.9 M47.9,9.2H32.4c-1.5,0-2.7,1.1-2.8,2.6l-2.2,25.5
			c-0.1,0.8,0.2,1.6,0.7,2.2c0.5,0.6,1.3,0.9,2.1,0.9h20c0.8,0,1.6-0.3,2.1-0.9s0.8-1.4,0.7-2.2l-2.2-25.5
			C50.5,10.3,49.3,9.2,47.9,9.2L47.9,9.2z"/>
	</g>
	<g>
		<path class="st0" d="M53.4,45.1v2.4H26.8v-2.4H53.4 M53.4,42.3H26.8c-1.6,0-2.8,1.3-2.8,2.8v2.4c0,1.6,1.3,2.8,2.8,2.8h26.6
			c1.6,0,2.8-1.3,2.8-2.8v-2.4C56.2,43.5,54.9,42.3,53.4,42.3L53.4,42.3z"/>
	</g>
	<polyline class="st1" points="24.7,46.3 21.3,46.3 21.3,32 	"/>
	<polyline class="st1" points="55.5,46.3 58.9,46.3 58.9,32 	"/>
	<circle class="st2" cx="21.2" cy="29.8" r="1.7"/>
	<circle class="st2" cx="26.7" cy="66.3" r="1.7"/>
	<circle class="st2" cx="53.3" cy="66.3" r="1.7"/>
	<circle class="st2" cx="58.8" cy="29.8" r="1.7"/>
	<line class="st3" x1="40.1" y1="49.6" x2="40.1" y2="61.8"/>
	<line class="st3" x1="40.1" y1="39.5" x2="40.1" y2="43.1"/>
	<path class="st3" d="M26.8,63"/>
	<polyline class="st1" points="53.4,65.2 53.4,61.8 26.8,61.7 26.8,65.2 	"/>
</g>
</svg>
