<?xml version="1.0" encoding="utf-8"?>
<!-- Generator: Adobe Illustrator 22.0.1, SVG Export Plug-In . SVG Version: 6.00 Build 0)  -->
<svg version="1.1" id="Layer_2" xmlns="http://www.w3.org/2000/svg" xmlns:xlink="http://www.w3.org/1999/xlink" x="0px" y="0px"
	 viewBox="0 0 80 80" style="enable-background:new 0 0 80 80;" xml:space="preserve">
<style type="text/css">
	.st0{fill:none;stroke:#4C4E54;stroke-width:2.8346;stroke-miterlimit:10;}
	.st1{fill:#4C4E54;stroke:#4C4E54;stroke-width:1.4173;stroke-miterlimit:10;}
</style>
<g>
	<path class="st0" d="M60.5,69.9h-41c-1.6,0-3-1.3-3-3V13.1c0-1.6,1.4-3,3-3h41c1.7,0,3,1.4,3,3v53.8C63.5,68.6,62.2,69.9,60.5,69.9
		z"/>
	<rect x="27.8" y="21.6" class="st1" width="25" height="5"/>
	<rect x="27.8" y="34.6" class="st1" width="5" height="5"/>
	<rect x="27.8" y="44.6" class="st1" width="5" height="5"/>
	<rect x="27.8" y="54.6" class="st1" width="5" height="5"/>
	<rect x="37.8" y="34.6" class="st1" width="5" height="5"/>
	<rect x="37.8" y="44.6" class="st1" width="5" height="5"/>
	<rect x="37.8" y="54.6" class="st1" width="5" height="5"/>
	<rect x="47.8" y="34.6" class="st1" width="5" height="5"/>
	<rect x="47.8" y="44.6" class="st1" width="5" height="15"/>
</g>
</svg>
