<?xml version="1.0" encoding="utf-8"?>
<!-- Generator: Adobe Illustrator 22.0.1, SVG Export Plug-In . SVG Version: 6.00 Build 0)  -->
<svg version="1.1" id="Layer_2" xmlns="http://www.w3.org/2000/svg" xmlns:xlink="http://www.w3.org/1999/xlink" x="0px" y="0px"
	 viewBox="0 0 80 80" style="enable-background:new 0 0 80 80;" xml:space="preserve">
<style type="text/css">
	.st0{fill:none;stroke:#4C4E54;stroke-width:2.8346;stroke-miterlimit:10;}
</style>
<g>
	<path class="st0" d="M58,70.5H17c-1.6,0-3-1.3-3-3v-50c0-1.6,1.4-3,3-3h41c1.6,0,3,1.3,3,3v50C61,69.2,59.6,70.5,58,70.5z"/>
	<g>
		<line class="st0" x1="24" y1="26.5" x2="51" y2="26.5"/>
	</g>
	<g>
		<line class="st0" x1="24" y1="34.5" x2="51" y2="34.5"/>
	</g>
	<g>
		<line class="st0" x1="24" y1="42.5" x2="51" y2="42.5"/>
	</g>
	<g>
		<line class="st0" x1="24" y1="50.5" x2="51" y2="50.5"/>
	</g>
	<path class="st0" d="M19,14.6v-0.2v-1.8c0-1.6,1.4-3,3-3h41c1.6,0,3,1.4,3,3v50c0,1.7-1.4,3-3,3h-2.1"/>
</g>
</svg>
