<?xml version="1.0" encoding="utf-8"?>
<!-- Generator: Adobe Illustrator 22.0.1, SVG Export Plug-In . SVG Version: 6.00 Build 0)  -->
<svg version="1.1" id="Layer_2" xmlns="http://www.w3.org/2000/svg" xmlns:xlink="http://www.w3.org/1999/xlink" x="0px" y="0px"
	 viewBox="0 0 80 80" style="enable-background:new 0 0 80 80;" xml:space="preserve">
<style type="text/css">
	.st0{fill:none;stroke:#4C4E54;stroke-width:2.8346;stroke-miterlimit:10;}
</style>
<g>
	<g>
		<path class="st0" d="M59,57.5H21c-2.8,0-5-2.2-5-5v-25c0-2.8,2.2-5,5-5h38c2.8,0,5,2.2,5,5v25C64,55.3,61.8,57.5,59,57.5z"/>
		<path class="st0" d="M62.5,24.1l-18.9,19c-2,2-5.3,2-7.3,0l-18.9-19"/>
	</g>
	<line class="st0" x1="34.1" y1="40.8" x2="17.5" y2="57.5"/>
	<line class="st0" x1="62.5" y1="57.5" x2="45.9" y2="40.8"/>
	<path class="st0" d="M61.7,23.9"/>
	<path class="st0" d="M16.9,23.9"/>
	<path class="st0" d="M16.9,56.1"/>
	<path class="st0" d="M34.6,38.1"/>
	<path class="st0" d="M61.7,56.1"/>
	<path class="st0" d="M44.8,38.6"/>
</g>
</svg>
