<?xml version="1.0" encoding="utf-8"?>
<!-- Generator: Adobe Illustrator 22.0.1, SVG Export Plug-In . SVG Version: 6.00 Build 0)  -->
<svg version="1.1" id="Layer_1" xmlns="http://www.w3.org/2000/svg" xmlns:xlink="http://www.w3.org/1999/xlink" x="0px" y="0px"
	 viewBox="0 0 41 49.5" style="enable-background:new 0 0 41 49.5;" xml:space="preserve">
<style type="text/css">
	.st0{fill:#D33234;}
	.st1{fill:#FFFFFF;}
</style>
<rect class="st0" width="41" height="39"/>
<g>
	<path class="st1" d="M6.9,15.5H10c0.7,0,1.4,0.1,2,0.4c0.6,0.3,1,0.7,1.3,1.2c0.3,0.5,0.5,1.1,0.5,1.8s-0.2,1.3-0.5,1.8
		c-0.3,0.5-0.8,0.9-1.3,1.2c-0.6,0.3-1.2,0.4-2,0.4H6.9V15.5z M9.9,21.4c0.5,0,1-0.1,1.4-0.3c0.4-0.2,0.7-0.5,0.9-0.8
		c0.2-0.4,0.3-0.8,0.3-1.3s-0.1-0.9-0.3-1.3s-0.5-0.6-0.9-0.8c-0.4-0.2-0.8-0.3-1.4-0.3H8.2v4.8H9.9z"/>
	<path class="st1" d="M20.4,21.4v1.1h-5.3v-7h5.1v1.1h-3.8v1.8h3.4v1.1h-3.4v1.9H20.4z"/>
	<path class="st1" d="M23.2,16.6v2.1h3.4v1.1h-3.4v2.7h-1.3v-7H27v1.1H23.2z"/>
	<path class="st1" d="M29.5,22.1c-0.6-0.3-1-0.7-1.3-1.3s-0.5-1.2-0.5-1.8s0.2-1.3,0.5-1.8s0.8-1,1.3-1.3c0.6-0.3,1.2-0.5,1.9-0.5
		c0.7,0,1.4,0.2,1.9,0.5c0.6,0.3,1,0.7,1.4,1.3c0.3,0.5,0.5,1.2,0.5,1.8s-0.2,1.3-0.5,1.8c-0.3,0.5-0.8,1-1.4,1.3
		c-0.6,0.3-1.2,0.5-1.9,0.5C30.7,22.6,30.1,22.4,29.5,22.1z M32.7,21.1c0.4-0.2,0.7-0.5,0.9-0.9c0.2-0.4,0.3-0.8,0.3-1.3
		s-0.1-0.9-0.3-1.3c-0.2-0.4-0.5-0.7-0.9-0.9c-0.4-0.2-0.8-0.3-1.3-0.3s-0.9,0.1-1.3,0.3c-0.4,0.2-0.7,0.5-0.9,0.9
		C29.1,18.1,29,18.5,29,19s0.1,0.9,0.3,1.3c0.2,0.4,0.5,0.7,0.9,0.9c0.4,0.2,0.8,0.3,1.3,0.3S32.3,21.4,32.7,21.1z"/>
</g>
<path class="st0" d="M0,49.5c0-0.1,0-11,0-11h8L0,49.5z"/>
</svg>
