<?xml version="1.0" encoding="utf-8"?>
<!-- Generator: Adobe Illustrator 22.0.1, SVG Export Plug-In . SVG Version: 6.00 Build 0)  -->
<svg version="1.1" id="Layer_2" xmlns="http://www.w3.org/2000/svg" xmlns:xlink="http://www.w3.org/1999/xlink" x="0px" y="0px"
	 viewBox="0 0 80 80" style="enable-background:new 0 0 80 80;" xml:space="preserve">
<style type="text/css">
	.st0{fill:none;stroke:#4C4E54;stroke-width:2.8346;stroke-miterlimit:10;}
</style>
<g>
	<path class="st0" d="M60.5,68h-41c-1.6,0-3-1.3-3-3V15c0-1.6,1.4-3,3-3h41c1.6,0,3,1.4,3,3v50C63.5,66.7,62.1,68,60.5,68z"/>
	<g>
		<polyline class="st0" points="23,23.4 26.7,26.9 31.9,21.1 		"/>
		<line class="st0" x1="36.8" y1="25.2" x2="57" y2="25.2"/>
	</g>
	<g>
		<polyline class="st0" points="23,35.2 26.7,38.6 31.9,32.9 		"/>
		<line class="st0" x1="36.8" y1="37" x2="57" y2="37"/>
	</g>
	<g>
		<polyline class="st0" points="23,46.9 26.7,50.4 31.9,44.7 		"/>
		<line class="st0" x1="36.8" y1="48.8" x2="57" y2="48.8"/>
	</g>
</g>
</svg>
