<?xml version="1.0" encoding="utf-8"?>
<!-- Generator: Adobe Illustrator 22.0.1, SVG Export Plug-In . SVG Version: 6.00 Build 0)  -->
<svg version="1.1" id="Layer_1" xmlns="http://www.w3.org/2000/svg" xmlns:xlink="http://www.w3.org/1999/xlink" x="0px" y="0px"
	 viewBox="0 0 54.6 38.8" style="enable-background:new 0 0 54.6 38.8;" xml:space="preserve">
<style type="text/css">
	.st0{fill:#5BAC55;stroke:#5BAC55;stroke-miterlimit:10;}
	.st1{fill:none;stroke:#5BAC55;stroke-width:3;stroke-miterlimit:10;}
	.st2{fill:none;stroke:#5BAC55;stroke-width:2;stroke-miterlimit:10;}
	.st3{fill:none;stroke:#CE171F;stroke-width:2;stroke-miterlimit:10;}
	.st4{fill:#5BAC55;}
</style>
<g>
	<g>
		<polygon class="st0" points="45.1,38.3 48.3,38.3 47.9,33.3 43.6,33.3 		"/>
		<polygon class="st0" points="9.6,38.3 6.4,38.3 6.8,33.3 11.1,33.3 		"/>
	</g>
	<g>
		<path class="st1" d="M53.1,23.3v8.4c0,1.1-0.9,2-2,2H3.7c-1.1,0-2-0.9-2-2v-8.4"/>
		<line class="st2" x1="1.7" y1="23.5" x2="53.1" y2="23.5"/>
	</g>
	<polyline class="st2" points="0.9,24 11.4,13.9 13,13.9 	"/>
	<line class="st3" x1="52.3" y1="22.3" x2="51.9" y2="22.3"/>
	<polyline class="st2" points="41.7,13.9 43.2,13.9 53.8,24 	"/>
	<g>
		<g>
			<path class="st4" d="M24.7,9c0.6,0,1,0.4,1,1v4.8c0,0.6-0.4,1-1,1h-8.9c-0.6,0-1-0.4-1-1V10c0-0.6,0.4-1,1-1H24.7 M24.7,7h-8.9
				c-1.7,0-3,1.3-3,3v4.8c0,1.7,1.3,3,3,3h8.9c1.7,0,3-1.3,3-3V10C27.7,8.4,26.4,7,24.7,7L24.7,7z"/>
		</g>
		<g>
			<path class="st4" d="M39,9c0.6,0,1,0.4,1,1v4.8c0,0.6-0.4,1-1,1h-8.9c-0.6,0-1-0.4-1-1V10c0-0.6,0.4-1,1-1H39 M39,7h-8.9
				c-1.7,0-3,1.3-3,3v4.8c0,1.7,1.3,3,3,3H39c1.7,0,3-1.3,3-3V10C42,8.4,40.7,7,39,7L39,7z"/>
		</g>
	</g>
	<path class="st2" d="M7.8,17.9V2.1c0-0.6,0.4-1,1-1h37.1c0.6,0,1,0.4,1,1v15.8"/>
</g>
</svg>
