<?xml version="1.0" encoding="utf-8"?>
<!-- Generator: Adobe Illustrator 22.0.1, SVG Export Plug-In . SVG Version: 6.00 Build 0)  -->
<svg version="1.1" id="Layer_1" xmlns="http://www.w3.org/2000/svg" xmlns:xlink="http://www.w3.org/1999/xlink" x="0px" y="0px"
	 viewBox="0 0 50 50" style="enable-background:new 0 0 50 50;" xml:space="preserve">
<style type="text/css">
	.st0{fill:none;stroke:#000000;stroke-width:3;stroke-miterlimit:10;}
	.st1{fill:none;stroke:#000000;stroke-width:3;stroke-linejoin:round;stroke-miterlimit:10;}
	.st2{fill:none;stroke:#5BAC55;stroke-width:3;stroke-miterlimit:10;}
	.st3{fill:none;stroke:#5BAC55;stroke-width:3;stroke-linejoin:round;stroke-miterlimit:10;}
	.st4{fill:#5BAC55;stroke:#5BAC55;stroke-miterlimit:10;}
</style>
<g>
	<path class="st0" d="M-1,30.6"/>
	<path class="st1" d="M28.3,23"/>
	<g>
		<path class="st2" d="M37.7,25.3c0-2.9,2.3-5.2,5.2-5.2c2.9,0,5.2,2.3,5.2,5.2s-3.7,5.4-3.7,5.4l-1.2,8.1c0,1.6-1.3,3-3,3H9.4
			c-1.7,0-3-1.4-3-3l-0.8-7.8c0,0-3.7-2.8-3.7-5.7s2.3-5.2,5.2-5.2s5.2,2.3,5.2,5.2"/>
		<polyline class="st3" points="37.7,25.1 36.3,36 13.5,36 12.2,25 		"/>
	</g>
	<g>
		<polygon class="st4" points="36.2,49.2 39.5,49.2 39,42.7 34.8,42.7 		"/>
		<polygon class="st4" points="13.8,49.2 10.5,49.2 11,42.7 15.2,42.7 		"/>
	</g>
	<path class="st2" d="M9.4,20.2V6.8c0-2.8,2.2-5,5-5h21.3c2.8,0,5,2.2,5,5v13.3"/>
	<line class="st2" x1="12.9" y1="30" x2="37.2" y2="30"/>
</g>
</svg>
