<?xml version="1.0" encoding="utf-8"?>
<!-- Generator: Adobe Illustrator 22.0.1, SVG Export Plug-In . SVG Version: 6.00 Build 0)  -->
<svg version="1.1" id="Layer_2" xmlns="http://www.w3.org/2000/svg" xmlns:xlink="http://www.w3.org/1999/xlink" x="0px" y="0px"
	 viewBox="0 0 80 80" style="enable-background:new 0 0 80 80;" xml:space="preserve">
<style type="text/css">
	.st0{fill:#4C4E54;}
	.st1{fill:none;stroke:#4C4E54;stroke-width:2.8346;stroke-miterlimit:10;}
</style>
<g>
	<g>
		<path class="st0" d="M40,6.8c4,0,7.2,3.2,7.2,7.2S44,21.2,40,21.2S32.8,18,32.8,14S36,6.8,40,6.8 M40,4c-5.5,0-10,4.5-10,10
			s4.5,10,10,10s10-4.5,10-10S45.5,4,40,4L40,4z"/>
	</g>
	<g>
		<g>
			<path class="st0" d="M17,58.8c4,0,7.2,3.2,7.2,7.2S21,73.2,17,73.2S9.8,70,9.8,66S13,58.8,17,58.8 M17,56c-5.5,0-10,4.5-10,10
				s4.5,10,10,10s10-4.5,10-10S22.5,56,17,56L17,56z"/>
		</g>
		<g>
			<path class="st0" d="M63,58.8c4,0,7.2,3.2,7.2,7.2S67,73.2,63,73.2S55.8,70,55.8,66S59,58.8,63,58.8 M63,56c-5.5,0-10,4.5-10,10
				s4.5,10,10,10s10-4.5,10-10S68.5,56,63,56L63,56z"/>
		</g>
	</g>
	<line class="st1" x1="45" y1="20.9" x2="61" y2="56.9"/>
	<line class="st1" x1="34.2" y1="20.9" x2="18.2" y2="56.9"/>
	<line class="st1" x1="25.6" y1="66.1" x2="54.3" y2="66.1"/>
</g>
</svg>
