<?xml version="1.0" encoding="utf-8"?>
<!-- Generator: Adobe Illustrator 22.0.1, SVG Export Plug-In . SVG Version: 6.00 Build 0)  -->
<svg version="1.1" id="Layer_1" xmlns="http://www.w3.org/2000/svg" xmlns:xlink="http://www.w3.org/1999/xlink" x="0px" y="0px"
	 viewBox="0 0 50 50" style="enable-background:new 0 0 50 50;" xml:space="preserve">
<style type="text/css">
	.st0{fill:#CE171F;}
	.st1{fill:#FFFFFF;}
	.st2{fill:#FFFFFF;stroke:#CE171F;stroke-width:2;stroke-linejoin:round;stroke-miterlimit:10;}
	.st3{fill:#CE171F;stroke:#CE171F;stroke-width:2;stroke-linejoin:round;stroke-miterlimit:10;}
	.st4{fill:#FFFFFF;stroke:#CE171F;stroke-width:3;stroke-linejoin:round;stroke-miterlimit:10;}
	.st5{fill:none;stroke:#CE171F;stroke-width:2;stroke-linejoin:round;stroke-miterlimit:10;}
</style>
<g>
	<g>
		<path class="st0" d="M31.3,3.1l1.8,20.8H16.9l1.8-20.8H31.3 M31.3,0.1H18.7c-1.6,0-2.9,1.2-3,2.7l-1.8,20.8
			c-0.1,0.8,0.2,1.7,0.8,2.3c0.6,0.6,1.4,1,2.2,1h16.2c0.8,0,1.6-0.4,2.2-1c0.6-0.6,0.9-1.4,0.8-2.3L34.3,2.8
			C34.2,1.3,32.9,0.1,31.3,0.1L31.3,0.1z"/>
	</g>
	<g>
		<path class="st1" d="M14.2,33.5c-0.8,0-1.5-0.7-1.5-1.5V30c0-0.8,0.7-1.5,1.5-1.5h21.6c0.8,0,1.5,0.7,1.5,1.5V32
			c0,0.8-0.7,1.5-1.5,1.5H14.2z"/>
		<path class="st0" d="M35.8,30V32H14.2V30H35.8 M35.8,27H14.2c-1.7,0-3,1.3-3,3V32c0,1.7,1.3,3,3,3h21.6c1.7,0,3-1.3,3-3V30
			C38.8,28.4,37.5,27,35.8,27L35.8,27z"/>
	</g>
	<polyline class="st2" points="11.5,31.1 9.7,31.1 9.7,19.3 	"/>
	<polyline class="st2" points="38.5,31.1 40.3,31.1 40.3,19.3 	"/>
	<circle class="st3" cx="9.6" cy="17.6" r="1.7"/>
	<circle class="st3" cx="14.1" cy="47.3" r="1.7"/>
	<circle class="st3" cx="35.7" cy="47.3" r="1.7"/>
	<circle class="st3" cx="40.3" cy="17.6" r="1.7"/>
	<line class="st4" x1="25" y1="34.7" x2="25" y2="43.7"/>
	<path class="st4" d="M14.2,44.6"/>
	<polyline class="st5" points="35.8,46.4 35.8,43.7 14.2,43.5 14.2,46.4 	"/>
</g>
</svg>
