<?xml version="1.0" encoding="utf-8"?>
<!-- Generator: Adobe Illustrator 22.0.1, SVG Export Plug-In . SVG Version: 6.00 Build 0)  -->
<svg version="1.1" id="Layer_2" xmlns="http://www.w3.org/2000/svg" xmlns:xlink="http://www.w3.org/1999/xlink" x="0px" y="0px"
	 viewBox="0 0 80 80" style="enable-background:new 0 0 80 80;" xml:space="preserve">
<style type="text/css">
	.st0{fill:none;stroke:#4C4E54;stroke-width:2.8346;stroke-miterlimit:10;}
</style>
<g>
	<path class="st0" d="M37,54.9l-22-4.4c-1.6,0-3-1.4-3-3v-14c0-1.7,1.4-3,3-3h50c1.7,0,3,1.4,3,3v14c0,1.6-1.3,3-3,3l-22,4.4l0,0"/>
	<path class="st0" d="M65,50.5v20c0,1.7-1.3,3-3,3H18c-1.6,0-3-1.3-3-3v-20"/>
	<path class="st0" d="M46,31.5v-5.2c0-0.4-0.3-0.8-0.7-0.8H34.7c-0.4,0-0.7,0.4-0.7,0.8v5.2"/>
	<rect x="38" y="52.5" class="st0" width="4" height="7"/>
</g>
</svg>
