<svg xmlns="http://www.w3.org/2000/svg" width="34" height="51" viewBox="0 0 34 51" xmlns:xlink="http://www.w3.org/1999/xlink"><defs><path id="active1" d="M12.29 27.916L9.02 43.794c-.214 1.038 1.121 1.652 1.77.814a118.36 118.36 0 0 0 .649-.844 388.322 388.322 0 0 0 6.881-9.28c.34-.476.673-.943.997-1.402 2.917-4.135 5.005-7.374 6-9.424 1.102-2.27 1.835-4.364 2.263-6.259.183-.727.31-1.494.371-2.273.05-.53.057-.918.045-1.155C27.98 6.252 21.72 0 13.998 0 6.267 0 0 6.267 0 13.999c0 6.486 4.354 11.953 10.36 13.553.627.165 1.271.287 1.93.364z"></path><filter id="active" width="200%" height="200%" x="-50%" y="-50%" filterUnits="objectBoundingBox"><feOffset dy="1" in="SourceAlpha" result="shadowOffsetOuter1"></feOffset><feGaussianBlur stdDeviation="1" in="shadowOffsetOuter1" result="shadowBlurOuter1"></feGaussianBlur><feColorMatrix values="0 0 0 0 0 0 0 0 0 0 0 0 0 0 0 0 0 0 0.200000003 0" in="shadowBlurOuter1"></feColorMatrix></filter></defs><g fill="none" transform="translate(3 3)"><use fill="#000" filter="url(#active)" xlink:href="#active1"></use><use fill="#FFF" fill-rule="evenodd" xlink:href="#active1"></use><path fill="#F33" d="M16.693 33.32c.34-.475.67-.938.988-1.39 2.96-4.194 4.932-7.282 5.836-9.145 1.002-2.065 1.703-4.018 2.122-5.874.157-.622.265-1.28.32-1.97a7.06 7.06 0 0 0 .039-.872C25.982 7.36 20.615 2 13.998 2 7.372 2 2 7.372 2 13.999c0 6.126 4.536 11.235 10.522 11.93l2.168.252-2.824 13.707a353.666 353.666 0 0 0 4.827-6.569z"></path><circle fill="#fff" cx="14" cy="14" r="4"></circle></g></svg>