<svg id="growth.svg" xmlns="http://www.w3.org/2000/svg" width="40" height="40" viewBox="0 0 40 40">
  <defs>
    <style>
      .cls-1, .cls-2 {
        fill: #fff;
        fill-rule: evenodd;
      }

      .cls-1 {
        opacity: 0.9;
      }
    </style>
  </defs>
  <path id="Rounded_Rectangle_938_copy_4" data-name="Rounded Rectangle 938 copy 4" class="cls-1" d="M590,317a6,6,0,0,1-6-6,20.9,20.9,0,0,1,6-13,20.9,20.9,0,0,1,6,13A6,6,0,0,1,590,317Z" transform="translate(-570 -296)"/>
  <path id="Rounded_Rectangle_938_copy_2" data-name="Rounded Rectangle 938 copy 2" class="cls-2" d="M579.975,327.441l-0.036.028c-3.865-2.406-3.928-5.156-3.928-5.156a8.114,8.114,0,0,1,6.291.816A2.494,2.494,0,1,1,579.975,327.441Zm17.769-4.312a8.031,8.031,0,0,1,6.256-.816s-0.062,2.75-3.906,5.156l-0.036-.028A2.491,2.491,0,1,1,597.744,323.129Zm11.185-20.6,0.007-.041a22.877,22.877,0,0,0-10.943.385c0.058,0.1.118,0.208,0.171,0.312a10.5,10.5,0,0,1,.634,1.544,20.859,20.859,0,0,1,5.445-.727,20.633,20.633,0,0,1,3.215.256,17.213,17.213,0,0,1-10.519,10.683,7.935,7.935,0,0,0,.992-2.939H598c0-.2-0.012-0.411-0.019-0.617,0.006-.128.019-0.254,0.019-0.383a7.961,7.961,0,0,0-.221-1.839c-0.785-5.305-3.685-10.41-7.779-13.158h0c-4.094,2.748-6.994,7.853-7.779,13.158A7.961,7.961,0,0,0,582,311c0,0.129.013,0.255,0.019,0.383C582.012,311.589,582,311.8,582,312h0.069a7.932,7.932,0,0,0,.984,2.927,17.213,17.213,0,0,1-10.48-10.671,20.643,20.643,0,0,1,3.215-.256,20.872,20.872,0,0,1,5.446.727,10.483,10.483,0,0,1,.633-1.544c0.054-.1.114-0.208,0.171-0.312a22.877,22.877,0,0,0-10.943-.385l0.007,0.041c-0.357.074-.72,0.135-1.071,0.226,0.059,0.289.149,0.565,0.221,0.849l-0.006,0c0.014,0.055.035,0.107,0.049,0.162,0.081,0.307.145,0.622,0.241,0.923l0.035-.007A19.272,19.272,0,0,0,584,317.323c0.279,0.074,1.242.318,1.742,0.436a7.959,7.959,0,0,0,3.275,1.169c0,0.025-.014.046-0.014,0.072v10.281l-3.418-1.951a4.392,4.392,0,0,0-1.741-5.751c-0.119-.068-0.245-0.106-0.367-0.161h0c-3.016-1.675-6.43-2.084-9.475-.134-0.175,3.371,1.912,6.289,4.929,7.964l0.011-.019c0.1,0.065.18,0.142,0.283,0.2a4.546,4.546,0,0,0,5.122-.5L589,331.588V335a1,1,0,0,0,2,0v-3.365l4.713-2.7a4.5,4.5,0,0,0,5.094.5c0.1-.059.185-0.136,0.281-0.2l0.011,0.019c3-1.675,5.076-4.593,4.9-7.964-3.028-1.95-6.423-1.541-9.423.134h0c-0.121.055-.247,0.093-0.365,0.161a4.4,4.4,0,0,0-1.731,5.751l-3.482,2V319c0-.026-0.013-0.048-0.015-0.074a7.973,7.973,0,0,0,3.342-1.216c0.517-.112,1.392-0.305,1.633-0.368a19.27,19.27,0,0,0,13.5-12.66l0.035,0.007c0.1-.3.16-0.616,0.241-0.923,0.015-.055.035-0.107,0.049-0.162l-0.006,0c0.072-.283.162-0.558,0.221-0.846V336H570V296h40v6.753C609.649,302.662,609.286,302.6,608.929,302.527Z" transform="translate(-570 -296)"/>
</svg>
