<svg id="ser_automatisation.svg" xmlns="http://www.w3.org/2000/svg" width="40" height="40" viewBox="0 0 40 40">
  <defs>
    <style>
      .cls-1, .cls-2 {
        fill: #fff;
        fill-rule: evenodd;
      }

      .cls-1 {
        opacity: 0.9;
      }
    </style>
  </defs>
  <path id="Ellipse_302_copy_5" data-name="Ellipse 302 copy 5" class="cls-1" d="M471.5,356a4.5,4.5,0,0,0-4.5,4.5,4.113,4.113,0,0,0,.111.858l8.089-3.378A4.463,4.463,0,0,0,471.5,356Zm0.5-24a4,4,0,1,0,4,4A4,4,0,0,0,472,332Zm-10,12a4,4,0,1,0,4,4A4,4,0,0,0,462,344Z" transform="translate(-450 -330)"/>
  <path id="Ellipse_302_copy_4" data-name="Ellipse 302 copy 4" class="cls-2" d="M450,330h40v40H450V330Zm2,40h-1l-1-1V337l1-1h1l4.255,1.791-0.013.04a0.985,0.985,0,0,1,.758.951,1,1,0,0,1-1,1,0.979,0.979,0,0,1-.359-0.073l0,0.009L452,338.184l-0.032,29.5,13.263-5.538A6.172,6.172,0,0,1,465,360.5a6.49,6.49,0,0,1,12.081-3.305L487.127,353,472.6,346.872l0.016-.033a1,1,0,0,1,.418-1.9,0.973,0.973,0,0,1,.451.121l0-.011L490,352v2Zm20-28a6,6,0,1,1,6-6A6,6,0,0,1,472,342Zm-4,6a6,6,0,1,1-6-6A6,6,0,0,1,468,348Z" transform="translate(-450 -330)"/>
</svg>
