<svg id="mobility.svg" xmlns="http://www.w3.org/2000/svg" width="50" height="50" viewBox="0 0 50 50">
  <defs>
    <style>
      .cls-1, .cls-2 {
        fill: #fff;
        fill-rule: evenodd;
      }

      .cls-1 {
        opacity: 0.9;
      }
    </style>
  </defs>
  <path id="Rounded_Rectangle_30_copy_7" data-name="Rounded Rectangle 30 copy 7" class="cls-1" d="M518.1,323.216A2.994,2.994,0,0,1,520,326v3H504v-5.067a6.638,6.638,0,0,0,5.367-3.8l8.727,3.058ZM486,329v-3a2.994,2.994,0,0,1,1.9-2.784l0.009-.029,8.727-3.058a6.636,6.636,0,0,0,5.367,3.8V329H486Zm8-33a6.972,6.972,0,0,1,2.074-4.969,7.971,7.971,0,0,0,.888,2.715A6.67,6.67,0,0,1,494,296.432V296Zm4-6c0-.105.012-0.207,0.019-0.311A6.943,6.943,0,0,1,501,289h4a6.976,6.976,0,0,1,6.936,6.366A9.589,9.589,0,0,1,506.5,297C501.806,297,498,293.866,498,290Z" transform="translate(-484 -281)"/>
  <path id="Rounded_Rectangle_30_copy_6" data-name="Rounded Rectangle 30 copy 6" class="cls-2" d="M520,331a2,2,0,0,0,2-2v-2.485c0-.058-0.012-0.114-0.017-0.171,0.007-.114.017-0.228,0.017-0.344a5,5,0,0,0-3.3-4.7l0.006-.01L510,318h-0.067a6.665,6.665,0,0,0,.067-0.667v-2.5c0.288-.311.57-0.637,0.845-0.985,1.325-1.678,2.853-3.774,3.1-6.1A4.693,4.693,0,0,0,516,303.5a4.743,4.743,0,0,0-2-4.225v-2.3h0v-1.494c0-5.035-3.267-7.488-7.761-8.226a9.939,9.939,0,0,0-2.217-.256h-2.045a9.963,9.963,0,0,0-2.2.253c-4.5.733-7.783,3.186-7.783,8.229v3.8A4.752,4.752,0,0,0,490,303.5a4.7,4.7,0,0,0,2.04,4.243c0.249,2.332,1.78,4.432,3.109,6.112,0.277,0.35.561,0.677,0.851,0.989v2.489a6.665,6.665,0,0,0,.067.667H496l-8.708,3.294,0.006,0.01A5,5,0,0,0,484,326V307a4,4,0,0,0,4,4h2.667l-1.334-2H488a2,2,0,0,1-2-2V285a2,2,0,0,1,2-2h42a2,2,0,0,1,2,2v22a2,2,0,0,1-2,2h-3v0.026a0.98,0.98,0,0,0-.773.336L522,313.6V310a1,1,0,0,0-1-1h-4.333l-1.334,2H520v5a1,1,0,0,0,1,1,0.815,0.815,0,0,0,.083-0.017c0.02,0,.039-0.009.06-0.012a0.965,0.965,0,0,0,.294-0.082,0.913,0.913,0,0,0,.114-0.077,1.04,1.04,0,0,0,.181-0.142c0.012-.013.029-0.018,0.041-0.032L527.4,311H530a4,4,0,0,0,4-4v24H520Zm2-29h4a1,1,0,0,0,0-2h-4A1,1,0,0,0,522,302Zm-1-5h5a1,1,0,0,0,0-2h-5A1,1,0,0,0,521,297Zm-1-5h6a1,1,0,0,0,0-2h-6A1,1,0,0,0,520,292Zm-36,34.515V326c0,0.116.009,0.23,0.017,0.344C484.012,326.4,484,326.457,484,326.515ZM530,281h4v4A4,4,0,0,0,530,281Zm-46,4v-4h4A4,4,0,0,0,484,285Zm2,46h-2v-2A2,2,0,0,0,486,331Zm2.955,0v0H488.6c0.05,0,.1-0.011.146-0.015C488.814,330.989,488.884,331,488.955,331ZM498,317v-0.449a9.39,9.39,0,0,0,10-.006V317A5,5,0,0,1,498,317Zm10.886-4.181a7.036,7.036,0,0,1-11.772,0A6.988,6.988,0,0,1,494,307v-1h-1c-0.552,0-1-1.119-1-2.5s0.448-2.5,1-2.5h1v-2.424a8.507,8.507,0,0,0,4.194-3.085A11.157,11.157,0,0,0,506.5,299a11.681,11.681,0,0,0,5.5-1.369V301h1c0.552,0,1,1.119,1,2.5s-0.448,2.5-1,2.5h-1v1A6.988,6.988,0,0,1,508.886,312.819ZM498,309a3,3,0,0,0,3,3h4a3,3,0,0,0,3-3v-2H498v2Zm2-7h-2a1,1,0,0,0,0,2h2A1,1,0,0,0,500,302Zm8,0h-2a1,1,0,0,0,0,2h2A1,1,0,0,0,508,302Zm-3,8h-4a1,1,0,0,1-1-1h6A1,1,0,0,1,505,310Zm12.257,20.985c0.049,0,.1.015,0.146,0.015h-0.358v0C517.116,331,517.186,330.989,517.257,330.985Z" transform="translate(-484 -281)"/>
</svg>
