<svg id="light.svg" xmlns="http://www.w3.org/2000/svg" width="40" height="40" viewBox="0 0 40 40">
  <defs>
    <style>
      .cls-1, .cls-2 {
        fill: #fff;
        fill-rule: evenodd;
      }

      .cls-1 {
        opacity: 0.9;
      }
    </style>
  </defs>
  <path id="Rounded_Rectangle_980_copy_8" data-name="Rounded Rectangle 980 copy 8" class="cls-1" d="M596,164a6,6,0,0,0-12,0v1h12v-1Z" transform="translate(-570 -156)"/>
  <path id="Rounded_Rectangle_980_copy_7" data-name="Rounded Rectangle 980 copy 7" class="cls-2" d="M570,156h40v40H570V156Zm34.5,38a5.409,5.409,0,0,1-3.952-1.726A5.992,5.992,0,0,1,590,193.309a5.992,5.992,0,0,1-10.548-1.035A5.409,5.409,0,0,1,575.5,194a5.5,5.5,0,0,1-5.5-5.5,5.4,5.4,0,0,1,1.029-3.181c0.083-.115.8-1.227,0.888-1.336,0.016-.019.045-0.04,0.064-0.059L582,169.639V164a8,8,0,0,1,16,0v5.639l10.019,14.285c0.019,0.019.048,0.04,0.064,0.059,0.092,0.109.805,1.221,0.888,1.336A5.4,5.4,0,0,1,610,188.5,5.5,5.5,0,0,1,604.5,194ZM596,167H584v2h12v-2Zm11.243,19.331a8.212,8.212,0,0,1-.453-0.7c-0.012-.014-0.028-0.02-0.039-0.035L605.8,184.24l-0.7-.99,0.007-.006L596.513,171H583.487L574.9,183.244l0.007,0.006-0.7.99-0.952,1.357c-0.011.015-.027,0.021-0.039,0.035a8.212,8.212,0,0,1-.453.7,3.493,3.493,0,1,0,5.818,3.815c0.057-.106.122-0.221,0.185-0.333a0.769,0.769,0,0,1,.025-0.125l5.25-15.053a1,1,0,1,1,1.846.77l-4.7,13.464L581,190a4,4,0,0,0,8,0V175a1,1,0,0,1,2,0v15a4,4,0,0,0,8,0l-0.185-1.131-4.7-13.464a1,1,0,0,1,1.846-.77l5.25,15.053a0.769,0.769,0,0,1,.025.125c0.063,0.112.128,0.227,0.185,0.333A3.493,3.493,0,1,0,607.243,186.331Z" transform="translate(-570 -156)"/>
</svg>
