<svg id="_8hours.svg" data-name="8hours.svg" xmlns="http://www.w3.org/2000/svg" width="50" height="50" viewBox="0 0 50 50">
  <defs>
    <style>
      .cls-1, .cls-2 {
        fill: #fff;
        fill-rule: evenodd;
      }

      .cls-1 {
        opacity: 0.9;
      }
    </style>
  </defs>
  <path id="Ellipse_297_copy_3" data-name="Ellipse 297 copy 3" class="cls-1" d="M374,500a21,21,0,1,1-21-21A21,21,0,0,1,374,500Zm-38,0a17,17,0,1,0,17-17A17,17,0,0,0,336,500Z" transform="translate(-328 -473)"/>
  <path id="Ellipse_297_copy_4" data-name="Ellipse 297 copy 4" class="cls-2" d="M328,523V482.5a9.337,9.337,0,0,0,1.8,5.5h1.363c0.163-.292.312-0.593,0.486-0.878,0,0,0,0,0,0a25.037,25.037,0,0,1,4.053-5.007l1.351,1.339a22.946,22.946,0,0,0,0,33.1l-4.777,4.757a0.984,0.984,0,0,0,0,1.4,1,1,0,0,0,1.4,0l4.855-4.835a22.963,22.963,0,0,0,28.936-.008l4.819,4.842a0.991,0.991,0,0,0,1.4-1.4l-4.737-4.759a22.946,22.946,0,0,0-.013-33.1l1.357-1.334a25.1,25.1,0,0,1,4.055,5.01l0,0c0.175,0.285.324,0.586,0.486,0.878H376.2a9.337,9.337,0,0,0,1.8-5.5,9.563,9.563,0,0,0-9.621-9.5H378v50H328Zm2.528-37.857a7.328,7.328,0,0,1-.5-2.643,7.549,7.549,0,0,1,7.6-7.5,7.639,7.639,0,0,1,3.518.856A27.3,27.3,0,0,0,330.528,485.143Zm45.446-2.643a7.328,7.328,0,0,1-.5,2.643,27.3,27.3,0,0,0-10.614-9.287,7.639,7.639,0,0,1,3.518-.856A7.549,7.549,0,0,1,375.974,482.5ZM344,476.8V475.4a9.642,9.642,0,0,0-6.373-2.4h30.746A9.642,9.642,0,0,0,362,475.4V476.8c0.172,0.07.348,0.131,0.52,0.2a25.476,25.476,0,0,1,6.276,3.78l-1.353,1.331a22.962,22.962,0,0,0-28.9.011l-1.346-1.334A25.411,25.411,0,0,1,343.48,477C343.652,476.93,343.828,476.869,344,476.8Zm-16,5.7V473h9.62A9.562,9.562,0,0,0,328,482.5ZM368,500a15,15,0,1,1-15-15A15,15,0,0,1,368,500Zm-3,1a1,1,0,1,0-1-1A1,1,0,0,0,365,501Zm-24-2a1,1,0,1,0,1,1A1,1,0,0,0,341,499Zm12,14a1,1,0,1,0-1-1A1,1,0,0,0,353,513Zm-5.346-17.737a1,1,0,0,0-1.414,1.414l3.863,2.583a2.963,2.963,0,0,0-.1.74,3,3,0,0,0,6,0,2.966,2.966,0,0,0-.305-1.3l6.065-6.064a1,1,0,1,0-1.414-1.415l-6.069,6.069a2.928,2.928,0,0,0-3.091.329ZM352,488a1,1,0,1,0,1-1A1,1,0,0,0,352,488Zm2,12a1,1,0,1,1-1-1A1,1,0,0,1,354,500Z" transform="translate(-328 -473)"/>
</svg>
