<svg id="content_icons.svg" xmlns="http://www.w3.org/2000/svg" xmlns:xlink="http://www.w3.org/1999/xlink" width="183.031" height="169" viewBox="0 0 183.031 169">
  <defs>
    <style>
      .cls-1 {
        fill: #999;
      }

      .cls-1, .cls-10, .cls-11, .cls-12, .cls-2, .cls-4, .cls-6, .cls-7, .cls-9 {
        fill-rule: evenodd;
      }

      .cls-2, .cls-3 {
        fill: #333;
      }

      .cls-4, .cls-5 {
        fill: #fff;
      }

      .cls-6 {
        fill: #f8f9fb;
      }

      .cls-7 {
        fill: #d6d6d6;
      }

      .cls-8 {
        opacity: 0.5;
        fill: url(#linear-gradient);
      }

      .cls-9 {
        fill: #ccd1d7;
      }

      .cls-10 {
        fill: #d30000;
      }

      .cls-11 {
        fill: #71ca12;
      }

      .cls-12 {
        fill: #e74150;
      }
    </style>
    <linearGradient id="linear-gradient" x1="34.5" y1="137" x2="6.5" y2="109" gradientUnits="userSpaceOnUse">
      <stop offset="0" stop-color="#fff"/>
      <stop offset="1" stop-color="#fff" stop-opacity="0"/>
    </linearGradient>
  </defs>
  <path id="Ellipse_217_copy_2" data-name="Ellipse 217 copy 2" class="cls-1" d="M718,350a1,1,0,1,1-1,1A1,1,0,0,1,718,350Zm5,0a1,1,0,1,1-1,1A1,1,0,0,1,723,350Zm5,0a1,1,0,1,1-1,1A1,1,0,0,1,728,350Z" transform="translate(-689 -342)"/>
  <g id="black">
    <path id="Rounded_Rectangle_613_copy_6" data-name="Rounded Rectangle 613 copy 6" class="cls-2" d="M759,367h-4v4a1,1,0,1,1-2,0v-4h-4a1,1,0,0,1,0-2h4v-4a1,1,0,0,1,2,0v4h4A1,1,0,0,1,759,367Z" transform="translate(-689 -342)"/>
    <rect id="Rounded_Rectangle_613_copy_5" data-name="Rounded Rectangle 613 copy 5" class="cls-3" x="45" y="23" width="12" height="2" rx="1" ry="1"/>
    <path id="Rounded_Rectangle_652_copy" data-name="Rounded Rectangle 652 copy" class="cls-2" d="M822,364.5a0.491,0.491,0,0,1-.2.393l-2.956,2.943a0.489,0.489,0,0,1-.7,0,0.5,0.5,0,0,1,0-.7L820.285,365H811.5a0.5,0.5,0,0,1,0-1H820.3l-2.151-2.164a0.5,0.5,0,0,1,0-.7,0.487,0.487,0,0,1,.7,0l2.959,2.976A0.49,0.49,0,0,1,822,364.5Z" transform="translate(-689 -342)"/>
    <path id="Shape_943_copy_2" data-name="Shape 943 copy 2" class="cls-2" d="M805,363l1.5-1.5A4.92,4.92,0,0,0,803,360a5,5,0,0,0-4.9,4h-1a5.988,5.988,0,0,1,5.9-5,5.92,5.92,0,0,1,4.227,1.773L809,359v4h-4Zm-5.5,5.5A4.913,4.913,0,0,0,803,370a5,5,0,0,0,4.9-4h1a5.988,5.988,0,0,1-5.9,5,5.921,5.921,0,0,1-4.228-1.773L797,371v-4h4Z" transform="translate(-689 -342)"/>
    <path id="Rounded_Rectangle_809_copy" data-name="Rounded Rectangle 809 copy" class="cls-2" d="M705,361h1a1,1,0,1,1,0,2h-1A1,1,0,1,1,705,361Zm0,4h1a1,1,0,0,1,0,2h-1A1,1,0,0,1,705,365Zm0,4h1a1,1,0,1,1,0,2h-1A1,1,0,1,1,705,369Zm5-8h6a1,1,0,1,1,0,2h-6A1,1,0,1,1,710,361Zm0,4h6a1,1,0,0,1,0,2h-6A1,1,0,0,1,710,365Zm0,4h6a1,1,0,1,1,0,2h-6A1,1,0,1,1,710,369Z" transform="translate(-689 -342)"/>
    <path id="Rounded_Rectangle_810_copy_4" data-name="Rounded Rectangle 810 copy 4" class="cls-2" d="M719.5,361h1a0.5,0.5,0,0,1,0,1h-1A0.5,0.5,0,0,1,719.5,361Zm4,0h8a0.5,0.5,0,0,1,0,1h-8A0.5,0.5,0,0,1,723.5,361Zm-4,3h1a0.5,0.5,0,0,1,0,1h-1A0.5,0.5,0,0,1,719.5,364Zm4,0h8a0.5,0.5,0,0,1,0,1h-8A0.5,0.5,0,0,1,723.5,364Zm-4,3h1a0.5,0.5,0,0,1,0,1h-1A0.5,0.5,0,0,1,719.5,367Zm4,0h8a0.5,0.5,0,0,1,0,1h-8A0.5,0.5,0,0,1,723.5,367Zm-4,3h1a0.5,0.5,0,0,1,0,1h-1A0.5,0.5,0,0,1,719.5,370Zm4,0h8a0.5,0.5,0,0,1,0,1h-8A0.5,0.5,0,0,1,723.5,370Z" transform="translate(-689 -342)"/>
    <path id="Rounded_Rectangle_809_copy_3" data-name="Rounded Rectangle 809 copy 3" class="cls-2" d="M690,361h1a1,1,0,1,1,0,2h-1A1,1,0,1,1,690,361Zm5,0h1a1,1,0,1,1,0,2h-1A1,1,0,1,1,695,361Zm5,0h1a1,1,0,1,1,0,2h-1A1,1,0,1,1,700,361Zm-10,4h1a1,1,0,0,1,0,2h-1A1,1,0,0,1,690,365Zm5,0h1a1,1,0,0,1,0,2h-1A1,1,0,0,1,695,365Zm5,0h1a1,1,0,0,1,0,2h-1A1,1,0,0,1,700,365Zm-10,4h1a1,1,0,1,1,0,2h-1A1,1,0,1,1,690,369Zm5,0h1a1,1,0,1,1,0,2h-1A1,1,0,1,1,695,369Zm5,0h1a1,1,0,1,1,0,2h-1A1,1,0,1,1,700,369Z" transform="translate(-689 -342)"/>
    <path id="Rounded_Rectangle_702_copy_4" data-name="Rounded Rectangle 702 copy 4" class="cls-2" d="M769.692,364.708a1.006,1.006,0,0,1-1.415,0L766,362.417l-2.3,2.291a1,1,0,0,1-1.414,0,0.989,0.989,0,0,1,0-1.406l3.016-3a1.006,1.006,0,0,1,1.414,0l2.985,3A0.991,0.991,0,0,1,769.692,364.708Z" transform="translate(-689 -342)"/>
    <path id="Rounded_Rectangle_702_copy_5" data-name="Rounded Rectangle 702 copy 5" class="cls-2" d="M769.692,367.293a1,1,0,0,0-1.415,0L766,369.6l-2.3-2.305a1,1,0,1,0-1.414,1.415l3.016,3.016a1,1,0,0,0,1.414,0l2.985-3.016A1,1,0,0,0,769.692,367.293Z" transform="translate(-689 -342)"/>
    <path id="Rounded_Rectangle_820_copy" data-name="Rounded Rectangle 820 copy" class="cls-2" d="M782,371h-3a1,1,0,0,1-1-1v-3a1,1,0,0,1,1-1h3a1,1,0,0,1,1,1v3A1,1,0,0,1,782,371Zm-1-3h-1v1h1v-1Zm1-3h-3a1,1,0,0,1-1-1v-3a1,1,0,0,1,1-1h3a1,1,0,0,1,1,1v3A1,1,0,0,1,782,365Zm-1-3h-1v1h1v-1Zm-5,9h-3a1,1,0,0,1-1-1v-3a1,1,0,0,1,1-1h3a1,1,0,0,1,1,1v3A1,1,0,0,1,776,371Zm-1-3h-1v1h1v-1Zm1-3h-3a1,1,0,0,1-1-1v-3a1,1,0,0,1,1-1h3a1,1,0,0,1,1,1v3A1,1,0,0,1,776,365Zm-1-3h-1v1h1v-1Z" transform="translate(-689 -342)"/>
    <path id="Rectangle_636_copy_2" data-name="Rectangle 636 copy 2" class="cls-2" d="M796.6,362.776L792,367.4V371l-2-1v-2.6l-4.6-4.624A0.982,0.982,0,0,1,785,362a1,1,0,0,1,.292-0.706c0.006-.007.008-0.015,0.014-0.022a0.968,0.968,0,0,1,.8-0.272h9.78a0.966,0.966,0,0,1,.8.272c0.006,0.006.008,0.014,0.014,0.021A0.993,0.993,0,0,1,797,362,0.982,0.982,0,0,1,796.6,362.776Zm-8.178.224L791,365.585,793.574,363h-5.148Z" transform="translate(-689 -342)"/>
  </g>
  <g id="white">
    <path id="Rounded_Rectangle_613_copy_6-2" data-name="Rounded Rectangle 613 copy 6" class="cls-4" d="M759,381h-4v4a1,1,0,1,1-2,0v-4h-4a1,1,0,0,1,0-2h4v-4a1,1,0,0,1,2,0v4h4A1,1,0,0,1,759,381Z" transform="translate(-689 -342)"/>
    <rect id="Rounded_Rectangle_613_copy_5-2" data-name="Rounded Rectangle 613 copy 5" class="cls-5" x="45" y="37" width="12" height="2" rx="1" ry="1"/>
    <path id="Rounded_Rectangle_652_copy-2" data-name="Rounded Rectangle 652 copy" class="cls-4" d="M822,378.5a0.491,0.491,0,0,1-.2.393l-2.956,2.943a0.489,0.489,0,0,1-.7,0,0.5,0.5,0,0,1,0-.7L820.285,379H811.5a0.5,0.5,0,0,1,0-1H820.3l-2.151-2.164a0.5,0.5,0,0,1,0-.7,0.487,0.487,0,0,1,.7,0l2.959,2.976A0.49,0.49,0,0,1,822,378.5Z" transform="translate(-689 -342)"/>
    <path id="Shape_943_copy_2-2" data-name="Shape 943 copy 2" class="cls-4" d="M805,377l1.5-1.5A4.92,4.92,0,0,0,803,374a5,5,0,0,0-4.9,4h-1a5.988,5.988,0,0,1,5.9-5,5.92,5.92,0,0,1,4.227,1.773L809,373v4h-4Zm-5.5,5.5A4.918,4.918,0,0,0,803,384a5,5,0,0,0,4.9-4h1a5.988,5.988,0,0,1-5.9,5,5.924,5.924,0,0,1-4.228-1.772L797,385v-4h4Z" transform="translate(-689 -342)"/>
    <path id="Rounded_Rectangle_809_copy-2" data-name="Rounded Rectangle 809 copy" class="cls-4" d="M705,375h1a1,1,0,0,1,0,2h-1A1,1,0,0,1,705,375Zm0,4h1a1,1,0,0,1,0,2h-1A1,1,0,0,1,705,379Zm0,4h1a1,1,0,1,1,0,2h-1A1,1,0,1,1,705,383Zm5-8h6a1,1,0,0,1,0,2h-6A1,1,0,0,1,710,375Zm0,4h6a1,1,0,0,1,0,2h-6A1,1,0,0,1,710,379Zm0,4h6a1,1,0,1,1,0,2h-6A1,1,0,1,1,710,383Z" transform="translate(-689 -342)"/>
    <path id="Rounded_Rectangle_810_copy_4-2" data-name="Rounded Rectangle 810 copy 4" class="cls-4" d="M719.5,375h1a0.5,0.5,0,0,1,0,1h-1A0.5,0.5,0,0,1,719.5,375Zm4,0h8a0.5,0.5,0,0,1,0,1h-8A0.5,0.5,0,0,1,723.5,375Zm-4,3h1a0.5,0.5,0,0,1,0,1h-1A0.5,0.5,0,0,1,719.5,378Zm4,0h8a0.5,0.5,0,0,1,0,1h-8A0.5,0.5,0,0,1,723.5,378Zm-4,3h1a0.5,0.5,0,0,1,0,1h-1A0.5,0.5,0,0,1,719.5,381Zm4,0h8a0.5,0.5,0,0,1,0,1h-8A0.5,0.5,0,0,1,723.5,381Zm-4,3h1a0.5,0.5,0,0,1,0,1h-1A0.5,0.5,0,0,1,719.5,384Zm4,0h8a0.5,0.5,0,0,1,0,1h-8A0.5,0.5,0,0,1,723.5,384Z" transform="translate(-689 -342)"/>
    <path id="Rounded_Rectangle_809_copy_3-2" data-name="Rounded Rectangle 809 copy 3" class="cls-4" d="M690,375h1a1,1,0,0,1,0,2h-1A1,1,0,0,1,690,375Zm5,0h1a1,1,0,0,1,0,2h-1A1,1,0,0,1,695,375Zm5,0h1a1,1,0,0,1,0,2h-1A1,1,0,0,1,700,375Zm-10,4h1a1,1,0,0,1,0,2h-1A1,1,0,0,1,690,379Zm5,0h1a1,1,0,0,1,0,2h-1A1,1,0,0,1,695,379Zm5,0h1a1,1,0,0,1,0,2h-1A1,1,0,0,1,700,379Zm-10,4h1a1,1,0,1,1,0,2h-1A1,1,0,1,1,690,383Zm5,0h1a1,1,0,1,1,0,2h-1A1,1,0,1,1,695,383Zm5,0h1a1,1,0,1,1,0,2h-1A1,1,0,1,1,700,383Z" transform="translate(-689 -342)"/>
    <path id="Rounded_Rectangle_809_copy_2" data-name="Rounded Rectangle 809 copy 2" class="cls-4" d="M820,355v-1a1,1,0,0,0,1,1h1a1,1,0,1,0,0-2h-1a1,1,0,0,0-1,1v-4a1,1,0,0,0,1,1h1a1,1,0,0,0,0-2h-1a1,1,0,0,0-1,1v-4a1,1,0,0,0,1,1h1a1,1,0,0,0,.007-2h3.986a1,1,0,0,0,.007,2h6a1,1,0,0,0,.007-2H833v10H820Zm12-6h-6a1,1,0,0,0,0,2h6A1,1,0,0,0,832,349Zm0,4h-6a1,1,0,1,0,0,2h6A1,1,0,1,0,832,353Zm-12-7v-1h0.993A1,1,0,0,0,820,346Z" transform="translate(-689 -342)"/>
    <path id="Rounded_Rectangle_810_copy_5" data-name="Rounded Rectangle 810 copy 5" class="cls-4" d="M835,355v-0.5a0.5,0.5,0,0,0,.5.5h1a0.5,0.5,0,0,0,0-1h-1a0.5,0.5,0,0,0-.5.5v-3a0.5,0.5,0,0,0,.5.5h1a0.5,0.5,0,0,0,0-1h-1a0.5,0.5,0,0,0-.5.5v-3a0.5,0.5,0,0,0,.5.5h1a0.5,0.5,0,0,0,0-1h-1a0.5,0.5,0,0,0-.5.5v-3a0.5,0.5,0,0,0,.5.5h1a0.5,0.5,0,0,0,.006-1h2.987a0.5,0.5,0,0,0,.007,1h8a0.5,0.5,0,0,0,.007-1H848v10H835Zm12.5-7h-8a0.5,0.5,0,0,0,0,1h8A0.5,0.5,0,0,0,847.5,348Zm0,3h-8a0.5,0.5,0,0,0,0,1h8A0.5,0.5,0,0,0,847.5,351Zm0,3h-8a0.5,0.5,0,0,0,0,1h8A0.5,0.5,0,0,0,847.5,354ZM835,345.5V345h0.493A0.5,0.5,0,0,0,835,345.5Z" transform="translate(-689 -342)"/>
    <path id="Rounded_Rectangle_809_copy_4" data-name="Rounded Rectangle 809 copy 4" class="cls-4" d="M805,355v-1a1,1,0,0,0,1,1h1a1,1,0,1,0,0-2h-1a1,1,0,0,0-1,1v-4a1,1,0,0,0,1,1h1a1,1,0,0,0,0-2h-1a1,1,0,0,0-1,1v-4a1,1,0,0,0,1,1h1a1,1,0,0,0,.007-2h3.986a1,1,0,0,0,.007,2h1a1,1,0,0,0,.006-2h3.987a1,1,0,0,0,.007,2h1a1,1,0,0,0,.007-2H818v10H805Zm7-6h-1a1,1,0,0,0,0,2h1A1,1,0,0,0,812,349Zm0,4h-1a1,1,0,1,0,0,2h1A1,1,0,1,0,812,353Zm5-4h-1a1,1,0,0,0,0,2h1A1,1,0,0,0,817,349Zm0,4h-1a1,1,0,1,0,0,2h1A1,1,0,1,0,817,353Zm-12-7v-1h0.993A1,1,0,0,0,805,346Z" transform="translate(-689 -342)"/>
    <path id="Rounded_Rectangle_702_copy_4-2" data-name="Rounded Rectangle 702 copy 4" class="cls-4" d="M769.692,378.708a1.006,1.006,0,0,1-1.415,0L766,376.416l-2.3,2.292a1,1,0,0,1-1.414,0,0.989,0.989,0,0,1,0-1.406l3.016-3a1,1,0,0,1,1.414,0l2.985,3A0.991,0.991,0,0,1,769.692,378.708Z" transform="translate(-689 -342)"/>
    <path id="Rounded_Rectangle_702_copy_5-2" data-name="Rounded Rectangle 702 copy 5" class="cls-4" d="M769.692,381.293a1,1,0,0,0-1.415,0L766,383.6l-2.3-2.305a1,1,0,1,0-1.414,1.415l3.016,3.016a1,1,0,0,0,1.414,0l2.985-3.016A1,1,0,0,0,769.692,381.293Z" transform="translate(-689 -342)"/>
    <path id="Rectangle_636_copy_3" data-name="Rectangle 636 copy 3" class="cls-4" d="M796.6,376.776L792,381.4V385l-2-1v-2.6l-4.6-4.625A0.983,0.983,0,0,1,785,376a1,1,0,0,1,.292-0.705c0.006-.007.008-0.016,0.014-0.022a0.972,0.972,0,0,1,.8-0.273h9.78a0.97,0.97,0,0,1,.8.273c0.006,0.006.008,0.014,0.014,0.021A0.993,0.993,0,0,1,797,376,0.983,0.983,0,0,1,796.6,376.776Zm-8.178.223L791,379.585,793.574,377h-5.148Z" transform="translate(-689 -342)"/>
    <path id="Rounded_Rectangle_820_copy_2" data-name="Rounded Rectangle 820 copy 2" class="cls-4" d="M782,385h-3a1,1,0,0,1-1-1v-3a1,1,0,0,1,1-1h3a1,1,0,0,1,1,1v3A1,1,0,0,1,782,385Zm-1-3h-1v1h1v-1Zm1-3h-3a1,1,0,0,1-1-1v-3a1,1,0,0,1,1-1h3a1,1,0,0,1,1,1v3A1,1,0,0,1,782,379Zm-1-3h-1v1h1v-1Zm-5,9h-3a1,1,0,0,1-1-1v-3a1,1,0,0,1,1-1h3a1,1,0,0,1,1,1v3A1,1,0,0,1,776,385Zm-1-3h-1v1h1v-1Zm1-3h-3a1,1,0,0,1-1-1v-3a1,1,0,0,1,1-1h3a1,1,0,0,1,1,1v3A1,1,0,0,1,776,379Zm-1-3h-1v1h1v-1Z" transform="translate(-689 -342)"/>
  </g>
  <path id="Rounded_Rectangle_702_copy_15" data-name="Rounded Rectangle 702 copy 15" class="cls-4" d="M762,393v-0.912a0.975,0.975,0,0,0,.277.62,1,1,0,0,0,1.414,0l2.3-2.291,2.281,2.291a1.006,1.006,0,0,0,1.415,0,0.991,0.991,0,0,0,0-1.406l-2.985-3a1.006,1.006,0,0,0-1.414,0l-3.016,3a0.975,0.975,0,0,0-.277.621V388h8v5h-8Z" transform="translate(-689 -342)"/>
  <path id="Rounded_Rectangle_702_copy_16" data-name="Rounded Rectangle 702 copy 16" class="cls-4" d="M762,395v0.912a0.975,0.975,0,0,1,.277-0.62,1,1,0,0,1,1.414,0l2.3,2.291,2.281-2.291a1.006,1.006,0,0,1,1.415,0,0.991,0.991,0,0,1,0,1.406l-2.985,3a1,1,0,0,1-1.414,0l-3.016-3a0.975,0.975,0,0,1-.277-0.62V400h8v-5h-8Z" transform="translate(-689 -342)"/>
  <path id="Rounded_Rectangle_839_copy_9" data-name="Rounded Rectangle 839 copy 9" class="cls-6" d="M768,355v-4.5a0.5,0.5,0,0,0,.5.5H772v3.5a0.5,0.5,0,0,0,1,0V351h3.5a0.5,0.5,0,0,0,0-1H773v-3.5a0.5,0.5,0,0,0-.5-0.5H777v9h-9Zm4-8.5V350h-3.5a0.5,0.5,0,0,0-.5.5V346h4.5A0.5,0.5,0,0,0,772,346.5Z" transform="translate(-689 -342)"/>
  <path id="Rounded_Rectangle_839_copy_8" data-name="Rounded Rectangle 839 copy 8" class="cls-6" d="M757,355v-4.5a0.5,0.5,0,0,0,.5.5h8a0.5,0.5,0,0,0,0-1h-8a0.5,0.5,0,0,0-.5.5V346h9v9h-9Z" transform="translate(-689 -342)"/>
  <path id="Rounded_Rectangle_839_copy_6" data-name="Rounded Rectangle 839 copy 6" class="cls-6" d="M744,356v-5.5a0.5,0.5,0,0,0,.5.5H749v4.5a0.5,0.5,0,0,0,1,0V351h4.5a0.5,0.5,0,0,0,0-1H750v-4.5a0.5,0.5,0,0,0-.5-0.5H755v11H744Zm5-10.5V350h-4.5a0.5,0.5,0,0,0-.5.5V345h5.5A0.5,0.5,0,0,0,749,345.5Z" transform="translate(-689 -342)"/>
  <path id="Rounded_Rectangle_839_copy_4" data-name="Rounded Rectangle 839 copy 4" class="cls-6" d="M731,356v-5.5a0.5,0.5,0,0,0,.5.5h10a0.5,0.5,0,0,0,0-1h-10a0.5,0.5,0,0,0-.5.5V345h11v11H731Z" transform="translate(-689 -342)"/>
  <path class="cls-4" d="M689,387l30,15-30,15V387Z" transform="translate(-689 -342)"/>
  <path id="Rounded_Rectangle_832_copy" data-name="Rounded Rectangle 832 copy" class="cls-4" d="M802.85,347.831l-7.015,6.993a0.5,0.5,0,0,1-.7,0l-2.991-3.043a0.5,0.5,0,0,1,.7-0.7l2.643,2.69,6.661-6.64A0.495,0.495,0,1,1,802.85,347.831Z" transform="translate(-689 -342)"/>
  <path id="Rounded_Rectangle_832_copy_3" data-name="Rounded Rectangle 832 copy 3" class="cls-2" d="M860.85,374.831l-7.015,6.993a0.5,0.5,0,0,1-.7,0l-2.991-3.043a0.495,0.495,0,0,1,.7-0.7l2.644,2.69,6.661-6.64A0.495,0.495,0,1,1,860.85,374.831Z" transform="translate(-689 -342)"/>
  <path id="Rounded_Rectangle_602_copy_2" data-name="Rounded Rectangle 602 copy 2" class="cls-4" d="M789.747,347.652l-6.008,7.071a1,1,0,0,1-1.414,0l-3.115-3.115a1,1,0,0,1,1.415-1.414l2.35,2.35,5.357-6.306A1,1,0,0,1,789.747,347.652Z" transform="translate(-689 -342)"/>
  <path id="Rounded_Rectangle_10_copy_13" data-name="Rounded Rectangle 10 copy 13" class="cls-2" d="M835.717,365.7l-4.022,4.017a0.993,0.993,0,0,1-1.405-1.4L832.608,366H825a1,1,0,0,1,0-2h7.61l-2.32-2.316a0.993,0.993,0,0,1,1.405-1.4l4.022,4.016A0.992,0.992,0,0,1,835.717,365.7Z" transform="translate(-689 -342)"/>
  <path id="Rounded_Rectangle_10_copy_14" data-name="Rounded Rectangle 10 copy 14" class="cls-4" d="M835.717,379.7l-4.022,4.017a0.993,0.993,0,0,1-1.405-1.4L832.608,380H825a1,1,0,0,1,0-2h7.61l-2.32-2.315a0.993,0.993,0,0,1,1.405-1.4l4.022,4.017A0.991,0.991,0,0,1,835.717,379.7Z" transform="translate(-689 -342)"/>
  <path id="Rounded_Rectangle_10_copy_15" data-name="Rounded Rectangle 10 copy 15" class="cls-4" d="M835.717,390.294l-4.022-4.016a0.986,0.986,0,0,0-.641-0.278H836v4.954A0.985,0.985,0,0,0,835.717,390.294Zm-5.427-4.016a0.993,0.993,0,0,0,0,1.4L832.61,390H825a1,1,0,0,0-1,1v-5h6.931A0.986,0.986,0,0,0,830.29,386.278ZM825,392h7.608l-2.318,2.313a0.987,0.987,0,0,0,.676,1.689H824v-5A1,1,0,0,0,825,392Zm6.7,3.717,4.022-4.017a0.983,0.983,0,0,0,.283-0.66V396h-4.98A0.991,0.991,0,0,0,831.7,395.715Z" transform="translate(-689 -342)"/>
  <path id="Rounded_Rectangle_856_copy_2" data-name="Rounded Rectangle 856 copy 2" class="cls-1" d="M729,432h-4l-2,2h-1v-2a2,2,0,0,1-2-2v-4a2,2,0,0,1,2-2h7a2,2,0,0,1,2,2v4A2,2,0,0,1,729,432Zm0-6h-7v4h7v-4Z" transform="translate(-689 -342)"/>
  <path id="facebook_copy_21" data-name="facebook copy 21" class="cls-1" d="M753.988,424.978L754.3,423a15.948,15.948,0,0,0-2.4.019,2.247,2.247,0,0,0-1.427.784,2.457,2.457,0,0,0-.477,1.6v1.591l-2-.014v2.007l2,0.007v6l2.013,0v-6h2.374l0.31-2.007h-2.684s0-1.285,0-1.51a0.562,0.562,0,0,1,.671-0.486C753.122,424.977,753.988,424.978,753.988,424.978Z" transform="translate(-689 -342)"/>
  <path id="Вконтакте_copy_26" data-name="Вконтакте copy 26" class="cls-1" d="M740.984,425.683v2.9a0.309,0.309,0,0,0,.4.312c0.279-.018.909-2.5,1.189-3.032a1.75,1.75,0,0,1,.686-0.735,0.575,0.575,0,0,1,.342-0.139h2.081a0.412,0.412,0,0,1,.279.648c-0.209.445-1.721,3.213-1.814,3.325a1.152,1.152,0,0,0-.221.491,1.048,1.048,0,0,0,.29.557c0.187,0.2,1.407,1.785,1.547,1.918a1.047,1.047,0,0,1,.256.513,0.7,0.7,0,0,1-.745.546c-0.583,0-1.42,0-1.583,0a2.618,2.618,0,0,1-.885-0.5c-0.21-.178-0.985-1.025-1.1-1.137a0.384,0.384,0,0,0-.326-0.129c-0.14,0-.4.014-0.392,0.521a1.718,1.718,0,0,1-.222,1.014,0.951,0.951,0,0,1-.685.245,5.37,5.37,0,0,1-2.895-.647c-1.464-.87-2.848-3.195-3.625-4.677a3.57,3.57,0,0,1-.522-2.417c0.046-.157.046-0.269,0.21-0.269s2.158,0,2.359,0a0.786,0.786,0,0,1,.326.291c0.07,0.09.2,1.613,0.358,1.881s0.84,1.736,1.275,1.736a0.539,0.539,0,0,0,.44-0.626c0-.357,0-1.761,0-1.941a1.765,1.765,0,0,0-.909-0.892,1.181,1.181,0,0,1,.862-0.44c0.558-.022,2.143-0.022,2.446.021A0.7,0.7,0,0,1,740.984,425.683Z" transform="translate(-689 -342)"/>
  <path class="cls-7" d="M706.684,428l2.5-.332a2.9,2.9,0,0,0,2.1-2.263,2.14,2.14,0,0,0-.369-2.074,2.164,2.164,0,0,1,2.866.479c0.59,0.819-.145,2.876-0.145,2.876s-0.489.35,0.394,0.332c1.69-.036,4.317-0.047,3.845,2.111-0.545,2.488-.6,3.1-1.008,4.511a1.565,1.565,0,0,1-1.677,1.324c-0.307,0-2.475.085-4.506,0.009-1.015-.038-1.826-0.948-2.281-0.961a12.148,12.148,0,0,0-1.718-.012L706,433.244v-4.457Z" transform="translate(-689 -342)"/>
  <path id="Rounded_Rectangle_856_copy_3" data-name="Rounded Rectangle 856 copy 3" class="cls-4" d="M720,448v-4a2,2,0,0,0,2,2v2h1l2-2h4a2,2,0,0,0,2-2v-4a2,2,0,0,0-1.993-2H731v10H720Zm2-4v-4h7v4h-7Zm-2-4v-2h1.993A2,2,0,0,0,720,440Z" transform="translate(-689 -342)"/>
  <path id="facebook_copy_22" data-name="facebook copy 22" class="cls-4" d="M748,449v-6.016l2,0.007v6l2.013,0v-6h2.374l0.31-2.007h-2.684s0-1.285,0-1.51a0.562,0.562,0,0,1,.671-0.486c0.439,0,1.305,0,1.305,0L754.3,437H755v12h-7Zm3.9-11.981a2.247,2.247,0,0,0-1.427.784,2.457,2.457,0,0,0-.477,1.6v1.591l-2-.014V437h4.064C752.01,437.006,751.95,437.011,751.9,437.019Z" transform="translate(-689 -342)"/>
  <path id="Вконтакте_copy_27" data-name="Вконтакте copy 27" class="cls-4" d="M745.716,439H746v0.287A0.383,0.383,0,0,0,745.716,439Zm-12.682.258a1.264,1.264,0,0,0-.034.2V439h0.222C733.092,439.015,733.077,439.113,733.034,439.258Zm9.535,0.605c-0.28.536-.91,3.014-1.189,3.032a0.309,0.309,0,0,1-.4-0.312v-2.9a0.7,0.7,0,0,0-.582-0.665c-0.052-.007-0.153-0.013-0.27-0.018h3.426a0.662,0.662,0,0,0-.3.128A1.75,1.75,0,0,0,742.569,439.863Zm-9.013,1.812c0.777,1.482,2.161,3.806,3.625,4.677a5.37,5.37,0,0,0,2.895.647,0.951,0.951,0,0,0,.685-0.245,1.718,1.718,0,0,0,.222-1.014c-0.012-.507.252-0.521,0.392-0.521a0.384,0.384,0,0,1,.326.129c0.116,0.112.891,0.959,1.1,1.137a2.618,2.618,0,0,0,.885.5c0.163,0,1,0,1.583,0A0.7,0.7,0,0,0,746,446.5V447H733v-7.1A4.568,4.568,0,0,0,733.556,441.675ZM746,439.445v6.923a1.092,1.092,0,0,0-.241-0.44c-0.14-.133-1.36-1.717-1.547-1.918a1.048,1.048,0,0,1-.29-0.557,1.152,1.152,0,0,1,.221-0.491c0.093-.112,1.605-2.88,1.814-3.326A0.541,0.541,0,0,0,746,439.445Zm-8,.884c0,0.18,0,1.584,0,1.941a0.539,0.539,0,0,1-.44.626c-0.435,0-1.112-1.467-1.275-1.736s-0.288-1.791-.358-1.881a0.948,0.948,0,0,0-.3-0.279h2.31a1.189,1.189,0,0,0-.848.437A1.765,1.765,0,0,1,738,440.329Z" transform="translate(-689 -342)"/>
  <path id="Shape_949_copy" data-name="Shape 949 copy" class="cls-4" d="M713.116,449c1.061-.009,1.892-0.038,2.073-0.038a1.565,1.565,0,0,0,1.677-1.324c0.407-1.409.463-2.023,1.008-4.511,0.472-2.158-2.155-2.147-3.845-2.111-0.883.018-.394-0.332-0.394-0.332s0.735-2.057.145-2.876a1.845,1.845,0,0,0-1.3-.808H718v12h-4.884Zm-2.2-11.671a2.14,2.14,0,0,1,.369,2.074,2.9,2.9,0,0,1-2.1,2.263l-2.5.332-0.684.789V437h5.893A3.143,3.143,0,0,0,710.914,437.329ZM706.684,448a12.148,12.148,0,0,1,1.718.012c0.455,0.013,1.266.923,2.281,0.961,0.454,0.017.912,0.025,1.356,0.029H706v-1.756Z" transform="translate(-689 -342)"/>
  <path id="Rounded_Rectangle_702_copy_14" data-name="Rounded Rectangle 702 copy 14" class="cls-2" d="M847.691,365.291a1,1,0,0,0-1.414,0L843,368.6l-3.3-3.308a1,1,0,0,0-1.414,1.414l4.016,4.018a1,1,0,0,0,1.414,0l3.984-4.018A1,1,0,0,0,847.691,365.291Z" transform="translate(-689 -342)"/>
  <path id="Rounded_Rectangle_702_copy_17" data-name="Rounded Rectangle 702 copy 17" class="cls-2" d="M847.691,362.709a1,1,0,0,1-1.414,0L843,359.418l-3.3,3.291a1,1,0,0,1-1.414,0,0.989,0.989,0,0,1,0-1.406l4.016-4a1,1,0,0,1,1.414,0l3.984,4A0.989,0.989,0,0,1,847.691,362.709Z" transform="translate(-689 -342)"/>
  <path id="Rounded_Rectangle_702_copy_19" data-name="Rounded Rectangle 702 copy 19" class="cls-4" d="M847.691,381.292a1,1,0,0,0-1.414,0L843,384.6l-3.3-3.308a1,1,0,0,0-1.414,1.413l4.016,4.019a1,1,0,0,0,1.414,0l3.984-4.019A1,1,0,0,0,847.691,381.292Z" transform="translate(-689 -342)"/>
  <path id="Rounded_Rectangle_702_copy_18" data-name="Rounded Rectangle 702 copy 18" class="cls-4" d="M847.691,378.71a1,1,0,0,1-1.414,0L843,375.418l-3.3,3.292a1,1,0,0,1-1.414,0,0.99,0.99,0,0,1,0-1.407l4.016-4a1,1,0,0,1,1.414,0l3.984,4A0.99,0.99,0,0,1,847.691,378.71Z" transform="translate(-689 -342)"/>
  <path id="Rounded_Rectangle_850_copy_2" data-name="Rounded Rectangle 850 copy 2" class="cls-2" d="M735,403h-3v-2h3v-3h2v3A2,2,0,0,1,735,403Zm0-14h-3v-2h3a2,2,0,0,1,2,2v3h-2v-3Zm-2,3v6a1,1,0,0,1-1,1h-6a1,1,0,0,1-1-1v-6a1,1,0,0,1,1-1h6A1,1,0,0,1,733,392Zm-2,1h-4v4h4v-4Zm-8-1h-2v-3a2,2,0,0,1,2-2h3v2h-3v3Zm0,9h3v2h-3a2,2,0,0,1-2-2v-3h2v3Z" transform="translate(-689 -342)"/>
  <path id="Rounded_Rectangle_850_copy_3" data-name="Rounded Rectangle 850 copy 3" class="cls-4" d="M735,421h-3v-2h3v-3h2v3A2,2,0,0,1,735,421Zm0-14h-3v-2h3a2,2,0,0,1,2,2v3h-2v-3Zm-2,3v6a1,1,0,0,1-1,1h-6a1,1,0,0,1-1-1v-6a1,1,0,0,1,1-1h6A1,1,0,0,1,733,410Zm-2,1h-4v4h4v-4Zm-8-1h-2v-3a2,2,0,0,1,2-2h3v2h-3v3Zm0,9h3v2h-3a2,2,0,0,1-2-2v-3h2v3Z" transform="translate(-689 -342)"/>
  <path id="Rounded_Rectangle_851_copy_4" data-name="Rounded Rectangle 851 copy 4" class="cls-2" d="M754.711,393.72l-5.027,4.988a0.978,0.978,0,0,1-1.395,0,1,1,0,0,1,0-1.411l4.318-4.284-4.318-4.312a1,1,0,0,1,0-1.41,0.98,0.98,0,0,1,1.395,0l5.027,5.019A1,1,0,0,1,754.711,393.72Z" transform="translate(-689 -342)"/>
  <path id="Rounded_Rectangle_851_copy_5" data-name="Rounded Rectangle 851 copy 5" class="cls-2" d="M739.288,393.72l5.027,4.988a0.979,0.979,0,0,0,1.4,0,1.006,1.006,0,0,0,0-1.411l-4.318-4.284,4.318-4.311a1.006,1.006,0,0,0,0-1.411,0.981,0.981,0,0,0-1.4,0l-5.027,5.019A1,1,0,0,0,739.288,393.72Z" transform="translate(-689 -342)"/>
  <path id="Rounded_Rectangle_851_copy_7" data-name="Rounded Rectangle 851 copy 7" class="cls-4" d="M754.711,407.72l-5.027,4.988a0.978,0.978,0,0,1-1.395,0,1,1,0,0,1,0-1.411l4.318-4.284-4.318-4.312a1,1,0,0,1,0-1.41,0.98,0.98,0,0,1,1.395,0l5.027,5.019A1,1,0,0,1,754.711,407.72Z" transform="translate(-689 -342)"/>
  <path id="Rounded_Rectangle_851_copy_6" data-name="Rounded Rectangle 851 copy 6" class="cls-4" d="M739.288,407.721l5.027,4.987a0.979,0.979,0,0,0,1.4,0,1.006,1.006,0,0,0,0-1.411l-4.318-4.284,4.318-4.311a1.006,1.006,0,0,0,0-1.411,0.981,0.981,0,0,0-1.4,0l-5.027,5.019A1.006,1.006,0,0,0,739.288,407.721Z" transform="translate(-689 -342)"/>
  <path id="Rounded_Rectangle_851_copy_9" data-name="Rounded Rectangle 851 copy 9" class="cls-4" d="M748,451h7v12h-7V451Zm6.711,6.72-5.027,4.988a0.978,0.978,0,0,1-1.395,0,1,1,0,0,1,0-1.411l4.318-4.284-4.318-4.312a1,1,0,0,1,0-1.41,0.98,0.98,0,0,1,1.395,0l5.027,5.019A1,1,0,0,1,754.711,457.72Z" transform="translate(-689 -342)"/>
  <path id="Rounded_Rectangle_851_copy_10" data-name="Rounded Rectangle 851 copy 10" class="cls-4" d="M739,451h7v12h-7V451Zm0.288,6.72,5.028,4.988a0.978,0.978,0,0,0,1.395,0,1.006,1.006,0,0,0,0-1.411l-4.318-4.284,4.318-4.312a1,1,0,0,0,0-1.41,0.98,0.98,0,0,0-1.395,0l-5.028,5.019A1,1,0,0,0,739.288,457.72Z" transform="translate(-689 -342)"/>
  <path id="Rounded_Rectangle_894_copy_10" data-name="Rounded Rectangle 894 copy 10" class="cls-2" d="M780,387a8,8,0,1,1-8,8A8,8,0,0,1,780,387Zm0,2a6,6,0,1,1-6,6A6,6,0,0,1,780,389Zm0,2a1,1,0,1,1-1,1A1,1,0,0,1,780,391Zm0,3a1,1,0,0,1,1,1v3a1,1,0,0,1-2,0v-3A1,1,0,0,1,780,394Z" transform="translate(-689 -342)"/>
  <path id="Rounded_Rectangle_652_copy_5" data-name="Rounded Rectangle 652 copy 5" class="cls-2" d="M796.869,394.84l-2.983,2.964a0.48,0.48,0,0,1-.784-0.017l-2.935-2.947a0.49,0.49,0,0,1,0-.7,0.5,0.5,0,0,1,.7,0l2.13,2.139V387.5a0.5,0.5,0,0,1,1,0v8.8l2.166-2.153a0.5,0.5,0,0,1,.7,0A0.49,0.49,0,0,1,796.869,394.84Z" transform="translate(-689 -342)"/>
  <path id="Rounded_Rectangle_652_copy_6" data-name="Rounded Rectangle 652 copy 6" class="cls-4" d="M805.869,394.84l-2.983,2.964a0.48,0.48,0,0,1-.784-0.017l-2.935-2.947a0.49,0.49,0,0,1,0-.7,0.5,0.5,0,0,1,.7,0l2.13,2.139V387.5a0.5,0.5,0,0,1,1,0v8.8l2.166-2.153a0.5,0.5,0,0,1,.7,0A0.49,0.49,0,0,1,805.869,394.84Z" transform="translate(-689 -342)"/>
  <path id="Rounded_Rectangle_652_copy_7" data-name="Rounded Rectangle 652 copy 7" class="cls-4" d="M808,387h7v11h-7V387Zm6.869,7.84-2.983,2.964a0.48,0.48,0,0,1-.784-0.017l-2.935-2.947a0.49,0.49,0,0,1,0-.7,0.5,0.5,0,0,1,.7,0l2.13,2.139V387.5a0.5,0.5,0,0,1,1,0v8.8l2.166-2.153a0.5,0.5,0,0,1,.7,0A0.49,0.49,0,0,1,814.869,394.84Z" transform="translate(-689 -342)"/>
  <path id="Ellipse_223_copy_8" data-name="Ellipse 223 copy 8" class="cls-2" d="M825,411a2.974,2.974,0,0,1-1.858-.661l-3.218,2.01a2.826,2.826,0,0,1,0,1.3l3.218,2.01A2.968,2.968,0,0,1,825,415a3.018,3.018,0,1,1-2.925,2.349l-3.218-2.01a3,3,0,1,1,0-4.678l3.218-2.01A3,3,0,1,1,825,411Zm0,8a1,1,0,1,0-1-1A1,1,0,0,0,825,419Zm-8-7a1,1,0,1,0,1,1A1,1,0,0,0,817,412Zm8-5a1,1,0,1,0,1,1A1,1,0,0,0,825,407Z" transform="translate(-689 -342)"/>
  <path id="Rectangle_665_copy_4" data-name="Rectangle 665 copy 4" class="cls-2" d="M810,418h-2v3h-8v-3h-2a2,2,0,0,1-2-2v-5a2,2,0,0,1,2-2h2v-4h8v4h2a2,2,0,0,1,2,2v5A2,2,0,0,1,810,418Zm-8,1h4v-4h-4v4Zm4-12h-4v2h4v-2Zm4,4H798v5h2v-3h8v3h2v-5Z" transform="translate(-689 -342)"/>
  <path id="Ellipse_217_copy_6" data-name="Ellipse 217 copy 6" class="cls-2" d="M781,420a1,1,0,0,0,1-1v-1a10,10,0,0,1,10-10h1a1,1,0,0,0,0-2h-1a12,12,0,0,0-12,12v1A1,1,0,0,0,781,420Zm12-9h-1a7,7,0,0,0-7,7v1a1,1,0,0,0,2,0v-1a5,5,0,0,1,5-5h1A1,1,0,0,0,793,411Zm-1,5a2,2,0,1,0,2,2A2,2,0,0,0,792,416Z" transform="translate(-689 -342)"/>
  <path id="Rounded_Rectangle_873_copy_3" data-name="Rounded Rectangle 873 copy 3" class="cls-4" d="M778,423.856a0.949,0.949,0,0,1,0,.226c0,0.007,0,.013,0,0.02a0.955,0.955,0,0,1-.112.357l-4.958,10.883a0.927,0.927,0,0,1-.046.153,0.974,0.974,0,0,1-.179.214h0a0.974,0.974,0,0,1-.28.2c-0.017.008-.032,0.019-0.05,0.026a0.972,0.972,0,0,1-.267.063,1.07,1.07,0,0,1-.127.012,0.989,0.989,0,0,1-.213-0.036,1.01,1.01,0,0,1-.132-0.022c-0.021-.009-0.035-0.026-0.056-0.036s-0.036-.007-0.052-0.016l-3.133-1.8-3.523,4.4a22.232,22.232,0,0,1-.2.229,0.96,0.96,0,0,1-.218.147,0.838,0.838,0,0,1-.1.047,0.975,0.975,0,0,1-.3.06c-0.019,0-.035.011-0.054,0.011s-0.017,0-.026,0a0.968,0.968,0,0,1-.293-0.06,0.821,0.821,0,0,1-.1-0.033,0.61,0.61,0,0,1-.082-0.028,0.906,0.906,0,0,1-.131-0.116,1,1,0,0,1-.1-0.091,0.983,0.983,0,0,1-.13-0.192,0.941,0.941,0,0,1-.069-0.143,1.032,1.032,0,0,1-.043-0.213A0.964,0.964,0,0,1,763,438v-6.986l-5.32-3.05a0.979,0.979,0,0,1-.618-0.621,1.19,1.19,0,0,1-.044-0.118c0-.014-0.012-0.024-0.014-0.039a0.722,0.722,0,0,1,0-.081,0.966,0.966,0,0,1,1.118-1.113L776.851,423c0.027,0,.052,0,0.078,0s0.047,0,.071,0a0.98,0.98,0,0,1,.307.037,0.906,0.906,0,0,1,.089.042,0.96,0.96,0,0,1,.233.128,1.008,1.008,0,0,1,.122.13,0.957,0.957,0,0,1,.119.15c0.011,0.018.029,0.029,0.039,0.048a1,1,0,0,1,.059.212,0.661,0.661,0,0,1,.028.074A0.226,0.226,0,0,1,778,423.856Zm-6.453,9.739,3.332-7.314-8.3,4.467ZM765,435.17l1.651-2.064L765,432.16v3.01Zm-0.462-5.59,6.83-3.676-10.359,1.653Z" transform="translate(-689 -342)"/>
  <path id="Ellipse_223_copy_9" data-name="Ellipse 223 copy 9" class="cls-4" d="M825,429a2.974,2.974,0,0,1-1.858-.661l-3.218,2.01a2.826,2.826,0,0,1,0,1.3l3.218,2.01A2.968,2.968,0,0,1,825,433a3.018,3.018,0,1,1-2.925,2.349l-3.218-2.01a3,3,0,1,1,0-4.678l3.218-2.01A3,3,0,1,1,825,429Zm0,8a1,1,0,1,0-1-1A1,1,0,0,0,825,437Zm-8-7a1,1,0,1,0,1,1A1,1,0,0,0,817,430Zm8-5a1,1,0,1,0,1,1A1,1,0,0,0,825,425Z" transform="translate(-689 -342)"/>
  <path id="Rectangle_665_copy_5" data-name="Rectangle 665 copy 5" class="cls-4" d="M810,436h-2v3h-8v-3h-2a2,2,0,0,1-2-2v-5a2,2,0,0,1,2-2h2v-4h8v4h2a2,2,0,0,1,2,2v5A2,2,0,0,1,810,436Zm-8,1h4v-4h-4v4Zm4-12h-4v2h4v-2Zm4,4H798v5h2v-3h8v3h2v-5Z" transform="translate(-689 -342)"/>
  <path id="Ellipse_217_copy_7" data-name="Ellipse 217 copy 7" class="cls-4" d="M781,438a1,1,0,0,0,1-1v-1a10,10,0,0,1,10-10h1a1,1,0,0,0,0-2h-1a12,12,0,0,0-12,12v1A1,1,0,0,0,781,438Zm12-9h-1a7,7,0,0,0-7,7v1a1,1,0,0,0,2,0v-1a5,5,0,0,1,5-5h1A1,1,0,0,0,793,429Zm-1,5a2,2,0,1,0,2,2A2,2,0,0,0,792,434Z" transform="translate(-689 -342)"/>
  <path id="Rounded_Rectangle_873_copy_4" data-name="Rounded Rectangle 873 copy 4" class="cls-4" d="M757,441h21v16H757V441Zm21,0.856a0.949,0.949,0,0,1,0,.226c0,0.007,0,.013,0,0.02a0.955,0.955,0,0,1-.112.357l-4.958,10.883a0.927,0.927,0,0,1-.046.153,0.974,0.974,0,0,1-.179.214h0a0.974,0.974,0,0,1-.28.2c-0.017.008-.032,0.019-0.05,0.026a0.972,0.972,0,0,1-.267.063,1.07,1.07,0,0,1-.127.012,0.989,0.989,0,0,1-.213-0.036,1.01,1.01,0,0,1-.132-0.022c-0.021-.009-0.035-0.026-0.056-0.036s-0.036-.007-0.052-0.016l-3.133-1.8-3.523,4.4a22.232,22.232,0,0,1-.2.229,0.96,0.96,0,0,1-.218.147,0.838,0.838,0,0,1-.1.047,0.975,0.975,0,0,1-.3.06c-0.019,0-.035.011-0.054,0.011s-0.017,0-.026,0a0.968,0.968,0,0,1-.293-0.06,0.821,0.821,0,0,1-.1-0.033,0.61,0.61,0,0,1-.082-0.028,0.906,0.906,0,0,1-.131-0.116,0.894,0.894,0,0,1-.1-0.091,0.983,0.983,0,0,1-.13-0.192,0.941,0.941,0,0,1-.069-0.143,1.032,1.032,0,0,1-.043-0.213A0.964,0.964,0,0,1,763,456v-6.986l-5.32-3.05a0.979,0.979,0,0,1-.618-0.621,1.19,1.19,0,0,1-.044-0.118c0-.014-0.012-0.024-0.014-0.039a0.722,0.722,0,0,1,0-.081,0.966,0.966,0,0,1,1.118-1.113L776.851,441c0.027,0,.052,0,0.078,0s0.047,0,.071,0a0.98,0.98,0,0,1,.307.037,0.906,0.906,0,0,1,.089.042,0.96,0.96,0,0,1,.233.128,1.008,1.008,0,0,1,.122.13,0.957,0.957,0,0,1,.119.15c0.011,0.018.029,0.029,0.039,0.048a1,1,0,0,1,.059.212,0.661,0.661,0,0,1,.028.074A0.226,0.226,0,0,1,778,441.856Zm-6.453,9.739,3.332-7.314-8.3,4.467ZM765,453.17l1.651-2.064L765,450.16v3.01Zm-0.462-5.59,6.83-3.676-10.359,1.653Z" transform="translate(-689 -342)"/>
  <path id="Ellipse_223_copy_10" data-name="Ellipse 223 copy 10" class="cls-4" d="M826,454a1,1,0,1,1-1-1A1,1,0,0,1,826,454Zm-12,3v-8a2.984,2.984,0,0,0,4.857,2.337l3.218,2.01a3.039,3.039,0,1,0,1.067-1.688l-3.218-2.01a2.826,2.826,0,0,0,0-1.3l3.218-2.01A2.994,2.994,0,1,0,825.024,441H828v16H814Zm12-13a1,1,0,1,1-1-1A1,1,0,0,1,826,444Zm-8,5a1,1,0,1,1-1-1A1,1,0,0,1,818,449Zm4-5a2.975,2.975,0,0,0,.075.652l-3.218,2.01A2.967,2.967,0,0,0,817,446a3,3,0,0,0-3,3v-8h10.975A3,3,0,0,0,822,444Z" transform="translate(-689 -342)"/>
  <path id="Rectangle_665_copy_6" data-name="Rectangle 665 copy 6" class="cls-4" d="M796,457v-5a2,2,0,0,0,2,2h2v3h8v-3h2a2,2,0,0,0,2-2v-5a2,2,0,0,0-2-2h-2v-4h4v16H796Zm6-12v-2h4v2h-4Zm0,10v-4h4v4h-4Zm-4-3v-5h12v5h-2v-3h-8v3h-2Zm2-7h-2a2,2,0,0,0-2,2v-6h4v4Z" transform="translate(-689 -342)"/>
  <path id="Ellipse_217_copy_8" data-name="Ellipse 217 copy 8" class="cls-4" d="M780,442h14v14H780V442Zm1,14a1,1,0,0,0,1-1v-1a10,10,0,0,1,10-10h1a1,1,0,0,0,0-2h-1a12,12,0,0,0-12,12v1A1,1,0,0,0,781,456Zm12-9h-1a7,7,0,0,0-7,7v1a1,1,0,0,0,2,0v-1a5,5,0,0,1,5-5h1A1,1,0,0,0,793,447Zm-1,5a2,2,0,1,0,2,2A2,2,0,0,0,792,452Z" transform="translate(-689 -342)"/>
  <path id="Rounded_Rectangle_668" data-name="Rounded Rectangle 668" class="cls-2" d="M860,420H849a2,2,0,0,1-2-2V407a2,2,0,0,1,2-2h11a2,2,0,0,1,2,2v11A2,2,0,0,1,860,420Zm0-13H849v11h11V407Z" transform="translate(-689 -342)"/>
  <path id="Rounded_Rectangle_670" data-name="Rounded Rectangle 670" class="cls-2" d="M843,420h-3a2,2,0,0,1-2-2v-5h5a2,2,0,0,1,2,2v3A2,2,0,0,1,843,420Zm0-5h-3v3h3v-3Zm0-3h-5v-5a2,2,0,0,1,2-2h3a2,2,0,0,1,2,2v3A2,2,0,0,1,843,412Zm0-5h-3v3h3v-3Zm-8,13h-3a2,2,0,0,1-2-2v-3a2,2,0,0,1,2-2h5v5A2,2,0,0,1,835,420Zm0-5h-3v3h3v-3Zm-1.5-3H832a2,2,0,0,1-2-2v-3a2,2,0,0,1,2-2h3a2,2,0,0,1,2,2v5h-3.5Zm1.5-5h-3v3h3v-3Z" transform="translate(-689 -342)"/>
  <path id="Rounded_Rectangle_668_copy" data-name="Rounded Rectangle 668 copy" class="cls-4" d="M847,422h15v15H847V422Zm13,15H849a2,2,0,0,1-2-2V424a2,2,0,0,1,2-2h11a2,2,0,0,1,2,2v11A2,2,0,0,1,860,437Zm0-13H849v11h11V424Z" transform="translate(-689 -342)"/>
  <path id="Rounded_Rectangle_670_copy" data-name="Rounded Rectangle 670 copy" class="cls-4" d="M835,435h-3v-3h3v3Zm-5,2v-2a2,2,0,0,0,2,2h3a2,2,0,0,0,2-2v-5h-5a2,2,0,0,0-2,2v-5a2,2,0,0,0,2,2h5v-5a2,2,0,0,0-2-2h5a2,2,0,0,0-2,2v5h5a2,2,0,0,0,2-2v-3a2,2,0,0,0-2-2h2v15H830Zm15-5a2,2,0,0,0-2-2h-5v5a2,2,0,0,0,2,2h3a2,2,0,0,0,2-2v-3Zm-5,0h3v3h-3v-3Zm0-5v-3h3v3h-3Zm-8,0v-3h3v3h-3Zm-2-3v-2h2A2,2,0,0,0,830,424Z" transform="translate(-689 -342)"/>
  <path id="_copy_5" data-name="” copy 5" class="cls-4" d="M728.727,457.057a10.883,10.883,0,0,0-3.5-4.447A8.441,8.441,0,0,0,720.143,451a8.15,8.15,0,0,0-5.846,2.176A7.242,7.242,0,0,0,712,458.665a5.785,5.785,0,0,0,1.924,4.636,8.392,8.392,0,0,0,5.624,1.656,6.224,6.224,0,0,1,2.812.4,2.324,2.324,0,0,1,.641,1.963,7.872,7.872,0,0,1-2.96,5.741,18.537,18.537,0,0,1-4.982,3l0.006,0.025A1.482,1.482,0,0,0,714,477.5a1.5,1.5,0,0,0,1.5,1.5h-23a1.505,1.505,0,0,0,.189-0.038l0,0.007a17.255,17.255,0,0,0,5.771-2.154,20.448,20.448,0,0,0,6.3-5.88,12.409,12.409,0,0,0,2.244-7.445,15.477,15.477,0,0,0-1.282-6.433,10.883,10.883,0,0,0-3.5-4.447A8.441,8.441,0,0,0,697.143,451a8.15,8.15,0,0,0-5.846,2.176A7.242,7.242,0,0,0,689,458.665a5.785,5.785,0,0,0,1.924,4.636,8.392,8.392,0,0,0,5.624,1.656,6.224,6.224,0,0,1,2.812.4,2.324,2.324,0,0,1,.641,1.963,7.872,7.872,0,0,1-2.96,5.741,18.537,18.537,0,0,1-4.982,3l0.006,0.025A1.482,1.482,0,0,0,691,477.5a1.5,1.5,0,0,0,1.5,1.5H689V451h41v12.288A15.381,15.381,0,0,0,728.727,457.057ZM715.69,478.969a17.252,17.252,0,0,0,5.772-2.154,20.448,20.448,0,0,0,6.3-5.88A12.4,12.4,0,0,0,730,463.794V479H715.5a1.505,1.505,0,0,0,.189-0.038v0.007Z" transform="translate(-689 -342)"/>
  <rect class="cls-8" y="109" width="41" height="28"/>
  <path id="_copy_8" data-name="” copy 8" class="cls-9" d="M690.367,346.9a12.451,12.451,0,0,1,3.854-3.57,11.668,11.668,0,0,1,3.76-1.308v0A0.867,0.867,0,0,1,698.1,342a0.915,0.915,0,0,1,.918.911,0.9,0.9,0,0,1-.653.857l0,0.015a13.051,13.051,0,0,0-3.277,1.821c-1.2,1.029-2.185,1.887-2.152,2.958a1.265,1.265,0,0,0,.6,1.109,4.211,4.211,0,0,0,1.853.327,5.158,5.158,0,0,1,3.439,1.039,4.634,4.634,0,0,1,1.177,3.309,4.384,4.384,0,0,1-1.4,3.332A5.006,5.006,0,0,1,695.028,359a5.194,5.194,0,0,1-3.108-.976,6.616,6.616,0,0,1-2.141-2.7,9.333,9.333,0,0,1-.785-3.907A7.494,7.494,0,0,1,690.367,346.9Zm13,0a12.451,12.451,0,0,1,3.854-3.57,11.668,11.668,0,0,1,3.76-1.308v0A0.867,0.867,0,0,1,711.1,342a0.915,0.915,0,0,1,.918.911,0.9,0.9,0,0,1-.653.857l0,0.015a13.051,13.051,0,0,0-3.277,1.821c-1.2,1.029-2.185,1.887-2.152,2.958a1.265,1.265,0,0,0,.6,1.109,4.213,4.213,0,0,0,1.854.327,5.156,5.156,0,0,1,3.438,1.039,4.634,4.634,0,0,1,1.177,3.309,4.384,4.384,0,0,1-1.4,3.332A5.006,5.006,0,0,1,708.028,359a5.194,5.194,0,0,1-3.108-.976,6.616,6.616,0,0,1-2.141-2.7,9.333,9.333,0,0,1-.785-3.907A7.494,7.494,0,0,1,703.367,346.9Z" transform="translate(-689 -342)"/>
  <path id="Rounded_Rectangle_818_copy_6" data-name="Rounded Rectangle 818 copy 6" class="cls-2" d="M860.017,346.006h0l-0.026,5.043a0.985,0.985,0,0,1-.99.99,1,1,0,0,1-1-1l0.014-2.672-6.327,6.352a1,1,0,1,1-1.414-1.414L856.563,347h-2.578a1,1,0,0,1-1-1,0.984,0.984,0,0,1,.989-0.99l4.771,0a1.008,1.008,0,0,1,1.269.96v0.036h0Z" transform="translate(-689 -342)"/>
  <path id="Rounded_Rectangle_853" data-name="Rounded Rectangle 853" class="cls-2" d="M859.717,364.686l-4.027,4.032c-0.006.006-.015,0.007-0.021,0.013a1.01,1.01,0,0,1-.29.192h0a1.084,1.084,0,0,1-1.1-.2l-3.993-4.032a0.983,0.983,0,0,1,0-1.4,1,1,0,0,1,1.41,0l2.3,2.325V358a1,1,0,0,1,2,0v7.6l2.308-2.31a1,1,0,0,1,1.409,0A0.984,0.984,0,0,1,859.717,364.686ZM851,370h8a1,1,0,0,1,0,2h-8A1,1,0,0,1,851,370Z" transform="translate(-689 -342)"/>
  <path id="Rounded_Rectangle_818_copy_7" data-name="Rounded Rectangle 818 copy 7" class="cls-4" d="M872.017,346.006h0l-0.027,5.043a0.983,0.983,0,0,1-.989.99,1,1,0,0,1-1-1l0.014-2.672-6.327,6.352a1,1,0,0,1-1.415-1.414L868.563,347h-2.579a1,1,0,0,1-1-1,0.984,0.984,0,0,1,.989-0.99l4.771,0a1.008,1.008,0,0,1,1.269.96v0.036h0Z" transform="translate(-689 -342)"/>
  <path id="Rectangle_530_copy" data-name="Rectangle 530 copy" class="cls-10" d="M786.028,466.975v-0.6h0.817l-0.935-2.337L784.5,467h0l-1.41-2.963-0.935,2.337h0.817v0.6H779v-0.6h0.681L782.572,459l1.928,4.169L786.427,459l2.891,7.374H790v0.6h-3.972Z" transform="translate(-689 -342)"/>
  <path class="cls-2" d="M771.5,470a5.5,5.5,0,1,1,5.5-5.5A5.5,5.5,0,0,1,771.5,470Zm0-9a3.5,3.5,0,1,0,3.5,3.5A3.5,3.5,0,0,0,771.5,461Zm1.562,4H772.68a1.281,1.281,0,1,1-1.68-1.68V462a0.5,0.5,0,0,1,1,0v1.32a1.292,1.292,0,0,1,.68.68h0.382A0.5,0.5,0,1,1,773.062,465Z" transform="translate(-689 -342)"/>
  <path id="Ellipse_255_copy_6" data-name="Ellipse 255 copy 6" class="cls-2" d="M763.433,464.4l0,0.007L761,468h-1l-2.469-3.626,0.011-.018A3.5,3.5,0,1,1,763.433,464.4ZM760.5,461a1.5,1.5,0,0,0-1.5,1.5,1.461,1.461,0,0,0,.184.681l-0.028.006,1.313,2.594,1.406-2.625-0.037-.006A1.47,1.47,0,0,0,762,462.5,1.5,1.5,0,0,0,760.5,461Z" transform="translate(-689 -342)"/>
  <path id="Ellipse_214_copy" data-name="Ellipse 214 copy" class="cls-4" d="M766,472h11v11H766V472Zm5.5,11a5.5,5.5,0,1,1,5.5-5.5A5.5,5.5,0,0,1,771.5,483Zm0-9a3.5,3.5,0,1,0,3.5,3.5A3.5,3.5,0,0,0,771.5,474Zm1.562,4H772.68a1.281,1.281,0,1,1-1.68-1.68V475a0.5,0.5,0,0,1,1,0v1.32a1.292,1.292,0,0,1,.68.68h0.382A0.5,0.5,0,1,1,773.062,478Z" transform="translate(-689 -342)"/>
  <path id="Ellipse_255_copy_7" data-name="Ellipse 255 copy 7" class="cls-4" d="M757,481v-5.5a3.479,3.479,0,0,0,.542,1.853l-0.011.018L760,481h1l2.437-3.594,0-.007a3.489,3.489,0,0,0-2.906-5.4H764v9h-7Zm3.5-7a1.5,1.5,0,0,1,1.5,1.5,1.47,1.47,0,0,1-.162.65l0.037,0.006-1.406,2.625-1.313-2.594,0.028-.006A1.461,1.461,0,0,1,759,475.5,1.5,1.5,0,0,1,760.5,474Zm-3.5,1.5V472h3.473A3.5,3.5,0,0,0,757,475.5Z" transform="translate(-689 -342)"/>
  <path id="Rounded_Rectangle_853_copy" data-name="Rounded Rectangle 853 copy" class="cls-4" d="M871.717,364.686l-4.027,4.032c-0.006.006-.015,0.007-0.021,0.013a1.01,1.01,0,0,1-.29.192h0a1.084,1.084,0,0,1-1.1-.2l-3.993-4.032a0.983,0.983,0,0,1,0-1.4,1,1,0,0,1,1.41,0l2.3,2.325V358a1,1,0,0,1,2,0v7.6l2.308-2.31a1,1,0,0,1,1.409,0A0.984,0.984,0,0,1,871.717,364.686ZM863,370h8a1,1,0,0,1,0,2h-8A1,1,0,0,1,863,370Z" transform="translate(-689 -342)"/>
  <path id="Rounded_Rectangle_791_copy_5" data-name="Rounded Rectangle 791 copy 5" class="cls-2" d="M800.406,465.991l5.311,5.3A1,1,0,0,1,804.3,472.7l-5.311-5.3-5.312,5.3a1,1,0,0,1-1.414-1.411l5.311-5.3-5.311-5.3a1,1,0,0,1,1.414-1.411l5.312,5.3,5.311-5.3a1,1,0,0,1,1.414,1.411Z" transform="translate(-689 -342)"/>
  <path id="Rounded_Rectangle_791_copy_6" data-name="Rounded Rectangle 791 copy 6" class="cls-4" d="M805.717,475.28a0.986,0.986,0,0,0-.643-0.28H806v0.932A0.983,0.983,0,0,0,805.717,475.28Zm-13.451,0a0.973,0.973,0,0,0-.266.566V475h0.909A0.986,0.986,0,0,0,792.266,475.28Zm0,13.421a1,1,0,0,0,1.414,0l5.312-5.3,5.311,5.3a1,1,0,0,0,1.414,0,0.983,0.983,0,0,0,.283-0.652V489H792v-0.865A0.97,0.97,0,0,0,792.266,488.7ZM806,476.039v11.9a0.985,0.985,0,0,0-.283-0.653l-5.311-5.3,5.311-5.3A0.983,0.983,0,0,0,806,476.039Zm-14,11.818V476.124a0.973,0.973,0,0,0,.266.567l5.311,5.3-5.311,5.3A0.973,0.973,0,0,0,792,487.857ZM804.946,475a0.988,0.988,0,0,0-.643.28l-5.311,5.3-5.312-5.3a0.988,0.988,0,0,0-.643-0.28h11.909Z" transform="translate(-689 -342)"/>
  <path id="Rounded_Rectangle_835" data-name="Rounded Rectangle 835" class="cls-2" d="M815,473V463a3,3,0,0,0-6,0v11a2,2,0,1,0,4,0v-9a1,1,0,0,0-2,0v8h-1v-8a2,2,0,0,1,4,0v9a3,3,0,1,1-6,0v-9h0v-2a4,4,0,0,1,8,0v10h-1Z" transform="translate(-689 -342)"/>
  <path id="Rounded_Rectangle_835_copy" data-name="Rounded Rectangle 835 copy" class="cls-4" d="M825,473V463a3,3,0,0,0-6,0v11a2,2,0,1,0,4,0v-9a1,1,0,0,0-2,0v8h-1v-8a2,2,0,0,1,4,0v9a3,3,0,1,1-6,0v-9h0v-2a4,4,0,0,1,8,0v10h-1Z" transform="translate(-689 -342)"/>
  <path id="Rounded_Rectangle_568_copy_15" data-name="Rounded Rectangle 568 copy 15" class="cls-2" d="M836.4,444l3.315,3.315a0.992,0.992,0,1,1-1.4,1.4L835,445.4l-3.315,3.314a0.992,0.992,0,0,1-1.4-1.4L833.6,444l-3.315-3.315a0.992,0.992,0,0,1,1.4-1.4L835,442.594l3.314-3.315a0.992,0.992,0,0,1,1.4,1.4Z" transform="translate(-689 -342)"/>
  <path id="Rounded_Rectangle_568_copy_16" data-name="Rounded Rectangle 568 copy 16" class="cls-4" d="M839.718,451.279a0.982,0.982,0,0,0-.641-0.279H840v0.938A0.985,0.985,0,0,0,839.718,451.279Zm-9.436,0a0.982,0.982,0,0,0-.282.657V451h0.922A0.98,0.98,0,0,0,830.282,451.279Zm0,9.435a0.986,0.986,0,0,0,.674.286H830v-0.943A0.982,0.982,0,0,0,830.282,460.714Zm9.436,0a0.984,0.984,0,0,0,.282-0.658V461h-0.957A0.986,0.986,0,0,0,839.718,460.714ZM840,452.023v7.947a0.984,0.984,0,0,0-.282-0.658L836.4,456l3.315-3.315A0.985,0.985,0,0,0,840,452.023ZM838.955,451a0.982,0.982,0,0,0-.641.279L835,454.594l-3.315-3.315a0.98,0.98,0,0,0-.64-0.279h7.91Zm-0.641,9.714a0.986,0.986,0,0,0,.675.286h-7.978a0.986,0.986,0,0,0,.674-0.286L835,457.4ZM830,459.968v-7.943a0.982,0.982,0,0,0,.282.657L833.6,456l-3.315,3.315A0.98,0.98,0,0,0,830,459.968Z" transform="translate(-689 -342)"/>
  <path id="Rounded_Rectangle_568_copy_13" data-name="Rounded Rectangle 568 copy 13" class="cls-2" d="M847.4,443l2.315,2.315a0.992,0.992,0,1,1-1.4,1.4L846,444.4l-2.315,2.315a0.992,0.992,0,0,1-1.4-1.4L844.6,443l-2.315-2.315a0.992,0.992,0,0,1,1.4-1.4L846,441.594l2.314-2.315a0.992,0.992,0,0,1,1.4,1.4Z" transform="translate(-689 -342)"/>
  <path id="Rounded_Rectangle_568_copy_14" data-name="Rounded Rectangle 568 copy 14" class="cls-4" d="M849.718,449.279a0.982,0.982,0,0,0-.642-0.279H850v0.938A0.984,0.984,0,0,0,849.718,449.279Zm-7.436,0a0.982,0.982,0,0,0-.282.657V449h0.923A0.977,0.977,0,0,0,842.282,449.279Zm0,7.436a0.982,0.982,0,0,0,.672.285H842v-0.942A0.982,0.982,0,0,0,842.282,456.715Zm7.436,0a0.984,0.984,0,0,0,.282-0.659V457h-0.955A0.987,0.987,0,0,0,849.718,456.715ZM850,450.023v5.948a0.98,0.98,0,0,0-.282-0.659L847.4,453l2.315-2.314A0.985,0.985,0,0,0,850,450.023ZM848.956,449a0.98,0.98,0,0,0-.642.279L846,451.594l-2.315-2.315a0.978,0.978,0,0,0-.642-0.279h5.913Zm-0.642,7.715a0.985,0.985,0,0,0,.673.285h-5.974a0.982,0.982,0,0,0,.672-0.285L846,454.4ZM842,455.968v-5.942a0.984,0.984,0,0,0,.282.657L844.6,453l-2.315,2.315A0.982,0.982,0,0,0,842,455.968Z" transform="translate(-689 -342)"/>
  <path class="cls-2" d="M841.067,471.754s-0.376.15-.991,0.346c0.291,0.569.454,0.95,0.454,0.95a1.211,1.211,0,0,1-.114,1.433l-0.933.933a1.211,1.211,0,0,1-1.433.114s-0.38-.163-0.947-0.453c-0.2.615-.349,0.99-0.349,0.99a1.246,1.246,0,0,1-1.094.933h-1.32a1.246,1.246,0,0,1-1.094-.933s-0.151-.374-0.348-0.987c-0.568.289-.948,0.45-0.948,0.45a1.243,1.243,0,0,1-1.433-.114l-0.933-.933a1.243,1.243,0,0,1-.114-1.433s0.161-.38.45-0.948c-0.613-.2-0.987-0.348-0.987-0.348A1.246,1.246,0,0,1,828,470.66v-1.32a1.246,1.246,0,0,1,.933-1.094s0.374-.151.987-0.348c-0.289-.568-0.45-0.948-0.45-0.948a1.243,1.243,0,0,1,.114-1.433l0.933-.933a1.243,1.243,0,0,1,1.433-.114s0.381,0.161.95,0.451c0.2-.613.346-0.988,0.346-0.988A1.214,1.214,0,0,1,834.34,463h1.32a1.214,1.214,0,0,1,1.094.933s0.15,0.376.346,0.991c0.569-.291.95-0.454,0.95-0.454a1.211,1.211,0,0,1,1.433.114l0.933,0.933a1.211,1.211,0,0,1,.114,1.433s-0.163.381-.454,0.949c0.615,0.2.991,0.347,0.991,0.347A1.214,1.214,0,0,1,842,469.34v1.32A1.214,1.214,0,0,1,841.067,471.754Zm-0.583-2.77s-0.729-.254-1.787-0.506c-0.006-.014-0.01-0.03-0.017-0.045,0.569-.925.905-1.62,0.905-1.62,0.258-.523.037-0.67-0.353-1.06s-0.538-.612-1.061-0.354c0,0-.7.335-1.633,0.909-0.01,0-.022,0-0.032-0.009-0.252-1.063-.506-1.8-0.506-1.8-0.188-.552-0.448-0.5-1-0.5s-0.813-.052-1,0.5c0,0-.257.734-0.51,1.8l-0.013,0a17.89,17.89,0,0,0-1.648-.9c-0.5-.236-0.692-0.059-1.083.332s-0.567.537-.331,1.082a17.265,17.265,0,0,0,.9,1.64s0,0.009,0,.013a18.163,18.163,0,0,0-1.791.518,0.8,0.8,0,0,0-.532,1c0,0.553-.021.782,0.532,1a17.494,17.494,0,0,0,1.781.519c0,0.008,0,.018.009,0.027a17.846,17.846,0,0,0-.891,1.625,0.794,0.794,0,0,0,.331,1.083c0.391,0.391.538,0.567,1.083,0.331a17.39,17.39,0,0,0,1.617-.883c0.013,0.006.028,0.008,0.041,0.013a18.13,18.13,0,0,0,.513,1.77,0.794,0.794,0,0,0,1,.531c0.552,0,.781.021,1-0.531a17.868,17.868,0,0,0,.515-1.77c0.018-.008.038-0.013,0.056-0.021,0.915,0.561,1.6.891,1.6,0.891,0.523,0.258.67,0.037,1.061-.353s0.611-.538.353-1.061c0,0-.331-0.689-0.9-1.61,0.008-.019.011-0.041,0.019-0.06,1.049-.25,1.776-0.5,1.776-0.5,0.553-.187.5-0.447,0.5-1S841.037,469.172,840.484,468.984ZM835,473a3,3,0,1,1,3-3A3,3,0,0,1,835,473Zm0-5a2,2,0,1,0,2,2A2,2,0,0,0,835,468Z" transform="translate(-689 -342)"/>
  <path id="Ellipse_276_copy" data-name="Ellipse 276 copy" class="cls-4" d="M841.067,484.246s-0.376-.15-0.991-0.347c0.291-.568.454-0.949,0.454-0.949a1.211,1.211,0,0,0-.114-1.433l-0.933-.933a1.211,1.211,0,0,0-1.433-.114s-0.381.163-.95,0.454c-0.2-.615-0.346-0.991-0.346-0.991A1.214,1.214,0,0,0,835.66,479H842v6.34A1.214,1.214,0,0,0,841.067,484.246Zm-7.821-4.313s-0.15.375-.346,0.988c-0.569-.29-0.95-0.451-0.95-0.451a1.243,1.243,0,0,0-1.433.114l-0.933.933a1.243,1.243,0,0,0-.114,1.433s0.161,0.38.45,0.948c-0.613.2-.987,0.348-0.987,0.348A1.246,1.246,0,0,0,828,485.34V479h6.34A1.214,1.214,0,0,0,833.246,479.933Zm-4.313,7.821s0.374,0.151.987,0.348c-0.289.568-.45,0.948-0.45,0.948a1.243,1.243,0,0,0,.114,1.433l0.933,0.933a1.243,1.243,0,0,0,1.433.114s0.38-.161.948-0.45c0.2,0.613.348,0.987,0.348,0.987a1.246,1.246,0,0,0,1.094.933H828v-6.34A1.246,1.246,0,0,0,828.933,487.754Zm11.551-2.77c0.553,0.188.5,0.448,0.5,1s0.053,0.813-.5,1c0,0-.727.251-1.776,0.5-0.008.019-.011,0.041-0.019,0.06,0.565,0.921.9,1.61,0.9,1.61,0.258,0.523.037,0.67-.353,1.061s-0.538.611-1.061,0.354c0,0-.685-0.331-1.6-0.892-0.018.008-.038,0.013-0.056,0.021a17.868,17.868,0,0,1-.515,1.77c-0.219.552-.448,0.531-1,0.531a0.794,0.794,0,0,1-1-.531,18.13,18.13,0,0,1-.513-1.77c-0.013,0-.028-0.007-0.041-0.013a17.575,17.575,0,0,1-1.617.884c-0.545.235-.692,0.059-1.083-0.332a0.8,0.8,0,0,1-.331-1.083,17.846,17.846,0,0,1,.891-1.625c0-.009,0-0.019-0.009-0.027a17.494,17.494,0,0,1-1.781-.519c-0.553-.218-0.532-0.447-0.532-1a0.8,0.8,0,0,1,.532-1,18.163,18.163,0,0,1,1.791-.518s0-.009,0-0.013a17.265,17.265,0,0,1-.9-1.64c-0.236-.545-0.059-0.692.331-1.082s0.582-.568,1.083-0.332a17.89,17.89,0,0,1,1.648.9l0.013,0c0.253-1.067.51-1.8,0.51-1.8,0.187-.552.448-0.5,1-0.5s0.812-.052,1,0.5c0,0,.254.736,0.506,1.8,0.01,0,.022,0,0.032.009,0.933-.574,1.633-0.909,1.633-0.909,0.523-.258.67-0.037,1.061,0.354s0.611,0.537.353,1.06c0,0-.336.695-0.905,1.621,0.007,0.014.011,0.03,0.017,0.044C839.755,484.73,840.484,484.984,840.484,484.984ZM835,483a3,3,0,1,0,3,3A3,3,0,0,0,835,483Zm0,5a2,2,0,1,1,2-2A2,2,0,0,1,835,488Zm1.754,4.067s0.151-.375.349-0.99c0.567,0.29.947,0.453,0.947,0.453a1.211,1.211,0,0,0,1.433-.114l0.933-.933a1.211,1.211,0,0,0,.114-1.433s-0.163-.381-0.454-0.95c0.615-.2.991-0.346,0.991-0.346A1.214,1.214,0,0,0,842,486.66V493h-6.34A1.246,1.246,0,0,0,836.754,492.067Z" transform="translate(-689 -342)"/>
  <path id="Rounded_Rectangle_804" data-name="Rounded Rectangle 804" class="cls-4" d="M689,493v-5.873a0.974,0.974,0,0,0,.267.579L694.3,492.7a0.99,0.99,0,0,0,1.407,0,1,1,0,0,0,0-1.414L692.4,488H704a1,1,0,0,0,0-2H692.384l3.324-3.316a1.006,1.006,0,0,0,0-1.415,0.975,0.975,0,0,0-.579-0.268H705v12H689Zm5.3-11.732-5.034,5.024a0.976,0.976,0,0,0-.267.579V481h5.879A0.975,0.975,0,0,0,694.3,481.268Z" transform="translate(-689 -342)"/>
  <path class="cls-4" d="M689,419v12l12-6Z" transform="translate(-689 -342)"/>
  <path id="Rectangle_681_copy" data-name="Rectangle 681 copy" class="cls-4" d="M689,433h4v12h-4V433Zm8,0h4v12h-4V433Z" transform="translate(-689 -342)"/>
  <path id="Rounded_Rectangle_960" data-name="Rounded Rectangle 960" class="cls-2" d="M724,489H710.4l4.317,4.314a0.995,0.995,0,0,1-1.407,1.406l-6.018-6.014a1,1,0,0,1,0-1.406l6.018-6.013a0.994,0.994,0,0,1,1.407,1.405L710.4,487H724A1,1,0,0,1,724,489Z" transform="translate(-689 -342)"/>
  <path id="Rounded_Rectangle_960_copy" data-name="Rounded Rectangle 960 copy" class="cls-4" d="M707,497h18v14H707V497Zm17,8H710.4l4.317,4.314a0.994,0.994,0,0,1-1.407,1.4l-6.018-6.013a1,1,0,0,1,0-1.406l6.018-6.013a0.994,0.994,0,0,1,1.407,1.405L710.4,503H724A1,1,0,0,1,724,505Z" transform="translate(-689 -342)"/>
  <path id="Rounded_Rectangle_873_copy_5" data-name="Rounded Rectangle 873 copy 5" class="cls-2" d="M778,405.856a0.949,0.949,0,0,1,0,.226c0,0.007,0,.013,0,0.02a0.955,0.955,0,0,1-.112.357l-4.958,10.883a0.927,0.927,0,0,1-.046.153,0.974,0.974,0,0,1-.179.214h0a0.974,0.974,0,0,1-.28.2c-0.017.008-.032,0.019-0.05,0.026a0.972,0.972,0,0,1-.267.063,1.07,1.07,0,0,1-.127.012,0.989,0.989,0,0,1-.213-0.036,1.01,1.01,0,0,1-.132-0.022c-0.021-.009-0.035-0.026-0.056-0.036s-0.036-.007-0.052-0.016l-3.133-1.8-3.523,4.4a22.232,22.232,0,0,1-.2.229,0.96,0.96,0,0,1-.218.147,0.838,0.838,0,0,1-.1.047,0.975,0.975,0,0,1-.3.06c-0.019,0-.035.011-0.054,0.011s-0.017,0-.026,0a0.968,0.968,0,0,1-.293-0.06,0.821,0.821,0,0,1-.1-0.033,0.61,0.61,0,0,1-.082-0.028,0.906,0.906,0,0,1-.131-0.116,1,1,0,0,1-.1-0.091,0.983,0.983,0,0,1-.13-0.192,0.941,0.941,0,0,1-.069-0.143,1.032,1.032,0,0,1-.043-0.213A0.964,0.964,0,0,1,763,420v-6.986l-5.32-3.05a0.979,0.979,0,0,1-.618-0.621,1.19,1.19,0,0,1-.044-0.118c0-.014-0.012-0.024-0.014-0.039a0.722,0.722,0,0,1,0-.081,0.966,0.966,0,0,1,1.118-1.113L776.851,405c0.027,0,.052,0,0.078,0s0.047,0,.071,0a0.98,0.98,0,0,1,.307.037,0.906,0.906,0,0,1,.089.042,0.96,0.96,0,0,1,.233.128,1.008,1.008,0,0,1,.122.13,0.957,0.957,0,0,1,.119.15c0.011,0.018.029,0.029,0.039,0.048a1,1,0,0,1,.059.212,0.661,0.661,0,0,1,.028.074A0.226,0.226,0,0,1,778,405.856Zm-6.453,9.739,3.332-7.314-8.3,4.467ZM765,417.17l1.651-2.064L765,414.16v3.01Zm-0.462-5.59,6.83-3.676-10.359,1.653Z" transform="translate(-689 -342)"/>
  <path id="Rounded_Rectangle_923_copy" data-name="Rounded Rectangle 923 copy" class="cls-11" d="M850.718,390.694l-7.017,7.023a0.991,0.991,0,0,1-1.4,0l-4.016-4.023a0.992,0.992,0,0,1,1.4-1.4L843,395.61l6.315-6.32A0.992,0.992,0,0,1,850.718,390.694Z" transform="translate(-689 -342)"/>
  <path id="Rounded_Rectangle_928_copy_2" data-name="Rounded Rectangle 928 copy 2" class="cls-12" d="M861.73,390.688l-2.812,2.812,2.781,2.781a1,1,0,1,1-1.418,1.418l-2.781-2.781-2.781,2.781a1,1,0,1,1-1.418-1.418l2.781-2.781-2.812-2.812a1,1,0,0,1,1.418-1.418l2.812,2.812,2.812-2.812A1,1,0,0,1,861.73,390.688Z" transform="translate(-689 -342)"/>
</svg>
