<svg id="header_icons.svg" xmlns="http://www.w3.org/2000/svg" width="139" height="93" viewBox="0 0 139 93">
  <defs>
    <style>
      .cls-1 {
        fill: #fff;
      }

      .cls-1, .cls-2 {
        fill-rule: evenodd;
      }

      .cls-2 {
        fill: #333;
      }
    </style>
  </defs>
  <path id="Shape_51_copy_13" data-name="Shape 51 copy 13" class="cls-1" d="M1359,173h5v13h-5V173Zm3.74,9.457a21.975,21.975,0,0,0,1.13,2.04,0.617,0.617,0,0,1-.14.87l-0.3.3a0.9,0.9,0,0,1-.8.329,4.038,4.038,0,0,1-1.5-.274c-1.19-.679-1.65-2.35-1.89-3.664a13.028,13.028,0,0,1,.02-5.08c0.25-1.317.73-2.992,1.93-3.686a4.1,4.1,0,0,1,1.5-.288,0.883,0.883,0,0,1,.8.322l0.3,0.3a0.641,0.641,0,0,1,.11.874c-0.46.8-.79,1.37-1.13,2.045-0.15.279-.27,0.258-0.56,0.213-0.19-.027-0.32-0.048-0.47-0.071a0.535,0.535,0,0,0-.7.366,8.458,8.458,0,0,0-.39,2.456,8.212,8.212,0,0,0,.37,2.453,0.517,0.517,0,0,0,.69.358l0.47-.075c0.29-.048.41-0.066,0.56,0.207h0Z" transform="translate(-1339 -170)"/>
  <path id="Rounded_Rectangle_616_copy" data-name="Rounded Rectangle 616 copy" class="cls-1" d="M1368,170h17v18h-17V170Zm16.71,17.72a1,1,0,0,1-1.41,0l-3.26-3.287A7.411,7.411,0,0,1,1375.5,186a7.5,7.5,0,1,1,7.5-7.5,7.421,7.421,0,0,1-1.55,4.518l3.26,3.289A1,1,0,0,1,1384.71,187.719ZM1375.5,173a5.5,5.5,0,1,0,5.5,5.5A5.5,5.5,0,0,0,1375.5,173Z" transform="translate(-1339 -170)"/>
  <path id="Ellipse_206_copy" data-name="Ellipse 206 copy" class="cls-1" d="M1389,170h18v18h-18V170Zm9,18a9,9,0,1,1,9-9A9,9,0,0,1,1398,188Zm2.57-2.5a6.939,6.939,0,0,0-2.57-.5,6.858,6.858,0,0,0-2.55.5A6.81,6.81,0,0,0,1400.57,185.5ZM1398,172a6.975,6.975,0,0,0-4.56,12.275,8.795,8.795,0,0,1,9.12,0A6.975,6.975,0,0,0,1398,172Zm0,10a4,4,0,1,1,4-4A4,4,0,0,1,1398,182Zm0-6a2,2,0,1,0,2,2A2,2,0,0,0,1398,176Z" transform="translate(-1339 -170)"/>
  <path id="Ellipse_2_copy_7" data-name="Ellipse 2 copy 7" class="cls-1" d="M1431,170h19v18h-19V170Zm18.05,9.006-0.94,1.009-11.4-.008-0.95-1-0.95-6h-2.86a0.862,0.862,0,0,1-.95-1,1.023,1.023,0,0,1,1.16-1h2.33c0.3,0,.6.006,0.6,0.006a1.21,1.21,0,0,1,1.34.918l0.39,2.078h12.23l0.95,1v1Zm-11.92-3,0.35,2h10.01l0.59-2Zm1.86,5a3,3,0,1,1-3,3A3,3,0,0,1,1438.99,181.005ZM1439,185a1,1,0,1,0-1-1A1,1,0,0,0,1439,185Zm7.01-3.994a3,3,0,1,1-3,3A3,3,0,0,1,1446.01,181.005ZM1446,185a1,1,0,1,0-1-1A1,1,0,0,0,1446,185Z" transform="translate(-1339 -170)"/>
  <path id="Rounded_Rectangle_81_copy_3" data-name="Rounded Rectangle 81 copy 3" class="cls-1" d="M1339,173h16v12h-16V173Zm15,12h-14a1,1,0,0,1-1-1h0a1,1,0,0,1,1-1h14a1,1,0,0,1,1,1h0A1,1,0,0,1,1354,185Zm0-5h-14a1,1,0,0,1,0-2h14A1,1,0,0,1,1354,180Zm0-5h-14a1,1,0,0,1,0-2h14A1,1,0,0,1,1354,175Z" transform="translate(-1339 -170)"/>
  <path id="Rectangle_323_copy_8" data-name="Rectangle 323 copy 8" class="cls-1" d="M1454,178h5v3h-5v-3Zm0,0h5l-2.51,3Z" transform="translate(-1339 -170)"/>
  <path id="Rounded_Rectangle_803_copy_3" data-name="Rounded Rectangle 803 copy 3" class="cls-1" d="M1413.5,186a0.5,0.5,0,0,1-.5-0.5v-0.033h0.01a1.471,1.471,0,0,1,.62-0.9A10.215,10.215,0,0,1,1418.5,183h1a10.215,10.215,0,0,1,4.87,1.565,1.471,1.471,0,0,1,.62.9H1425V185.5a0.5,0.5,0,0,1-.5.5h-11Zm11,2a2.489,2.489,0,0,0,1.88-4.133c-0.02-.026-0.03-0.052-0.05-0.077-1.37-1.7-4.47-2.79-6.83-2.79h-1c-2.36,0-5.46,1.089-6.83,2.79-0.02.025-.03,0.051-0.05,0.077a2.487,2.487,0,0,0,1.85,4.13v0H1410V170h9a5,5,0,1,0,5,5,5,5,0,0,0-5-5h9v18h-3.5Zm-5.5-10a3,3,0,1,1,3-3A3,3,0,0,1,1419,178Z" transform="translate(-1339 -170)"/>
  <path id="Ellipse_267_copy_3" data-name="Ellipse 267 copy 3" class="cls-1" d="M1463,178h15v3h-15v-3Zm13.5,3a1.5,1.5,0,1,1,1.5-1.5A1.5,1.5,0,0,1,1476.5,181Zm-6,0a1.5,1.5,0,1,1,1.5-1.5A1.5,1.5,0,0,1,1470.5,181Zm-6,0a1.5,1.5,0,1,1,1.5-1.5A1.5,1.5,0,0,1,1464.5,181Z" transform="translate(-1339 -170)"/>
  <path id="Shape_51_copy_16" data-name="Shape 51 copy 16" class="cls-2" d="M1362.74,203.457a21.975,21.975,0,0,0,1.13,2.04,0.617,0.617,0,0,1-.14.87l-0.3.3a0.9,0.9,0,0,1-.8.329,4.038,4.038,0,0,1-1.5-.274c-1.19-.679-1.65-2.35-1.89-3.663a13.033,13.033,0,0,1,.02-5.081c0.25-1.317.73-2.992,1.93-3.685a4.072,4.072,0,0,1,1.5-.289,0.883,0.883,0,0,1,.8.322l0.3,0.3a0.641,0.641,0,0,1,.11.874c-0.46.8-.79,1.37-1.13,2.045-0.15.28-.27,0.258-0.56,0.214-0.19-.028-0.32-0.049-0.47-0.072a0.535,0.535,0,0,0-.7.366,8.458,8.458,0,0,0-.39,2.456,8.226,8.226,0,0,0,.37,2.454,0.517,0.517,0,0,0,.69.357l0.47-.075c0.29-.047.41-0.066,0.56,0.207h0Z" transform="translate(-1339 -170)"/>
  <path id="Rounded_Rectangle_616_copy_2" data-name="Rounded Rectangle 616 copy 2" class="cls-2" d="M1384.71,208.719a1,1,0,0,1-1.41,0l-3.26-3.288A7.4,7.4,0,0,1,1375.5,207a7.5,7.5,0,1,1,7.5-7.5,7.424,7.424,0,0,1-1.55,4.519l3.26,3.289A1,1,0,0,1,1384.71,208.719ZM1375.5,194a5.5,5.5,0,1,0,5.5,5.5A5.5,5.5,0,0,0,1375.5,194Z" transform="translate(-1339 -170)"/>
  <path id="Ellipse_206_copy_4" data-name="Ellipse 206 copy 4" class="cls-2" d="M1398,209a9,9,0,1,1,9-9A9,9,0,0,1,1398,209Zm2.57-2.5a6.938,6.938,0,0,0-2.57-.5,6.857,6.857,0,0,0-2.55.5A6.81,6.81,0,0,0,1400.57,206.5ZM1398,193a6.975,6.975,0,0,0-4.56,12.275,8.8,8.8,0,0,1,9.12,0A6.974,6.974,0,0,0,1398,193Zm0,10a4,4,0,1,1,4-4A4,4,0,0,1,1398,203Zm0-6a2,2,0,1,0,2,2A2,2,0,0,0,1398,197Z" transform="translate(-1339 -170)"/>
  <path id="Ellipse_2_copy_9" data-name="Ellipse 2 copy 9" class="cls-2" d="M1449.05,200.005l-0.94,1.009-11.4-.008-0.95-1-0.95-6h-2.86a0.862,0.862,0,0,1-.95-1,1.023,1.023,0,0,1,1.16-1h2.33c0.3,0,.6.006,0.6,0.006a1.21,1.21,0,0,1,1.34.918l0.39,2.078h12.23l0.95,1v1Zm-11.92-3,0.35,2h10.01l0.59-2Zm1.86,5a3,3,0,1,1-3,3A3,3,0,0,1,1438.99,202.005Zm0.01,4a1,1,0,1,0-1-1A1,1,0,0,0,1439,206Zm7.01-4a3,3,0,1,1-3,3A3,3,0,0,1,1446.01,202.005Zm-0.01,4a1,1,0,1,0-1-1A1,1,0,0,0,1446,206Z" transform="translate(-1339 -170)"/>
  <path id="Rounded_Rectangle_81_copy_4" data-name="Rounded Rectangle 81 copy 4" class="cls-2" d="M1354,206h-14a1,1,0,0,1-1-1h0a1,1,0,0,1,1-1h14a1,1,0,0,1,1,1h0A1,1,0,0,1,1354,206Zm0-5h-14a1,1,0,0,1,0-2h14A1,1,0,0,1,1354,201Zm0-5h-14a1,1,0,0,1,0-2h14A1,1,0,0,1,1354,196Z" transform="translate(-1339 -170)"/>
  <path id="Rectangle_323_copy_9" data-name="Rectangle 323 copy 9" class="cls-2" d="M1454,199h5l-2.51,3Z" transform="translate(-1339 -170)"/>
  <path id="Rounded_Rectangle_803_copy" data-name="Rounded Rectangle 803 copy" class="cls-2" d="M1424.5,209h-11.03v0a2.487,2.487,0,0,1-1.85-4.13c0.02-.026.03-0.052,0.05-0.077,1.37-1.7,4.47-2.79,6.83-2.79h1c2.36,0,5.46,1.089,6.83,2.79,0.02,0.025.03,0.051,0.05,0.077A2.489,2.489,0,0,1,1424.5,209Zm0.5-2.533h-0.01a1.465,1.465,0,0,0-.62-0.9A10.2,10.2,0,0,0,1419.5,204h-1a10.2,10.2,0,0,0-4.87,1.566,1.465,1.465,0,0,0-.62.9H1413V206.5a0.5,0.5,0,0,0,.5.5h11a0.5,0.5,0,0,0,.5-0.5v-0.033ZM1419,201a5,5,0,1,1,5-5A5,5,0,0,1,1419,201Zm0-8a3,3,0,1,0,3,3A3,3,0,0,0,1419,193Z" transform="translate(-1339 -170)"/>
  <path id="Ellipse_267_copy_2" data-name="Ellipse 267 copy 2" class="cls-2" d="M1476.5,202a1.5,1.5,0,1,1,1.5-1.5A1.5,1.5,0,0,1,1476.5,202Zm-6,0a1.5,1.5,0,1,1,1.5-1.5A1.5,1.5,0,0,1,1470.5,202Zm-6,0a1.5,1.5,0,1,1,1.5-1.5A1.5,1.5,0,0,1,1464.5,202Z" transform="translate(-1339 -170)"/>
  <path id="Shape_51_copy_16-2" data-name="Shape 51 copy 16" class="cls-1" d="M1362.74,225.457a21.847,21.847,0,0,0,1.13,2.04,0.617,0.617,0,0,1-.14.87l-0.3.3a0.9,0.9,0,0,1-.8.329,4.038,4.038,0,0,1-1.5-.274c-1.19-.679-1.65-2.35-1.89-3.663a13.033,13.033,0,0,1,.02-5.081c0.25-1.317.73-2.992,1.93-3.685a4.072,4.072,0,0,1,1.5-.289,0.883,0.883,0,0,1,.8.322l0.3,0.3a0.641,0.641,0,0,1,.11.874c-0.46.8-.79,1.37-1.13,2.045-0.15.28-.27,0.258-0.56,0.214-0.19-.028-0.32-0.049-0.47-0.072a0.535,0.535,0,0,0-.7.366,8.458,8.458,0,0,0-.39,2.456,8.226,8.226,0,0,0,.37,2.454,0.517,0.517,0,0,0,.69.357l0.47-.075c0.29-.047.41-0.066,0.56,0.207h0Z" transform="translate(-1339 -170)"/>
  <path id="Rounded_Rectangle_616_copy_2-2" data-name="Rounded Rectangle 616 copy 2" class="cls-1" d="M1384.71,230.719a1,1,0,0,1-1.41,0l-3.26-3.288A7.4,7.4,0,0,1,1375.5,229a7.5,7.5,0,1,1,7.5-7.5,7.423,7.423,0,0,1-1.55,4.518l3.26,3.289A1,1,0,0,1,1384.71,230.719ZM1375.5,216a5.5,5.5,0,1,0,5.5,5.5A5.5,5.5,0,0,0,1375.5,216Z" transform="translate(-1339 -170)"/>
  <path id="Ellipse_206_copy_4-2" data-name="Ellipse 206 copy 4" class="cls-1" d="M1398,231a9,9,0,1,1,9-9A9,9,0,0,1,1398,231Zm2.57-2.5a6.938,6.938,0,0,0-2.57-.5,6.857,6.857,0,0,0-2.55.5A6.81,6.81,0,0,0,1400.57,228.5ZM1398,215a6.975,6.975,0,0,0-4.56,12.275,8.8,8.8,0,0,1,9.12,0A6.974,6.974,0,0,0,1398,215Zm0,10a4,4,0,1,1,4-4A4,4,0,0,1,1398,225Zm0-6a2,2,0,1,0,2,2A2,2,0,0,0,1398,219Z" transform="translate(-1339 -170)"/>
  <path id="Ellipse_2_copy_9-2" data-name="Ellipse 2 copy 9" class="cls-1" d="M1449.05,222.005l-0.94,1.009-11.4-.008-0.95-1-0.95-6h-2.86a0.862,0.862,0,0,1-.95-1,1.023,1.023,0,0,1,1.16-1h2.33c0.3,0,.6.006,0.6,0.006a1.21,1.21,0,0,1,1.34.918l0.39,2.078h12.23l0.95,1v1Zm-11.92-3,0.35,2h10.01l0.59-2Zm1.86,5a3,3,0,1,1-3,3A3,3,0,0,1,1438.99,224.005Zm0.01,4a1,1,0,1,0-1-1A1,1,0,0,0,1439,228Zm7.01-4a3,3,0,1,1-3,3A3,3,0,0,1,1446.01,224.005Zm-0.01,4a1,1,0,1,0-1-1A1,1,0,0,0,1446,228Z" transform="translate(-1339 -170)"/>
  <path id="Rounded_Rectangle_81_copy_4-2" data-name="Rounded Rectangle 81 copy 4" class="cls-1" d="M1354,228h-14a1,1,0,0,1-1-1h0a1,1,0,0,1,1-1h14a1,1,0,0,1,1,1h0A1,1,0,0,1,1354,228Zm0-5h-14a1,1,0,0,1,0-2h14A1,1,0,0,1,1354,223Zm0-5h-14a1,1,0,0,1,0-2h14A1,1,0,0,1,1354,218Z" transform="translate(-1339 -170)"/>
  <path id="Rectangle_323_copy_9-2" data-name="Rectangle 323 copy 9" class="cls-1" d="M1454,221h5l-2.51,3Z" transform="translate(-1339 -170)"/>
  <path id="Rounded_Rectangle_803_copy_2" data-name="Rounded Rectangle 803 copy 2" class="cls-1" d="M1424.5,231h-11.03v0a2.488,2.488,0,0,1-1.85-4.131c0.02-.025.03-0.051,0.05-0.076,1.37-1.7,4.47-2.79,6.83-2.79h1c2.36,0,5.46,1.088,6.83,2.79,0.02,0.025.03,0.051,0.05,0.076A2.49,2.49,0,0,1,1424.5,231Zm0.5-2.533h-0.01a1.465,1.465,0,0,0-.62-0.9A10.2,10.2,0,0,0,1419.5,226h-1a10.2,10.2,0,0,0-4.87,1.566,1.465,1.465,0,0,0-.62.9H1413V228.5a0.5,0.5,0,0,0,.5.5h11a0.5,0.5,0,0,0,.5-0.5v-0.033ZM1419,223a5,5,0,1,1,5-5A5,5,0,0,1,1419,223Zm0-8a3,3,0,1,0,3,3A3,3,0,0,0,1419,215Z" transform="translate(-1339 -170)"/>
  <path id="Ellipse_267_copy_4" data-name="Ellipse 267 copy 4" class="cls-1" d="M1476.5,224a1.5,1.5,0,1,1,1.5-1.5A1.5,1.5,0,0,1,1476.5,224Zm-6,0a1.5,1.5,0,1,1,1.5-1.5A1.5,1.5,0,0,1,1470.5,224Zm-6,0a1.5,1.5,0,1,1,1.5-1.5A1.5,1.5,0,0,1,1464.5,224Z" transform="translate(-1339 -170)"/>
  <path id="Rounded_Rectangle_618_copy_9" data-name="Rounded Rectangle 618 copy 9" class="cls-2" d="M1356.75,241.706l-5.05,4.985a1,1,0,1,1-1.41-1.414l4.33-4.278-4.36-4.309a1,1,0,0,1,1.41-1.415l5.08,5.017A1,1,0,0,1,1356.75,241.706Z" transform="translate(-1339 -170)"/>
  <path id="Rounded_Rectangle_618_copy_8" data-name="Rounded Rectangle 618 copy 8" class="cls-2" d="M1345.77,236.69L1341.41,241l4.33,4.278a1,1,0,0,1-1.41,1.414l-5.05-4.985a1,1,0,0,1,0-1.414l5.08-5.017A1,1,0,1,1,1345.77,236.69Z" transform="translate(-1339 -170)"/>
  <path id="Rounded_Rectangle_618_copy_7" data-name="Rounded Rectangle 618 copy 7" class="cls-1" d="M1356.75,257.706l-5.05,4.985a1,1,0,1,1-1.41-1.414l4.33-4.278-4.36-4.309a1,1,0,0,1,1.41-1.415l5.08,5.017A1,1,0,0,1,1356.75,257.706Z" transform="translate(-1339 -170)"/>
  <path id="Rounded_Rectangle_618_copy_6" data-name="Rounded Rectangle 618 copy 6" class="cls-1" d="M1345.77,252.69L1341.41,257l4.33,4.278a1,1,0,0,1-1.41,1.414l-5.05-4.985a1,1,0,0,1,0-1.414l5.08-5.017A1,1,0,1,1,1345.77,252.69Z" transform="translate(-1339 -170)"/>
</svg>
