<svg id="noimage_staff.svg" xmlns="http://www.w3.org/2000/svg" width="500" height="500" viewBox="0 0 500 500">
  <defs>
    <style>
      .cls-1 {
        fill: #f8f9fb;
      }

      .cls-2 {
        fill: #2b303e;
        fill-rule: evenodd;
        opacity: 0.07;
      }
    </style>
  </defs>
  <rect class="cls-1" width="500" height="500"/>
  <path id="Ellipse_2_copy_4" data-name="Ellipse 2 copy 4" class="cls-2" d="M1182.2,791h-30.92c-15.55-55.225-68.18-99.315-136.04-114.9C1003.62,688.686,983.675,697,961,697s-42.622-8.316-54.248-20.909C838.9,691.682,786.27,735.774,770.717,791H739.8C755.23,722.709,816.3,667.608,896,647.862V598.2a89.757,89.757,0,0,1-23.664-46.821l-0.046,0-0.214-1.449c-0.029-.189-0.055-0.379-0.083-0.568l-9.757-66.332,0.034-.075a100,100,0,1,1,197.78-2.18l0.17,0.151-10.14,68.341-0.06,0A89.721,89.721,0,0,1,1026,598.231v49.63C1105.71,667.606,1166.77,722.708,1182.2,791ZM961,667c19.451,0,35.219-7.387,35.219-16.5a7.939,7.939,0,0,0-.219-1.823V618.924a90.145,90.145,0,0,1-70,.008v29.745a7.939,7.939,0,0,0-.219,1.823C925.781,659.613,941.549,667,961,667Zm69.41-190.642-0.03,0a70,70,0,1,0-138.37,2.515l9.593,65.573a60,60,0,0,0,118.727.525Z" transform="translate(-711 -291)"/>
</svg>
