<svg id="noise.svg" xmlns="http://www.w3.org/2000/svg" width="50" height="50" viewBox="0 0 50 50">
  <defs>
    <style>
      .cls-1, .cls-2 {
        fill: #fff;
        fill-rule: evenodd;
      }

      .cls-1 {
        opacity: 0.9;
      }
    </style>
  </defs>
  <path id="Ellipse_290_copy_10" data-name="Ellipse 290 copy 10" class="cls-1" d="M416,552v-1h-0.052a10.006,10.006,0,0,0,.052-1,11,11,0,0,0-18.037-8.452l-1.281-1.281a0.977,0.977,0,0,0-1.671.737,0.934,0.934,0,0,0-.72.263,5.562,5.562,0,0,0,0,2.391l1.077,1.076A10.9,10.9,0,0,0,394,550a10.006,10.006,0,0,0,.052,1H394v1h-5v-2a16,16,0,0,1,32,0v2h-5Z" transform="translate(-380 -525)"/>
  <path id="Ellipse_290_copy_12" data-name="Ellipse 290 copy 12" class="cls-2" d="M380,575V550a24.85,24.85,0,0,0,3.31,12.4l1.479-1.414a23,23,0,1,1,40.336.141l1.455,1.454A24.845,24.845,0,0,0,430,550v25H380Zm43-25a17.989,17.989,0,0,0-35.95-1H387v5h9v-4a8.9,8.9,0,0,1,.7-3.412l-2.689-2.711,0-1.477-0.026-1.477,0.882,0.027s-0.187.049,0.139,0.375l8,8s0,0.031,0,.042l0.084,0.085a2.013,2.013,0,0,0-.083.535v0.032A2,2,0,1,0,405,548a1.967,1.967,0,0,0-.512.074l-5.1-5.1A8.994,8.994,0,0,1,414,550v4h9v-4Zm2,16h-4v-2a1,1,0,0,0-2,0v2h-3v-6a1,1,0,0,0-2,0v6h-3v-3a1,1,0,1,0-2,0v3h-3v-1a1,1,0,0,0-2,0v1h-3v-3a1,1,0,1,0-2,0v3h-3v-6a1,1,0,0,0-2,0v6h-3v-2a1,1,0,0,0-2,0v2h-4a1,1,0,0,0,0,2h4v2a1,1,0,0,0,2,0v-2h3v6a1,1,0,0,0,2,0v-6h3v3a1,1,0,0,0,2,0v-3h3v1a1,1,0,0,0,2,0v-1h3v3a1,1,0,0,0,2,0v-3h3v6a1,1,0,0,0,2,0v-6h3v2a1,1,0,0,0,2,0v-2h4A1,1,0,0,0,425,566Zm-20-41h25v25A25,25,0,0,0,405,525Zm-25,25V525h25A25,25,0,0,0,380,550Z" transform="translate(-380 -525)"/>
</svg>
