<svg id="delivery.svg" xmlns="http://www.w3.org/2000/svg" width="50" height="50" viewBox="0 0 50 50">
  <defs>
    <style>
      .cls-1, .cls-2 {
        fill: #fff;
        fill-rule: evenodd;
      }

      .cls-1 {
        opacity: 0.9;
      }
    </style>
  </defs>
  <path id="Rectangle_709_copy_3" data-name="Rectangle 709 copy 3" class="cls-1" d="M524,500.37l-6,2.733v-9.77l6-2.75v9.787Zm-28.812-19.365,6.127-2.664,22.255,10.324-6.127,2.664Z" transform="translate(-484 -473)"/>
  <path id="Rectangle_709_copy_2" data-name="Rectangle 709 copy 2" class="cls-2" d="M484,523V512l24,11h2l24-11V484l-24-11h24v50H484Zm48-12-22,9.565V497l6-2.75V504h0.242a1,1,0,0,0,1.187,1.56l8.061-3.672a0.985,0.985,0,0,0,.51-1.143V489.666l6-2.749V511Zm0-26-5.976,2.6-22.256-10.323L509,475Zm-46,26V486.917L508,497v23.565Zm14.713-10.7-2.8-3.7a0.013,0.013,0,0,0,0,0,0.97,0.97,0,0,0-.563-0.529l0,0a0.143,0.143,0,0,0-.022,0,1,1,0,0,0-.3-0.061,0.221,0.221,0,0,0-.025,0h0a1.016,1.016,0,0,0-.432.091l-2.916.991a0.977,0.977,0,0,0-.6,1.254,1,1,0,0,0,1.272.589l1.678-.57V507a1,1,0,0,0,2,0v-7.009l1.3,1.717a1,1,0,0,0,1.415,0A0.991,0.991,0,0,0,500.713,500.3Zm0.778,11.825-8.051-4.034a1,1,0,0,0-.931,1.779l8.051,4.035A1,1,0,0,0,501.491,512.127Zm-8.757-30.055L514.99,492.4,509,495l-23-10ZM484,484V473h24Z" transform="translate(-484 -473)"/>
</svg>
