<svg id="development.svg" xmlns="http://www.w3.org/2000/svg" width="50" height="50" viewBox="0 0 50 50">
  <defs>
    <style>
      .cls-1, .cls-2 {
        fill: #fff;
        fill-rule: evenodd;
      }

      .cls-1 {
        opacity: 0.9;
      }
    </style>
  </defs>
  <path id="Ellipse_291_copy_6" data-name="Ellipse 291 copy 6" class="cls-1" d="M449,387a7.968,7.968,0,0,1,2.507-5.806L457,376.017l5.738,5.385-0.014.015A7.991,7.991,0,0,1,458,394.931V384a1,1,0,0,0-1-1h0a1,1,0,0,0-1,1v10.931A8,8,0,0,1,449,387Zm-3.034,17.618-7.47-3.724a1,1,0,1,1,1-1.732l7.385,3.681a5.429,5.429,0,0,0-6.245-6.676l0-.034-0.424.106-0.1.025-5.606,1.408,2.053,6.191,0.033-.018a5.451,5.451,0,0,0,7.112,2.74,8.327,8.327,0,0,0,1.347-.876A4.41,4.41,0,0,0,445.966,404.618Zm22.143,0,7.47-3.724a1,1,0,1,0-1-1.732l-7.384,3.681a5.428,5.428,0,0,1,6.244-6.676l0-.034,0.423,0.106,0.1,0.025,5.605,1.408-2.052,6.191-0.034-.018a5.451,5.451,0,0,1-7.112,2.74,8.291,8.291,0,0,1-1.346-.876A4.43,4.43,0,0,1,468.109,404.618Z" transform="translate(-432 -373)"/>
  <path id="Ellipse_291_copy_9" data-name="Ellipse 291 copy 9" class="cls-2" d="M457,423c7.18,0,13-2.239,13-5,0-2.364-4.269-4.339-10-4.861v1.977c4.615,0.356,8,1.511,8,2.884,0,1.657-4.925,3-11,3s-11-1.343-11-3c0-1.373,3.385-2.528,8-2.884v-1.977c-5.731.522-10,2.5-10,4.861,0,2.761,5.82,5,13,5H432V373h25l-7.388,7.526-0.007.073a9.665,9.665,0,0,0-2.6,6.588,9.884,9.884,0,0,0,9,9.763v10.415l-7.343-3.661a7.472,7.472,0,0,0-3.344-8.7,7.386,7.386,0,0,0-6.036-.627l-7.271,1.7,2.58,8.061,0.083,0.053a7.376,7.376,0,0,0,11.166,3.45c-1.332-.672-3.721-1.88-4.433-2.249-1-.52-3.865-2.295-3.419-3.559a7.731,7.731,0,0,1,.443-1.015c0.008,0,.012.014,0.021,0.019l9.569,4.77h0L456,409.6V417a1,1,0,0,0,1,1h0a1,1,0,0,0,1-1v-7.4l8.015-4v0l0.133-.065,2.306-1.149,0.025,0.027,7.016-3.38c0.009,0,.013-0.013.021-0.018a7.219,7.219,0,0,1,.439.972c0.441,1.209-2.393,2.99-3.387,3.488-0.711.355-3.106,1.525-4.42,2.166a7.378,7.378,0,0,0,11.183-3.44l0.083-.053,2.58-8.061-7.271-1.7a7.386,7.386,0,0,0-6.036.627,7.472,7.472,0,0,0-3.344,8.7L458,407.365V396.95a9.884,9.884,0,0,0,9-9.763,9.67,9.67,0,0,0-2.6-6.588l-0.007-.073L457,373h25v50H457Z" transform="translate(-432 -373)"/>
</svg>
