<svg id="law_corporate.svg" xmlns="http://www.w3.org/2000/svg" width="40" height="40" viewBox="0 0 40 40">
  <defs>
    <style>
      .cls-1, .cls-2 {
        fill: #fff;
        fill-rule: evenodd;
      }

      .cls-1 {
        opacity: 0.9;
      }
    </style>
  </defs>
  <path id="Ellipse_340_copy_14" data-name="Ellipse 340 copy 14" class="cls-1" d="M557,555a3,3,0,1,0-3,3A3,3,0,0,0,557,555Zm-3-8a9,9,0,0,0-6.422,15.3,8,8,0,0,1,4.047-2.926,5,5,0,1,1,4.75,0,8,8,0,0,1,4.047,2.926A9,9,0,0,0,554,547Z" transform="translate(-534 -540)"/>
  <path id="Ellipse_340_copy_13" data-name="Ellipse 340 copy 13" class="cls-2" d="M534,540h40v40H534V540Zm39,32h-0.317a6.93,6.93,0,0,0,0,6H573a1,1,0,1,1,0,2H539a4.851,4.851,0,0,1-4.933-5.666A1,1,0,0,1,534,574V545h0a5,5,0,0,1,5-5h34a1,1,0,0,1,1,1h0v30A1,1,0,0,1,573,572Zm-34,6h31.523a8.866,8.866,0,0,1,0-6H539A3,3,0,1,0,539,578Zm33-36H539a3,3,0,0,0-3,3h0v26.022A4.956,4.956,0,0,1,539,570h33V542Zm-18,25a11,11,0,1,1,11-11A11,11,0,0,1,554,567Zm0-2a8.945,8.945,0,0,0,4.873-1.441,5.92,5.92,0,0,0-9.747,0A8.951,8.951,0,0,0,554,565Zm3-10a3,3,0,1,0-3,3A3,3,0,0,0,557,555Zm-17,19h26a1,1,0,0,1,0,2H540A1,1,0,0,1,540,574Z" transform="translate(-534 -540)"/>
</svg>
