<svg id="audit_foreign.svg" xmlns="http://www.w3.org/2000/svg" width="40" height="40" viewBox="0 0 40 40">
  <defs>
    <style>
      .cls-1, .cls-2 {
        fill: #fff;
        fill-rule: evenodd;
      }

      .cls-1 {
        opacity: 0.9;
      }
    </style>
  </defs>
  <path id="Ellipse_353_copy_4" data-name="Ellipse 353 copy 4" class="cls-1" d="M566,511a5.974,5.974,0,0,0-4.487,9.947L561.5,521s1.719,1.719,2.375,2.531,1.906,1.781,2.094,2.813a8.666,8.666,0,0,1,2-2.688c0.68-.6,2.062-2.187,2.437-2.562l-0.017-.029A5.981,5.981,0,0,0,566,511Zm0,10a4,4,0,1,1,4-4A4,4,0,0,1,566,521Z" transform="translate(-534 -498)"/>
  <path id="Ellipse_353_copy_3" data-name="Ellipse 353 copy 3" class="cls-2" d="M534,498h40v40H534V498Zm36.634,25.513C567.176,526.437,567,529,567,529h-2c-0.38-2.8-3.889-5.612-3.889-5.612l0.029-.044A8,8,0,1,1,570.634,523.513ZM566,515a2,2,0,1,0,2,2A2,2,0,0,0,566,515Zm-3.06-12.6c0.245,1.214.025,2.191-.8,2.6-2.662,1.317-4.216,2.119-5.745,4.275-0.967,1.363-1.235,3-2.4,3.485s-3.209.28-4.541-1.924c-0.862-1.425-.484-2.28-1.459-2.717s-2.026.321-2,1.883-0.123,1.439,1,3,3.973,1.788,4,4c0.032,2.586-3.421,1.392-6,3-1.429.891-2.6,5.458-6.879,4.978-0.2-.022-0.461-0.054-0.75-0.09a18.073,18.073,0,0,0,8.789,9.318c1.215-1.327,2.1-2.577,1.84-3.206-0.709-1.712-1.973-2.772-2-4-0.042-1.862,1.041-4.825,3.423-5.017,3.24-.261,6.377,1.638,8.148,3.35s3.188,4.457,2.007,6.536c-1.113,1.96-3.052,2.838-3.964,4.058A17.917,17.917,0,0,0,565.3,532h2.969a20.008,20.008,0,1,1,1.7-26h-2.584A18.183,18.183,0,0,0,562.94,502.4Zm-9.593,33.577a6.463,6.463,0,0,1,2.171-2.813c0.9-.744,2.393-1.861,2.447-3.19s-1.33-2.819-2.819-4.2a7.862,7.862,0,0,0-4.839-1.809c-1.223-.053-2.34.9-2.34,2.766s1.915,2.712,1.968,4.679a5.381,5.381,0,0,1-1.692,3.641A17.944,17.944,0,0,0,553.347,535.975ZM560.889,502c-0.069-.162-0.189-0.427-0.343-0.738A17.8,17.8,0,0,0,554,500a17.958,17.958,0,0,0-17.313,22.878,17,17,0,0,0,1.921.181,3.419,3.419,0,0,0,2.819-1.649,13.775,13.775,0,0,1,3.19-3.4c1.649-1.064,4.042-.745,4.254-1.277s-2.074-1.648-3.031-2.446-1.808-1.7-1.808-4.2,1.223-4.1,3.563-4.1,2.606,1.755,3.084,3.244a2.143,2.143,0,0,0,2.287,1.755c0.851-.053,1.01-1.01,1.489-2.074a16.974,16.974,0,0,1,2.34-3.244c0.638-.744,2.978-1.542,3.616-1.861A1.318,1.318,0,0,0,560.889,502Z" transform="translate(-534 -498)"/>
</svg>
