<svg id="automat_analytic.svg" xmlns="http://www.w3.org/2000/svg" width="40" height="40" viewBox="0 0 40 40">
  <defs>
    <style>
      .cls-1, .cls-2 {
        fill: #fff;
        fill-rule: evenodd;
      }

      .cls-1 {
        opacity: 0.9;
      }
    </style>
  </defs>
  <path id="Rounded_Rectangle_971_copy_6" data-name="Rounded Rectangle 971 copy 6" class="cls-1" d="M496,410h6V399h-6v11Zm13,0h6V393h-6v17Zm13,0h6V389h-6v21Z" transform="translate(-492 -372)"/>
  <path id="Rounded_Rectangle_971_copy_5" data-name="Rounded Rectangle 971 copy 5" class="cls-2" d="M492,372h40v40H492V372Zm36.5,7a3.485,3.485,0,0,1-2.432-.99l-8.116,4.017a3.354,3.354,0,0,1,.048.473,3.5,3.5,0,0,1-7,0c0-.091.02-0.177,0.027-0.266l-4.744-1.632a3.4,3.4,0,0,1-3.865,1.21l-4.154,6.563a3.585,3.585,0,1,1-1.627-1.17l4.137-6.535A3.493,3.493,0,1,1,507,378.5c0,0.077-.018.15-0.023,0.226l4.767,1.64a3.461,3.461,0,0,1,5.38-.16l7.965-3.943A3.5,3.5,0,1,1,528.5,379Zm-33,10a1.5,1.5,0,1,0,1.5,1.5A1.5,1.5,0,0,0,495.5,389Zm8-12a1.5,1.5,0,1,0,1.5,1.5A1.5,1.5,0,0,0,503.5,377Zm11,4a1.5,1.5,0,1,0,1.5,1.5A1.5,1.5,0,0,0,514.5,381Zm14-7a1.5,1.5,0,1,0,1.5,1.5A1.5,1.5,0,0,0,528.5,374ZM495,397h8a1,1,0,0,1,1,1v13a1,1,0,0,1-1,1h-8a1,1,0,0,1-1-1V398A1,1,0,0,1,495,397Zm13-6h8a1,1,0,0,1,1,1v19a1,1,0,0,1-1,1h-8a1,1,0,0,1-1-1V392A1,1,0,0,1,508,391Zm13-4h8a1,1,0,0,1,1,1v23a1,1,0,0,1-1,1h-8a1,1,0,0,1-1-1V388A1,1,0,0,1,521,387Z" transform="translate(-492 -372)"/>
</svg>
