<svg id="law_infrastructure.svg" xmlns="http://www.w3.org/2000/svg" width="40" height="40" viewBox="0 0 40 40">
  <defs>
    <style>
      .cls-1, .cls-2 {
        fill: #fff;
        fill-rule: evenodd;
      }

      .cls-1 {
        opacity: 0.9;
      }
    </style>
  </defs>
  <path id="Rounded_Rectangle_1003_copy_6" data-name="Rounded Rectangle 1003 copy 6" class="cls-1" d="M527,542c-1.657,0-3,2.014-3,4.5a4.741,4.741,0,0,0,2,4.225V548a1,1,0,0,1,2,0v2.724a4.743,4.743,0,0,0,2-4.225C530,544.014,528.657,542,527,542Zm-30,25c-1.657,0-3,2.015-3,4.5a4.74,4.74,0,0,0,2,4.224V573a1,1,0,0,1,2,0v2.724a4.742,4.742,0,0,0,2-4.224C500,569.015,498.657,567,497,567Zm0-18c-1.657,0-3,2.015-3,4.5a4.74,4.74,0,0,0,2,4.224V555a1,1,0,0,1,2,0v2.724a4.742,4.742,0,0,0,2-4.224C500,551.015,498.657,549,497,549Zm29,19.724V566a1,1,0,0,1,2,0v2.724a4.743,4.743,0,0,0,2-4.225c0-2.485-1.343-4.5-3-4.5s-3,2.014-3,4.5A4.741,4.741,0,0,0,526,568.724Z" transform="translate(-492 -540)"/>
  <path id="Rounded_Rectangle_1003_copy_5" data-name="Rounded Rectangle 1003 copy 5" class="cls-2" d="M492,540h40v40H492V540Zm36,12.869V554a1,1,0,0,1-2,0v-1.131c-2.282-.6-4-3.225-4-6.37,0-3.589,2.239-6.5,5-6.5s5,2.91,5,6.5C532,549.644,530.282,552.266,528,552.869ZM519,580a1,1,0,0,1-1-1V541a1,1,0,0,1,2,0v38A1,1,0,0,1,519,580Zm-7,0a1,1,0,0,1-1-1v-5a1,1,0,0,1,2,0v5A1,1,0,0,1,512,580Zm0-11a1,1,0,0,1-1-1v-5a1,1,0,1,1,2,0v5A1,1,0,0,1,512,569Zm0-11a1,1,0,0,1-1-1v-5a1,1,0,0,1,2,0v5A1,1,0,0,1,512,558Zm0-11a1,1,0,0,1-1-1v-5a1,1,0,0,1,2,0v5A1,1,0,0,1,512,547Zm-7,33a1,1,0,0,1-1-1V541a1,1,0,0,1,2,0v38A1,1,0,0,1,505,580Zm-7-2.13V579a1,1,0,0,1-2,0v-1.131c-2.282-.6-4-3.225-4-6.369,0-3.59,2.239-6.5,5-6.5s5,2.91,5,6.5C502,574.644,500.282,577.266,498,577.869Zm0-18V561a1,1,0,0,1-2,0v-1.131c-2.282-.6-4-3.225-4-6.369,0-3.59,2.239-6.5,5-6.5s5,2.91,5,6.5C502,556.644,500.282,559.266,498,559.869ZM527,558c2.761,0,5,2.91,5,6.5,0,3.145-1.718,5.767-4,6.37V572a1,1,0,0,1-2,0v-1.131c-2.282-.6-4-3.225-4-6.37C522,560.91,524.239,558,527,558Z" transform="translate(-492 -540)"/>
</svg>
