<svg id="start2.svg" xmlns="http://www.w3.org/2000/svg" width="40" height="40" viewBox="0 0 40 40">
  <defs>
    <style>
      .cls-1, .cls-2 {
        fill: #fff;
        fill-rule: evenodd;
      }

      .cls-1 {
        opacity: 0.9;
      }
    </style>
  </defs>
  <path id="Shape_970_copy_6" data-name="Shape 970 copy 6" class="cls-1" d="M1087.84,242.135l-4.2,14.387s-2.77-2.01-3.67-4.066l2.42-14.61S1085.56,241.107,1087.84,242.135Zm-31.48,14.387-4.2-14.387c2.28-1.028,5.45-4.289,5.45-4.289l2.42,14.61C1059.13,254.512,1056.36,256.522,1056.36,256.522Z" transform="translate(-1050 -226)"/>
  <path id="Shape_970_copy_5" data-name="Shape 970 copy 5" class="cls-2" d="M1079.2,246.628a59.6,59.6,0,0,0-6.18-5.7l3.77-13.018a11.051,11.051,0,0,1,4.3,4.217s-0.25,4.148-1.68,13.277Q1079.3,246.026,1079.2,246.628Zm-15.99-18.719,3.77,13.018a59.6,59.6,0,0,0-6.18,5.7q-0.1-.6-0.21-1.225c-1.43-9.129-1.68-13.277-1.68-13.277A11.051,11.051,0,0,1,1063.21,227.909ZM1075.04,266a1.037,1.037,0,0,0,.28-0.033,1.008,1.008,0,0,0,.64-1.263l-4.92-16.954,1.38-4.773a34.212,34.212,0,0,1,6.32,6.142c-0.45,2.322-.79,3.824-0.79,3.824a20.339,20.339,0,0,0,6.59,7.066l5.45-19.037c-2.65-.925-5.65-3.756-7.35-5.525,0.13-1.119.25-2.277,0.37-3.5a16.627,16.627,0,0,0-4.55-5.1,5.846,5.846,0,0,0-2.13-.785h0a0.016,0.016,0,0,1-.01,0c-0.11-.019-0.22-0.041-0.32-0.055h14v40h-14.96Zm0.02-39.305L1070,244.161l-5.06-17.466a0.994,0.994,0,0,0-.94-0.678V226h12v0.017A0.994,0.994,0,0,0,1075.06,226.7Zm-11.39-.639h0a5.846,5.846,0,0,0-2.13.785,16.627,16.627,0,0,0-4.55,5.1c0.12,1.226.24,2.384,0.37,3.5-1.7,1.769-4.7,4.6-7.35,5.525l5.45,19.037a20.339,20.339,0,0,0,6.59-7.066s-0.34-1.5-.79-3.824a34.212,34.212,0,0,1,6.32-6.142l1.38,4.773-4.92,16.954a1.008,1.008,0,0,0,.64,1.263,1.037,1.037,0,0,0,.28.033H1050V226h14c-0.1.014-.21,0.036-0.32,0.055A0.016,0.016,0,0,1,1063.67,226.056Zm2.27,39.272,4.06-13.989,4.06,13.989a0.986,0.986,0,0,0,.82.672h-9.76A0.986,0.986,0,0,0,1065.94,265.328Z" transform="translate(-1050 -226)"/>
</svg>
