<svg id="ser_audit.svg" xmlns="http://www.w3.org/2000/svg" width="40" height="40" viewBox="0 0 40 40">
  <defs>
    <style>
      .cls-1, .cls-2 {
        fill: #fff;
        fill-rule: evenodd;
      }

      .cls-1 {
        opacity: 0.9;
      }
    </style>
  </defs>
  <path id="Rounded_Rectangle_1028_copy_4" data-name="Rounded Rectangle 1028 copy 4" class="cls-1" d="M541,340h1v7h-1v3h1v7h-1v3h26V337H541v3Zm20.332,16.747-2.433-2.432a8.021,8.021,0,1,1,1.415-1.415l2.432,2.433A1,1,0,0,1,561.332,356.747ZM554,342a6,6,0,1,0,6,6A6,6,0,0,0,554,342Zm0,4.024c-0.028,0-.052-0.014-0.08-0.016A2,2,0,0,0,552,348h-0.007a1,1,0,0,1-2,0c0-.025.012-0.046,0.014-0.07A4,4,0,0,1,554,344v0.025A1,1,0,0,1,554,346.024Z" transform="translate(-534 -330)"/>
  <path id="Rounded_Rectangle_1028_copy_3" data-name="Rounded Rectangle 1028 copy 3" class="cls-2" d="M534,330h40v40H534V330Zm37,37v2a1,1,0,0,1-1,1h-8a1,1,0,0,1-1-1v-2H547v2a1,1,0,0,1-1,1h-8a1,1,0,0,1-1-1v-2a3,3,0,0,1-3-3V333a3,3,0,0,1,3-3h34a3,3,0,0,1,3,3v31A3,3,0,0,1,571,367Zm-8,1h6v-1h-6v1Zm-24,0h6v-1h-6v1Zm33-35a1,1,0,0,0-1-1H537a1,1,0,0,0-1,1v31a1,1,0,0,0,1,1h34a1,1,0,0,0,1-1V333Zm-33,24v-2h1v-3h-1v-7h1v-3h-1v-7h30v27H539v-5Zm15-15a6,6,0,1,0,6,6A6,6,0,0,0,554,342Zm0,4.024c-0.028,0-.052-0.014-0.08-0.016A2,2,0,0,0,552,348h-0.007a1,1,0,0,1-2,0c0-.025.012-0.046,0.014-0.07A4,4,0,0,1,554,344v0.025A1,1,0,0,1,554,346.024Z" transform="translate(-534 -330)"/>
</svg>
