<svg id="target.svg" xmlns="http://www.w3.org/2000/svg" width="40" height="40" viewBox="0 0 40 40">
  <defs>
    <style>
      .cls-1, .cls-2 {
        fill: #fff;
        fill-rule: evenodd;
      }

      .cls-1 {
        opacity: 0.9;
      }
    </style>
  </defs>
  <path id="Ellipse_310_copy_5" data-name="Ellipse 310 copy 5" class="cls-1" d="M590,375a11,11,0,1,0,11,11A11,11,0,0,0,590,375Zm0,17a6,6,0,1,1,6-6A6,6,0,0,1,590,392Z" transform="translate(-570 -366)"/>
  <path id="Ellipse_310_copy_4" data-name="Ellipse 310 copy 4" class="cls-2" d="M570,366h40v40H570V366Zm34.815,6.6a19.912,19.912,0,0,1,0,26.8l4.863,4.862a1,1,0,1,1-1.415,1.414l-4.862-4.862a19.912,19.912,0,0,1-26.8,0l-4.862,4.862a1,1,0,1,1-1.414-1.414l4.862-4.862a19.915,19.915,0,0,1,0-26.8l-4.862-4.862a1,1,0,0,1,1.414-1.414l4.863,4.862a19.91,19.91,0,0,1,26.8,0l4.862-4.862a1,1,0,0,1,1.415,1.414ZM590,368a18,18,0,1,0,18,18A18,18,0,0,0,590,368Zm0,31a13,13,0,1,1,13-13A13,13,0,0,1,590,399Zm0-17a4,4,0,1,1-4,4A4,4,0,0,1,590,382Z" transform="translate(-570 -366)"/>
</svg>
