<svg id="management_wealth.svg" xmlns="http://www.w3.org/2000/svg" width="40" height="40" viewBox="0 0 40 40">
  <defs>
    <style>
      .cls-1, .cls-2 {
        fill: #fff;
        fill-rule: evenodd;
      }

      .cls-2 {
        opacity: 0.9;
      }
    </style>
  </defs>
  <path id="Rounded_Rectangle_965_copy_4" data-name="Rounded Rectangle 965 copy 4" class="cls-1" d="M526,496a1,1,0,0,0,1-1v-2a2,2,0,0,0-2-2v-1.59l6.722-6.722a0.981,0.981,0,0,0,.278-0.778V496h-6Zm-34-14.09a0.981,0.981,0,0,0,.278.778L499,489.409V491a2,2,0,0,0-2,2v2a1,1,0,0,0,1,1h-6v-14.09ZM499,495v-2h12v2a1,1,0,0,0,1,1H498A1,1,0,0,0,499,495Zm14,0v-2h12v2a1,1,0,0,0,1,1H512A1,1,0,0,0,513,495Zm16-28a3,3,0,0,0-3,3v7a1,1,0,0,0,2,0v-7a1,1,0,0,1,2,0V481.59l-6.7,6.7-0.019.019-0.285.285V491h-8v-4.38l7.338-7.339a1,1,0,1,1,1.414,1.415l-1.827,1.828h0l-0.01.011-0.7.7,0.007,0.007-0.933.95a1,1,0,0,0,1.414,1.414l1.623-1.653,1.839-1.839a3,3,0,0,0-4.243-4.243l-7.383,7.384a2.447,2.447,0,0,0-.541.839V491a1.938,1.938,0,0,1-2,0v-4.91a2.462,2.462,0,0,0-.541-0.839l-7.383-7.384a3,3,0,0,0-4.243,4.243l1.839,1.839,1.622,1.653a1,1,0,0,0,1.415-1.414l-0.933-.95,0.007-.007-0.7-.7-0.01-.011h0l-1.828-1.828a1,1,0,1,1,1.415-1.415L509,486.619V491h-8v-2.41l-0.285-.285-0.019-.019-6.7-6.7V470a1,1,0,0,1,2,0v7a1,1,0,0,0,2,0v-7a3,3,0,0,0-6,0V456h11a2,2,0,0,0-2,2v12a2,2,0,0,0,2,2h18a2,2,0,0,0,2-2V458a2,2,0,0,0-2-2h11v14A3,3,0,0,0,529,467Zm-7,6H502a1,1,0,0,0,0,2h20A1,1,0,0,0,522,473Zm-1-4.816V470h-1.816A2.991,2.991,0,0,1,521,468.183ZM521,458v1.816A2.987,2.987,0,0,1,519.184,458H521Zm-9,8a2,2,0,1,1,2-2A2,2,0,0,1,512,466Zm-9,2.183A2.991,2.991,0,0,1,504.816,470H503v-1.817Zm0-8.367V458h1.816A2.987,2.987,0,0,1,503,459.816Z" transform="translate(-492 -456)"/>
  <path id="Rounded_Rectangle_965_copy_5" data-name="Rounded Rectangle 965 copy 5" class="cls-2" d="M521,461.9a5,5,0,0,1-3.9-3.9H506.9a5,5,0,0,1-3.9,3.9v4.2a5.006,5.006,0,0,1,3.9,3.9h10.2a5.006,5.006,0,0,1,3.9-3.9v-4.2Zm-9,6.1a4,4,0,1,1,4-4A4,4,0,0,1,512,468Z" transform="translate(-492 -456)"/>
</svg>
