<svg id="info_cybercrime.svg" xmlns="http://www.w3.org/2000/svg" width="40" height="40" viewBox="0 0 40 40">
  <defs>
    <style>
      .cls-1, .cls-2 {
        fill: #fff;
        fill-rule: evenodd;
      }

      .cls-1 {
        opacity: 0.9;
      }
    </style>
  </defs>
  <path id="Rounded_Rectangle_988_copy_10" data-name="Rounded Rectangle 988 copy 10" class="cls-1" d="M473.99,593.875a3.993,3.993,0,0,0-2.481-3.576,2,2,0,1,0-3.018,0,4,4,0,0,0-2.482,3.576A0.787,0.787,0,0,1,466,594a4,4,0,0,0,8,0A0.789,0.789,0,0,1,473.99,593.875Z" transform="translate(-450 -582)"/>
  <path id="Rounded_Rectangle_988_copy_9" data-name="Rounded Rectangle 988 copy 9" class="cls-2" d="M450,582h40v40H450V582Zm38,40H452a2,2,0,0,1-2-2v-3a2,2,0,0,1,2-2h1V596a2,2,0,0,1,2-2h2l-1,2h-1v19h30V596h-1l-1-2h2a2,2,0,0,1,2,2v19h1a2,2,0,0,1,2,2v3A2,2,0,0,1,488,622Zm0-5H474.9a1.487,1.487,0,0,1-1.4,1h-7a1.487,1.487,0,0,1-1.4-1H452v3h36v-3Zm-5-14v10H457V603l2,2v6h22v-6Zm-4.062-8.324a0.882,0.882,0,0,1,.049.243c0,0.023.013,0.041,0.013,0.064L481,600a1,1,0,1,1-2,0l-1.648-4.132-1.523-.539a6.3,6.3,0,0,1-.254.859,0.994,0.994,0,0,1,.291.313l0.964,1.947a0.969,0.969,0,0,1,.143.392,0.877,0.877,0,0,1,.018.086c0,0.016.009,0.03,0.009,0.047V603a1,1,0,1,1-2,0v-3.75l-0.6-1.2a5.94,5.94,0,0,1-8.808,0l-0.6,1.2V603a1,1,0,1,1-2,0v-4.03c0-.017.008-0.031,0.009-0.047a0.877,0.877,0,0,1,.018-0.086,0.955,0.955,0,0,1,.143-0.392l0.964-1.947a0.994,0.994,0,0,1,.291-0.313,6.162,6.162,0,0,1-.254-0.859l-1.523.539L461,600a1,1,0,1,1-2,0l2-5.014c0-.023.011-0.041,0.013-0.064a0.882,0.882,0,0,1,.049-0.243,0.984,0.984,0,0,1,.886-0.686l1.441-.51-2.739-1.55a1,1,0,0,1-.172-0.1l-0.255-.145a1.212,1.212,0,0,1-.058-0.17A0.973,0.973,0,0,1,460,591l-1-4a1,1,0,0,1,2,0l0.792,3.166a0.725,0.725,0,0,1,.163.164l2.546,1.363a6.551,6.551,0,0,1,.379-0.73l-1.733-3.472a0.98,0.98,0,0,1-.114-0.326,0.936,0.936,0,0,1-.023-0.115c0-.018-0.01-0.033-0.01-0.05v-4a1,1,0,0,1,2,0v3.733l1.022,2.048a3.983,3.983,0,0,1,7.956,0L475,586.733V583a1,1,0,0,1,2,0v4c0,0.017-.009.032-0.01,0.05a0.936,0.936,0,0,1-.023.115,1,1,0,0,1-.114.326l-1.733,3.472a6.544,6.544,0,0,1,.378.73l2.547-1.363a0.7,0.7,0,0,1,.163-0.164L479,587a1,1,0,0,1,2,0l-1,4a0.973,0.973,0,0,1-.165.517,1.212,1.212,0,0,1-.058.17l-0.255.145a1.04,1.04,0,0,1-.172.1l-2.739,1.55,1.441,0.51A0.984,0.984,0,0,1,478.938,594.675Z" transform="translate(-450 -582)"/>
</svg>
