<svg xmlns="http://www.w3.org/2000/svg" width="500" height="500" viewBox="0 0 500 500">
  <defs>
    <style>
      .cls-1 {
        fill: #fab600;
      }

      .cls-1, .cls-10, .cls-2, .cls-3, .cls-4, .cls-5, .cls-6, .cls-7, .cls-8, .cls-9 {
        fill-rule: evenodd;
      }

      .cls-2 {
        fill: #ccc;
      }

      .cls-3 {
        fill: #333;
      }

      .cls-4 {
        fill: #37ac09;
      }

      .cls-5 {
        fill: #222;
      }

      .cls-6 {
        fill: #999;
      }

      .cls-7 {
        fill: #888;
      }

      .cls-8 {
        fill: #1d2029;
      }

      .cls-9 {
        fill: #fff;
      }

      .cls-10 {
        fill: none;
        stroke: #fff;
        stroke-linecap: round;
        stroke-linejoin: round;
        stroke-width: 2px;
      }
    </style>
  </defs>
  <path id="Star" class="cls-1" d="M143.483,50.84l2.063,3.964,4.43,0.754-3.154,3.171,0.674,4.461-4.013-2.036-4.013,2.036,0.675-4.461-3.155-3.171,4.43-.754,2.063-3.964"/>
  <path id="Star-2" data-name="Star" class="cls-2" d="M158.483,50.84l2.063,3.964,4.43,0.754-3.154,3.171,0.674,4.461-4.013-2.036-4.013,2.036,0.675-4.461-3.155-3.171,4.43-.754,2.063-3.964"/>
  <path class="cls-2" d="M99,62a7,7,0,1,1,7-7A7,7,0,0,1,99,62Zm2.828-8.416a1,1,0,1,0-1.414-1.414L99,53.584,97.585,52.17a1,1,0,0,0-1.414,1.414L97.585,55l-1.414,1.414a1,1,0,0,0,1.414,1.414L99,56.412l1.415,1.414a1,1,0,1,0,1.414-1.414L100.414,55Z"/>
  <path id="Star-3" data-name="Star" class="cls-1" d="M382.449,49.838L385.139,55l5.773,0.982L386.8,60.12l0.879,5.815-5.23-2.654-5.231,2.654L378.1,60.12l-4.111-4.134L379.76,55l2.689-5.166"/>
  <path id="Star-4" data-name="Star" class="cls-2" d="M401.45,49.838L404.139,55l5.773,0.982L405.8,60.12l0.879,5.815-5.23-2.654-5.231,2.654,0.88-5.815-4.112-4.134L398.761,55l2.689-5.166"/>
  <path id="_-" data-name="+-" class="cls-3" d="M89,206v-2H99v2H89Zm-24,4H63v-4H59v-2h4v-4h2v4h4v2H65v4Zm-38-6H39v2H27v-2ZM8,211H6v-5H1v-2H6v-5H8v5h5v2H8v5Z"/>
  <path id="Check" class="cls-4" d="M124.691,54.668L118.9,60.724a1,1,0,0,1-1.415,0L114.272,57.7a1,1,0,0,1,1.414-1.414l2.468,2.324,5.123-5.355A1,1,0,1,1,124.691,54.668Z"/>
  <path id="X" class="cls-5" d="M182.9,92.5l2.809,2.809a0.993,0.993,0,1,1-1.4,1.4L181.5,93.9l-2.809,2.809a0.993,0.993,0,1,1-1.405-1.4L180.1,92.5l-2.809-2.809a0.993,0.993,0,1,1,1.405-1.4l2.809,2.809,2.809-2.809a0.993,0.993,0,1,1,1.4,1.4Z"/>
  <path id="wallet" class="cls-6" d="M87,99H77a2.991,2.991,0,0,1-2.96-2.6A2.012,2.012,0,0,1,74,96V86a2,2,0,0,1,2-2h9a2,2,0,0,1,2,2H76v1H87a2,2,0,0,1,2,2v8A2,2,0,0,1,87,99Zm0-10H76v7a1,1,0,0,0,1,1H87V89Zm-4,3h1a1,1,0,1,1,0,2H83A1,1,0,1,1,83,92Z"/>
  <path id="gift" class="cls-7" d="M151,93v6a1,1,0,0,1-1,1H138a1,1,0,0,1-1-1V93h-1V89a2,2,0,0,1,2-2h1.05a2.5,2.5,0,0,1,2.45-3h1a2.482,2.482,0,0,1,1.662.645A2.972,2.972,0,0,1,146,84h0.5a2.5,2.5,0,0,1,2.449,3H150a2,2,0,0,1,2,2v4h-1Zm-12-4h-1v2h4v2h-3v5h4V89h-4Zm3.5-3h-1a0.5,0.5,0,0,0,0,1h1A0.5,0.5,0,0,0,142.5,86Zm4,0h-1a0.5,0.5,0,0,0,0,1h1A0.5,0.5,0,0,0,146.5,86Zm3.5,3h-5v9h4V93h-3V91h4V89Z"/>
  <path id="Shape" class="cls-8" d="M90.7,17.7a1.039,1.039,0,0,1-1.469,0l-2.8-2.8a6.022,6.022,0,1,1,1.469-1.469l2.8,2.8A1.039,1.039,0,0,1,90.7,17.7ZM83,6a4,4,0,1,0,4,4A4,4,0,0,0,83,6Z"/>
  <path id="Shape-2" data-name="Shape" class="cls-8" d="M119.5,10a1.5,1.5,0,1,1-1.5,1.5A1.5,1.5,0,0,1,119.5,10Zm6,0a1.5,1.5,0,1,1-1.5,1.5A1.5,1.5,0,0,1,125.5,10Zm6,0a1.5,1.5,0,1,1-1.5,1.5A1.5,1.5,0,0,1,131.5,10Z"/>
  <path id="Shape-3" data-name="Shape" class="cls-9" d="M158.5,10a1.5,1.5,0,1,1-1.5,1.5A1.5,1.5,0,0,1,158.5,10Zm6,0a1.5,1.5,0,1,1-1.5,1.5A1.5,1.5,0,0,1,164.5,10Zm6,0a1.5,1.5,0,1,1-1.5,1.5A1.5,1.5,0,0,1,170.5,10Z"/>
  <path id="Print" class="cls-6" d="M43,97H40v1a1,1,0,0,1-1,1H33a1,1,0,0,1-1-1V97H29a1,1,0,0,1-1-1V90a1,1,0,0,1,1-1h3V86a1,1,0,0,1,1-1h6a1,1,0,0,1,1,1v3h3a1,1,0,0,1,1,1v6A1,1,0,0,1,43,97Zm-9,0h4V95H34v2Zm4-10H34v2h4V87Zm4,4H30v4h2V94a1,1,0,0,1,1-1h6a1,1,0,0,1,1,1v1h2V91Z"/>
  <path class="cls-10" d="M45,55H34"/>
  <path class="cls-10" d="M41,50l5,5-5,5"/>
</svg>
