<svg id="teamwork.svg" xmlns="http://www.w3.org/2000/svg" width="50" height="50" viewBox="0 0 50 50">
  <defs>
    <style>
      .cls-1, .cls-2 {
        fill: #fff;
        fill-rule: evenodd;
      }

      .cls-1 {
        opacity: 0.9;
      }
    </style>
  </defs>
  <path id="Rounded_Rectangle_809_copy_3" data-name="Rounded Rectangle 809 copy 3" class="cls-1" d="M358,405v14a2,2,0,0,1-2,2h-2V410a1,1,0,0,0-2,0v11h-2a2,2,0,0,1-2-2V398a1,1,0,0,0-2,0v7h-2a2,2,0,0,1-2-2V393a2,2,0,0,1,2-2h18a2,2,0,0,1,2,2v10a2,2,0,0,1-2,2h-2v-7a1,1,0,0,0-2,0v7Zm-5-20a5,5,0,1,1,5-5A5,5,0,0,1,353,385Z" transform="translate(-328 -373)"/>
  <path id="Rounded_Rectangle_809_copy_2" data-name="Rounded Rectangle 809 copy 2" class="cls-2" d="M356,423a4,4,0,0,0,4-4V407h2a4,4,0,0,0,4-4V393a4,4,0,0,0-4-4H344a4,4,0,0,0-4,4v10a4,4,0,0,0,4,4h2v12a4,4,0,0,0,4,4H328V397a3,3,0,0,0,3,3h1v10a3,3,0,0,0,3,3h4a3,3,0,0,0,3-3v-0.367a5.962,5.962,0,0,1-2-1.19V410a1,1,0,0,1-1,1h-1v-9a1,1,0,0,0-2,0v9h-1a1,1,0,0,1-1-1V394a1,1,0,1,0-2,0v4h-1a1,1,0,0,1-1-1v-9a1,1,0,0,1,1-1h12a1,1,0,0,0,0-2H331a3,3,0,0,0-3,3V373h9a5,5,0,1,0,5,5,5,5,0,0,0-5-5h16a7,7,0,1,0,7,7,7,7,0,0,0-7-7h16a5,5,0,1,0,5,5,5,5,0,0,0-5-5h9v50H356Zm22-35a3,3,0,0,0-3-3H363a1,1,0,0,0,0,2h12a1,1,0,0,1,1,1v9a1,1,0,0,1-1,1h-1v-4a1,1,0,1,0-2,0v16a1,1,0,0,1-1,1h-1v-9a1,1,0,0,0-2,0v9h-1a1,1,0,0,1-1-1v-1.557a5.982,5.982,0,0,1-2,1.19V410a3,3,0,0,0,3,3h4a3,3,0,0,0,3-3V400h1a3,3,0,0,0,3-3v-9Zm-9-7a3,3,0,1,1,3-3A3,3,0,0,1,369,381Zm-32,0a3,3,0,1,1,3-3A3,3,0,0,1,337,381Z" transform="translate(-328 -373)"/>
</svg>
