<svg id="smartsecurity.svg" xmlns="http://www.w3.org/2000/svg" width="40" height="40" viewBox="0 0 40 40">
  <defs>
    <style>
      .cls-1, .cls-2 {
        fill: #fff;
        fill-rule: evenodd;
      }

      .cls-1 {
        opacity: 0.9;
      }
    </style>
  </defs>
  <path id="Ellipse_314_copy_10" data-name="Ellipse 314 copy 10" class="cls-1" d="M916,387a4.949,4.949,0,0,0,2.482-.683A2.992,2.992,0,0,1,914,390.221v0.056A2,2,0,1,1,911,392V379h0v-1h0a2,2,0,1,1,3,1.722v0.056a3.008,3.008,0,1,1,1,5.038V386.9A5.062,5.062,0,0,0,916,387Zm-9,7a1.994,1.994,0,0,1-1-3.723v-0.056a3.007,3.007,0,1,1-1-5.038V383.1a4.891,4.891,0,0,0-3.482.582,2.993,2.993,0,0,1,4.482-3.9v-0.056A2,2,0,1,1,909,378v12h0v2h0A2,2,0,0,1,907,394Z" transform="translate(-890 -366)"/>
  <path id="Ellipse_314_copy_9" data-name="Ellipse 314 copy 9" class="cls-2" d="M890,406V386c0,14,20,20,20,20h0s20-5.982,20-19.939V406H890Zm39-33a6,6,0,0,1-6-6v-1h7v7h-1Zm-1,1.931v12.123a12.1,12.1,0,0,1-3,7.122,32.639,32.639,0,0,1-15,9.83V404a32.633,32.633,0,0,1-15-9.858A12.159,12.159,0,0,1,892,387V374.931A7.994,7.994,0,0,0,898.931,368h22.162A7.979,7.979,0,0,0,928,374.931Zm-7.655,9.5c0.035-.061.068-0.122,0.1-0.184a5.019,5.019,0,0,0,.232-0.524c0.049-.13.086-0.265,0.124-0.4s0.081-.27.107-0.412A4.856,4.856,0,0,0,921,382a4.994,4.994,0,0,0-4.114-4.91A27.788,27.788,0,0,1,907,374a3.993,3.993,0,0,0-3.886,3.089A4.967,4.967,0,0,0,900.022,385a4.932,4.932,0,0,0-.368.572q-0.051.09-.1,0.183a4.712,4.712,0,0,0-.232.524c-0.049.13-.086,0.265-0.124,0.4s-0.082.271-.108,0.413A4.836,4.836,0,0,0,899,388a4.992,4.992,0,0,0,4.114,4.91A27.749,27.749,0,0,1,913,396a4,4,0,0,0,3.886-3.09,4.965,4.965,0,0,0,3.091-7.91A4.885,4.885,0,0,0,920.345,384.428ZM891,373h-1v-7h7v1A6,6,0,0,1,891,373Z" transform="translate(-890 -366)"/>
</svg>
