<svg id="law_arguing.svg" xmlns="http://www.w3.org/2000/svg" width="40" height="40" viewBox="0 0 40 40">
  <defs>
    <style>
      .cls-1, .cls-2 {
        fill: #fff;
        fill-rule: evenodd;
      }

      .cls-1 {
        opacity: 0.9;
      }
    </style>
  </defs>
  <path id="Rounded_Rectangle_1003_copy_9" data-name="Rounded Rectangle 1003 copy 9" class="cls-1" d="M482,544a2,2,0,0,0-2-2H454a2,2,0,0,0-2,2v20a2,2,0,0,0,2,2h4v6l5.25-6H480a2,2,0,0,0,2-2V544Zm-8,16a1,1,0,1,1,1-1A1,1,0,0,1,474,560Zm0-3a1,1,0,0,1-1-1v-7a1,1,0,0,1,2,0v7A1,1,0,0,1,474,557Zm-4.931-3.68a5.672,5.672,0,0,1-.816.757,5.714,5.714,0,0,0-.6.563,2.344,2.344,0,0,0-.629.7,0.48,0.48,0,0,0-.07.447A0.93,0.93,0,0,1,467,556a1,1,0,0,1-2,0,0.639,0.639,0,0,1,.013-0.063,1.92,1.92,0,0,1,.122-1.012,3.365,3.365,0,0,1,.519-1.088,3.653,3.653,0,0,1,.771-0.739c0.272-.2.5-0.388,0.742-0.57a3.557,3.557,0,0,0,.612-0.569,1.1,1.1,0,0,0,.246-0.723,1.218,1.218,0,0,0-.348-0.926,1.849,1.849,0,0,0-1.267-.332,5.276,5.276,0,0,0-.762.131,3.011,3.011,0,0,0-1.16.782l-0.023-.021A0.968,0.968,0,0,1,464,551a1,1,0,0,1-1-1,0.985,0.985,0,0,1,.1-0.416l-0.026-.024a3.465,3.465,0,0,1,1.419-1.14,3.687,3.687,0,0,1,1.75-.431,4.272,4.272,0,0,1,2.711.751A2.5,2.5,0,0,1,470.038,551a2.705,2.705,0,0,1-.309,1.519A2.4,2.4,0,0,1,469.069,553.319ZM459,560a1,1,0,1,1,1-1A1,1,0,0,1,459,560Zm0-3a1,1,0,0,1-1-1v-7a1,1,0,0,1,2,0v7A1,1,0,0,1,459,557Zm7,1a1,1,0,1,1-1,1A1,1,0,0,1,466,558Z" transform="translate(-450 -540)"/>
  <path id="Rounded_Rectangle_1003_copy_8" data-name="Rounded Rectangle 1003 copy 8" class="cls-2" d="M450,540h40v40H450V540Zm36,34h-2v5l-1,1h-2l-5.455-6H463.333l2.334-2H476.75l5.25,6v-6h4a2,2,0,0,0,2-2V550a1.994,1.994,0,0,0-1-1.723v-2.136A3.991,3.991,0,0,1,490,550v20A4,4,0,0,1,486,574Zm-6-6H464.454L459,574h-2l-1-1v-5h-2a4,4,0,0,1-4-4V544a4,4,0,0,1,4-4h26a4,4,0,0,1,4,4v20A4,4,0,0,1,480,568Z" transform="translate(-450 -540)"/>
</svg>
