<svg id="ser_infodefence.svg" xmlns="http://www.w3.org/2000/svg" width="40" height="40" viewBox="0 0 40 40">
  <defs>
    <style>
      .cls-1, .cls-2 {
        fill: #fff;
        fill-rule: evenodd;
      }

      .cls-1 {
        opacity: 0.9;
      }
    </style>
  </defs>
  <path id="Ellipse_294_copy_4" data-name="Ellipse 294 copy 4" class="cls-1" d="M687,344H673v10h14V344Zm-6.337,2.121a1.995,1.995,0,0,1,.316,3.624v1.573a0.683,0.683,0,0,1-.682.682H679.7a0.682,0.682,0,0,1-.682-0.682v-1.573a1.995,1.995,0,0,1,.315-3.624A0.671,0.671,0,0,1,679.7,346" transform="translate(-660 -330)"/>
  <path id="Ellipse_294_copy_3" data-name="Ellipse 294 copy 3" class="cls-2" d="M660,330h40v40H660V330Zm37,32H686.339l0.584,6H689a1,1,0,1,1,0,2H671a1,1,0,1,1,0-2h2.077l0.584-6H663a3,3,0,0,1-3-3V333a3,3,0,0,1,3-3h34a3,3,0,0,1,3,3v26A3,3,0,0,1,697,362Zm-12.145,6-0.583-6h-8.544l-0.584,6h9.711ZM698,333a1,1,0,0,0-1-1H663a1,1,0,0,0-1,1v26a1,1,0,0,0,1,1h34a1,1,0,0,0,1-1V333Zm-4,17h-1a1,1,0,0,1,0-2h1A1,1,0,0,1,694,350Zm0-3h-1a1,1,0,1,1,0-2h1A1,1,0,1,1,694,347Zm0-3h-1a1,1,0,0,1,0-2h1A1,1,0,0,1,694,344Zm-7,12H673a2,2,0,0,1-2-2V344a2,2,0,0,1,2-2h1v-2a4,4,0,0,1,4-4h4a4,4,0,0,1,4,4v2h1a2,2,0,0,1,2,2v10A2,2,0,0,1,687,356Zm-3-16a2,2,0,0,0-2-2h-4a2,2,0,0,0-2,2v2h8v-2Zm-17,10h-1a1,1,0,0,1,0-2h1A1,1,0,0,1,667,350Zm0-3h-1a1,1,0,1,1,0-2h1A1,1,0,1,1,667,347Zm0-3h-1a1,1,0,0,1,0-2h1A1,1,0,0,1,667,344Z" transform="translate(-660 -330)"/>
</svg>
