<svg xmlns="http://www.w3.org/2000/svg" width="120" height="120" viewBox="0 0 120 120">
  <defs>
    <style>
      .cls-1 {
        fill: #fff;
      }

      .cls-1, .cls-2, .cls-3 {
        fill-rule: evenodd;
      }

      .cls-2 {
        fill: #6d6d6d;
      }

      .cls-3 {
        fill: #888;
      }
    </style>
  </defs>
  <path id="X" class="cls-1" d="M43.414,8l3.3,3.3A1,1,0,1,1,45.3,12.717L42,9.414l-3.3,3.3A1,1,0,0,1,37.282,11.3l3.3-3.3-3.3-3.3A1,1,0,0,1,38.7,3.282l3.3,3.3,3.3-3.3A1,1,0,1,1,46.718,4.7Z"/>
  <path id="X-2" data-name="X" class="cls-1" d="M26.325,31.5l2.51,2.51a0.583,0.583,0,0,1-.825.825l-2.51-2.51-2.51,2.51a0.583,0.583,0,0,1-.825-0.825l2.51-2.51-2.51-2.51a0.583,0.583,0,0,1,.825-0.825l2.51,2.51,2.51-2.51a0.583,0.583,0,0,1,.825.825Z"/>
  <path id="X-3" data-name="X" class="cls-2" d="M6.325,31.5l2.51,2.51a0.583,0.583,0,0,1-.825.825L5.5,32.325l-2.51,2.51a0.583,0.583,0,0,1-.825-0.825l2.51-2.51-2.51-2.51a0.583,0.583,0,0,1,.825-0.825l2.51,2.51,2.51-2.51a0.583,0.583,0,0,1,.825.825Z"/>
  <path id="X-4" data-name="X" class="cls-1" d="M25.773,7.5l2.973,2.973a0.9,0.9,0,0,1-1.273,1.273L24.5,8.773l-2.973,2.973a0.9,0.9,0,0,1-1.273-1.273L23.227,7.5,20.254,4.527a0.9,0.9,0,0,1,1.273-1.273L24.5,6.227l2.973-2.973a0.9,0.9,0,1,1,1.273,1.273Z"/>
  <path id="X-5" data-name="X" class="cls-3" d="M9.414,8l3.3,3.3A1,1,0,0,1,11.3,12.717L8,9.414l-3.3,3.3A1,1,0,0,1,3.282,11.3L6.586,8l-3.3-3.3A1,1,0,0,1,4.7,3.282L8,6.586l3.3-3.3A1,1,0,0,1,12.718,4.7Z"/>
  <path id="X-6" data-name="X" class="cls-3" d="M9.414,53l5.3,5.3A1,1,0,0,1,13.3,59.717L8,54.414l-5.3,5.3A1,1,0,0,1,1.282,58.3l5.3-5.3-5.3-5.3A1,1,0,1,1,2.7,46.283l5.3,5.3,5.3-5.3A1,1,0,1,1,14.718,47.7Z"/>
  <path id="X-7" data-name="X" class="cls-1" d="M43.718,46.283A0.988,0.988,0,0,0,43.065,46H44v0.936A0.988,0.988,0,0,0,43.718,46.283Zm-1.414,0-5.3,5.3-5.3-5.3A0.988,0.988,0,0,0,31.044,46H42.956A0.988,0.988,0,0,0,42.3,46.283ZM30,46.936V46h0.935A0.966,0.966,0,0,0,30,46.936Zm0.282,12.782a0.988,0.988,0,0,0,.655.283H30V59.064A0.988,0.988,0,0,0,30.282,59.717ZM35.586,53l-5.3,5.3a0.988,0.988,0,0,0-.282.653V47.044a0.988,0.988,0,0,0,.282.653ZM31.7,59.717l5.3-5.3,5.3,5.3a0.988,0.988,0,0,0,.655.283H31.042A0.988,0.988,0,0,0,31.7,59.717ZM44,59.064V60H43.063A0.966,0.966,0,0,0,44,59.064ZM38.414,53l5.3-5.3A0.988,0.988,0,0,0,44,47.043V58.957a0.988,0.988,0,0,0-.282-0.654Z"/>
</svg>
