<svg xmlns="http://www.w3.org/2000/svg" width="400" height="50" viewBox="0 0 400 50">
  <defs>
    <style>
      .cls-1 {
        fill: #fbfbfb;
        fill-rule: evenodd;
      }
    </style>
  </defs>
  <path id="cart" class="cls-1" d="M0,0H400V50H0V0ZM45.3,46.97a1.454,1.454,0,0,1-.252.025c-0.015,0-.029,0-0.044,0V46.993a1.469,1.469,0,0,1-.915-0.277l-4.106-3.283-4.106,3.283-0.007,0a1.458,1.458,0,0,1-.441.211c-0.044.014-.086,0.035-0.131,0.045a2.981,2.981,0,0,1-.615,0c-0.045-.01-0.086-0.031-0.131-0.045a1.457,1.457,0,0,1-.441-0.211l-0.007,0-4.106-3.283-4.106,3.283-0.007,0a1.456,1.456,0,0,1-.441.211c-0.045.014-.086,0.035-0.131,0.045a2.981,2.981,0,0,1-.615,0c-0.045-.01-0.086-0.031-0.131-0.045a1.456,1.456,0,0,1-.441-0.211l-0.007,0-4.106-3.283L15.9,46.716l-0.007,0a1.457,1.457,0,0,1-.441.211c-0.045.014-.086,0.035-0.131,0.045a1.468,1.468,0,0,1-.307.016,1.468,1.468,0,0,1-.308-0.016c-0.045-.01-0.086-0.031-0.131-0.045a1.458,1.458,0,0,1-.441-0.211l-0.007,0-4.106-3.283L5.915,46.716A1.47,1.47,0,0,1,5,46.993V47c-0.015,0-.029,0-0.044,0A1.451,1.451,0,0,1,4.7,46.97,2.99,2.99,0,0,1,2,44V5A3,3,0,0,1,5,2H45a3,3,0,0,1,3,3V44A2.99,2.99,0,0,1,45.3,46.97ZM45,42V6a1,1,0,0,0-1-1H6A1,1,0,0,0,5,6V43.6l4.128-3.3c0.011-.008.023-0.009,0.034-0.016A1.452,1.452,0,0,1,9.544,40.1a1.491,1.491,0,0,1,.178-0.062,1.471,1.471,0,0,1,.3-0.015,1.471,1.471,0,0,1,.3.015,1.486,1.486,0,0,1,.178.062,1.451,1.451,0,0,1,.382.183c0.011,0.008.024,0.008,0.034,0.016l4.1,3.278,4.1-3.278c0.011-.008.023-0.009,0.034-0.016A1.454,1.454,0,0,1,19.53,40.1a1.494,1.494,0,0,1,.178-0.062,2.912,2.912,0,0,1,.6,0,1.494,1.494,0,0,1,.178.062,1.452,1.452,0,0,1,.382.183c0.011,0.008.024,0.008,0.034,0.016L25,43.573,29.1,40.3c0.011-.008.023-0.009,0.034-0.016a1.452,1.452,0,0,1,.382-0.183,1.494,1.494,0,0,1,.178-0.062,2.912,2.912,0,0,1,.6,0,1.494,1.494,0,0,1,.178.062,1.454,1.454,0,0,1,.382.183c0.011,0.008.024,0.008,0.034,0.016l4.1,3.278,4.1-3.278c0.011-.008.023-0.009,0.034-0.016A1.451,1.451,0,0,1,39.5,40.1a1.486,1.486,0,0,1,.178-0.062,2.913,2.913,0,0,1,.6,0,1.486,1.486,0,0,1,.178.062,1.451,1.451,0,0,1,.382.183c0.011,0.008.024,0.008,0.034,0.016L45,43.6V42ZM35,31H22a1,1,0,0,1-1-1V29a1,1,0,0,1,1-1H35a1,1,0,0,1,1,1v1A1,1,0,0,1,35,31Zm0-7H22a1,1,0,0,1-1-1V22a1,1,0,0,1,1-1H35a1,1,0,0,1,1,1v1A1,1,0,0,1,35,24Zm0-7H22a1,1,0,0,1-1-1V15a1,1,0,0,1,1-1H35a1,1,0,0,1,1,1v1A1,1,0,0,1,35,17ZM17,31H15a1,1,0,0,1-1-1V29a1,1,0,0,1,1-1h2a1,1,0,0,1,1,1v1A1,1,0,0,1,17,31Zm0-7H15a1,1,0,0,1-1-1V22a1,1,0,0,1,1-1h2a1,1,0,0,1,1,1v1A1,1,0,0,1,17,24Zm0-7H15a1,1,0,0,1-1-1V15a1,1,0,0,1,1-1h2a1,1,0,0,1,1,1v1A1,1,0,0,1,17,17ZM95,45H55a5,5,0,0,1-5-5V10a5,5,0,0,1,5-5H95a5,5,0,0,1,5,5V40A5,5,0,0,1,95,45ZM55,42H95a2,2,0,0,0,2-2V23H53V40A2,2,0,0,0,55,42ZM97,10a2,2,0,0,0-2-2H55a2,2,0,0,0-2,2v3H97V10ZM53,16v4H97V16H53Zm6.5,18h4a1.5,1.5,0,1,1,0,3h-4A1.5,1.5,0,1,1,59.5,34Zm10,0h4a1.5,1.5,0,1,1,0,3h-4A1.5,1.5,0,0,1,69.5,34ZM125,50a25,25,0,1,1,25-25A25,25,0,0,1,125,50Zm10.845-5.873A15.578,15.578,0,0,1,130.281,41c-1.205-1.13-1.681-3.22-1.868-4.61a9.88,9.88,0,0,1-6.559.1A8,8,0,0,1,120,41a15.762,15.762,0,0,1-5.745,3.188A21.918,21.918,0,0,0,135.845,44.127ZM125,33.875a7,7,0,0,0,7-7v-5.75a7,7,0,0,0-14,0v5.75A7,7,0,0,0,125,33.875ZM125,3a22,22,0,0,0-14.009,38.963,11.918,11.918,0,0,0,6.326-2.755,6.471,6.471,0,0,0,1.726-4.19A9.975,9.975,0,0,1,115,27V21a10,10,0,1,1,20,0v6a9.975,9.975,0,0,1-3.777,7.82,6.588,6.588,0,0,0,1.742,4.389,11.69,11.69,0,0,0,6.088,2.715A22,22,0,0,0,125,3Zm68,47H157a4,4,0,0,1-4-4V8a4,4,0,0,1,4-4h5.233A5.484,5.484,0,0,1,167.5,0h15a5.484,5.484,0,0,1,5.267,4H193a4,4,0,0,1,4,4V46A4,4,0,0,1,193,50ZM182.5,3h-15a2.5,2.5,0,0,0,0,5h15A2.5,2.5,0,0,0,182.5,3ZM194,8a1,1,0,0,0-1-1h-5.233a5.484,5.484,0,0,1-5.267,4h-15a5.483,5.483,0,0,1-5.267-4H157a1,1,0,0,0-1,1V46a1,1,0,0,0,1,1h36a1,1,0,0,0,1-1V8ZM183.5,40h-8a1.5,1.5,0,0,1,0-3h8A1.5,1.5,0,0,1,183.5,40Zm0-7h-8a1.5,1.5,0,1,1,0-3h8A1.5,1.5,0,1,1,183.5,33Zm0-7h-8a1.5,1.5,0,1,1,0-3h8A1.5,1.5,0,1,1,183.5,26Zm0-7h-8a1.5,1.5,0,1,1,0-3h8A1.5,1.5,0,1,1,183.5,19Zm-15,21h-2a1.5,1.5,0,0,1,0-3h2A1.5,1.5,0,0,1,168.5,40Zm0-7h-2a1.5,1.5,0,1,1,0-3h2A1.5,1.5,0,1,1,168.5,33Zm0-7h-2a1.5,1.5,0,1,1,0-3h2A1.5,1.5,0,1,1,168.5,26Zm0-7h-2a1.5,1.5,0,1,1,0-3h2A1.5,1.5,0,1,1,168.5,19Zm77,8h-24a1.5,1.5,0,1,1,0-3h24A1.5,1.5,0,1,1,245.5,27Zm0-16h-24a1.5,1.5,0,1,1,0-3h24A1.5,1.5,0,1,1,245.5,11Zm-37,37a6.5,6.5,0,1,1,6.5-6.5A6.5,6.5,0,0,1,208.5,48Zm-0.01-10.013a3.5,3.5,0,1,0,3.5,3.5A3.5,3.5,0,0,0,208.49,37.987ZM208.5,32a6.5,6.5,0,1,1,6.5-6.5A6.5,6.5,0,0,1,208.5,32Zm-0.01-10.013a3.5,3.5,0,1,0,3.5,3.5A3.5,3.5,0,0,0,208.49,21.987ZM208.5,16A6.5,6.5,0,1,1,215,9.5,6.5,6.5,0,0,1,208.5,16ZM208.49,5.987a3.5,3.5,0,1,0,3.5,3.5A3.5,3.5,0,0,0,208.49,5.987ZM221.5,40h24a1.5,1.5,0,1,1,0,3h-24A1.5,1.5,0,1,1,221.5,40ZM346,48H304a4,4,0,0,1-4-4V19.75c0-.043,0-0.083,0-0.126V18a4,4,0,0,1,4-4h5V5a3,3,0,0,1,3-3h26a3,3,0,0,1,3,3v9h5a4,4,0,0,1,4,4V44A4,4,0,0,1,346,48ZM304,17a1,1,0,0,0-1,1v0.627l6,4.295V17h-5ZM338,5H312V25.069l12.948,9.268L338,24.994V5Zm9,13a1,1,0,0,0-1-1h-5v5.847l6-4.295V18Zm0,4.6L326.13,37.537a1.677,1.677,0,0,1-2.365,0L303,22.673V44a1,1,0,0,0,1,1h42a1,1,0,0,0,1-1V22.6Zm-23.233.386a1.7,1.7,0,0,1-1.214-.5l-5.075-5.565a1.714,1.714,0,1,1,2.421-2.428l3.918,4.3,7.241-7.309a1.714,1.714,0,1,1,2.421,2.428l-8.5,8.578A1.7,1.7,0,0,1,323.767,22.984ZM393,49H359a4,4,0,0,1-4-4V38h-1.5a1.5,1.5,0,1,1,0-3H355V26h-1.5a1.5,1.5,0,1,1,0-3H355V14h-1.5a1.5,1.5,0,1,1,0-3H355V4a4,4,0,0,1,4-4h34a4,4,0,0,1,4,4V45A4,4,0,0,1,393,49ZM363,3h-4a1,1,0,0,0-1,1v7h0.5a1.5,1.5,0,1,1,0,3H358v9h0.5a1.5,1.5,0,1,1,0,3H358v9h0.5a1.5,1.5,0,1,1,0,3H358v7a1,1,0,0,0,1,1h4V3Zm31,1a1,1,0,0,0-1-1H366V46h27a1,1,0,0,0,1-1V4Zm-6.5,17h-15a1.5,1.5,0,1,1,0-3h15A1.5,1.5,0,1,1,387.5,21Zm0-7h-15a1.5,1.5,0,1,1,0-3h15A1.5,1.5,0,1,1,387.5,14Zm-15,11h7a1.5,1.5,0,1,1,0,3h-7A1.5,1.5,0,1,1,372.5,25ZM298.019,14.716L298,15.222l-3.367,13.111a3.284,3.284,0,0,1-.917,1.218,2.941,2.941,0,0,1-1.383.449H266.152a2.21,2.21,0,0,1-1.533-.764,4.43,4.43,0,0,1-.723-1.164L259,7.01h-3.334l0-.01H252.5a1.5,1.5,0,1,1,0-3h8a1.478,1.478,0,0,1,1.434,1.174l0.032,0.013,1.663,7.789,32.726,0.013L296.365,13h0.01a1.656,1.656,0,0,1,1.656,1.656C298.031,14.677,298.02,14.7,298.019,14.716ZM267,27h25l2.812-11H264.375Zm3.5,6a6.5,6.5,0,1,1-6.5,6.5A6.5,6.5,0,0,1,270.5,33Zm0,10a3.5,3.5,0,1,0-3.5-3.5A3.5,3.5,0,0,0,270.5,43Zm17-10a6.5,6.5,0,1,1-6.5,6.5A6.5,6.5,0,0,1,287.5,33Zm0,10a3.5,3.5,0,1,0-3.5-3.5A3.5,3.5,0,0,0,287.5,43Z"/>
</svg>
