<svg xmlns="http://www.w3.org/2000/svg" width="206" height="66" viewBox="0 0 206 66">
  <defs>
    <style>
      .cls-1 {
        fill: #fff;
        fill-rule: evenodd;
      }
    </style>
  </defs>
  <path id="twitter" class="cls-1" d="M103.514,17.108s0.228-3.059,2.473-3.085c1.83-.023,2.177.766,2.177,0.766a4.187,4.187,0,0,0,1.5-.788,2.265,2.265,0,0,1-.612,1.378A1.57,1.57,0,0,0,110,15.051a1.789,1.789,0,0,1-1,1.136,8.521,8.521,0,0,1-1.539,5.406c-1.633,2.256-4.61,2.425-6.24,2.444a9.035,9.035,0,0,1-3.72-1.03s2.475,0.029,3.584-.74a17.361,17.361,0,0,1-2.453-1.925,2.566,2.566,0,0,0,.888-0.085A12.607,12.607,0,0,1,97.5,17.609a3.394,3.394,0,0,0,.931.046s-1.44-2.225-.76-3.668C97.674,13.987,100.112,16.912,103.514,17.108Z"/>
  <path id="instagram" class="cls-1" d="M127,11h8a4,4,0,0,1,4,4v8.031a4,4,0,0,1-4,4h-8a4,4,0,0,1-4-4V15A4,4,0,0,1,127,11Zm0,2h8a2,2,0,0,1,2,2v8.031a2,2,0,0,1-2,2h-8a2,2,0,0,1-2-2V15A2,2,0,0,1,127,13Zm4,2.969A3.031,3.031,0,1,1,127.969,19,3.031,3.031,0,0,1,131,15.969Zm0.016,1.859a1.188,1.188,0,1,1-1.188,1.188A1.188,1.188,0,0,1,131.016,17.828ZM135,14a1,1,0,1,1-1,1A1,1,0,0,1,135,14Z"/>
  <path id="LinkedIn" class="cls-1" d="M155.986,16.98h-2V24h2V16.98Zm4.151,0h-2.121V24h2.121V19.474a1.8,1.8,0,0,1,1.346-.785,1.257,1.257,0,0,1,1.321,1.284L162.79,24h2.184V20.068c0-1.66-.486-3.121-2.546-3.121a2.968,2.968,0,0,0-2.3,1.114ZM155,13.906A1.094,1.094,0,1,1,153.906,15,1.094,1.094,0,0,1,155,13.906Z"/>
  <path id="skype" class="cls-1" d="M195,22.294a4.684,4.684,0,0,1-7.558,3.72c-0.149.009-.291,0.044-0.442,0.044A7.059,7.059,0,0,1,179.941,19c0-.152.035-0.293,0.045-0.443A4.658,4.658,0,0,1,179,15.705a4.683,4.683,0,0,1,7.558-3.72c0.149-.009.29-0.045,0.442-0.045A7.059,7.059,0,0,1,194.059,19c0,0.152-.035.293-0.045,0.442A4.664,4.664,0,0,1,195,22.294Zm-5.159-2.733a1.881,1.881,0,0,0-.58-0.685,3.533,3.533,0,0,0-.893-0.456,11.41,11.41,0,0,0-1.168-.342c-0.342-.089-0.589-0.157-0.737-0.2a2.266,2.266,0,0,1-.436-0.19,1.028,1.028,0,0,1-.335-0.287,0.644,0.644,0,0,1-.119-0.387,0.762,0.762,0,0,1,.355-0.624,1.567,1.567,0,0,1,.949-0.265,1.411,1.411,0,0,1,.919.241,2,2,0,0,1,.491.682,1.9,1.9,0,0,0,.3.454,0.572,0.572,0,0,0,.42.142,0.639,0.639,0,0,0,.5-0.235,0.792,0.792,0,0,0,.2-0.529,1.492,1.492,0,0,0-.159-0.648,2,2,0,0,0-.5-0.63,2.589,2.589,0,0,0-.857-0.479,3.707,3.707,0,0,0-1.219-.179,3.967,3.967,0,0,0-1.536.272,2.182,2.182,0,0,0-1,.78,2.01,2.01,0,0,0-.348,1.163,1.947,1.947,0,0,0,.329,1.151,2.266,2.266,0,0,0,.888.728,7.109,7.109,0,0,0,1.378.464,9.452,9.452,0,0,1,.976.271,1.441,1.441,0,0,1,.588.364,0.842,0.842,0,0,1,.221.611,0.96,0.96,0,0,1-.416.795,1.751,1.751,0,0,1-1.1.323,1.671,1.671,0,0,1-.794-0.16,1.243,1.243,0,0,1-.466-0.4,3.125,3.125,0,0,1-.311-0.617A1.289,1.289,0,0,0,185.1,20.2a0.6,0.6,0,0,0-.43-0.168,0.682,0.682,0,0,0-.514.213,0.727,0.727,0,0,0-.2.515,1.968,1.968,0,0,0,.329,1.037,2.527,2.527,0,0,0,.852.849,3.588,3.588,0,0,0,1.871.442,3.832,3.832,0,0,0,1.635-.323,2.325,2.325,0,0,0,1.412-2.187A2.243,2.243,0,0,0,189.841,19.561Z"/>
  <path id="Blogger" class="cls-1" d="M109.966,45.863l-0.112-.245-0.186-.155c-0.244-.2-1.237.014-1.57-0.305a2.1,2.1,0,0,1-.342-1.2,3.645,3.645,0,0,0-.377-1.51,4.635,4.635,0,0,0-3.242-2.427H101.2a4.342,4.342,0,0,0-4.2,4.45v4.078a4.337,4.337,0,0,0,4.2,4.441h4.823c2.31,0,3.942-2,3.955-4.441l0.026-2.483Zm-9.137-2.852h3.316a1,1,0,0,1,0,1.976h-3.316A1,1,0,0,1,100.829,43.011ZM106.182,50h-5.361a1.027,1.027,0,0,1,0-2.006h5.361A1.028,1.028,0,0,1,106.182,50Z"/>
  <path id="b" class="cls-1" d="M19,26a5,5,0,0,1-5-5V13a1,1,0,1,1,2,0v4.022A4.993,4.993,0,1,1,19,26Zm0-8a3,3,0,1,0,3,3A3,3,0,0,0,19,18Z"/>
  <path id="facebook" class="cls-1" d="M76.707,14.98L77.019,13a12.292,12.292,0,0,0-2.116.018,2.25,2.25,0,0,0-1.427.784A2.462,2.462,0,0,0,73,15.4c0,0.688,0,1.592,0,1.592l-2-.014v2.007l2,0.008v6l2.013,0v-6l1.718,0,0.31-2.007H75.012s0-1.285,0-1.509a0.561,0.561,0,0,1,.671-0.486C76.122,14.979,76.707,14.98,76.707,14.98Z"/>
  <path id="bitrix24" class="cls-1" d="M24.5,53v0H12.656v0A4.791,4.791,0,0,1,8,48.124a4.864,4.864,0,0,1,3.011-4.536C11,43.443,10.969,43.3,10.969,43.156A5.072,5.072,0,0,1,15.953,38a4.928,4.928,0,0,1,4.081,2.208,3.988,3.988,0,0,1,1.309-.239,4.2,4.2,0,0,1,4.106,3.8A4.686,4.686,0,0,1,24.5,53Zm-6-10A3.5,3.5,0,1,0,22,46.5,3.5,3.5,0,0,0,18.5,43Zm1.078,4H18.422A0.422,0.422,0,0,1,18,46.578c0-.006,0-0.01,0-0.016s0-.011,0-0.017V44.454A0.454,0.454,0,0,1,18.454,44h0.029a0.454,0.454,0,0,1,.454.454v1.7h0.64A0.422,0.422,0,1,1,19.578,47Z"/>
  <path id="ok" class="cls-1" d="M75.5,41a3.316,3.316,0,1,1-3.3,3.316A3.308,3.308,0,0,1,75.5,41ZM75.5,42.968a1.354,1.354,0,1,1-1.347,1.353A1.351,1.351,0,0,1,75.5,42.968ZM75.5,48.615a5.27,5.27,0,0,0,2-.453,1.434,1.434,0,0,1,.835-0.285,1.416,1.416,0,0,1,.958,1.01,1.945,1.945,0,0,1-1.27,1.223,8.189,8.189,0,0,1-1.194.217s1.034,1.193,1.251,1.416A2.637,2.637,0,0,1,79.022,53a1.346,1.346,0,0,1-1,1.01,4.232,4.232,0,0,1-1.4-1.094c-0.582-.558-1.146-1.106-1.146-1.106s-0.515.52-1.084,1.085a4.355,4.355,0,0,1-1.368,1.114,1.443,1.443,0,0,1-1.061-1.166,6.339,6.339,0,0,1,1.24-1.494c0.518-.545.953-1.043,0.953-1.043a5.058,5.058,0,0,1-1.076-.209,1.939,1.939,0,0,1-1.359-1.237,1.111,1.111,0,0,1,.991-1,3.056,3.056,0,0,1,.744.262A7.286,7.286,0,0,0,75.5,48.615Z"/>
  <path id="vk" class="cls-1" d="M46.994,15.77v3.257a0.339,0.339,0,0,0,.426.351c0.3-.021.978-2.8,1.279-3.406a1.931,1.931,0,0,1,.738-0.826A0.61,0.61,0,0,1,49.8,14.99h2.878a0.464,0.464,0,0,1,.3.727c-0.226.5-2.155,3.61-2.255,3.736a1.312,1.312,0,0,0-.238.55,1.2,1.2,0,0,0,.313.627c0.2,0.226,1.816,2.005,1.966,2.155a1.2,1.2,0,0,1,.276.576,0.764,0.764,0,0,1-.8.614c-0.627,0-2.167,0-2.342,0a2.788,2.788,0,0,1-.952-0.565c-0.225-.2-1.059-1.152-1.184-1.277a0.406,0.406,0,0,0-.351-0.145c-0.15,0-.434.015-0.422,0.584a2,2,0,0,1-.238,1.139,0.99,0.99,0,0,1-.737.275,5,5,0,0,1-2.913-.727c-1.575-.978-3.367-3.589-4.2-5.254a6.521,6.521,0,0,1-.9-2.715c0.05-.176.05-0.3,0.226-0.3s2.39,0,2.606,0a0.849,0.849,0,0,1,.351.326c0.075,0.1.647,1.813,0.822,2.113s1.038,1.95,1.506,1.95a0.6,0.6,0,0,0,.474-0.7c0-.4,0-1.979,0-2.18a1.94,1.94,0,0,0-.978-1A1.261,1.261,0,0,1,43.937,15c0.6-.026,2.1-0.026,2.43.024A0.78,0.78,0,0,1,46.994,15.77Z"/>
  <path id="gplus" class="cls-1" d="M42.994,48.967h2.939c-0.224,1.633-1.122,2.124-2.595,2.124-2.513,0-3.229-2-3.229-3.649,0-2.049.76-3.469,2.872-3.469A2.942,2.942,0,0,1,45.693,45.5l1.809-.976a4.725,4.725,0,0,0-4.466-2.513c-3.3,0-5.071,2.087-5.071,5.4,0,3.329,2.044,5.57,5.342,5.57A4.244,4.244,0,0,0,47.1,50.9a6.183,6.183,0,0,0,.939-3.639V46.988H42.994v1.979ZM56,49H54v2H52V49H50V47h2V45h2v2h2v2Z"/>
  <path id="mailru" class="cls-1" d="M188.742,47.45a2.386,2.386,0,0,0-2.434-2.4h-0.049a2.373,2.373,0,0,0-2.316,2.607,2.318,2.318,0,0,0,2.31,2.531,2.469,2.469,0,0,0,2.492-2.433Zm-2.476-3.743a3.664,3.664,0,0,1,2.619,1.175v0a0.555,0.555,0,0,1,.532-0.6H189.5a0.606,0.606,0,0,1,.582.627l0,5.355a0.334,0.334,0,0,0,.559.307c0.826-.884,1.813-4.542-0.514-6.662a5.4,5.4,0,0,0-6.626-.541,5.338,5.338,0,0,0-1.675,6.254,4.982,4.982,0,0,0,6.2,2.681c0.96-.4,1.4.948,0.407,1.39a6.517,6.517,0,0,1-7.658-2.932,6.586,6.586,0,0,1,10.616-7.64c2.231,2.427,2.1,6.972-.075,8.738a1.513,1.513,0,0,1-2.442-1.148l-0.01-.382a3.589,3.589,0,0,1-2.6,1.124,3.875,3.875,0,0,1,0-7.742h0"/>
  <path id="Dribbble" class="cls-1" d="M131,55a8,8,0,1,1,8-8A8,8,0,0,1,131,55Zm5.534-5.683A7.341,7.341,0,0,0,134.5,49a7.673,7.673,0,0,0-.888.066,15.546,15.546,0,0,1,.369,3.111A6,6,0,0,0,136.534,49.315ZM131.979,52.9c0-.135.021-0.266,0.021-0.4a13.417,13.417,0,0,0-.335-2.924,7.553,7.553,0,0,0-3.386,2.744A5.936,5.936,0,0,0,131,53,6.026,6.026,0,0,0,131.979,52.9Zm-5.288-1.739a9.525,9.525,0,0,1,4.4-3.51q-0.236-.6-0.526-1.181a9.213,9.213,0,0,1-5.533.194C125.027,46.777,125,46.883,125,47A5.971,5.971,0,0,0,126.691,51.161Zm0.589-8.838a6,6,0,0,0-1.815,2.358A7.328,7.328,0,0,0,127.5,45a7.466,7.466,0,0,0,2-.285A13.836,13.836,0,0,0,127.28,42.323Zm1.879-1.007a15.872,15.872,0,0,1,2.215,2.584,7.606,7.606,0,0,0,2.334-2.228A5.66,5.66,0,0,0,129.159,41.316Zm6.166,1.54a9.559,9.559,0,0,1-2.933,2.777,15.651,15.651,0,0,1,.637,1.487,9.114,9.114,0,0,1,3.937.213C136.972,47.22,137,47.113,137,47A5.969,5.969,0,0,0,135.325,42.856Z"/>
  <path id="lj" class="cls-1" d="M163.035,52.279a8.973,8.973,0,0,1-.767.6c-2.921,2.41-6.4,2.809-8.044.9a4.292,4.292,0,0,1-.7-3.831,9.336,9.336,0,0,1,1.726-3.6l-0.43-.6a9.93,9.93,0,0,0-2.375,4.181c-0.032,0-.384,0-0.416.006a10.054,10.054,0,0,1,2.313-4.719L152.768,43.1c-0.452-.6.015-1.69,1.043-2.446s2.228-.886,2.68-0.291l1.472,1.934c3.091-1.9,6.487-2.089,8.093-.233C168.042,44.361,166.631,48.95,163.035,52.279Zm-4.986-4.715,0.426-.28-3.033-4.056-0.612.463Zm-1.975-6.7a3.95,3.95,0,0,0-1.422.561,6.012,6.012,0,0,0-1.3,1.332l0.577,0.816a6.594,6.594,0,0,1,1.215-1.325,4.545,4.545,0,0,1,1.4-.7Zm0.86,1.368-0.623.447,3.119,3.951,0.433-.269Zm4.06,4.048,0.579,4.468,0.248-.475c0.044-.039.207-0.166,0.208-0.167,2.428-2.18,3.025-5.2,1.9-6.015-1.044-1.208-2.625-1.02-4.721-.213Zm4.507-3.346c-1.471-1.7-4.3-1.718-7.125-.165l0.435,0.643a6.057,6.057,0,0,1,4.727-.77c0.03,0.008.06,0.016,0.089,0.026l-0.006.005a2.605,2.605,0,0,1,1.042.719c1.4,1.622.322,4.464-2.3,6.933-0.045.037-.09,0.073-0.136,0.108h0l-0.622.479-0.039-.062-1.153-.488a0.5,0.5,0,0,1-.1-0.041l-3.044-1.289-1.6-2.107a7.873,7.873,0,0,0-1.6,3.305,3.39,3.39,0,0,0,.906,2.966c1.532,1.774,4.279,1.307,6.937-.968a11.943,11.943,0,0,0,2.949-3.373l0.009,0C166.239,46.4,166.816,44.453,165.5,42.934Z"/>
</svg>
