<svg xmlns="http://www.w3.org/2000/svg" width="100" height="150" viewBox="0 0 100 150">
  <defs>
    <style>
      .cls-1, .cls-2 {
        fill: none;
        stroke-linecap: round;
        stroke-linejoin: round;
        stroke-width: 2px;
      }

      .cls-1 {
        stroke: #a5a3a3;
      }

      .cls-1, .cls-2, .cls-3, .cls-4, .cls-5, .cls-6, .cls-7 {
        fill-rule: evenodd;
      }

      .cls-2 {
        stroke: #383838;
      }

      .cls-3 {
        fill: #383838;
      }

      .cls-4 {
        fill: #8e8c8c;
      }

      .cls-5 {
        fill: #a5a3a3;
      }

      .cls-6 {
        fill: #373737;
      }

      .cls-7 {
        fill: #fff;
      }
    </style>
  </defs>
  <path id="Check" class="cls-1" d="M22,140l4.969,6L35,135"/>
  <path id="Check-2" data-name="Check" class="cls-2" d="M3,140l4.969,6L16,135"/>
  <path id="S" class="cls-3" d="M37.5,23h12a0.5,0.5,0,0,1,0,1h-12A0.5,0.5,0,0,1,37.5,23Zm0,2h12a0.5,0.5,0,0,1,0,1h-12A0.5,0.5,0,0,1,37.5,25Zm0,2h12a0.5,0.5,0,0,1,0,1h-12A0.5,0.5,0,0,1,37.5,27Zm0,2h12a0.5,0.5,0,0,1,0,1h-12A0.5,0.5,0,0,1,37.5,29Zm0,2h12a0.5,0.5,0,0,1,0,1h-12A0.5,0.5,0,0,1,37.5,31Zm0,2h12a0.5,0.5,0,0,1,0,1h-12A0.5,0.5,0,0,1,37.5,33Zm0,2h12a0.5,0.5,0,0,1,0,1h-12A0.5,0.5,0,0,1,37.5,35Z"/>
  <path id="S-2" data-name="S" class="cls-4" d="M37.5,41h12a0.5,0.5,0,0,1,0,1h-12A0.5,0.5,0,0,1,37.5,41Zm0,2h12a0.5,0.5,0,0,1,0,1h-12A0.5,0.5,0,0,1,37.5,43Zm0,2h12a0.5,0.5,0,0,1,0,1h-12A0.5,0.5,0,0,1,37.5,45Zm0,2h12a0.5,0.5,0,0,1,0,1h-12A0.5,0.5,0,0,1,37.5,47Zm0,2h12a0.5,0.5,0,0,1,0,1h-12A0.5,0.5,0,0,1,37.5,49Zm0,2h12a0.5,0.5,0,0,1,0,1h-12A0.5,0.5,0,0,1,37.5,51Zm0,2h12a0.5,0.5,0,0,1,0,1h-12A0.5,0.5,0,0,1,37.5,53Z"/>
  <path id="S-3" data-name="S" class="cls-3" d="M2,23H3a1,1,0,0,1,1,1v1a1,1,0,0,1-1,1H2a1,1,0,0,1-1-1V24A1,1,0,0,1,2,23Zm5,0H8a1,1,0,0,1,1,1v1a1,1,0,0,1-1,1H7a1,1,0,0,1-1-1V24A1,1,0,0,1,7,23Zm5,0h1a1,1,0,0,1,1,1v1a1,1,0,0,1-1,1H12a1,1,0,0,1-1-1V24A1,1,0,0,1,12,23ZM2,28H3a1,1,0,0,1,1,1v1a1,1,0,0,1-1,1H2a1,1,0,0,1-1-1V29A1,1,0,0,1,2,28Zm5,0H8a1,1,0,0,1,1,1v1a1,1,0,0,1-1,1H7a1,1,0,0,1-1-1V29A1,1,0,0,1,7,28Zm5,0h1a1,1,0,0,1,1,1v1a1,1,0,0,1-1,1H12a1,1,0,0,1-1-1V29A1,1,0,0,1,12,28ZM2,33H3a1,1,0,0,1,1,1v1a1,1,0,0,1-1,1H2a1,1,0,0,1-1-1V34A1,1,0,0,1,2,33Zm5,0H8a1,1,0,0,1,1,1v1a1,1,0,0,1-1,1H7a1,1,0,0,1-1-1V34A1,1,0,0,1,7,33Zm5,0h1a1,1,0,0,1,1,1v1a1,1,0,0,1-1,1H12a1,1,0,0,1-1-1V34A1,1,0,0,1,12,33Z"/>
  <path id="S-4" data-name="S" class="cls-3" d="M20,23h1a1,1,0,0,1,1,1v1a1,1,0,0,1-1,1H20a1,1,0,0,1-1-1V24A1,1,0,0,1,20,23Zm5,0h6a1,1,0,0,1,1,1v1a1,1,0,0,1-1,1H25a1,1,0,0,1-1-1V24A1,1,0,0,1,25,23Zm-5,5h1a1,1,0,0,1,1,1v1a1,1,0,0,1-1,1H20a1,1,0,0,1-1-1V29A1,1,0,0,1,20,28Zm5,0h6a1,1,0,0,1,1,1v1a1,1,0,0,1-1,1H25a1,1,0,0,1-1-1V29A1,1,0,0,1,25,28Zm-5,5h1a1,1,0,0,1,1,1v1a1,1,0,0,1-1,1H20a1,1,0,0,1-1-1V34A1,1,0,0,1,20,33Zm5,0h6a1,1,0,0,1,1,1v1a1,1,0,0,1-1,1H25a1,1,0,0,1-1-1V34A1,1,0,0,1,25,33Z"/>
  <path id="S-5" data-name="S" class="cls-4" d="M2,41H3a1,1,0,0,1,1,1v1a1,1,0,0,1-1,1H2a1,1,0,0,1-1-1V42A1,1,0,0,1,2,41Zm5,0H8a1,1,0,0,1,1,1v1a1,1,0,0,1-1,1H7a1,1,0,0,1-1-1V42A1,1,0,0,1,7,41Zm5,0h1a1,1,0,0,1,1,1v1a1,1,0,0,1-1,1H12a1,1,0,0,1-1-1V42A1,1,0,0,1,12,41ZM2,46H3a1,1,0,0,1,1,1v1a1,1,0,0,1-1,1H2a1,1,0,0,1-1-1V47A1,1,0,0,1,2,46Zm5,0H8a1,1,0,0,1,1,1v1a1,1,0,0,1-1,1H7a1,1,0,0,1-1-1V47A1,1,0,0,1,7,46Zm5,0h1a1,1,0,0,1,1,1v1a1,1,0,0,1-1,1H12a1,1,0,0,1-1-1V47A1,1,0,0,1,12,46ZM2,51H3a1,1,0,0,1,1,1v1a1,1,0,0,1-1,1H2a1,1,0,0,1-1-1V52A1,1,0,0,1,2,51Zm5,0H8a1,1,0,0,1,1,1v1a1,1,0,0,1-1,1H7a1,1,0,0,1-1-1V52A1,1,0,0,1,7,51Zm5,0h1a1,1,0,0,1,1,1v1a1,1,0,0,1-1,1H12a1,1,0,0,1-1-1V52A1,1,0,0,1,12,51Z"/>
  <path id="S-6" data-name="S" class="cls-4" d="M20,41h1a1,1,0,0,1,1,1v1a1,1,0,0,1-1,1H20a1,1,0,0,1-1-1V42A1,1,0,0,1,20,41Zm5,0h6a1,1,0,0,1,1,1v1a1,1,0,0,1-1,1H25a1,1,0,0,1-1-1V42A1,1,0,0,1,25,41Zm-5,5h1a1,1,0,0,1,1,1v1a1,1,0,0,1-1,1H20a1,1,0,0,1-1-1V47A1,1,0,0,1,20,46Zm5,0h6a1,1,0,0,1,1,1v1a1,1,0,0,1-1,1H25a1,1,0,0,1-1-1V47A1,1,0,0,1,25,46Zm-5,5h1a1,1,0,0,1,1,1v1a1,1,0,0,1-1,1H20a1,1,0,0,1-1-1V52A1,1,0,0,1,20,51Zm5,0h6a1,1,0,0,1,1,1v1a1,1,0,0,1-1,1H25a1,1,0,0,1-1-1V52A1,1,0,0,1,25,51Z"/>
  <path id="S-7" data-name="S" class="cls-3" d="M10,122H7v1h4v2H7v2H5v-2H3v-2H5v-9h5A4,4,0,1,1,10,122Zm0-6H7v4h3A2,2,0,1,0,10,116Z"/>
  <path id="S-8" data-name="S" class="cls-5" d="M28,122H25v1h4v2H25v2H23v-2H21v-2h2v-9h5A4,4,0,0,1,28,122Zm0-6H25v4h3A2,2,0,0,0,28,116Z"/>
  <path id="Star" class="cls-3" d="M8,77.005L9.647,82.01,15,82l-4.338,3.033L12.328,90,8,86.92,3.677,90l1.664-4.968L1,82l5.358,0.01Z"/>
  <path id="Star-2" data-name="Star" class="cls-5" d="M26,77.005l1.645,5.005L33,82l-4.338,3.033L30.328,90,26,86.92,21.677,90l1.664-4.968L19,82l5.358,0.01Z"/>
  <path id="A" class="cls-3" d="M11.772,107.987H14L9.023,94.995H6.973L2.006,107.987H4.224l1.066-2.963H10.7ZM7.993,97.815l1.968,5.171H6.025Z"/>
  <path id="A-2" data-name="A" class="cls-5" d="M29.772,107.987H32L27.023,94.995h-2.05l-4.967,12.992h2.218l1.066-2.963H28.7ZM25.993,97.815l1.968,5.171H24.026Z"/>
  <path id="Filter" class="cls-6" d="M10,70v5L7,74V70L1,64V62H16v2ZM3.791,64.02l3.957,3.956h1.47l3.957-3.956H3.791Z"/>
  <path id="Filter-2" data-name="Filter" class="cls-4" d="M28,70v5l-3-1V70l-6-6V62H34v2Zm-6.209-5.98,3.956,3.956h1.47l3.956-3.956H21.791Z"/>
  <path id="Filter-3" data-name="Filter" class="cls-7" d="M48,70v5l-3-1V70l-6-6V62H54v2Zm-6.209-5.98,3.956,3.956h1.47l3.957-3.956H41.791Z"/>
  <path id="Arrow" class="cls-3" d="M5.886,5.791L3.909,7.768a0.532,0.532,0,0,1-.046.071s0,0.012-.007.017-0.012,0-.017.007A0.5,0.5,0,0,1,3.5,8C3.494,8,3.49,8,3.484,8s-0.007,0-.011,0a0.46,0.46,0,0,1-.266-0.11,0.421,0.421,0,0,1-.063-0.026A0.42,0.42,0,0,1,3.119,7.8c-0.01-.013-0.025-0.02-0.034-0.033L1.114,5.791a0.479,0.479,0,1,1,.677-0.677L3,6.323V1.5a0.5,0.5,0,0,1,1,0V6.323L5.209,5.114A0.479,0.479,0,1,1,5.886,5.791Z"/>
  <path id="Arrow-2" data-name="Arrow" class="cls-3" d="M34.856,3.886a0.474,0.474,0,0,1-.673,0l-1.2-1.209V7.5a0.5,0.5,0,0,1-.994,0V2.677l-1.2,1.209a0.474,0.474,0,0,1-.673,0,0.481,0.481,0,0,1,0-.677l1.956-1.968c0.009-.015.026-0.023,0.037-0.037a0.425,0.425,0,0,1,.025-0.06,0.417,0.417,0,0,1,.061-0.025,0.458,0.458,0,0,1,.266-0.111s0.007,0,.011,0,0.01,0,.015,0a0.493,0.493,0,0,1,.341.138s0.01,0,.013.006,0,0.01.006,0.014a0.532,0.532,0,0,1,.05.077l1.961,1.974A0.481,0.481,0,0,1,34.856,3.886Z"/>
  <path id="Arrow-3" data-name="Arrow" class="cls-5" d="M19.886,5.791L17.909,7.768a0.523,0.523,0,0,1-.046.071s0,0.012-.007.017-0.012,0-.017.007A0.5,0.5,0,0,1,17.5,8c-0.006,0-.01,0-0.016,0s-0.007,0-.011,0a0.46,0.46,0,0,1-.266-0.11,0.422,0.422,0,0,1-.063-0.026A0.431,0.431,0,0,1,17.119,7.8c-0.01-.013-0.025-0.02-0.034-0.033L15.114,5.791a0.479,0.479,0,1,1,.678-0.677L17,6.323V1.5a0.5,0.5,0,0,1,1,0V6.323l1.209-1.209A0.479,0.479,0,1,1,19.886,5.791Z"/>
  <path id="Arrow-4" data-name="Arrow" class="cls-5" d="M51.856,3.886a0.474,0.474,0,0,1-.673,0l-1.2-1.209V7.5a0.5,0.5,0,0,1-.994,0V2.677l-1.2,1.209a0.474,0.474,0,0,1-.673,0,0.481,0.481,0,0,1,0-.677l1.956-1.968c0.009-.015.026-0.023,0.037-0.037a0.425,0.425,0,0,1,.025-0.06,0.417,0.417,0,0,1,.061-0.025,0.458,0.458,0,0,1,.266-0.111s0.007,0,.011,0,0.01,0,.015,0a0.493,0.493,0,0,1,.341.138s0.01,0,.013.006,0,0.01.006,0.014a0.531,0.531,0,0,1,.05.077l1.961,1.974A0.481,0.481,0,0,1,51.856,3.886Z"/>
</svg>
