<svg xmlns="http://www.w3.org/2000/svg" width="40" height="40" viewBox="0 0 40 40">
  <defs>
    <style>
      .cls-1 {
        fill: #fff;
        fill-rule: evenodd;
      }
    </style>
  </defs>
  <path class="cls-1" d="M20,40A20,20,0,0,0,40,20V40H20Zm0-2A18,18,0,1,1,38,20,18,18,0,0,1,20,38Zm3-27a3,3,0,0,0-6,0V21a3,3,0,0,0,6,0V11ZM20,26a3,3,0,1,0,3,3A3,3,0,0,0,20,26Zm0,4.125A1.125,1.125,0,1,1,21.125,29,1.125,1.125,0,0,1,20,30.125ZM20,22a1,1,0,0,1-1-1V11a1,1,0,0,1,2,0V21A1,1,0,0,1,20,22ZM20,0H40V20A20,20,0,0,0,20,0ZM0,20V0H20A20,20,0,0,0,0,20ZM20,40H0V20A20,20,0,0,0,20,40Z"/>
</svg>
