<svg id="content_icons.svg" xmlns="http://www.w3.org/2000/svg" width="173" height="115" viewBox="0 0 173 115">
  <defs>
    <style>
      .cls-1 {
        fill: #ccd1d7;
      }

      .cls-1, .cls-2, .cls-3, .cls-5, .cls-7, .cls-8 {
        fill-rule: evenodd;
      }

      .cls-2 {
        fill: #999;
      }

      .cls-3, .cls-4 {
        fill: #333;
      }

      .cls-5, .cls-6 {
        fill: #fff;
      }

      .cls-7 {
        fill: #f8f9fb;
      }

      .cls-8 {
        fill: #d6d6d6;
      }
    </style>
  </defs>
  <path id="Rounded_Rectangle_630_copy_6" data-name="Rounded Rectangle 630 copy 6" class="cls-1" d="M715,353.01a6,6,0,0,1-12,0,5.923,5.923,0,0,1,.7-2.756,2.017,2.017,0,0,1,.342-0.657l5.252-6.869a1.56,1.56,0,0,1,2.222-.393,1.726,1.726,0,0,1,.045,2.353l-1.84,2.406A5.973,5.973,0,0,1,715,353.01ZM695,359a5.994,5.994,0,0,1-6-5.989,5.914,5.914,0,0,1,.7-2.756,2.017,2.017,0,0,1,.342-0.657l5.252-6.869a1.56,1.56,0,0,1,2.222-.393,1.726,1.726,0,0,1,.045,2.353l-1.84,2.406A5.973,5.973,0,0,1,695,359Z" transform="translate(-689 -342)"/>
  <path id="Ellipse_217_copy_2" data-name="Ellipse 217 copy 2" class="cls-2" d="M718,350a1,1,0,1,1-1,1A1,1,0,0,1,718,350Zm5,0a1,1,0,1,1-1,1A1,1,0,0,1,723,350Zm5,0a1,1,0,1,1-1,1A1,1,0,0,1,728,350Z" transform="translate(-689 -342)"/>
  <g id="black">
    <path id="Rounded_Rectangle_613_copy_6" data-name="Rounded Rectangle 613 copy 6" class="cls-3" d="M759,367h-4v4a1,1,0,1,1-2,0v-4h-4a1,1,0,0,1,0-2h4v-4a1,1,0,0,1,2,0v4h4A1,1,0,0,1,759,367Z" transform="translate(-689 -342)"/>
    <rect id="Rounded_Rectangle_613_copy_5" data-name="Rounded Rectangle 613 copy 5" class="cls-4" x="45" y="23" width="12" height="2" rx="1" ry="1"/>
    <path id="Rounded_Rectangle_652_copy" data-name="Rounded Rectangle 652 copy" class="cls-3" d="M822,364.5a0.491,0.491,0,0,1-.2.393l-2.956,2.943a0.489,0.489,0,0,1-.7,0,0.5,0.5,0,0,1,0-.7L820.285,365H811.5a0.5,0.5,0,0,1,0-1H820.3l-2.151-2.164a0.5,0.5,0,0,1,0-.7,0.487,0.487,0,0,1,.7,0l2.959,2.976A0.49,0.49,0,0,1,822,364.5Z" transform="translate(-689 -342)"/>
    <path id="Shape_943_copy_2" data-name="Shape 943 copy 2" class="cls-3" d="M805,363l1.5-1.5A4.92,4.92,0,0,0,803,360a5,5,0,0,0-4.9,4h-1a5.988,5.988,0,0,1,5.9-5,5.92,5.92,0,0,1,4.227,1.773L809,359v4h-4Zm-5.5,5.5A4.913,4.913,0,0,0,803,370a5,5,0,0,0,4.9-4h1a5.988,5.988,0,0,1-5.9,5,5.921,5.921,0,0,1-4.228-1.773L797,371v-4h4Z" transform="translate(-689 -342)"/>
    <path id="Rounded_Rectangle_809_copy" data-name="Rounded Rectangle 809 copy" class="cls-3" d="M705,361h1a1,1,0,1,1,0,2h-1A1,1,0,1,1,705,361Zm0,4h1a1,1,0,0,1,0,2h-1A1,1,0,0,1,705,365Zm0,4h1a1,1,0,1,1,0,2h-1A1,1,0,1,1,705,369Zm5-8h6a1,1,0,1,1,0,2h-6A1,1,0,1,1,710,361Zm0,4h6a1,1,0,0,1,0,2h-6A1,1,0,0,1,710,365Zm0,4h6a1,1,0,1,1,0,2h-6A1,1,0,1,1,710,369Z" transform="translate(-689 -342)"/>
    <path id="Rounded_Rectangle_810_copy_4" data-name="Rounded Rectangle 810 copy 4" class="cls-3" d="M719.5,361h1a0.5,0.5,0,0,1,0,1h-1A0.5,0.5,0,0,1,719.5,361Zm4,0h8a0.5,0.5,0,0,1,0,1h-8A0.5,0.5,0,0,1,723.5,361Zm-4,3h1a0.5,0.5,0,0,1,0,1h-1A0.5,0.5,0,0,1,719.5,364Zm4,0h8a0.5,0.5,0,0,1,0,1h-8A0.5,0.5,0,0,1,723.5,364Zm-4,3h1a0.5,0.5,0,0,1,0,1h-1A0.5,0.5,0,0,1,719.5,367Zm4,0h8a0.5,0.5,0,0,1,0,1h-8A0.5,0.5,0,0,1,723.5,367Zm-4,3h1a0.5,0.5,0,0,1,0,1h-1A0.5,0.5,0,0,1,719.5,370Zm4,0h8a0.5,0.5,0,0,1,0,1h-8A0.5,0.5,0,0,1,723.5,370Z" transform="translate(-689 -342)"/>
    <path id="Rounded_Rectangle_809_copy_3" data-name="Rounded Rectangle 809 copy 3" class="cls-3" d="M690,361h1a1,1,0,1,1,0,2h-1A1,1,0,1,1,690,361Zm5,0h1a1,1,0,1,1,0,2h-1A1,1,0,1,1,695,361Zm5,0h1a1,1,0,1,1,0,2h-1A1,1,0,1,1,700,361Zm-10,4h1a1,1,0,0,1,0,2h-1A1,1,0,0,1,690,365Zm5,0h1a1,1,0,0,1,0,2h-1A1,1,0,0,1,695,365Zm5,0h1a1,1,0,0,1,0,2h-1A1,1,0,0,1,700,365Zm-10,4h1a1,1,0,1,1,0,2h-1A1,1,0,1,1,690,369Zm5,0h1a1,1,0,1,1,0,2h-1A1,1,0,1,1,695,369Zm5,0h1a1,1,0,1,1,0,2h-1A1,1,0,1,1,700,369Z" transform="translate(-689 -342)"/>
    <path id="Rounded_Rectangle_702_copy_4" data-name="Rounded Rectangle 702 copy 4" class="cls-3" d="M769.692,364.708a1.006,1.006,0,0,1-1.415,0L766,362.417l-2.3,2.291a1,1,0,0,1-1.414,0,0.989,0.989,0,0,1,0-1.406l3.016-3a1.006,1.006,0,0,1,1.414,0l2.985,3A0.991,0.991,0,0,1,769.692,364.708Z" transform="translate(-689 -342)"/>
    <path id="Rounded_Rectangle_702_copy_5" data-name="Rounded Rectangle 702 copy 5" class="cls-3" d="M769.692,367.293a1,1,0,0,0-1.415,0L766,369.6l-2.3-2.305a1,1,0,1,0-1.414,1.415l3.016,3.016a1,1,0,0,0,1.414,0l2.985-3.016A1,1,0,0,0,769.692,367.293Z" transform="translate(-689 -342)"/>
    <path id="Rounded_Rectangle_820_copy" data-name="Rounded Rectangle 820 copy" class="cls-3" d="M782,371h-3a1,1,0,0,1-1-1v-3a1,1,0,0,1,1-1h3a1,1,0,0,1,1,1v3A1,1,0,0,1,782,371Zm-1-3h-1v1h1v-1Zm1-3h-3a1,1,0,0,1-1-1v-3a1,1,0,0,1,1-1h3a1,1,0,0,1,1,1v3A1,1,0,0,1,782,365Zm-1-3h-1v1h1v-1Zm-5,9h-3a1,1,0,0,1-1-1v-3a1,1,0,0,1,1-1h3a1,1,0,0,1,1,1v3A1,1,0,0,1,776,371Zm-1-3h-1v1h1v-1Zm1-3h-3a1,1,0,0,1-1-1v-3a1,1,0,0,1,1-1h3a1,1,0,0,1,1,1v3A1,1,0,0,1,776,365Zm-1-3h-1v1h1v-1Z" transform="translate(-689 -342)"/>
    <path id="Rectangle_636_copy_2" data-name="Rectangle 636 copy 2" class="cls-3" d="M796.6,362.776L792,367.4V371l-2-1v-2.6l-4.6-4.624A0.982,0.982,0,0,1,785,362a1,1,0,0,1,.292-0.706c0.006-.007.008-0.015,0.014-0.022a0.968,0.968,0,0,1,.8-0.272h9.78a0.966,0.966,0,0,1,.8.272c0.006,0.006.008,0.014,0.014,0.021A0.993,0.993,0,0,1,797,362,0.982,0.982,0,0,1,796.6,362.776Zm-8.178.224L791,365.585,793.574,363h-5.148Z" transform="translate(-689 -342)"/>
  </g>
  <g id="white">
    <path id="Rounded_Rectangle_613_copy_6-2" data-name="Rounded Rectangle 613 copy 6" class="cls-5" d="M759,381h-4v4a1,1,0,1,1-2,0v-4h-4a1,1,0,0,1,0-2h4v-4a1,1,0,0,1,2,0v4h4A1,1,0,0,1,759,381Z" transform="translate(-689 -342)"/>
    <rect id="Rounded_Rectangle_613_copy_5-2" data-name="Rounded Rectangle 613 copy 5" class="cls-6" x="45" y="37" width="12" height="2" rx="1" ry="1"/>
    <path id="Rounded_Rectangle_652_copy-2" data-name="Rounded Rectangle 652 copy" class="cls-5" d="M822,378.5a0.491,0.491,0,0,1-.2.393l-2.956,2.943a0.489,0.489,0,0,1-.7,0,0.5,0.5,0,0,1,0-.7L820.285,379H811.5a0.5,0.5,0,0,1,0-1H820.3l-2.151-2.164a0.5,0.5,0,0,1,0-.7,0.487,0.487,0,0,1,.7,0l2.959,2.976A0.49,0.49,0,0,1,822,378.5Z" transform="translate(-689 -342)"/>
    <path id="Shape_943_copy_2-2" data-name="Shape 943 copy 2" class="cls-5" d="M805,377l1.5-1.5A4.92,4.92,0,0,0,803,374a5,5,0,0,0-4.9,4h-1a5.988,5.988,0,0,1,5.9-5,5.92,5.92,0,0,1,4.227,1.773L809,373v4h-4Zm-5.5,5.5A4.918,4.918,0,0,0,803,384a5,5,0,0,0,4.9-4h1a5.988,5.988,0,0,1-5.9,5,5.924,5.924,0,0,1-4.228-1.772L797,385v-4h4Z" transform="translate(-689 -342)"/>
    <path id="Rounded_Rectangle_809_copy-2" data-name="Rounded Rectangle 809 copy" class="cls-5" d="M705,375h1a1,1,0,0,1,0,2h-1A1,1,0,0,1,705,375Zm0,4h1a1,1,0,0,1,0,2h-1A1,1,0,0,1,705,379Zm0,4h1a1,1,0,1,1,0,2h-1A1,1,0,1,1,705,383Zm5-8h6a1,1,0,0,1,0,2h-6A1,1,0,0,1,710,375Zm0,4h6a1,1,0,0,1,0,2h-6A1,1,0,0,1,710,379Zm0,4h6a1,1,0,1,1,0,2h-6A1,1,0,1,1,710,383Z" transform="translate(-689 -342)"/>
    <path id="Rounded_Rectangle_810_copy_4-2" data-name="Rounded Rectangle 810 copy 4" class="cls-5" d="M719.5,375h1a0.5,0.5,0,0,1,0,1h-1A0.5,0.5,0,0,1,719.5,375Zm4,0h8a0.5,0.5,0,0,1,0,1h-8A0.5,0.5,0,0,1,723.5,375Zm-4,3h1a0.5,0.5,0,0,1,0,1h-1A0.5,0.5,0,0,1,719.5,378Zm4,0h8a0.5,0.5,0,0,1,0,1h-8A0.5,0.5,0,0,1,723.5,378Zm-4,3h1a0.5,0.5,0,0,1,0,1h-1A0.5,0.5,0,0,1,719.5,381Zm4,0h8a0.5,0.5,0,0,1,0,1h-8A0.5,0.5,0,0,1,723.5,381Zm-4,3h1a0.5,0.5,0,0,1,0,1h-1A0.5,0.5,0,0,1,719.5,384Zm4,0h8a0.5,0.5,0,0,1,0,1h-8A0.5,0.5,0,0,1,723.5,384Z" transform="translate(-689 -342)"/>
    <path id="Rounded_Rectangle_809_copy_3-2" data-name="Rounded Rectangle 809 copy 3" class="cls-5" d="M690,375h1a1,1,0,0,1,0,2h-1A1,1,0,0,1,690,375Zm5,0h1a1,1,0,0,1,0,2h-1A1,1,0,0,1,695,375Zm5,0h1a1,1,0,0,1,0,2h-1A1,1,0,0,1,700,375Zm-10,4h1a1,1,0,0,1,0,2h-1A1,1,0,0,1,690,379Zm5,0h1a1,1,0,0,1,0,2h-1A1,1,0,0,1,695,379Zm5,0h1a1,1,0,0,1,0,2h-1A1,1,0,0,1,700,379Zm-10,4h1a1,1,0,1,1,0,2h-1A1,1,0,1,1,690,383Zm5,0h1a1,1,0,1,1,0,2h-1A1,1,0,1,1,695,383Zm5,0h1a1,1,0,1,1,0,2h-1A1,1,0,1,1,700,383Z" transform="translate(-689 -342)"/>
    <path id="Rounded_Rectangle_809_copy_2" data-name="Rounded Rectangle 809 copy 2" class="cls-5" d="M820,355v-1a1,1,0,0,0,1,1h1a1,1,0,1,0,0-2h-1a1,1,0,0,0-1,1v-4a1,1,0,0,0,1,1h1a1,1,0,0,0,0-2h-1a1,1,0,0,0-1,1v-4a1,1,0,0,0,1,1h1a1,1,0,0,0,.007-2h3.986a1,1,0,0,0,.007,2h6a1,1,0,0,0,.007-2H833v10H820Zm12-6h-6a1,1,0,0,0,0,2h6A1,1,0,0,0,832,349Zm0,4h-6a1,1,0,1,0,0,2h6A1,1,0,1,0,832,353Zm-12-7v-1h0.993A1,1,0,0,0,820,346Z" transform="translate(-689 -342)"/>
    <path id="Rounded_Rectangle_810_copy_5" data-name="Rounded Rectangle 810 copy 5" class="cls-5" d="M835,355v-0.5a0.5,0.5,0,0,0,.5.5h1a0.5,0.5,0,0,0,0-1h-1a0.5,0.5,0,0,0-.5.5v-3a0.5,0.5,0,0,0,.5.5h1a0.5,0.5,0,0,0,0-1h-1a0.5,0.5,0,0,0-.5.5v-3a0.5,0.5,0,0,0,.5.5h1a0.5,0.5,0,0,0,0-1h-1a0.5,0.5,0,0,0-.5.5v-3a0.5,0.5,0,0,0,.5.5h1a0.5,0.5,0,0,0,.006-1h2.987a0.5,0.5,0,0,0,.007,1h8a0.5,0.5,0,0,0,.007-1H848v10H835Zm12.5-7h-8a0.5,0.5,0,0,0,0,1h8A0.5,0.5,0,0,0,847.5,348Zm0,3h-8a0.5,0.5,0,0,0,0,1h8A0.5,0.5,0,0,0,847.5,351Zm0,3h-8a0.5,0.5,0,0,0,0,1h8A0.5,0.5,0,0,0,847.5,354ZM835,345.5V345h0.493A0.5,0.5,0,0,0,835,345.5Z" transform="translate(-689 -342)"/>
    <path id="Rounded_Rectangle_809_copy_4" data-name="Rounded Rectangle 809 copy 4" class="cls-5" d="M805,355v-1a1,1,0,0,0,1,1h1a1,1,0,1,0,0-2h-1a1,1,0,0,0-1,1v-4a1,1,0,0,0,1,1h1a1,1,0,0,0,0-2h-1a1,1,0,0,0-1,1v-4a1,1,0,0,0,1,1h1a1,1,0,0,0,.007-2h3.986a1,1,0,0,0,.007,2h1a1,1,0,0,0,.006-2h3.987a1,1,0,0,0,.007,2h1a1,1,0,0,0,.007-2H818v10H805Zm7-6h-1a1,1,0,0,0,0,2h1A1,1,0,0,0,812,349Zm0,4h-1a1,1,0,1,0,0,2h1A1,1,0,1,0,812,353Zm5-4h-1a1,1,0,0,0,0,2h1A1,1,0,0,0,817,349Zm0,4h-1a1,1,0,1,0,0,2h1A1,1,0,1,0,817,353Zm-12-7v-1h0.993A1,1,0,0,0,805,346Z" transform="translate(-689 -342)"/>
    <path id="Rounded_Rectangle_702_copy_4-2" data-name="Rounded Rectangle 702 copy 4" class="cls-5" d="M769.692,378.708a1.006,1.006,0,0,1-1.415,0L766,376.416l-2.3,2.292a1,1,0,0,1-1.414,0,0.989,0.989,0,0,1,0-1.406l3.016-3a1,1,0,0,1,1.414,0l2.985,3A0.991,0.991,0,0,1,769.692,378.708Z" transform="translate(-689 -342)"/>
    <path id="Rounded_Rectangle_702_copy_5-2" data-name="Rounded Rectangle 702 copy 5" class="cls-5" d="M769.692,381.293a1,1,0,0,0-1.415,0L766,383.6l-2.3-2.305a1,1,0,1,0-1.414,1.415l3.016,3.016a1,1,0,0,0,1.414,0l2.985-3.016A1,1,0,0,0,769.692,381.293Z" transform="translate(-689 -342)"/>
    <path id="Rectangle_636_copy_3" data-name="Rectangle 636 copy 3" class="cls-5" d="M796.6,376.776L792,381.4V385l-2-1v-2.6l-4.6-4.625A0.983,0.983,0,0,1,785,376a1,1,0,0,1,.292-0.705c0.006-.007.008-0.016,0.014-0.022a0.972,0.972,0,0,1,.8-0.273h9.78a0.97,0.97,0,0,1,.8.273c0.006,0.006.008,0.014,0.014,0.021A0.993,0.993,0,0,1,797,376,0.983,0.983,0,0,1,796.6,376.776Zm-8.178.223L791,379.585,793.574,377h-5.148Z" transform="translate(-689 -342)"/>
    <path id="Rounded_Rectangle_820_copy_2" data-name="Rounded Rectangle 820 copy 2" class="cls-5" d="M782,385h-3a1,1,0,0,1-1-1v-3a1,1,0,0,1,1-1h3a1,1,0,0,1,1,1v3A1,1,0,0,1,782,385Zm-1-3h-1v1h1v-1Zm1-3h-3a1,1,0,0,1-1-1v-3a1,1,0,0,1,1-1h3a1,1,0,0,1,1,1v3A1,1,0,0,1,782,379Zm-1-3h-1v1h1v-1Zm-5,9h-3a1,1,0,0,1-1-1v-3a1,1,0,0,1,1-1h3a1,1,0,0,1,1,1v3A1,1,0,0,1,776,385Zm-1-3h-1v1h1v-1Zm1-3h-3a1,1,0,0,1-1-1v-3a1,1,0,0,1,1-1h3a1,1,0,0,1,1,1v3A1,1,0,0,1,776,379Zm-1-3h-1v1h1v-1Z" transform="translate(-689 -342)"/>
  </g>
  <path id="Rounded_Rectangle_702_copy_15" data-name="Rounded Rectangle 702 copy 15" class="cls-5" d="M762,393v-0.912a0.975,0.975,0,0,0,.277.62,1,1,0,0,0,1.414,0l2.3-2.291,2.281,2.291a1.006,1.006,0,0,0,1.415,0,0.991,0.991,0,0,0,0-1.406l-2.985-3a1.006,1.006,0,0,0-1.414,0l-3.016,3a0.975,0.975,0,0,0-.277.621V388h8v5h-8Z" transform="translate(-689 -342)"/>
  <path id="Rounded_Rectangle_702_copy_16" data-name="Rounded Rectangle 702 copy 16" class="cls-5" d="M762,395v0.912a0.975,0.975,0,0,1,.277-0.62,1,1,0,0,1,1.414,0l2.3,2.291,2.281-2.291a1.006,1.006,0,0,1,1.415,0,0.991,0.991,0,0,1,0,1.406l-2.985,3a1,1,0,0,1-1.414,0l-3.016-3a0.975,0.975,0,0,1-.277-0.62V400h8v-5h-8Z" transform="translate(-689 -342)"/>
  <path id="Rounded_Rectangle_839_copy_9" data-name="Rounded Rectangle 839 copy 9" class="cls-7" d="M768,355v-4.5a0.5,0.5,0,0,0,.5.5H772v3.5a0.5,0.5,0,0,0,1,0V351h3.5a0.5,0.5,0,0,0,0-1H773v-3.5a0.5,0.5,0,0,0-.5-0.5H777v9h-9Zm4-8.5V350h-3.5a0.5,0.5,0,0,0-.5.5V346h4.5A0.5,0.5,0,0,0,772,346.5Z" transform="translate(-689 -342)"/>
  <path id="Rounded_Rectangle_839_copy_8" data-name="Rounded Rectangle 839 copy 8" class="cls-7" d="M757,355v-4.5a0.5,0.5,0,0,0,.5.5h8a0.5,0.5,0,0,0,0-1h-8a0.5,0.5,0,0,0-.5.5V346h9v9h-9Z" transform="translate(-689 -342)"/>
  <path id="Rounded_Rectangle_839_copy_6" data-name="Rounded Rectangle 839 copy 6" class="cls-7" d="M744,356v-5.5a0.5,0.5,0,0,0,.5.5H749v4.5a0.5,0.5,0,0,0,1,0V351h4.5a0.5,0.5,0,0,0,0-1H750v-4.5a0.5,0.5,0,0,0-.5-0.5H755v11H744Zm5-10.5V350h-4.5a0.5,0.5,0,0,0-.5.5V345h5.5A0.5,0.5,0,0,0,749,345.5Z" transform="translate(-689 -342)"/>
  <path id="Rounded_Rectangle_839_copy_4" data-name="Rounded Rectangle 839 copy 4" class="cls-7" d="M731,356v-5.5a0.5,0.5,0,0,0,.5.5h10a0.5,0.5,0,0,0,0-1h-10a0.5,0.5,0,0,0-.5.5V345h11v11H731Z" transform="translate(-689 -342)"/>
  <path class="cls-5" d="M689,387l30,15-30,15V387Z" transform="translate(-689 -342)"/>
  <path id="Rounded_Rectangle_832_copy" data-name="Rounded Rectangle 832 copy" class="cls-5" d="M802.85,347.831l-7.015,6.993a0.5,0.5,0,0,1-.7,0l-2.991-3.043a0.5,0.5,0,0,1,.7-0.7l2.643,2.69,6.661-6.64A0.495,0.495,0,1,1,802.85,347.831Z" transform="translate(-689 -342)"/>
  <path id="Rounded_Rectangle_602_copy_2" data-name="Rounded Rectangle 602 copy 2" class="cls-5" d="M789.747,347.652l-6.008,7.071a1,1,0,0,1-1.414,0l-3.115-3.115a1,1,0,0,1,1.415-1.414l2.35,2.35,5.357-6.306A1,1,0,0,1,789.747,347.652Z" transform="translate(-689 -342)"/>
  <path id="Rounded_Rectangle_10_copy_13" data-name="Rounded Rectangle 10 copy 13" class="cls-3" d="M835.717,365.7l-4.022,4.017a0.993,0.993,0,0,1-1.405-1.4L832.608,366H825a1,1,0,0,1,0-2h7.61l-2.32-2.316a0.993,0.993,0,0,1,1.405-1.4l4.022,4.016A0.992,0.992,0,0,1,835.717,365.7Z" transform="translate(-689 -342)"/>
  <path id="Rounded_Rectangle_10_copy_14" data-name="Rounded Rectangle 10 copy 14" class="cls-5" d="M835.717,379.7l-4.022,4.017a0.993,0.993,0,0,1-1.405-1.4L832.608,380H825a1,1,0,0,1,0-2h7.61l-2.32-2.315a0.993,0.993,0,0,1,1.405-1.4l4.022,4.017A0.991,0.991,0,0,1,835.717,379.7Z" transform="translate(-689 -342)"/>
  <path id="Rounded_Rectangle_10_copy_15" data-name="Rounded Rectangle 10 copy 15" class="cls-5" d="M835.717,390.294l-4.022-4.016a0.986,0.986,0,0,0-.641-0.278H836v4.954A0.985,0.985,0,0,0,835.717,390.294Zm-5.427-4.016a0.993,0.993,0,0,0,0,1.4L832.61,390H825a1,1,0,0,0-1,1v-5h6.931A0.986,0.986,0,0,0,830.29,386.278ZM825,392h7.608l-2.318,2.313a0.987,0.987,0,0,0,.676,1.689H824v-5A1,1,0,0,0,825,392Zm6.7,3.717,4.022-4.017a0.983,0.983,0,0,0,.283-0.66V396h-4.98A0.991,0.991,0,0,0,831.7,395.715Z" transform="translate(-689 -342)"/>
  <path id="Rounded_Rectangle_856_copy_2" data-name="Rounded Rectangle 856 copy 2" class="cls-2" d="M729,432h-4l-2,2h-1v-2a2,2,0,0,1-2-2v-4a2,2,0,0,1,2-2h7a2,2,0,0,1,2,2v4A2,2,0,0,1,729,432Zm0-6h-7v4h7v-4Z" transform="translate(-689 -342)"/>
  <path id="facebook_copy_21" data-name="facebook copy 21" class="cls-2" d="M753.988,424.978L754.3,423a15.948,15.948,0,0,0-2.4.019,2.247,2.247,0,0,0-1.427.784,2.457,2.457,0,0,0-.477,1.6v1.591l-2-.014v2.007l2,0.007v6l2.013,0v-6h2.374l0.31-2.007h-2.684s0-1.285,0-1.51a0.562,0.562,0,0,1,.671-0.486C753.122,424.977,753.988,424.978,753.988,424.978Z" transform="translate(-689 -342)"/>
  <path id="Вконтакте_copy_26" data-name="Вконтакте copy 26" class="cls-2" d="M740.984,425.683v2.9a0.309,0.309,0,0,0,.4.312c0.279-.018.909-2.5,1.189-3.032a1.75,1.75,0,0,1,.686-0.735,0.575,0.575,0,0,1,.342-0.139h2.081a0.412,0.412,0,0,1,.279.648c-0.209.445-1.721,3.213-1.814,3.325a1.152,1.152,0,0,0-.221.491,1.048,1.048,0,0,0,.29.557c0.187,0.2,1.407,1.785,1.547,1.918a1.047,1.047,0,0,1,.256.513,0.7,0.7,0,0,1-.745.546c-0.583,0-1.42,0-1.583,0a2.618,2.618,0,0,1-.885-0.5c-0.21-.178-0.985-1.025-1.1-1.137a0.384,0.384,0,0,0-.326-0.129c-0.14,0-.4.014-0.392,0.521a1.718,1.718,0,0,1-.222,1.014,0.951,0.951,0,0,1-.685.245,5.37,5.37,0,0,1-2.895-.647c-1.464-.87-2.848-3.195-3.625-4.677a3.57,3.57,0,0,1-.522-2.417c0.046-.157.046-0.269,0.21-0.269s2.158,0,2.359,0a0.786,0.786,0,0,1,.326.291c0.07,0.09.2,1.613,0.358,1.881s0.84,1.736,1.275,1.736a0.539,0.539,0,0,0,.44-0.626c0-.357,0-1.761,0-1.941a1.765,1.765,0,0,0-.909-0.892,1.181,1.181,0,0,1,.862-0.44c0.558-.022,2.143-0.022,2.446.021A0.7,0.7,0,0,1,740.984,425.683Z" transform="translate(-689 -342)"/>
  <path class="cls-8" d="M706.684,428l2.5-.332a2.9,2.9,0,0,0,2.1-2.263,2.14,2.14,0,0,0-.369-2.074,2.164,2.164,0,0,1,2.866.479c0.59,0.819-.145,2.876-0.145,2.876s-0.489.35,0.394,0.332c1.69-.036,4.317-0.047,3.845,2.111-0.545,2.488-.6,3.1-1.008,4.511a1.565,1.565,0,0,1-1.677,1.324c-0.307,0-2.475.085-4.506,0.009-1.015-.038-1.826-0.948-2.281-0.961a12.148,12.148,0,0,0-1.718-.012L706,433.244v-4.457Z" transform="translate(-689 -342)"/>
  <path id="Rounded_Rectangle_856_copy_3" data-name="Rounded Rectangle 856 copy 3" class="cls-5" d="M720,448v-4a2,2,0,0,0,2,2v2h1l2-2h4a2,2,0,0,0,2-2v-4a2,2,0,0,0-1.993-2H731v10H720Zm2-4v-4h7v4h-7Zm-2-4v-2h1.993A2,2,0,0,0,720,440Z" transform="translate(-689 -342)"/>
  <path id="facebook_copy_22" data-name="facebook copy 22" class="cls-5" d="M748,449v-6.016l2,0.007v6l2.013,0v-6h2.374l0.31-2.007h-2.684s0-1.285,0-1.51a0.562,0.562,0,0,1,.671-0.486c0.439,0,1.305,0,1.305,0L754.3,437H755v12h-7Zm3.9-11.981a2.247,2.247,0,0,0-1.427.784,2.457,2.457,0,0,0-.477,1.6v1.591l-2-.014V437h4.064C752.01,437.006,751.95,437.011,751.9,437.019Z" transform="translate(-689 -342)"/>
  <path id="Вконтакте_copy_27" data-name="Вконтакте copy 27" class="cls-5" d="M745.716,439H746v0.287A0.383,0.383,0,0,0,745.716,439Zm-12.682.258a1.264,1.264,0,0,0-.034.2V439h0.222C733.092,439.015,733.077,439.113,733.034,439.258Zm9.535,0.605c-0.28.536-.91,3.014-1.189,3.032a0.309,0.309,0,0,1-.4-0.312v-2.9a0.7,0.7,0,0,0-.582-0.665c-0.052-.007-0.153-0.013-0.27-0.018h3.426a0.662,0.662,0,0,0-.3.128A1.75,1.75,0,0,0,742.569,439.863Zm-9.013,1.812c0.777,1.482,2.161,3.806,3.625,4.677a5.37,5.37,0,0,0,2.895.647,0.951,0.951,0,0,0,.685-0.245,1.718,1.718,0,0,0,.222-1.014c-0.012-.507.252-0.521,0.392-0.521a0.384,0.384,0,0,1,.326.129c0.116,0.112.891,0.959,1.1,1.137a2.618,2.618,0,0,0,.885.5c0.163,0,1,0,1.583,0A0.7,0.7,0,0,0,746,446.5V447H733v-7.1A4.568,4.568,0,0,0,733.556,441.675ZM746,439.445v6.923a1.092,1.092,0,0,0-.241-0.44c-0.14-.133-1.36-1.717-1.547-1.918a1.048,1.048,0,0,1-.29-0.557,1.152,1.152,0,0,1,.221-0.491c0.093-.112,1.605-2.88,1.814-3.326A0.541,0.541,0,0,0,746,439.445Zm-8,.884c0,0.18,0,1.584,0,1.941a0.539,0.539,0,0,1-.44.626c-0.435,0-1.112-1.467-1.275-1.736s-0.288-1.791-.358-1.881a0.948,0.948,0,0,0-.3-0.279h2.31a1.189,1.189,0,0,0-.848.437A1.765,1.765,0,0,1,738,440.329Z" transform="translate(-689 -342)"/>
  <path id="Shape_949_copy" data-name="Shape 949 copy" class="cls-5" d="M713.116,449c1.061-.009,1.892-0.038,2.073-0.038a1.565,1.565,0,0,0,1.677-1.324c0.407-1.409.463-2.023,1.008-4.511,0.472-2.158-2.155-2.147-3.845-2.111-0.883.018-.394-0.332-0.394-0.332s0.735-2.057.145-2.876a1.845,1.845,0,0,0-1.3-.808H718v12h-4.884Zm-2.2-11.671a2.14,2.14,0,0,1,.369,2.074,2.9,2.9,0,0,1-2.1,2.263l-2.5.332-0.684.789V437h5.893A3.143,3.143,0,0,0,710.914,437.329ZM706.684,448a12.148,12.148,0,0,1,1.718.012c0.455,0.013,1.266.923,2.281,0.961,0.454,0.017.912,0.025,1.356,0.029H706v-1.756Z" transform="translate(-689 -342)"/>
  <path id="Rounded_Rectangle_702_copy_14" data-name="Rounded Rectangle 702 copy 14" class="cls-3" d="M847.691,365.291a1,1,0,0,0-1.414,0L843,368.6l-3.3-3.308a1,1,0,0,0-1.414,1.414l4.016,4.018a1,1,0,0,0,1.414,0l3.984-4.018A1,1,0,0,0,847.691,365.291Z" transform="translate(-689 -342)"/>
  <path id="Rounded_Rectangle_702_copy_17" data-name="Rounded Rectangle 702 copy 17" class="cls-3" d="M847.691,362.709a1,1,0,0,1-1.414,0L843,359.418l-3.3,3.291a1,1,0,0,1-1.414,0,0.989,0.989,0,0,1,0-1.406l4.016-4a1,1,0,0,1,1.414,0l3.984,4A0.989,0.989,0,0,1,847.691,362.709Z" transform="translate(-689 -342)"/>
  <path id="Rounded_Rectangle_702_copy_19" data-name="Rounded Rectangle 702 copy 19" class="cls-5" d="M847.691,381.292a1,1,0,0,0-1.414,0L843,384.6l-3.3-3.308a1,1,0,0,0-1.414,1.413l4.016,4.019a1,1,0,0,0,1.414,0l3.984-4.019A1,1,0,0,0,847.691,381.292Z" transform="translate(-689 -342)"/>
  <path id="Rounded_Rectangle_702_copy_18" data-name="Rounded Rectangle 702 copy 18" class="cls-5" d="M847.691,378.71a1,1,0,0,1-1.414,0L843,375.418l-3.3,3.292a1,1,0,0,1-1.414,0,0.99,0.99,0,0,1,0-1.407l4.016-4a1,1,0,0,1,1.414,0l3.984,4A0.99,0.99,0,0,1,847.691,378.71Z" transform="translate(-689 -342)"/>
  <path id="Rounded_Rectangle_850_copy_2" data-name="Rounded Rectangle 850 copy 2" class="cls-3" d="M735,403h-3v-2h3v-3h2v3A2,2,0,0,1,735,403Zm0-14h-3v-2h3a2,2,0,0,1,2,2v3h-2v-3Zm-2,3v6a1,1,0,0,1-1,1h-6a1,1,0,0,1-1-1v-6a1,1,0,0,1,1-1h6A1,1,0,0,1,733,392Zm-2,1h-4v4h4v-4Zm-8-1h-2v-3a2,2,0,0,1,2-2h3v2h-3v3Zm0,9h3v2h-3a2,2,0,0,1-2-2v-3h2v3Z" transform="translate(-689 -342)"/>
  <path id="Rounded_Rectangle_850_copy_3" data-name="Rounded Rectangle 850 copy 3" class="cls-5" d="M735,421h-3v-2h3v-3h2v3A2,2,0,0,1,735,421Zm0-14h-3v-2h3a2,2,0,0,1,2,2v3h-2v-3Zm-2,3v6a1,1,0,0,1-1,1h-6a1,1,0,0,1-1-1v-6a1,1,0,0,1,1-1h6A1,1,0,0,1,733,410Zm-2,1h-4v4h4v-4Zm-8-1h-2v-3a2,2,0,0,1,2-2h3v2h-3v3Zm0,9h3v2h-3a2,2,0,0,1-2-2v-3h2v3Z" transform="translate(-689 -342)"/>
  <path id="Rounded_Rectangle_851_copy_4" data-name="Rounded Rectangle 851 copy 4" class="cls-3" d="M754.77,393.707l-5.094,5a1,1,0,0,1-1.414-1.414l4.376-4.3-4.376-4.322a1,1,0,0,1,1.414-1.414l5.094,5.031A1,1,0,0,1,754.77,393.707Z" transform="translate(-689 -342)"/>
  <path id="Rounded_Rectangle_851_copy_5" data-name="Rounded Rectangle 851 copy 5" class="cls-3" d="M739.288,393.72l5.027,4.988a0.979,0.979,0,0,0,1.4,0,1.006,1.006,0,0,0,0-1.411l-4.318-4.284,4.318-4.311a1.006,1.006,0,0,0,0-1.411,0.981,0.981,0,0,0-1.4,0l-5.027,5.019A1,1,0,0,0,739.288,393.72Z" transform="translate(-689 -342)"/>
  <path id="Rounded_Rectangle_851_copy_7" data-name="Rounded Rectangle 851 copy 7" class="cls-5" d="M754.77,407.707l-5.094,5a1,1,0,0,1-1.414-1.414l4.376-4.3-4.376-4.322a1,1,0,0,1,1.414-1.414l5.094,5.031A1,1,0,0,1,754.77,407.707Z" transform="translate(-689 -342)"/>
  <path id="Rounded_Rectangle_851_copy_6" data-name="Rounded Rectangle 851 copy 6" class="cls-5" d="M739.288,407.721l5.027,4.987a0.979,0.979,0,0,0,1.4,0,1.006,1.006,0,0,0,0-1.411l-4.318-4.284,4.318-4.311a1.006,1.006,0,0,0,0-1.411,0.981,0.981,0,0,0-1.4,0l-5.027,5.019A1.006,1.006,0,0,0,739.288,407.721Z" transform="translate(-689 -342)"/>
  <path id="Rounded_Rectangle_894_copy_10" data-name="Rounded Rectangle 894 copy 10" class="cls-3" d="M780,387a8,8,0,1,1-8,8A8,8,0,0,1,780,387Zm0,2a6,6,0,1,1-6,6A6,6,0,0,1,780,389Zm0,2a1,1,0,1,1-1,1A1,1,0,0,1,780,391Zm0,3a1,1,0,0,1,1,1v3a1,1,0,0,1-2,0v-3A1,1,0,0,1,780,394Z" transform="translate(-689 -342)"/>
  <path id="Rounded_Rectangle_652_copy_5" data-name="Rounded Rectangle 652 copy 5" class="cls-3" d="M796.869,394.84l-2.983,2.964a0.48,0.48,0,0,1-.784-0.017l-2.935-2.947a0.49,0.49,0,0,1,0-.7,0.5,0.5,0,0,1,.7,0l2.13,2.139V387.5a0.5,0.5,0,0,1,1,0v8.8l2.166-2.153a0.5,0.5,0,0,1,.7,0A0.49,0.49,0,0,1,796.869,394.84Z" transform="translate(-689 -342)"/>
  <path id="Rounded_Rectangle_652_copy_6" data-name="Rounded Rectangle 652 copy 6" class="cls-5" d="M805.869,394.84l-2.983,2.964a0.48,0.48,0,0,1-.784-0.017l-2.935-2.947a0.49,0.49,0,0,1,0-.7,0.5,0.5,0,0,1,.7,0l2.13,2.139V387.5a0.5,0.5,0,0,1,1,0v8.8l2.166-2.153a0.5,0.5,0,0,1,.7,0A0.49,0.49,0,0,1,805.869,394.84Z" transform="translate(-689 -342)"/>
  <path id="Rounded_Rectangle_652_copy_7" data-name="Rounded Rectangle 652 copy 7" class="cls-5" d="M808,387h7v11h-7V387Zm6.869,7.84-2.983,2.964a0.48,0.48,0,0,1-.784-0.017l-2.935-2.947a0.49,0.49,0,0,1,0-.7,0.5,0.5,0,0,1,.7,0l2.13,2.139V387.5a0.5,0.5,0,0,1,1,0v8.8l2.166-2.153a0.5,0.5,0,0,1,.7,0A0.49,0.49,0,0,1,814.869,394.84Z" transform="translate(-689 -342)"/>
  <path id="Rounded_Rectangle_873_copy_2" data-name="Rounded Rectangle 873 copy 2" class="cls-3" d="M778,405.856a0.949,0.949,0,0,1,0,.226c0,0.007,0,.013,0,0.02a0.955,0.955,0,0,1-.112.357l-4.958,10.883a0.927,0.927,0,0,1-.046.153,0.974,0.974,0,0,1-.179.214h0a0.974,0.974,0,0,1-.28.2c-0.017.008-.032,0.019-0.05,0.026a0.972,0.972,0,0,1-.267.063,1.07,1.07,0,0,1-.127.012,0.989,0.989,0,0,1-.213-0.036,1.01,1.01,0,0,1-.132-0.022c-0.021-.009-0.035-0.026-0.056-0.036s-0.036-.007-0.052-0.016l-3.133-1.8-3.523,4.4a22.232,22.232,0,0,1-.2.229,0.96,0.96,0,0,1-.218.147,0.838,0.838,0,0,1-.1.047,0.975,0.975,0,0,1-.3.06c-0.019,0-.035.011-0.054,0.011s-0.017,0-.026,0a0.968,0.968,0,0,1-.293-0.06,0.821,0.821,0,0,1-.1-0.033,0.61,0.61,0,0,1-.082-0.028,0.906,0.906,0,0,1-.131-0.116,1,1,0,0,1-.1-0.091,0.983,0.983,0,0,1-.13-0.192,0.941,0.941,0,0,1-.069-0.143,1.032,1.032,0,0,1-.043-0.213A0.964,0.964,0,0,1,763,420v-6.986l-5.32-3.05a0.979,0.979,0,0,1-.618-0.621,1.19,1.19,0,0,1-.044-0.118c0-.014-0.012-0.024-0.014-0.039a0.722,0.722,0,0,1,0-.081,0.966,0.966,0,0,1,1.118-1.113L776.851,405c0.027,0,.052,0,0.078,0s0.047,0,.071,0a0.98,0.98,0,0,1,.307.037,0.906,0.906,0,0,1,.089.042,0.96,0.96,0,0,1,.233.128,1.008,1.008,0,0,1,.122.13,0.957,0.957,0,0,1,.119.15c0.011,0.018.029,0.029,0.039,0.048a1,1,0,0,1,.059.212,0.661,0.661,0,0,1,.028.074A0.226,0.226,0,0,1,778,405.856Zm-6.453,9.739,3.332-7.314-8.3,4.467ZM765,417.17l1.651-2.064L765,414.16v3.01Zm-0.462-5.59,6.83-3.676-10.359,1.653Z" transform="translate(-689 -342)"/>
  <path id="Ellipse_223_copy_8" data-name="Ellipse 223 copy 8" class="cls-3" d="M825,411a2.974,2.974,0,0,1-1.858-.661l-3.218,2.01a2.826,2.826,0,0,1,0,1.3l3.218,2.01A2.968,2.968,0,0,1,825,415a3.018,3.018,0,1,1-2.925,2.349l-3.218-2.01a3,3,0,1,1,0-4.678l3.218-2.01A3,3,0,1,1,825,411Zm0,8a1,1,0,1,0-1-1A1,1,0,0,0,825,419Zm-8-7a1,1,0,1,0,1,1A1,1,0,0,0,817,412Zm8-5a1,1,0,1,0,1,1A1,1,0,0,0,825,407Z" transform="translate(-689 -342)"/>
  <path id="Rectangle_665_copy_4" data-name="Rectangle 665 copy 4" class="cls-3" d="M810,418h-2v3h-8v-3h-2a2,2,0,0,1-2-2v-5a2,2,0,0,1,2-2h2v-4h8v4h2a2,2,0,0,1,2,2v5A2,2,0,0,1,810,418Zm-8,1h4v-4h-4v4Zm4-12h-4v2h4v-2Zm4,4H798v5h2v-3h8v3h2v-5Z" transform="translate(-689 -342)"/>
  <path id="Ellipse_217_copy_6" data-name="Ellipse 217 copy 6" class="cls-3" d="M781,420a1,1,0,0,0,1-1v-1a10,10,0,0,1,10-10h1a1,1,0,0,0,0-2h-1a12,12,0,0,0-12,12v1A1,1,0,0,0,781,420Zm12-9h-1a7,7,0,0,0-7,7v1a1,1,0,0,0,2,0v-1a5,5,0,0,1,5-5h1A1,1,0,0,0,793,411Zm-1,5a2,2,0,1,0,2,2A2,2,0,0,0,792,416Z" transform="translate(-689 -342)"/>
  <path id="Rounded_Rectangle_873_copy_3" data-name="Rounded Rectangle 873 copy 3" class="cls-5" d="M778,423.856a0.949,0.949,0,0,1,0,.226c0,0.007,0,.013,0,0.02a0.955,0.955,0,0,1-.112.357l-4.958,10.883a0.927,0.927,0,0,1-.046.153,0.974,0.974,0,0,1-.179.214h0a0.974,0.974,0,0,1-.28.2c-0.017.008-.032,0.019-0.05,0.026a0.972,0.972,0,0,1-.267.063,1.07,1.07,0,0,1-.127.012,0.989,0.989,0,0,1-.213-0.036,1.01,1.01,0,0,1-.132-0.022c-0.021-.009-0.035-0.026-0.056-0.036s-0.036-.007-0.052-0.016l-3.133-1.8-3.523,4.4a22.232,22.232,0,0,1-.2.229,0.96,0.96,0,0,1-.218.147,0.838,0.838,0,0,1-.1.047,0.975,0.975,0,0,1-.3.06c-0.019,0-.035.011-0.054,0.011s-0.017,0-.026,0a0.968,0.968,0,0,1-.293-0.06,0.821,0.821,0,0,1-.1-0.033,0.61,0.61,0,0,1-.082-0.028,0.906,0.906,0,0,1-.131-0.116,1,1,0,0,1-.1-0.091,0.983,0.983,0,0,1-.13-0.192,0.941,0.941,0,0,1-.069-0.143,1.032,1.032,0,0,1-.043-0.213A0.964,0.964,0,0,1,763,438v-6.986l-5.32-3.05a0.979,0.979,0,0,1-.618-0.621,1.19,1.19,0,0,1-.044-0.118c0-.014-0.012-0.024-0.014-0.039a0.722,0.722,0,0,1,0-.081,0.966,0.966,0,0,1,1.118-1.113L776.851,423c0.027,0,.052,0,0.078,0s0.047,0,.071,0a0.98,0.98,0,0,1,.307.037,0.906,0.906,0,0,1,.089.042,0.96,0.96,0,0,1,.233.128,1.008,1.008,0,0,1,.122.13,0.957,0.957,0,0,1,.119.15c0.011,0.018.029,0.029,0.039,0.048a1,1,0,0,1,.059.212,0.661,0.661,0,0,1,.028.074A0.226,0.226,0,0,1,778,423.856Zm-6.453,9.739,3.332-7.314-8.3,4.467ZM765,435.17l1.651-2.064L765,432.16v3.01Zm-0.462-5.59,6.83-3.676-10.359,1.653Z" transform="translate(-689 -342)"/>
  <path id="Ellipse_223_copy_9" data-name="Ellipse 223 copy 9" class="cls-5" d="M825,429a2.974,2.974,0,0,1-1.858-.661l-3.218,2.01a2.826,2.826,0,0,1,0,1.3l3.218,2.01A2.968,2.968,0,0,1,825,433a3.018,3.018,0,1,1-2.925,2.349l-3.218-2.01a3,3,0,1,1,0-4.678l3.218-2.01A3,3,0,1,1,825,429Zm0,8a1,1,0,1,0-1-1A1,1,0,0,0,825,437Zm-8-7a1,1,0,1,0,1,1A1,1,0,0,0,817,430Zm8-5a1,1,0,1,0,1,1A1,1,0,0,0,825,425Z" transform="translate(-689 -342)"/>
  <path id="Rectangle_665_copy_5" data-name="Rectangle 665 copy 5" class="cls-5" d="M810,436h-2v3h-8v-3h-2a2,2,0,0,1-2-2v-5a2,2,0,0,1,2-2h2v-4h8v4h2a2,2,0,0,1,2,2v5A2,2,0,0,1,810,436Zm-8,1h4v-4h-4v4Zm4-12h-4v2h4v-2Zm4,4H798v5h2v-3h8v3h2v-5Z" transform="translate(-689 -342)"/>
  <path id="Ellipse_217_copy_7" data-name="Ellipse 217 copy 7" class="cls-5" d="M781,438a1,1,0,0,0,1-1v-1a10,10,0,0,1,10-10h1a1,1,0,0,0,0-2h-1a12,12,0,0,0-12,12v1A1,1,0,0,0,781,438Zm12-9h-1a7,7,0,0,0-7,7v1a1,1,0,0,0,2,0v-1a5,5,0,0,1,5-5h1A1,1,0,0,0,793,429Zm-1,5a2,2,0,1,0,2,2A2,2,0,0,0,792,434Z" transform="translate(-689 -342)"/>
  <path id="Rounded_Rectangle_873_copy_4" data-name="Rounded Rectangle 873 copy 4" class="cls-5" d="M757,441h21v16H757V441Zm21,0.856a0.949,0.949,0,0,1,0,.226c0,0.007,0,.013,0,0.02a0.955,0.955,0,0,1-.112.357l-4.958,10.883a0.927,0.927,0,0,1-.046.153,0.974,0.974,0,0,1-.179.214h0a0.974,0.974,0,0,1-.28.2c-0.017.008-.032,0.019-0.05,0.026a0.972,0.972,0,0,1-.267.063,1.07,1.07,0,0,1-.127.012,0.989,0.989,0,0,1-.213-0.036,1.01,1.01,0,0,1-.132-0.022c-0.021-.009-0.035-0.026-0.056-0.036s-0.036-.007-0.052-0.016l-3.133-1.8-3.523,4.4a22.232,22.232,0,0,1-.2.229,0.96,0.96,0,0,1-.218.147,0.838,0.838,0,0,1-.1.047,0.975,0.975,0,0,1-.3.06c-0.019,0-.035.011-0.054,0.011s-0.017,0-.026,0a0.968,0.968,0,0,1-.293-0.06,0.821,0.821,0,0,1-.1-0.033,0.61,0.61,0,0,1-.082-0.028,0.906,0.906,0,0,1-.131-0.116,0.894,0.894,0,0,1-.1-0.091,0.983,0.983,0,0,1-.13-0.192,0.941,0.941,0,0,1-.069-0.143,1.032,1.032,0,0,1-.043-0.213A0.964,0.964,0,0,1,763,456v-6.986l-5.32-3.05a0.979,0.979,0,0,1-.618-0.621,1.19,1.19,0,0,1-.044-0.118c0-.014-0.012-0.024-0.014-0.039a0.722,0.722,0,0,1,0-.081,0.966,0.966,0,0,1,1.118-1.113L776.851,441c0.027,0,.052,0,0.078,0s0.047,0,.071,0a0.98,0.98,0,0,1,.307.037,0.906,0.906,0,0,1,.089.042,0.96,0.96,0,0,1,.233.128,1.008,1.008,0,0,1,.122.13,0.957,0.957,0,0,1,.119.15c0.011,0.018.029,0.029,0.039,0.048a1,1,0,0,1,.059.212,0.661,0.661,0,0,1,.028.074A0.226,0.226,0,0,1,778,441.856Zm-6.453,9.739,3.332-7.314-8.3,4.467ZM765,453.17l1.651-2.064L765,450.16v3.01Zm-0.462-5.59,6.83-3.676-10.359,1.653Z" transform="translate(-689 -342)"/>
  <path id="Ellipse_223_copy_10" data-name="Ellipse 223 copy 10" class="cls-5" d="M826,454a1,1,0,1,1-1-1A1,1,0,0,1,826,454Zm-12,3v-8a2.984,2.984,0,0,0,4.857,2.337l3.218,2.01a3.039,3.039,0,1,0,1.067-1.688l-3.218-2.01a2.826,2.826,0,0,0,0-1.3l3.218-2.01A2.994,2.994,0,1,0,825.024,441H828v16H814Zm12-13a1,1,0,1,1-1-1A1,1,0,0,1,826,444Zm-8,5a1,1,0,1,1-1-1A1,1,0,0,1,818,449Zm4-5a2.975,2.975,0,0,0,.075.652l-3.218,2.01A2.967,2.967,0,0,0,817,446a3,3,0,0,0-3,3v-8h10.975A3,3,0,0,0,822,444Z" transform="translate(-689 -342)"/>
  <path id="Rectangle_665_copy_6" data-name="Rectangle 665 copy 6" class="cls-5" d="M796,457v-5a2,2,0,0,0,2,2h2v3h8v-3h2a2,2,0,0,0,2-2v-5a2,2,0,0,0-2-2h-2v-4h4v16H796Zm6-12v-2h4v2h-4Zm0,10v-4h4v4h-4Zm-4-3v-5h12v5h-2v-3h-8v3h-2Zm2-7h-2a2,2,0,0,0-2,2v-6h4v4Z" transform="translate(-689 -342)"/>
  <path id="Ellipse_217_copy_8" data-name="Ellipse 217 copy 8" class="cls-5" d="M780,442h14v14H780V442Zm1,14a1,1,0,0,0,1-1v-1a10,10,0,0,1,10-10h1a1,1,0,0,0,0-2h-1a12,12,0,0,0-12,12v1A1,1,0,0,0,781,456Zm12-9h-1a7,7,0,0,0-7,7v1a1,1,0,0,0,2,0v-1a5,5,0,0,1,5-5h1A1,1,0,0,0,793,447Zm-1,5a2,2,0,1,0,2,2A2,2,0,0,0,792,452Z" transform="translate(-689 -342)"/>
  <path id="Rounded_Rectangle_668" data-name="Rounded Rectangle 668" class="cls-3" d="M860,420H849a2,2,0,0,1-2-2V407a2,2,0,0,1,2-2h11a2,2,0,0,1,2,2v11A2,2,0,0,1,860,420Zm0-13H849v11h11V407Z" transform="translate(-689 -342)"/>
  <path id="Rounded_Rectangle_670" data-name="Rounded Rectangle 670" class="cls-3" d="M843,420h-3a2,2,0,0,1-2-2v-5h5a2,2,0,0,1,2,2v3A2,2,0,0,1,843,420Zm0-5h-3v3h3v-3Zm0-3h-5v-5a2,2,0,0,1,2-2h3a2,2,0,0,1,2,2v3A2,2,0,0,1,843,412Zm0-5h-3v3h3v-3Zm-8,13h-3a2,2,0,0,1-2-2v-3a2,2,0,0,1,2-2h5v5A2,2,0,0,1,835,420Zm0-5h-3v3h3v-3Zm-1.5-3H832a2,2,0,0,1-2-2v-3a2,2,0,0,1,2-2h3a2,2,0,0,1,2,2v5h-3.5Zm1.5-5h-3v3h3v-3Z" transform="translate(-689 -342)"/>
  <path id="Rounded_Rectangle_668_copy" data-name="Rounded Rectangle 668 copy" class="cls-5" d="M847,422h15v15H847V422Zm13,15H849a2,2,0,0,1-2-2V424a2,2,0,0,1,2-2h11a2,2,0,0,1,2,2v11A2,2,0,0,1,860,437Zm0-13H849v11h11V424Z" transform="translate(-689 -342)"/>
  <path id="Rounded_Rectangle_670_copy" data-name="Rounded Rectangle 670 copy" class="cls-5" d="M835,435h-3v-3h3v3Zm-5,2v-2a2,2,0,0,0,2,2h3a2,2,0,0,0,2-2v-5h-5a2,2,0,0,0-2,2v-5a2,2,0,0,0,2,2h5v-5a2,2,0,0,0-2-2h5a2,2,0,0,0-2,2v5h5a2,2,0,0,0,2-2v-3a2,2,0,0,0-2-2h2v15H830Zm15-5a2,2,0,0,0-2-2h-5v5a2,2,0,0,0,2,2h3a2,2,0,0,0,2-2v-3Zm-5,0h3v3h-3v-3Zm0-5v-3h3v3h-3Zm-8,0v-3h3v3h-3Zm-2-3v-2h2A2,2,0,0,0,830,424Z" transform="translate(-689 -342)"/>
</svg>
