<svg id="shop.svg" xmlns="http://www.w3.org/2000/svg" width="50" height="40" viewBox="0 0 50 40">
  <defs>
    <style>
      .cls-1, .cls-2 {
        fill: #fff;
        fill-rule: evenodd;
      }

      .cls-2 {
        opacity: 0.9;
      }
    </style>
  </defs>
  <path id="Rounded_Rectangle_958_copy_4" data-name="Rounded Rectangle 958 copy 4" class="cls-1" d="M954,252V227a6.981,6.981,0,0,0,4,6.3V250h-1a1,1,0,0,0,0,2h44a1,1,0,0,0,0-2h-1V233.3a6.979,6.979,0,0,0,4-6.3v-7.022a1.152,1.152,0,0,0-.06-0.255,0.45,0.45,0,0,0-.05-0.157c-0.01-.017-0.01-0.034-0.02-0.05l-4.017-7.023a1,1,0,0,0-.967-0.493H1004v40H954Zm5.52-39.875a1.017,1.017,0,0,0-.373-0.125H960a0.975,0.975,0,0,0-.469.133A0.073,0.073,0,0,1,959.52,212.125ZM998.853,212a1.017,1.017,0,0,0-.373.125s0,0.006-.009.008A0.975,0.975,0,0,0,998,212h0.851Zm-42.116,7,2.9-5.073A1,1,0,0,0,960,214h38a1,1,0,0,0,.359-0.073l2.9,5.073H956.737ZM982,245h2v5H974V238h10v5h-2A1,1,0,1,0,982,245Zm-22,5V233.9a6.657,6.657,0,0,0,7-3.346,6.945,6.945,0,0,0,12,0,6.945,6.945,0,0,0,12,0,6.657,6.657,0,0,0,7,3.346V250H986V238a2,2,0,0,0-2-2H974a2,2,0,0,0-2,2v12H960Zm7-11a1,1,0,0,0-2,0v6a1,1,0,0,0,2,0v-6Zm24,6a1,1,0,0,0,2,0v-6a1,1,0,0,0-2,0v6Zm-32.853-32.507-4.021,7.023a0.42,0.42,0,0,0-.017.05,0.935,0.935,0,0,0-.053.157,0.989,0.989,0,0,0-.052.255c0,0.008,0,.014,0,0.021v-8h5.114A1,1,0,0,0,958.147,212.493Z" transform="translate(-954 -212)"/>
  <path id="Rounded_Rectangle_958_copy_5" data-name="Rounded Rectangle 958 copy 5" class="cls-2" d="M956,227v-6h46v6a5,5,0,0,1-10,0v-2h-2v2a5,5,0,0,1-10,0v-2h-2v2a5,5,0,0,1-10,0v-2h-2v2A5,5,0,0,1,956,227Z" transform="translate(-954 -212)"/>
</svg>
