<svg id="leas_truck.svg" xmlns="http://www.w3.org/2000/svg" width="40" height="40" viewBox="0 0 40 40">
  <defs>
    <style>
      .cls-1, .cls-2 {
        fill: #fff;
        fill-rule: evenodd;
      }

      .cls-1 {
        opacity: 0.9;
      }
    </style>
  </defs>
  <path id="Rounded_Rectangle_943_copy_6" data-name="Rounded Rectangle 943 copy 6" class="cls-1" d="M456,442v3a1,1,0,0,0,1,1h26a1,1,0,0,0,1-1v-8a1,1,0,0,0-1-1H457a1,1,0,0,0-1,1v5Zm5-5a4,4,0,1,1-4,4A4,4,0,0,1,461,437Zm0,6a2,2,0,1,0-2-2A2,2,0,0,0,461,443Zm7-5a1,1,0,0,1,1,1v4a1,1,0,0,1-2,0v-4A1,1,0,0,1,468,438Zm4,0a1,1,0,0,1,1,1v4a1,1,0,0,1-2,0v-4A1,1,0,0,1,472,438Zm7-1a4,4,0,1,1-4,4A4,4,0,0,1,479,437Zm0,6a2,2,0,1,0-2-2A2,2,0,0,0,479,443Z" transform="translate(-450 -414)"/>
  <path id="Rounded_Rectangle_943_copy_5" data-name="Rounded Rectangle 943 copy 5" class="cls-2" d="M450,414h40v40H450V414Zm40,19a1,1,0,0,1-1,1h-3v-2h2v-4h-2v-2h3a1,1,0,0,1,1,1h0v6Zm-2-16a1,1,0,0,0-1-1H453a1,1,0,0,0-1,1v7h-2v-7a3,3,0,0,1,3-3h34a3,3,0,0,1,3,3v7h-2v-7Zm-38,10a1,1,0,0,1,1-1h3v-2a3,3,0,0,1,3-3h26a3,3,0,0,1,3,3v19h0v3h1a1,1,0,0,0,1-1v-9h2v9a3,3,0,0,1-3,3h-1v3h0v1a2,2,0,0,1-2,2h-5a2,2,0,0,1-2-2v-4H463v4a2,2,0,0,1-2,2h-5a2,2,0,0,1-2-2v-4h-1a3,3,0,0,1-3-3v-9h2v9a1,1,0,0,0,1,1h1v-1h0V434h-3a1,1,0,0,1-1-1h0v-6h0Zm29,25h5v-4h-5v4Zm-23-2v2h5v-4h-5v2Zm22.949-16a2.5,2.5,0,0,0-4.9,0h4.9ZM456,434.183a2.962,2.962,0,0,1,1-.184h15.05a4.475,4.475,0,0,1,8.9,0H483a2.966,2.966,0,0,1,1,.184V424a1,1,0,0,0-1-1H457a1,1,0,0,0-1,1v10.183ZM452,432h2v-4h-2v4Zm12.284-6.711a1.009,1.009,0,0,1,1.427,1.427l-5,5a1.009,1.009,0,0,1-1.427-1.428Zm4,0a1.009,1.009,0,0,1,1.427,1.427l-5,5a1.009,1.009,0,0,1-1.427-1.428ZM461,443a2,2,0,1,0-2-2A2,2,0,0,0,461,443Zm18,0a2,2,0,1,0-2-2A2,2,0,0,0,479,443Z" transform="translate(-450 -414)"/>
</svg>
