<svg id="logo.svg" xmlns="http://www.w3.org/2000/svg" width="148" height="37" viewBox="0 0 148 37">
  <defs>
    <style>
      .cls-1 {
        fill: #1d7ce6;
      }

      .cls-1, .cls-2 {
        fill-rule: evenodd;
      }

      .cls-2 {
        fill: #333;
      }
    </style>
  </defs>
  <path id="Rounded_Rectangle_10_copy_9" data-name="Rounded Rectangle 10 copy 9" class="cls-1" d="M265,1852v15.5a18.5,18.5,0,0,1-37,0V1849h37v3h0Zm-18,18h3a5,5,0,0,0,0-10h-3v10Zm-0.5,13h0Zm15.5-31H231v15.5a15.426,15.426,0,0,0,7,12.93V1860h-3v-3h6v24.96a15.1,15.1,0,0,0,3,.82V1857h6a8,8,0,0,1,0,16h-3v9.97a15.481,15.481,0,0,0,15-15.47V1852Z" transform="translate(-228 -1849)"/>
  <path id="priority_copy_6" data-name="priority copy 6" class="cls-2" d="M280,1879h3l0-6.97a5.65,5.65,0,0,0,3.415.99,7.216,7.216,0,0,0,7.571-7.33,6.363,6.363,0,0,0-6.765-6.71,5.277,5.277,0,0,0-4.221,1.88l0-1.86h-3v20Zm6.969-17.24a3.672,3.672,0,0,1,4,4.03c-0.048,2.94-1.79,4.66-4.766,4.66a4.585,4.585,0,0,1-3.2-1.21v-5.77A4.985,4.985,0,0,1,286.969,1861.76ZM297,1873h3v-9.22c0.527-1.03.961-2.06,2.384-2.08a2.926,2.926,0,0,1,1.8.43l0.868-2.64a3.055,3.055,0,0,0-2.076-.52c-1.768,0-2.26.83-2.973,1.89V1859h-3v14Zm11,0h3v-14h-3v14Zm-0.006-19.57a1.489,1.489,0,0,0,1.547,1.56,1.47,1.47,0,0,0,1.459-1.56,1.439,1.439,0,0,0-1.459-1.44A1.462,1.462,0,0,0,307.994,1853.43Zm6,12.57c0,4.03,3,7.01,7.5,7.01s7.5-2.98,7.5-7.01-3-7-7.5-7S314,1861.98,314,1866Zm3-.01a4.505,4.505,0,0,1,9,0A4.505,4.505,0,0,1,317,1865.99Zm32.988,1.47c0,3.57,1.241,5.55,4.372,5.55a5.674,5.674,0,0,0,3.566-1.18l-0.775-2.39a3.666,3.666,0,0,1-2.2.78c-1.767,0-1.949-1.28-1.949-3.48V1862h5v-3h-5v-4h-3ZM376,1859h-3l-3.339,8.69c-0.248.74-.465,1.46-0.651,2.14-0.279-.72-0.527-1.4-0.837-2.11L364,1859h-3l6.65,13.53-0.311.74c-0.93,2.23-1.96,3.26-3.138,3.26a2.983,2.983,0,0,1-1.371-.47l-0.807,2.07a4.594,4.594,0,0,0,2.636.87c1.984,0,3.6-1.12,5.646-6.11Zm-44,14h3v-9.22c0.527-1.03.96-2.06,2.384-2.08a2.926,2.926,0,0,1,1.8.43l0.868-2.64a3.055,3.055,0,0,0-2.076-.52c-1.768,0-2.259.83-2.973,1.89V1859h-3v14Zm11,0h3v-14h-3v14Zm-0.006-19.57a1.489,1.489,0,0,0,1.547,1.56,1.471,1.471,0,0,0,1.459-1.56,1.44,1.44,0,0,0-1.459-1.44A1.462,1.462,0,0,0,342.994,1853.43Z" transform="translate(-228 -1849)"/>
</svg>
