<svg id="info_copyright.svg" xmlns="http://www.w3.org/2000/svg" width="40" height="40" viewBox="0 0 40 40">
  <defs>
    <style>
      .cls-1, .cls-2 {
        fill: #fff;
        fill-rule: evenodd;
      }

      .cls-1 {
        opacity: 0.9;
      }
    </style>
  </defs>
  <path id="Ellipse_329_copy_5" data-name="Ellipse 329 copy 5" class="cls-1" d="M522.5,603a7.5,7.5,0,1,1,7.5-7.5A7.5,7.5,0,0,1,522.5,603Zm0-10a2.487,2.487,0,0,1,1.855.837L526,592.7a4.5,4.5,0,1,0,.006,5.6l-1.632-1.151A2.5,2.5,0,1,1,522.5,593Z" transform="translate(-492 -582)"/>
  <path id="Ellipse_329_copy_4" data-name="Ellipse 329 copy 4" class="cls-2" d="M512,622a3.991,3.991,0,0,0,3.868-3.032c0.208,0.02.419,0.032,0.632,0.032a6.452,6.452,0,0,0,6.422-7.453A7.5,7.5,0,0,0,525.837,607h-2.049A5.515,5.515,0,0,1,521,610.38v-0.011a5.351,5.351,0,0,1-6.634-1.3l-1.692,1.106A7.349,7.349,0,0,0,521,612.549,4.5,4.5,0,0,1,516.5,617a3.761,3.761,0,0,1-.5-0.045,4.5,4.5,0,0,1-2.2-.9l-1.817,1.1a6.364,6.364,0,0,0,1.964,1.286A2,2,0,0,1,510,618V587a3,3,0,0,1,5.777-1.125l1.737-.977A4.98,4.98,0,0,0,513,582h19v13.5a9.5,9.5,0,1,0-9.5,9.5,9.5,9.5,0,0,0,9.5-9.5V622H512Zm-6-2a2,2,0,0,1-1.947-1.558,6.348,6.348,0,0,0,1.963-1.286l-1.816-1.1a4.5,4.5,0,0,1-2.2.9,3.761,3.761,0,0,1-.5.045,4.5,4.5,0,0,1-4.5-4.451,7.349,7.349,0,0,0,8.321-2.371l-1.692-1.106a5.351,5.351,0,0,1-6.634,1.3v0.011a5.416,5.416,0,0,1-2.732-6.53A7.456,7.456,0,0,0,499.5,606c0.17,0,.333-0.025.5-0.035v-2.023c-0.168.016-.328,0.058-0.5,0.058a5.464,5.464,0,0,1-4.21-2h-0.033a5.472,5.472,0,0,1,.379-7.392,5.937,5.937,0,0,0,10.073,1.07l-1.425-1.425a3.966,3.966,0,0,1-7.1-1.133A3.879,3.879,0,0,1,497,592a4,4,0,0,1,3.126-3.9,5.006,5.006,0,0,0,1.434,2.512l1.412-1.416a3.045,3.045,0,0,1-.707-0.975,0,0,0,0,0,0,0A3,3,0,1,1,508,587v31A2,2,0,0,1,506,620Zm3-35.973A4.978,4.978,0,0,0,505,582h8A4.977,4.977,0,0,0,509,584.027Zm-8.911,2.049A6,6,0,0,0,495,592c0,0.166.011,0.329,0.025,0.491A7.481,7.481,0,0,0,492,598.5V582h13A5,5,0,0,0,500.089,586.076ZM492,605.5v-7a7.46,7.46,0,0,0,.869,3.5A7.459,7.459,0,0,0,492,605.5Zm3.077,6.048A6.458,6.458,0,0,0,501.5,619c0.213,0,.423-0.012.631-0.032A3.992,3.992,0,0,0,506,622H492V605.5A7.482,7.482,0,0,0,495.077,611.547ZM512,622h-6a3.974,3.974,0,0,0,3-1.38A3.972,3.972,0,0,0,512,622Z" transform="translate(-492 -582)"/>
</svg>
