<svg id="ser_law.svg" xmlns="http://www.w3.org/2000/svg" width="40" height="40" viewBox="0 0 40 40">
  <defs>
    <style>
      .cls-1, .cls-2 {
        fill: #fff;
        fill-rule: evenodd;
      }

      .cls-1 {
        opacity: 0.9;
      }
    </style>
  </defs>
  <path id="Ellipse_297_copy_5" data-name="Ellipse 297 copy 5" class="cls-1" d="M583,353a5,5,0,0,0,4.9-4h-9.8A5,5,0,0,0,583,353Zm17,11-3.345-26h-1.31L592,364h8Zm4.1-15a5,5,0,0,0,9.8,0h-9.8Z" transform="translate(-576 -330)"/>
  <path id="Ellipse_297_copy_6" data-name="Ellipse 297 copy 6" class="cls-2" d="M576,330h40v40H576V330Zm39.9,19a6.966,6.966,0,0,1-13.8,0H602v-2h2.007a1,1,0,0,1,.045-0.323L607.658,335h-7.8a4.013,4.013,0,0,1-1.8,2.417L602,364v1l-1,1H591l-1-1v-1l3.947-26.583A4.019,4.019,0,0,1,592.141,335h-7.8l3.606,11.677a1,1,0,0,1,.045.323H590v2h-0.1a6.966,6.966,0,0,1-13.8,0H576v-2h2.007a1,1,0,0,1,.045-0.323l3.989-12.918c0-.009.01-0.016,0.012-0.025a0.989,0.989,0,0,1,.165-0.331h0a0.991,0.991,0,0,1,.436-0.333h0c0.006,0,.012,0,0.018,0A1,1,0,0,1,583,333h9.141a3.981,3.981,0,0,1,7.717,0H609a0.988,0.988,0,0,1,.323.065c0.007,0,.013,0,0.019,0l0,0a0.979,0.979,0,0,1,.435.331,0,0,0,0,0,0,0,0.969,0.969,0,0,1,.164.331c0,0.009.01,0.016,0.013,0.025l3.989,12.918a1,1,0,0,1,.045.323H616v2h-0.1Zm-35.855-2h5.912L583,337.426ZM596,332a2,2,0,1,0,2,2A2,2,0,0,0,596,332Zm13,5.426L606.044,347h5.912ZM587,368h18a1,1,0,1,1,0,2H587A1,1,0,1,1,587,368Z" transform="translate(-576 -330)"/>
</svg>
