<svg id="absolutesecurity.svg" xmlns="http://www.w3.org/2000/svg" width="40" height="40" viewBox="0 0 40 40">
  <defs>
    <style>
      .cls-1, .cls-2 {
        fill: #fff;
        fill-rule: evenodd;
      }

      .cls-1 {
        opacity: 0.9;
      }
    </style>
  </defs>
  <path id="Ellipse_316_copy_6" data-name="Ellipse 316 copy 6" class="cls-1" d="M1087.89,385.018A6.968,6.968,0,0,0,1083,383a6.813,6.813,0,0,0-5.03,2.08c0-.226.03-0.353,0.03-0.58a27.279,27.279,0,0,0-4.62-15.183A18.016,18.016,0,0,1,1087.89,385.018ZM1057,383a6.968,6.968,0,0,0-4.89,2.018,18.016,18.016,0,0,1,14.51-15.7A27.279,27.279,0,0,0,1062,384.5c0,0.227.03,0.354,0.03,0.58A6.813,6.813,0,0,0,1057,383Z" transform="translate(-1050 -366)"/>
  <path id="Ellipse_316_copy_5" data-name="Ellipse 316 copy 5" class="cls-2" d="M1071,367.05V367a1,1,0,0,0-1-1h20v21A19.981,19.981,0,0,0,1071,367.05Zm-2-.05v0.05A19.981,19.981,0,0,0,1050,387V366h20A1,1,0,0,0,1069,367Zm7,17.5c0,0.4.02,0.391,0,.79a9.389,9.389,0,0,0-6-2.29h0a9.389,9.389,0,0,0-6,2.29c-0.02-.4,0-0.386,0-0.79a25.33,25.33,0,0,1,5.27-15.466c0.24-.01.48-0.034,0.73-0.034h0c0.25,0,.49.024,0.73,0.034A25.33,25.33,0,0,1,1076,384.5Zm-25,4.5a1,1,0,0,0,1-1h0a5.2,5.2,0,0,1,5-3,5.625,5.625,0,0,1,5,3v0a1,1,0,0,0,2,0h0c0.88-1.51,3.22-2.611,5-2.913V391h2v-5.913c1.78,0.3,4.12,1.4,5,2.913h0a1,1,0,0,0,2,0v0a5.625,5.625,0,0,1,5-3,5.2,5.2,0,0,1,5,3h0a1,1,0,0,0,2,0v18h-40V388A1,1,0,0,0,1051,389Zm16,9v1a7,7,0,1,0,14,0v-1h-0.28a1.976,1.976,0,0,0-1.72-1h-2a1.976,1.976,0,0,0-1.72,1H1075v1a1,1,0,1,1-2,0v-5a2,2,0,0,0-2-2v-1h-2v1a2,2,0,0,0-2,2v4Zm4,0v1a3,3,0,1,0,6,0h2a5,5,0,0,1-10,0v-1h0v-4h2v4Z" transform="translate(-1050 -366)"/>
</svg>
