<?xml version="1.0" encoding="utf-8"?>
<!-- Generator: Adobe Illustrator 22.0.1, SVG Export Plug-In . SVG Version: 6.00 Build 0)  -->
<svg version="1.1" id="Слой_1" xmlns="http://www.w3.org/2000/svg" xmlns:xlink="http://www.w3.org/1999/xlink" x="0px" y="0px"
	 viewBox="0 0 30.192 26.266" style="enable-background:new 0 0 30.192 26.266;" xml:space="preserve">
<style type="text/css">
	.st0{fill:#4C4E54;}
</style>
<g>
	<path class="st0" d="M16.629,14.04c-0.157-0.455-0.393-0.857-0.7-1.192c-0.309-0.337-0.698-0.608-1.161-0.805
		c-0.463-0.197-1.011-0.298-1.629-0.298H10.43v7.563h2.708c0.566,0,1.086-0.092,1.545-0.272v0c0.455-0.18,0.849-0.436,1.172-0.763
		c0.323-0.327,0.574-0.726,0.747-1.187c0.174-0.464,0.261-0.992,0.261-1.569C16.863,14.997,16.785,14.5,16.629,14.04z
		 M15.621,15.516c0,0.384-0.055,0.746-0.162,1.075c-0.109,0.334-0.269,0.627-0.476,0.873c-0.208,0.247-0.472,0.445-0.782,0.588
		c-0.312,0.141-0.669,0.212-1.064,0.212h-1.477v-5.476h1.477c0.387,0,0.74,0.068,1.05,0.2c0.311,0.133,0.576,0.325,0.789,0.571
		c0.209,0.24,0.372,0.533,0.483,0.869C15.566,14.758,15.621,15.124,15.621,15.516z"/>
	<path class="st0" d="M8.243,16.008c-0.254-0.321-0.97-0.723-0.97-0.723s0.314-0.213,0.452-0.301
		c0.16-0.101,0.303-0.232,0.424-0.388c0.118-0.153,0.209-0.326,0.271-0.512c0.063-0.188,0.095-0.389,0.095-0.6
		c0-0.28-0.058-0.535-0.172-0.758c-0.114-0.225-0.28-0.421-0.492-0.58c-0.214-0.163-0.474-0.292-0.772-0.383
		c-0.527-0.164-1.207-0.185-1.821-0.058c-0.261,0.052-0.51,0.128-0.74,0.226c-0.225,0.096-0.428,0.212-0.606,0.343
		c-0.124,0.092-0.233,0.194-0.324,0.303l-0.054,0.066l0.791,0.886l0.073-0.093c0.155-0.199,0.341-0.361,0.553-0.481
		c0.56-0.323,1.381-0.327,1.826-0.006c0.234,0.167,0.353,0.421,0.353,0.756c0,0.347-0.14,0.636-0.414,0.857
		c-0.268,0.217-0.646,0.327-1.125,0.327H5.348v0.909h0.21c0.573,0,1.01,0.111,1.299,0.331c0.298,0.225,0.45,0.549,0.45,0.963
		c0,0.4-0.133,0.703-0.394,0.899c-0.254,0.189-0.62,0.285-1.089,0.285c-0.41,0-0.76-0.07-1.04-0.209
		c-0.21-0.106-0.4-0.245-0.565-0.414l-0.077-0.08l-0.715,0.891l0.06,0.063c0.259,0.275,0.573,0.49,0.932,0.639
		c0.418,0.175,0.906,0.263,1.45,0.263c0.431,0,0.824-0.053,1.167-0.156c0.341-0.104,0.634-0.251,0.868-0.437
		c0.234-0.184,0.419-0.413,0.549-0.68c0.131-0.269,0.194-0.562,0.194-0.897C8.647,16.768,8.511,16.347,8.243,16.008z"/>
	<path class="st0" d="M10.315,0.114L0.107,5.207v20.908h19.72l10.185-5.092V0.114H10.315z M3.007,4.995l7.546-3.774h16.56
		l-7.547,3.774H3.007z M1.215,25.007V6.103h17.929v18.904H1.215z M28.905,1.564v18.774l-8.656,4.328V5.891L28.905,1.564z"/>
</g>
</svg>
