<?xml version="1.0" encoding="utf-8"?>
<!-- Generator: Adobe Illustrator 18.1.1, SVG Export Plug-In . SVG Version: 6.00 Build 0)  -->
<svg version="1.1" id="Layer_1" xmlns="http://www.w3.org/2000/svg" xmlns:xlink="http://www.w3.org/1999/xlink" x="0px" y="0px"
	 viewBox="0 0 85.2 132.8" enable-background="new 0 0 85.2 132.8" xml:space="preserve">
<path fill="#EE3524" d="M42.6,0c9,0,11.9,6.5,14.3,13c1,2.7,24.5,67,25.2,69c0.2,0.5,0.1,1.4-0.8,1.7c-0.8,0.3-13,5.1-13.7,5.3
	c-0.7,0.3-1.4-0.1-1.7-0.8c-0.3-0.7-5.3-14.7-5.9-16.3c-1.7,0-33.1,0-34.8,0c-0.6,1.6-5.7,15.6-5.9,16.3c-0.2,0.6-1,1.1-1.7,0.8
	c-0.7-0.3-13-5-13.7-5.3c-0.7-0.3-1-1.1-0.8-1.7c0.9-2.4,24-65.7,25.2-69C30.6,6.6,33.6,0,42.6,0z M1.3,115.1
	c-0.7,0-1.3,0.6-1.3,1.4v15c0,0.7,0.6,1.3,1.3,1.3h82.6c0.7,0,1.3-0.6,1.3-1.3v-15c0-0.7-0.6-1.4-1.3-1.4H1.3 M42.6,21L30.8,56.3
	h23.7L42.7,21H42.6z"/>
</svg>
