<?xml version="1.0" encoding="utf-8"?>
<!-- Generator: Adobe Illustrator 22.0.1, SVG Export Plug-In . SVG Version: 6.00 Build 0)  -->
<svg version="1.1" id="Слой_1" xmlns="http://www.w3.org/2000/svg" xmlns:xlink="http://www.w3.org/1999/xlink" x="0px" y="0px"
	 viewBox="0 0 26.401 26.445" style="enable-background:new 0 0 26.401 26.445;" xml:space="preserve">
<style type="text/css">
	.st0{fill:#4C4E54;}
</style>
<g>
	<path class="st0" d="M25.692,22.271c-0.283,0-0.513,0.23-0.513,0.513v1.836c0,0.317-0.258,0.576-0.576,0.576H13.681v-3.342h0.897
		c1.407,0,2.552-1.145,2.552-2.552c0-1.407-1.145-2.552-2.552-2.552h-0.897v-2.997h3.963c0.283,0,0.513-0.23,0.513-0.513v-1.41
		c0-0.829,0.665-1.506,1.49-1.525c0.825,0.019,1.49,0.696,1.49,1.525v1.41c0,0.283,0.23,0.513,0.513,0.513h3.529v4.95
		c0,0.283,0.23,0.513,0.513,0.513c0.283,0,0.513-0.23,0.513-0.513v-5.464c0-0.061-0.011-0.12-0.03-0.174V1.825
		c0-0.884-0.719-1.602-1.602-1.602H1.808c-0.884,0-1.602,0.719-1.602,1.602v11.241c-0.02,0.054-0.03,0.113-0.03,0.174v11.38
		c0,0.884,0.719,1.602,1.602,1.602h11.36c0.005,0,0.01,0,0.015,0c0.005,0,0.01,0,0.015,0h11.436c0.884,0,1.602-0.719,1.602-1.602
		v-1.836C26.205,22.501,25.975,22.271,25.692,22.271z M13.681,4.855V1.249h10.892c0.318,0,0.576,0.258,0.576,0.576v10.902h-2.914
		V11.83c0-1.407-1.145-2.552-2.552-2.552c-0.012,0-0.024,0-0.035,0c-0.012,0-0.023,0-0.035,0c-1.407,0-2.551,1.145-2.551,2.552
		v0.897h-3.38V8.931c0-0.283-0.23-0.513-0.513-0.513h-1.41c-0.841,0-1.525-0.684-1.525-1.525s0.684-1.525,1.525-1.525h1.41
		C13.451,5.368,13.681,5.138,13.681,4.855z M1.232,1.825c0-0.318,0.258-0.576,0.576-0.576h10.846v3.092h-0.897
		c-1.407,0-2.552,1.145-2.552,2.552c0,1.407,1.145,2.551,2.552,2.551h0.897v3.283H8.991c-0.283,0-0.513,0.23-0.513,0.513v1.388
		c0,0.841-0.684,1.525-1.525,1.525c-0.841,0-1.525-0.684-1.525-1.525v-1.214c0.02-0.054,0.03-0.113,0.03-0.174
		c0-0.283-0.23-0.513-0.513-0.513H1.232V1.825z M12.654,21.341v3.855H1.777c-0.317,0-0.576-0.258-0.576-0.576V13.754h3.2v0.875
		c0,1.407,1.145,2.552,2.552,2.552c1.407,0,2.551-1.145,2.551-2.552v-0.875h3.15v3.51c0,0.283,0.23,0.513,0.513,0.513h1.41
		c0.841,0,1.525,0.684,1.525,1.525c0,0.841-0.684,1.525-1.525,1.525h-1.41C12.884,20.828,12.654,21.058,12.654,21.341z"/>
	<path class="st0" d="M5.721,2.65c0-0.283-0.23-0.513-0.513-0.513H3.295c-0.552,0-1.001,0.449-1.001,1.001v1.651
		c0,0.283,0.23,0.513,0.513,0.513c0.283,0,0.513-0.23,0.513-0.513V3.163h1.887C5.491,3.163,5.721,2.934,5.721,2.65z"/>
	<path class="st0" d="M7.096,2.856c0.081,0.2,0.273,0.321,0.476,0.321c0.064,0,0.129-0.012,0.192-0.038
		c0.263-0.106,0.39-0.405,0.283-0.668L8.037,2.444C7.93,2.181,7.631,2.055,7.369,2.161c-0.263,0.106-0.39,0.405-0.283,0.668
		L7.096,2.856z"/>
	<path class="st0" d="M26.163,20.511c-0.106-0.263-0.406-0.39-0.668-0.283c-0.263,0.106-0.39,0.405-0.283,0.668l0.011,0.026
		c0.081,0.2,0.273,0.321,0.476,0.321c0.064,0,0.13-0.012,0.192-0.038c0.263-0.106,0.39-0.406,0.283-0.668L26.163,20.511z"/>
</g>
</svg>
