<?xml version="1.0" encoding="utf-8"?>
<!-- Generator: Adobe Illustrator 22.0.1, SVG Export Plug-In . SVG Version: 6.00 Build 0)  -->
<svg version="1.1" id="Слой_1" xmlns="http://www.w3.org/2000/svg" xmlns:xlink="http://www.w3.org/1999/xlink" x="0px" y="0px"
	 viewBox="0 0 34.005 26.445" style="enable-background:new 0 0 34.005 26.445;" xml:space="preserve">
<style type="text/css">
	.st0{fill:#4C4E54;}
</style>
<g>
	<path class="st0" d="M24.294,18.65h-5.167c-0.157,0-0.286,0.165-0.286,0.369s0.128,0.369,0.286,0.369h5.166
		c0.158,0,0.286-0.165,0.286-0.369S24.451,18.65,24.294,18.65z"/>
	<path class="st0" d="M23.186,7.305c0-0.204-0.128-0.369-0.285-0.369h-8.465c-0.157,0-0.286,0.165-0.286,0.369
		c0,0.204,0.128,0.369,0.286,0.369H22.9C23.058,7.673,23.186,7.508,23.186,7.305z"/>
	<path class="st0" d="M33.324,7.266c-0.7-0.7-1.839-0.7-2.54,0l-2.306,2.308V3.887c0-0.479-0.187-0.93-0.526-1.269l-1.869-1.869
		c-0.339-0.339-0.79-0.526-1.269-0.526H13.466c-0.99,0-1.796,0.806-1.796,1.796v6.68c-0.575-0.219-1.194-0.352-1.846-0.352
		c-2.869,0-5.196,2.327-5.196,5.18c0,2.853,2.327,5.196,5.196,5.196c0.653,0,1.271-0.134,1.846-0.354v0.65H6.669
		c-3.586,0-6.518,2.917-6.518,6.518c0,0.383,0.303,0.685,0.685,0.685h18.041c0.382,0,0.685-0.303,0.685-0.685
		c0-1.134-0.293-2.202-0.806-3.134h7.926c0.99,0,1.796-0.806,1.796-1.796v-5.952l4.846-4.85C34.024,9.105,34.024,7.966,33.324,7.266
		z M24.513,1.171h0.187l0.029,0c0.14-0.001,0.43-0.005,0.684,0.249l1.869,1.869c0.252,0.251,0.25,0.534,0.249,0.686l-0.001,0.185
		l-0.185,0.028h-2.83V1.171z M9.824,17.763c-2.335,0-4.235-1.9-4.235-4.236c0-2.335,1.9-4.235,4.235-4.235
		c0.662,0,1.287,0.157,1.846,0.429c0.345,0.168,0.663,0.38,0.948,0.631c0.881,0.777,1.441,1.91,1.441,3.175
		c0,1.265-0.56,2.398-1.441,3.175c-0.285,0.251-0.603,0.463-0.948,0.631C11.112,17.605,10.487,17.763,9.824,17.763z M1.099,25.262
		l0.062-0.465c0.367-2.747,2.735-4.818,5.507-4.818h5.002h0.948h0.425c1.437,0,2.762,0.559,3.758,1.476
		c0.309,0.284,0.586,0.601,0.825,0.949c0.479,0.698,0.806,1.51,0.924,2.394l0.062,0.464H1.099z M27.529,20.608
		c0,0.467-0.38,0.847-0.847,0.847h-8.564c-1.195-1.482-3.022-2.436-5.074-2.436h-0.425v-1.124c1.156-0.741,1.993-1.926,2.283-3.314
		h4.585c0.158,0,0.286-0.165,0.286-0.369s-0.128-0.369-0.285-0.369h-4.488c0.006-0.106,0.021-0.209,0.021-0.317
		c0-0.872-0.222-1.687-0.603-2.405c0.007,0.001,0.012,0.005,0.019,0.005h6.958c0.158,0,0.286-0.165,0.286-0.369
		c0-0.204-0.128-0.369-0.285-0.369h-6.959c-0.14,0-0.252,0.134-0.276,0.306c-0.403-0.609-0.924-1.133-1.541-1.526V2.019
		c0-0.467,0.38-0.848,0.848-0.848h10.098v3.491c0,0.261,0.213,0.474,0.474,0.474h3.49v5.388l-2.938,2.94
		c-0.053,0.053-0.091,0.115-0.115,0.185l-0.935,2.804c-0.058,0.171-0.014,0.357,0.115,0.485c0.128,0.128,0.314,0.173,0.485,0.115
		l2.803-0.935c0.07-0.023,0.133-0.062,0.184-0.114l0.4-0.4V20.608z M25.861,13.535l1.199,1.199l-0.562,0.534l-1.756,0.586
		l0.63-1.829L25.861,13.535z M27.54,14.253l-1.199-1.199l3.991-3.993l1.198,1.199L27.54,14.253z M32.653,9.135L31.84,9.949
		L30.641,8.75l0.813-0.814c0.33-0.33,0.868-0.331,1.199,0C32.983,8.267,32.983,8.804,32.653,9.135z"/>
</g>
</svg>
