<?xml version="1.0" encoding="utf-8"?>
<!-- Generator: Adobe Illustrator 22.0.1, SVG Export Plug-In . SVG Version: 6.00 Build 0)  -->
<svg version="1.1" id="Layer_1" xmlns="http://www.w3.org/2000/svg" xmlns:xlink="http://www.w3.org/1999/xlink" x="0px" y="0px"
	 viewBox="0 0 30 20" style="enable-background:new 0 0 30 20;" xml:space="preserve">
<style type="text/css">
	.st0{fill-rule:evenodd;clip-rule:evenodd;fill:#4C4E54;}
</style>
<path class="st0" d="M25.8,17.9L20.8,13c1.1-1.2,1.7-2.7,1.7-4.4c0-3.6-3-6.6-6.8-6.6c-2.4,0-4.6,1.2-5.8,3.1H5.1v1.5h4.1
	C9,7.3,8.9,7.9,8.9,8.6c0,0.1,0,0.3,0,0.4H5v1.5h4.2c0.3,0.8,0.7,1.5,1.2,2.1H5v1.5h7.2c1,0.6,2.2,0.9,3.5,0.9
	c1.4,0,2.8-0.4,3.9-1.2l5.1,5c0,0,0.1,0,0.2,0l1-0.9C25.9,18,25.9,17.9,25.8,17.9z M15.7,14c-3.1,0-5.6-2.4-5.6-5.4
	c0-3,2.5-5.4,5.6-5.4c3.1,0,5.6,2.4,5.6,5.4C21.3,11.6,18.8,14,15.7,14z"/>
</svg>
