<?xml version="1.0" encoding="utf-8"?>
<!-- Generator: Adobe Illustrator 22.0.1, SVG Export Plug-In . SVG Version: 6.00 Build 0)  -->
<svg version="1.1" id="Слой_1" xmlns="http://www.w3.org/2000/svg" xmlns:xlink="http://www.w3.org/1999/xlink" x="0px" y="0px"
	 viewBox="0 0 25.716 26.266" style="enable-background:new 0 0 25.716 26.266;" xml:space="preserve">
<style type="text/css">
	.st0{fill:#4C4E54;}
</style>
<g>
	<g>
		<g>
			<path class="st0" d="M18.775,1.638c-1.827-0.967-3.862-1.476-5.929-1.481C5.81,0.155,0.105,5.858,0.104,12.894
				c-0.001,3.321,1.296,6.511,3.613,8.89L3.184,25.57c-0.046,0.273,0.137,0.533,0.411,0.579c0.126,0.021,0.256-0.006,0.362-0.077
				l2.892-1.918c6.218,3.293,13.928,0.922,17.22-5.296S24.992,4.93,18.775,1.638z M21.196,21.141
				c-2.204,2.235-5.211,3.494-8.35,3.495c-2.021,0.003-4.008-0.516-5.77-1.506c-0.155-0.09-0.347-0.09-0.502,0l-2.265,1.471
				l0.437-2.917c0.022-0.157-0.032-0.316-0.146-0.427C-0.014,16.706-0.066,9.276,4.485,4.661S16.466-0.006,21.08,4.545
				S25.747,16.526,21.196,21.141z"/>
		</g>
	</g>
	<g>
		<g>
			<path class="st0" d="M15.723,17.405h-0.417V9.983c0-0.277-0.225-0.502-0.502-0.502h-4.334c-0.277,0-0.502,0.225-0.502,0.502
				v1.808c0,0.277,0.225,0.502,0.502,0.502h0.422v5.112h-0.422c-0.277,0-0.502,0.225-0.502,0.502v1.808
				c0,0.277,0.225,0.502,0.502,0.502h5.252c0.277,0,0.502-0.225,0.502-0.502v-1.808C16.225,17.63,16,17.405,15.723,17.405z
				 M10.973,19.213V18.41h0.422c0.277,0,0.502-0.225,0.502-0.502v-6.116c0-0.277-0.225-0.502-0.502-0.502h-0.422v-0.803h3.324v7.422
				c0,0.277,0.225,0.502,0.502,0.502h0.417l0.005,0.803L10.973,19.213L10.973,19.213z"/>
		</g>
	</g>
	<g>
		<g>
			<path class="st0" d="M12.846,4.575c-1.162,0-2.104,0.942-2.104,2.104s0.942,2.104,2.104,2.104s2.104-0.942,2.104-2.104
				S14.008,4.575,12.846,4.575z M12.846,7.784c-0.607,0-1.1-0.492-1.1-1.1c-0.003-0.607,0.487-1.102,1.095-1.105
				c0.002,0,0.003,0,0.005,0v0.005c0.607,0,1.1,0.492,1.1,1.1S13.453,7.784,12.846,7.784z"/>
		</g>
	</g>
</g>
</svg>
