<?xml version="1.0" encoding="utf-8"?>
<!-- Generator: Adobe Illustrator 22.0.1, SVG Export Plug-In . SVG Version: 6.00 Build 0)  -->
<svg version="1.1" id="Слой_1" xmlns="http://www.w3.org/2000/svg" xmlns:xlink="http://www.w3.org/1999/xlink" x="0px" y="0px"
	 viewBox="0 0 37.76 26.445" style="enable-background:new 0 0 37.76 26.445;" xml:space="preserve">
<style type="text/css">
	.st0{fill:#4C4E54;}
</style>
<path class="st0" d="M30.918,6.368c-0.097-0.109-0.235-0.173-0.38-0.173h-6.106V0.93c0-0.278-0.227-0.505-0.505-0.505H0.585
	c-0.278,0-0.505,0.227-0.505,0.505v21.845c0,0.278,0.227,0.505,0.505,0.505h2.836l0.126,0.46c0.435,1.58,1.882,2.684,3.519,2.684
	c1.638,0,3.085-1.104,3.52-2.684l0.126-0.46h16.034l0.126,0.46c0.435,1.58,1.882,2.684,3.52,2.684c1.637,0,3.084-1.104,3.519-2.684
	l0.126-0.46h3.081c0.278,0,0.505-0.227,0.505-0.505v-8.562c0-0.122-0.045-0.24-0.126-0.333L30.918,6.368z M7.066,25.416
	c-1.455,0-2.639-1.184-2.639-2.64c0-1.456,1.184-2.64,2.639-2.64c1.456,0,2.64,1.184,2.64,2.64
	C9.706,24.232,8.522,25.416,7.066,25.416z M23.422,22.271H10.713l-0.126-0.46c-0.435-1.58-1.882-2.685-3.52-2.685
	c-1.637,0-3.084,1.105-3.52,2.686L3.42,22.271H1.09v-8.783h5.325c0.278,0,0.505-0.227,0.505-0.505s-0.227-0.505-0.505-0.505H1.09
	v-2.475h8.77c0.278,0,0.505-0.227,0.505-0.505c0-0.278-0.227-0.505-0.505-0.505H1.09V5.972H13.6c0.278,0,0.505-0.227,0.505-0.505
	c0-0.278-0.227-0.505-0.505-0.505H1.09V1.435h22.332V22.271z M30.392,25.416c-1.455,0-2.639-1.184-2.639-2.64
	c0-1.456,1.184-2.64,2.639-2.64c1.456,0,2.64,1.184,2.64,2.64C33.032,24.232,31.848,25.416,30.392,25.416z M36.614,22.271h-2.576
	l-0.126-0.46c-0.435-1.58-1.882-2.685-3.52-2.685c-1.637,0-3.084,1.105-3.519,2.685l-0.126,0.46h-2.315V7.205h5.876l6.306,7.197
	V22.271z"/>
</svg>
