<?xml version="1.0" encoding="utf-8"?>
<!-- Generator: Adobe Illustrator 22.0.1, SVG Export Plug-In . SVG Version: 6.00 Build 0)  -->
<svg version="1.1" id="Слой_1" xmlns="http://www.w3.org/2000/svg" xmlns:xlink="http://www.w3.org/1999/xlink" x="0px" y="0px"
	 viewBox="0 0 35.023 31.004" style="enable-background:new 0 0 35.023 31.004;" xml:space="preserve">
<style type="text/css">
	.st0{fill:#797C80;}
	.st1{fill:#FFFFFF;}
</style>
<circle class="st0" cx="19.784" cy="25.749" r="3"/>
<rect x="19.625" y="15.639" transform="matrix(0.9001 -0.4356 0.4356 0.9001 -5.6069 11.6797)" class="st0" width="6.085" height="4.857"/>
<rect x="24.508" y="7.944" transform="matrix(0.9001 -0.4356 0.4356 0.9001 -3.1226 12.6505)" class="st0" width="3.042" height="10.384"/>
<path class="st0" d="M33.564,19.474l-0.714-1.475l-12.667,5.94l-5.894-11.451c1.01-0.758,0.898-2.807-1.496-2.343
	c-0.156,0.03-0.214,0.037-0.326,0.047c-1.513-0.105-3.03-0.604-4.404-1.331C8.054,8.702,8.048,8.543,8.039,8.384
	c-0.08-1.31-0.841-2.464-2.268-2.545C4.578,5.771,3.145,6.793,3.225,8.107c0.189,3.101,0.187,3.86,0.177,6.833l-0.031-0.001
	c0.019,0.395,0.037,1.05,0.058,1.446c0.03,0.615,0.246,1.108,0.57,1.48c0.003,0.004,0.003,0.011,0.007,0.014
	c0.383,0.588,0.352,1.213,0.657,1.841c-0.564,2.681-2.344,5.36-3.033,8.015c-0.505,1.95,2.502,2.774,3.008,0.829
	c0.695-2.674,2.821-5.378,3.391-8.081c0.029-0.137,0.039-0.269,0.037-0.394c1.872,1.935,3.13,5.079,3.366,7.826
	c0.171,1.99,3.291,2.005,3.119,0c-0.394-4.582-2.73-9.029-6.315-11.784c-0.011-0.231-0.022-0.462-0.034-0.692l0.012,0.001
	c0.005-1.865,0.01-1.238-0.027-3.103c1.036,0.397,3.501,0.744,4.681,0.834l6.714,13.115l1.779-0.914l0-0.001L33.564,19.474z"/>
<path class="st1" d="M20.047,26.854c-0.275,0.065-0.551,0.024-0.785-0.097c-0.284-0.147-0.504-0.411-0.584-0.745
	c-0.062-0.26-0.029-0.521,0.077-0.746c0.142-0.303,0.416-0.54,0.764-0.623c0.409-0.098,0.821,0.042,1.091,0.328
	c0.132,0.14,0.23,0.315,0.277,0.514c0.064,0.272,0.025,0.544-0.092,0.776C20.651,26.549,20.385,26.774,20.047,26.854z"/>
<rect x="17.217" y="10.663" transform="matrix(0.9001 -0.4357 0.4357 0.9001 -3.6799 10.1353)" class="st0" width="6.085" height="4.857"/>
<circle class="st0" cx="5.723" cy="2.763" r="2.344"/>
</svg>
