<?xml version="1.0" encoding="utf-8"?>
<!-- Generator: Adobe Illustrator 22.0.1, SVG Export Plug-In . SVG Version: 6.00 Build 0)  -->
<svg version="1.1" id="Слой_1" xmlns="http://www.w3.org/2000/svg" xmlns:xlink="http://www.w3.org/1999/xlink" x="0px" y="0px"
	 viewBox="0 0 30.149 26.247" style="enable-background:new 0 0 30.149 26.247;" xml:space="preserve">
<style type="text/css">
	.st0{fill:#797C80;}
	.st1{fill:#D33234;}
</style>
<path class="st0" d="M13.147,4.199c-0.002,0-0.003,0-0.005,0c-0.632,0-1.226,0.245-1.673,0.691
	c-0.449,0.447-0.697,1.042-0.698,1.675c0.001,1.313,1.063,2.374,2.366,2.376h0c0.002,0,0.003,0,0.005,0
	c0.632,0,1.226-0.245,1.673-0.691c0.449-0.447,0.697-1.042,0.698-1.676c0.002-0.633-0.244-1.229-0.691-1.678
	C14.375,4.448,13.78,4.2,13.147,4.199z"/>
<polygon class="st0" points="27.902,18.822 27.175,16.491 19.033,16.491 19.406,18.822 "/>
<path class="st1" d="M13.251,0.165c-0.005,0-0.011,0-0.017,0c-1.848,0-3.586,0.718-4.897,2.022C7.045,3.491,6.281,5.189,6.167,6.99
	c-0.111,1.667,0.426,3.406,1.513,4.897l5.555,7.426l5.561-7.433c1.087-1.451,1.623-3.186,1.507-4.886
	c-0.114-1.804-0.878-3.503-2.149-4.784C16.847,0.896,15.105,0.17,13.251,0.165z M16.005,9.421c-0.762,0.765-1.775,1.187-2.854,1.19
	c-0.003,0-0.006,0-0.009,0c-1.076,0-2.087-0.418-2.85-1.177c-0.754-0.751-1.188-1.792-1.19-2.856
	C9.097,5.514,9.526,4.472,10.28,3.72c0.761-0.764,1.775-1.187,2.853-1.189c1.063-0.044,2.093,0.416,2.859,1.177
	c0.765,0.761,1.187,1.775,1.19,2.854C17.185,7.641,16.766,8.656,16.005,9.421z"/>
<polygon class="st0" points="29.99,26.165 29.323,24.031 13.976,24.031 13.976,26.165 "/>
<polygon class="st0" points="1.738,21.769 0.239,26.165 7.547,26.165 7.795,21.769 "/>
<path class="st0" d="M28.379,20.491h-9.686c-0.412,0-0.758-0.296-0.824-0.703l-0.512-3.201l-3.455,4.618
	c-0.133,0.179-0.328,0.294-0.55,0.326c-0.215,0.027-0.44-0.025-0.619-0.159c-0.065-0.047-0.122-0.106-0.17-0.171l-3.524-4.71H3.538
	L2.307,20.1h6.371c0.228,0,0.448,0.095,0.606,0.261c0.157,0.166,0.241,0.392,0.227,0.621l-0.293,5.183h3.089v-2.969
	c0-0.46,0.374-0.834,0.834-0.834h15.823L28.379,20.491z"/>
</svg>
