<?xml version="1.0" encoding="utf-8"?>
<!-- Generator: Adobe Illustrator 22.0.1, SVG Export Plug-In . SVG Version: 6.00 Build 0)  -->
<svg version="1.1" id="Слой_1" xmlns="http://www.w3.org/2000/svg" xmlns:xlink="http://www.w3.org/1999/xlink" x="0px" y="0px"
	 viewBox="0 0 35 30" style="enable-background:new 0 0 35 30;" xml:space="preserve">
<style type="text/css">
	.st0{fill:#797C80;}
	.st1{fill:#FFFFFF;}
</style>
<g>
	<path class="st0" d="M34,22.8v-5.7c0-0.7-0.2-1.3-0.6-1.9l-2.5-3.8c-0.6-0.9-1.7-1.5-2.8-1.5h-4c-0.5,0-0.8,0.4-0.8,0.8v12h-6.5
		c0.6,0.5,1,1.3,1.2,2.1h6.8c0.2-1.7,1.7-2.9,3.4-2.9c1.7,0,3.2,1.3,3.4,2.9h1.9c0.2,0,0.4-0.2,0.4-0.4L34,22.8z M30.9,16.9h-5.2
		c-0.2,0-0.4-0.2-0.4-0.4v-3.8c0-0.2,0.2-0.4,0.4-0.4h3.2c0.1,0,0.3,0.1,0.3,0.2l2,3.8C31.4,16.5,31.2,16.9,30.9,16.9z"/>
	<path class="st0" d="M28.3,22.8c-1.4,0-2.6,1.2-2.6,2.6c0,1.4,1.2,2.6,2.6,2.6c1.4,0,2.6-1.2,2.6-2.6C30.9,24,29.7,22.8,28.3,22.8z
		 M28.3,26.7c-0.7,0-1.3-0.6-1.3-1.3c0-0.7,0.6-1.3,1.3-1.3c0.7,0,1.3,0.6,1.3,1.3C29.6,26.1,29,26.7,28.3,26.7z"/>
	<path class="st0" d="M6.6,22.8c-0.2,0-0.4,0.2-0.4,0.4v1.3c0,0.2,0.2,0.4,0.4,0.4h4.7c0.1-0.8,0.5-1.6,1.2-2.1L6.6,22.8L6.6,22.8z"
		/>
	<path class="st0" d="M14.7,22.8c-1.4,0-2.6,1.2-2.6,2.6c0,1.4,1.2,2.6,2.6,2.6c1.4,0,2.6-1.2,2.6-2.6C17.3,24,16.1,22.8,14.7,22.8z
		 M14.7,26.7c-0.7,0-1.3-0.6-1.3-1.3c0-0.7,0.6-1.3,1.3-1.3c0.7,0,1.3,0.6,1.3,1.3C16,26.1,15.4,26.7,14.7,26.7z"/>
	<path class="st0" d="M20.9,7.4h-4.9c0.2,0.7,0.4,1.5,0.4,2.2c0,4-3.2,7.2-7.2,7.2c-0.7,0-1.4-0.1-2.1-0.3v4.6
		c0,0.2,0.2,0.4,0.4,0.4h14.1c0.2,0,0.4-0.2,0.4-0.4V8.7C22.2,8,21.6,7.4,20.9,7.4z"/>
	<g>
		<path class="st0" d="M9.3,17.8c-4.5,0-8.1-3.6-8.1-8.1c0-4.5,3.6-8.1,8.1-8.1s8.1,3.6,8.1,8.1C17.4,14.1,13.7,17.8,9.3,17.8z
			 M9.3,4.2c-3,0-5.4,2.4-5.4,5.4S6.3,15,9.3,15s5.4-2.4,5.4-5.4S12.2,4.2,9.3,4.2z"/>
		<path class="st1" d="M9.3,2c4.2,0,7.6,3.4,7.6,7.6c0,4.2-3.4,7.6-7.6,7.6s-7.6-3.4-7.6-7.6C1.6,5.4,5,2,9.3,2 M9.3,15.5
			c3.3,0,5.9-2.6,5.9-5.9c0-3.3-2.6-5.9-5.9-5.9C6,3.7,3.4,6.4,3.4,9.6C3.4,12.9,6,15.5,9.3,15.5 M9.3,1C4.5,1,0.6,4.9,0.6,9.6
			c0,4.8,3.9,8.6,8.6,8.6c4.8,0,8.6-3.9,8.6-8.6C17.9,4.9,14,1,9.3,1L9.3,1z M9.3,14.5c-2.7,0-4.9-2.2-4.9-4.9
			c0-2.7,2.2-4.9,4.9-4.9c2.7,0,4.9,2.2,4.9,4.9C14.2,12.3,12,14.5,9.3,14.5L9.3,14.5z"/>
	</g>
	<g>
		<path class="st0" d="M11.5,11.4c-0.1,0-0.2,0-0.3,0l-2.5-0.7C8.2,10.5,7.8,10,7.8,9.5V5.7c0-0.7,0.6-1.3,1.3-1.3s1.3,0.6,1.3,1.3
			v2.8l1.5,0.4c0.3,0.1,0.6,0.3,0.8,0.6s0.2,0.6,0.1,1C12.6,11,12.1,11.4,11.5,11.4z"/>
		<path class="st1" d="M9.1,4.9c0.4,0,0.8,0.3,0.8,0.8v3.2l1.9,0.5c0.4,0.1,0.6,0.5,0.5,0.9c-0.1,0.3-0.4,0.6-0.7,0.6
			c-0.1,0-0.1,0-0.2,0l-2.5-0.7c-0.3-0.1-0.6-0.4-0.6-0.7V5.7C8.3,5.3,8.6,4.9,9.1,4.9 M9.1,3.9c-1,0-1.8,0.8-1.8,1.8v3.8
			c0,0.8,0.5,1.5,1.3,1.7l2.5,0.7c0.2,0,0.3,0.1,0.5,0.1c0.8,0,1.5-0.5,1.7-1.3c0.1-0.5,0.1-0.9-0.2-1.3c-0.2-0.4-0.6-0.7-1.1-0.8
			l-1.2-0.3V5.7C10.8,4.7,10,3.9,9.1,3.9L9.1,3.9z"/>
	</g>
</g>
</svg>
