<?xml version="1.0" encoding="utf-8"?>
<!-- Generator: Adobe Illustrator 22.0.1, SVG Export Plug-In . SVG Version: 6.00 Build 0)  -->
<svg version="1.1" id="Слой_1" xmlns="http://www.w3.org/2000/svg" xmlns:xlink="http://www.w3.org/1999/xlink" x="0px" y="0px"
	 viewBox="0 0 26.836 26.445" style="enable-background:new 0 0 26.836 26.445;" xml:space="preserve">
<style type="text/css">
	.st0{fill:#4C4E54;}
</style>
<g>
	<path class="st0" d="M19.336,25.359H8.011c-0.244,0-0.442,0.198-0.442,0.442s0.198,0.442,0.442,0.442h11.324
		c0.244,0,0.442-0.198,0.442-0.442S19.579,25.359,19.336,25.359z"/>
	<path class="st0" d="M16.244,22.655c-0.037-0.112-0.116-0.203-0.221-0.256c-0.063-0.032-0.13-0.047-0.199-0.047
		c-0.046,0-0.092,0.007-0.138,0.022c-0.113,0.037-0.204,0.115-0.257,0.22l-1.368,2.713c-0.053,0.105-0.062,0.225-0.025,0.336
		c0.037,0.112,0.116,0.203,0.221,0.256c0.211,0.107,0.487,0.016,0.593-0.195l1.368-2.713C16.271,22.886,16.28,22.766,16.244,22.655z
		"/>
	<path class="st0" d="M12.08,25.592c0.037-0.112,0.028-0.231-0.025-0.336l-1.368-2.713c-0.054-0.106-0.145-0.185-0.258-0.221
		c-0.045-0.015-0.091-0.022-0.137-0.022c-0.068,0-0.135,0.016-0.197,0.048c-0.106,0.053-0.185,0.144-0.222,0.256
		c-0.037,0.112-0.028,0.232,0.025,0.337l1.368,2.713c0.107,0.212,0.38,0.304,0.593,0.195C11.964,25.795,12.043,25.704,12.08,25.592z
		"/>
	<g>
		<path class="st0" d="M10.673,15.968c1.493-0.012,1.678-0.371,2.164-1.868c0.896-2.364,4.935,0.619,2.432,1.653
			C12.767,16.789,9.181,15.979,10.673,15.968L10.673,15.968z M10.673,15.968"/>
	</g>
	<path class="st0" d="M26.255,6.893H22.27c1.158-1.235,2.364-2.549,3.527-3.847c0.696-0.866,0.732-2.006,0.075-2.535
		c-0.226-0.182-0.504-0.268-0.802-0.268c-0.568,0-1.203,0.316-1.664,0.888c-1.394,1.929-2.803,3.943-4.03,5.763H0.587
		c-0.245,0-0.443,0.199-0.443,0.443v15.099c0,0.245,0.199,0.443,0.443,0.443h25.668c0.245,0,0.443-0.199,0.443-0.443V7.336
		C26.699,7.091,26.5,6.893,26.255,6.893z M24.195,1.587c0.207-0.289,0.609-0.356,0.898-0.148c0.289,0.207,0.355,0.609,0.148,0.898
		c-0.014,0.02-0.03,0.04-0.047,0.058l-7.775,8.593L24.195,1.587z M25.812,21.992H1.031V7.779h17.753
		c-1.83,2.755-3.121,4.908-3.072,5.341c0.503-0.05,2.891-2.362,5.722-5.341h4.378V21.992z"/>
</g>
</svg>
