<?xml version="1.0" encoding="utf-8"?>
<!-- Generator: Adobe Illustrator 22.0.1, SVG Export Plug-In . SVG Version: 6.00 Build 0)  -->
<svg version="1.1" id="Слой_1" xmlns="http://www.w3.org/2000/svg" xmlns:xlink="http://www.w3.org/1999/xlink" x="0px" y="0px"
	 viewBox="0 0 30.213 27.91" style="enable-background:new 0 0 30.213 27.91;" xml:space="preserve">
<g>
	<path fill="#ffffff" d="M28.596,11.822h-5.28V2.17c0-1.122-0.913-2.035-2.034-2.035H2.099c-1.122,0-2.034,0.913-2.034,2.035v13.989
		c0,1.122,0.913,2.035,2.034,2.035h2.256l1.448,5.791c0.04,0.158,0.163,0.279,0.338,0.316c0.202-0.002,0.324-0.047,0.408-0.147
		l4.917-5.96h3.233v4.16c0,0.81,0.659,1.469,1.469,1.469h6.506l3.14,3.806c0.081,0.098,0.2,0.155,0.339,0.155
		c0.002,0,0.003,0,0.005,0c0.279-0.051,0.374-0.204,0.403-0.324l0.91-3.637h1.125c0.81,0,1.469-0.659,1.469-1.469v-9.064
		C30.065,12.481,29.406,11.822,28.596,11.822z M22.459,16.159c0,0.648-0.527,1.176-1.176,1.176H11.264
		c-0.128,0-0.249,0.057-0.33,0.156l-4.506,5.462l-1.323-5.292c-0.048-0.191-0.219-0.326-0.416-0.326h-2.59
		c-0.649,0-1.176-0.528-1.176-1.176V2.17c0-0.648,0.527-1.176,1.176-1.176h19.183c0.649,0,1.176,0.528,1.176,1.176V16.159z
		 M15.557,18.195h5.725c1.122,0,2.034-0.913,2.034-2.035v-3.48h5.28c0.337,0,0.611,0.274,0.611,0.611v9.064
		c0,0.337-0.274,0.61-0.611,0.61h-1.46c-0.197,0-0.368,0.134-0.416,0.325l-0.785,3.138l-2.728-3.307
		c-0.083-0.1-0.203-0.157-0.33-0.157h-6.709c-0.337,0-0.611-0.273-0.611-0.61V18.195z"/>
	<path fill="#ffffff"  d="M16.567,7.432l-3.104-0.45l-1.388-2.812c-0.073-0.147-0.22-0.24-0.384-0.24c-0.165,0-0.312,0.092-0.385,0.24L9.918,6.981
		l-3.103,0.45C6.655,7.455,6.519,7.57,6.469,7.724C6.418,7.88,6.46,8.048,6.578,8.163l2.245,2.188l-0.53,3.092
		c-0.028,0.162,0.037,0.323,0.17,0.419c0.076,0.055,0.164,0.082,0.252,0.082c0.068,0,0.137-0.016,0.199-0.049l2.777-1.459
		l2.776,1.459c0.145,0.074,0.321,0.062,0.45-0.032c0.134-0.097,0.2-0.257,0.172-0.42l-0.53-3.092l2.245-2.188
		c0.118-0.115,0.159-0.283,0.109-0.439C16.862,7.57,16.727,7.455,16.567,7.432z M13.675,10.274l0.421,2.457l-2.205-1.159
		c-0.063-0.034-0.132-0.05-0.201-0.05c-0.069,0-0.137,0.017-0.199,0.05L9.285,12.73l0.421-2.456c0.024-0.139-0.022-0.282-0.123-0.38
		L7.798,8.155l2.467-0.358c0.14-0.021,0.26-0.108,0.323-0.235l1.103-2.235l1.103,2.235c0.062,0.127,0.184,0.215,0.325,0.235
		l2.465,0.358l-1.784,1.739C13.697,9.993,13.651,10.135,13.675,10.274z"/>
</g>
</svg>
