<?xml version="1.0" encoding="utf-8"?>
<!-- Generator: Adobe Illustrator 22.0.1, SVG Export Plug-In . SVG Version: 6.00 Build 0)  -->
<svg version="1.1" id="Слой_1" xmlns="http://www.w3.org/2000/svg" xmlns:xlink="http://www.w3.org/1999/xlink" x="0px" y="0px"
	 viewBox="0 0 34.812 26.445" style="enable-background:new 0 0 34.812 26.445;" xml:space="preserve">
<style type="text/css">
	.st0{fill:#4C4E54;}
</style>
<g>
	<path class="st0" d="M31.485,24.183h2.588c0.308,0,0.561-0.253,0.561-0.561v-8.293c0-0.053-0.012-0.128-0.029-0.175v-0.003
		l-2.073-6.218c-0.076-0.23-0.29-0.383-0.532-0.383h-7.732V3.45h1.512c0.308,0,0.561-0.251,0.561-0.56s-0.253-0.56-0.561-0.56
		h-5.728V0.816c0-0.309-0.253-0.56-0.561-0.56c-0.308,0-0.561,0.251-0.561,0.56V2.33h-5.099V0.816c0-0.309-0.251-0.56-0.56-0.56
		c-0.309,0-0.56,0.251-0.56,0.56V2.33H7.611V0.816c0-0.309-0.251-0.56-0.56-0.56s-0.56,0.251-0.56,0.56v1.839L0.368,8.711
		C0.261,8.817,0.202,8.959,0.202,9.109v14.513c0,0.308,0.251,0.561,0.56,0.561h5.767l0.113,0.316
		c0.372,1.051,1.37,1.757,2.483,1.757c0.649,0,1.272-0.239,1.755-0.674l0.318-0.286l0.318,0.286
		c0.483,0.435,1.106,0.674,1.755,0.674c1.112,0,2.11-0.706,2.483-1.757l0.113-0.316h10.427l0.113,0.316
		c0.372,1.051,1.37,1.757,2.483,1.757c1.112,0,2.11-0.706,2.483-1.757L31.485,24.183z M28.413,9.67h3.182l1.7,5.099h-4.881V9.67z
		 M9.124,25.135c-0.834,0-1.513-0.678-1.513-1.512S8.29,22.11,9.124,22.11s1.513,0.678,1.513,1.512S9.958,25.135,9.124,25.135z
		 M13.271,25.135c-0.834,0-1.513-0.678-1.513-1.512s0.679-1.512,1.513-1.512s1.513,0.678,1.513,1.512S14.105,25.135,13.271,25.135z
		 M23.145,23.061h-7.279l-0.113-0.316c-0.372-1.051-1.37-1.757-2.483-1.757c-0.649,0-1.272,0.239-1.755,0.674l-0.318,0.286
		l-0.318-0.286c-0.483-0.435-1.106-0.674-1.755-0.674c-1.112,0-2.11,0.706-2.483,1.757l-0.113,0.316H1.322V9.343L7.281,3.45h15.864
		V23.061z M28.889,25.135c-0.835,0-1.512-0.678-1.512-1.512s0.678-1.512,1.512-1.512c0.835,0,1.512,0.678,1.512,1.512
		S29.724,25.135,28.889,25.135z M28.889,20.988c-1.112,0-2.11,0.706-2.483,1.757l-0.113,0.316h-2.027V9.67h3.025v5.66
		c0,0.308,0.253,0.561,0.561,0.561h5.659v7.171h-2.027l-0.113-0.316C31,21.694,30.002,20.988,28.889,20.988z"/>
	<path class="st0" d="M6.014,17.963c0.309,0,0.56-0.253,0.56-0.561V9.109c0-0.309-0.251-0.56-0.56-0.56s-0.56,0.251-0.56,0.56v8.293
		C5.454,17.711,5.705,17.963,6.014,17.963z"/>
	<path class="st0" d="M12.234,17.963c0.309,0,0.56-0.253,0.56-0.561V9.109c0-0.309-0.251-0.56-0.56-0.56
		c-0.309,0-0.56,0.251-0.56,0.56v8.293C11.674,17.711,11.925,17.963,12.234,17.963z"/>
	<path class="st0" d="M18.454,17.963c0.308,0,0.561-0.253,0.561-0.561V9.109c0-0.309-0.253-0.56-0.561-0.56s-0.561,0.251-0.561,0.56
		v8.293C17.893,17.711,18.145,17.963,18.454,17.963z"/>
</g>
</svg>
