<?xml version="1.0" encoding="utf-8"?>
<!-- Generator: Adobe Illustrator 22.0.1, SVG Export Plug-In . SVG Version: 6.00 Build 0)  -->
<svg version="1.1" id="Слой_1" xmlns="http://www.w3.org/2000/svg" xmlns:xlink="http://www.w3.org/1999/xlink" x="0px" y="0px"
	 viewBox="0 0 28.75 28.75" style="enable-background:new 0 0 28.75 28.75;" xml:space="preserve">
<style type="text/css">
	.st0{fill:#797D80;}
	.st1{fill:#FFFFFF;}
</style>
<g>
	<g>
		<g>
			<path d="M14.375,0.602c7.596,0,13.776,6.18,13.776,13.776s-6.18,13.776-13.776,13.776S0.599,21.974,0.599,14.378
				S6.779,0.602,14.375,0.602 M14.375,0.003C6.436,0.003,0,6.438,0,14.378s6.436,14.375,14.375,14.375S28.75,22.317,28.75,14.378
				S22.314,0.003,14.375,0.003L14.375,0.003z"/>
		</g>
		<path class="st0" d="M14.375,0.413C6.662,0.413,0.41,6.665,0.41,14.378c0,7.713,6.252,13.965,13.965,13.965
			S28.34,22.09,28.34,14.378C28.34,6.665,22.088,0.413,14.375,0.413L14.375,0.413z"/>
	</g>
	<g>
		<g>
			<path class="st1" d="M8.453,13.535h0.032l1.369-2.99h1.258l-1.995,3.796l2.079,3.869H9.916L8.5,15.146H8.469L7.058,18.21H5.794
				l2.043-3.869l-1.99-3.796h1.248L8.453,13.535z"/>
		</g>
		<g>
			<path class="st1" d="M16.118,10.545h1.068v7.665h-1.068v-5.591l-0.032-0.011l-2.901,5.601h-1.069v-7.665h1.069v5.585l0.032,0.011
				L16.118,10.545z"/>
		</g>
		<g>
			<path class="st1" d="M22.956,11.356h-1.969v6.854h-1.069v-6.854H17.96v-0.811h4.996V11.356z"/>
		</g>
	</g>
</g>
</svg>
