<?xml version="1.0" encoding="utf-8"?>
<!-- Generator: Adobe Illustrator 22.0.1, SVG Export Plug-In . SVG Version: 6.00 Build 0)  -->
<svg version="1.1" id="Слой_1" xmlns="http://www.w3.org/2000/svg" xmlns:xlink="http://www.w3.org/1999/xlink" x="0px" y="0px"
	 viewBox="0 0 48 48" style="enable-background:new 0 0 48 48;" xml:space="preserve">
<style type="text/css">
	.st0{fill:#797C80;}
</style>
<g>
	<g>
		<path class="st0" d="M24,1c12.682,0,23,10.318,23,23S36.682,47,24,47S1,36.682,1,24S11.318,1,24,1 M24,0C10.745,0,0,10.745,0,24
			s10.745,24,24,24s24-10.745,24-24S37.255,0,24,0L24,0z"/>
	</g>
	<g>
		<g>
			<path class="st0" d="M14.174,22.594h0.053l2.285-4.992h2.101l-3.331,6.337l3.472,6.46h-2.136l-2.364-5.115H14.2l-2.355,5.115
				H9.735l3.41-6.46l-3.322-6.337h2.083L14.174,22.594z"/>
		</g>
		<g>
			<path class="st0" d="M26.971,17.602h1.783v12.797h-1.783v-9.334l-0.053-0.018l-4.843,9.352h-1.784V17.602h1.784v9.325
				l0.053,0.018L26.971,17.602z"/>
		</g>
		<g>
			<path class="st0" d="M38.387,18.955H35.1v11.443h-1.784V18.955h-3.27v-1.354h8.341V18.955z"/>
		</g>
	</g>
</g>
</svg>
