<?xml version="1.0" encoding="utf-8"?>
<!-- Generator: Adobe Illustrator 22.0.1, SVG Export Plug-In . SVG Version: 6.00 Build 0)  -->
<svg version="1.1" id="Layer_1" xmlns="http://www.w3.org/2000/svg" xmlns:xlink="http://www.w3.org/1999/xlink" x="0px" y="0px"
	 viewBox="0 0 112 46" style="enable-background:new 0 0 112 46;" xml:space="preserve">
<style type="text/css">
	.st0{display:none;}
	.st1{display:inline;}
	.st2{fill-rule:evenodd;clip-rule:evenodd;fill:#E53033;}
</style>
<g>
	<g>
		<g class="st0">
			<g class="st1">
				<path class="st2" d="M74.1,37.9l0-0.2c0-0.4,0.2-0.8,0.4-1.1c0.2-0.3,0.4-0.5,0.7-0.6c0.2-0.1,0.4-0.2,0.5-0.3l2.9-1.2
					c0.1-0.1,0.2-0.1,0.2-0.2c0-0.1,0-0.1,0-0.1l-0.5-1C78.2,33,78.1,33,78,33c-0.1,0-0.2,0-0.2,0.1l-2.6,1.2c-0.5,0.2-1,0.6-1.3,1
					c-0.4,0.4-0.6,0.8-0.8,1.3c-0.1,0.4-0.2,0.8-0.3,1.3c0,0.5-0.1,0.9-0.1,1.4c0,0.5,0,0.9,0.1,1.4c0,0.5,0.2,0.9,0.4,1.4
					c0.2,0.5,0.5,0.8,0.8,1.1c0.3,0.2,0.6,0.4,0.9,0.5c0.3,0.1,0.6,0.1,0.8,0.1c0.5,0,1-0.1,1.5-0.4c0.4-0.3,0.8-0.6,1.1-1.1
					c0.3-0.5,0.4-1.2,0.4-2c0-1.1-0.3-1.9-0.7-2.5c-0.5-0.6-1.1-0.9-1.9-0.9c-0.5,0-0.9,0.1-1.2,0.3C74.6,37.2,74.3,37.5,74.1,37.9
					L74.1,37.9L74.1,37.9z M75.9,42.2c-0.4,0-0.6-0.1-0.8-0.4c-0.2-0.2-0.3-0.5-0.3-0.8c0-0.3-0.1-0.6-0.1-0.9c0-0.3,0-0.6,0.1-0.9
					c0-0.3,0.1-0.6,0.3-0.8c0.2-0.2,0.4-0.3,0.8-0.3c0.3,0,0.6,0.1,0.8,0.4c0.2,0.2,0.3,0.5,0.3,0.8c0,0.3,0.1,0.6,0,0.9
					c0,0.3,0,0.6-0.1,0.9c0,0.3-0.1,0.6-0.3,0.8C76.5,42.1,76.2,42.2,75.9,42.2L75.9,42.2z"/>
				<path class="st2" d="M58.8,43.3c0.1,0,0.1,0,0.2,0c0.1,0,0.1-0.1,0.1-0.2l0.1-4.4h0c0.1,0.2,0.1,0.5,0.2,0.8
					c0.1,0.3,0.2,0.5,0.2,0.8l0.7,2.1c0,0.1,0.1,0.1,0.1,0.2c0,0,0.1,0,0.1,0l0.7,0c0.1,0,0.1,0,0.2,0c0,0,0.1-0.1,0.1-0.1l0.7-2
					c0.1-0.2,0.2-0.5,0.2-0.8c0.1-0.3,0.2-0.5,0.2-0.8h0l0.1,4.4c0,0.1,0,0.2,0.1,0.2c0,0,0.1,0,0.2,0h0.9c0.1,0,0.2,0,0.2-0.1
					c0,0,0-0.1,0-0.1l-0.3-6.3c0-0.1,0-0.2-0.1-0.2c-0.1,0-0.1,0-0.2,0l-1.2,0c0,0-0.1,0-0.1,0c-0.1,0-0.1,0.1-0.1,0.1l-1.1,2.9
					c-0.1,0.2-0.2,0.4-0.2,0.7c-0.1,0.3-0.1,0.5-0.2,0.7h0c0-0.2-0.1-0.4-0.1-0.7c-0.1-0.3-0.1-0.5-0.2-0.8l-1-2.9
					c0-0.1-0.1-0.1-0.1-0.1c-0.1,0-0.1,0-0.1,0l-1.1,0c-0.1,0-0.1,0-0.2,0c-0.1,0-0.1,0.1-0.1,0.2l-0.4,6.3c0,0.1,0,0.1,0,0.1
					c0,0,0.1,0.1,0.2,0.1L58.8,43.3L58.8,43.3z"/>
				<path class="st2" d="M71.3,40.4c0.1,0,0.2,0,0.2-0.1c0.1,0,0.1-0.2,0.1-0.4c0-0.2,0-0.4,0-0.6c0-0.2-0.1-0.5-0.1-0.8
					c-0.1-0.4-0.2-0.7-0.4-1c-0.2-0.3-0.5-0.6-0.8-0.8c-0.3-0.2-0.8-0.3-1.4-0.3c-1,0-1.7,0.4-2.2,1.1c-0.5,0.7-0.8,1.6-0.8,2.7
					c0,0.2,0,0.6,0.1,0.9c0.1,0.4,0.2,0.8,0.4,1.1c0.2,0.4,0.5,0.7,0.9,1c0.4,0.3,1,0.4,1.7,0.4c0.4,0,0.8,0,1.2-0.1
					c0.4-0.1,0.7-0.2,1-0.4c0.1,0,0.1-0.1,0.2-0.1c0,0,0.1-0.1,0.1-0.2c0,0,0,0,0-0.1c0,0,0,0,0-0.1L71,41.8c0,0,0-0.1-0.1-0.1
					c0,0-0.1,0-0.1,0c0,0-0.1,0-0.2,0c-0.1,0-0.1,0.1-0.2,0.1c-0.1,0.1-0.3,0.1-0.5,0.2c-0.2,0.1-0.5,0.1-0.8,0.1
					c-0.6,0-1-0.2-1.2-0.5c-0.2-0.3-0.3-0.7-0.3-1.2L71.3,40.4L71.3,40.4z M67.6,39.2c0-0.5,0.1-0.8,0.3-1.1
					c0.2-0.3,0.5-0.4,0.8-0.4c0.3,0,0.5,0.1,0.6,0.2c0.1,0.1,0.2,0.3,0.3,0.6c0,0,0,0.1,0,0.2c0,0.1,0,0.3,0,0.4L67.6,39.2
					L67.6,39.2z"/>
				<path class="st2" d="M85.3,40.5c0.1,0,0.2,0,0.2-0.1c0.1,0,0.1-0.2,0.1-0.4c0-0.2,0-0.4,0-0.6c0-0.2-0.1-0.5-0.1-0.8
					c-0.1-0.4-0.2-0.7-0.4-1c-0.2-0.3-0.5-0.6-0.8-0.8c-0.3-0.2-0.8-0.3-1.4-0.3c-1,0-1.7,0.4-2.2,1.1c-0.5,0.7-0.8,1.6-0.8,2.7
					c0,0.2,0,0.6,0.1,0.9c0.1,0.4,0.2,0.8,0.4,1.1c0.2,0.4,0.5,0.7,0.9,1c0.4,0.3,1,0.4,1.7,0.4c0.4,0,0.8,0,1.2-0.1
					c0.4-0.1,0.7-0.2,1-0.4c0.1,0,0.1-0.1,0.2-0.1c0,0,0.1-0.1,0.1-0.2c0,0,0,0,0-0.1c0,0,0,0,0-0.1L85,41.9c0,0,0-0.1-0.1-0.1
					c0,0,0,0-0.1,0c0,0-0.1,0-0.1,0c-0.1,0-0.1,0.1-0.2,0.1c-0.1,0.1-0.3,0.1-0.6,0.2c-0.2,0.1-0.5,0.1-0.8,0.1
					c-0.6,0-1-0.2-1.2-0.5c-0.2-0.3-0.3-0.7-0.3-1.2L85.3,40.5L85.3,40.5z M81.6,39.2c0-0.5,0.1-0.8,0.3-1.1
					c0.2-0.3,0.5-0.4,0.8-0.4c0.3,0,0.5,0.1,0.6,0.2c0.2,0.1,0.2,0.3,0.3,0.6c0,0.1,0,0.1,0,0.3c0,0.1,0,0.3,0,0.4L81.6,39.2
					L81.6,39.2z"/>
				<path class="st2" d="M90.7,38.1l0,5.2c0,0.1,0,0.1,0,0.2c0,0,0.1,0,0.2,0l1.4,0c0.1,0,0.1,0,0.2,0c0,0,0-0.1,0-0.2l0-6.4
					c0-0.1,0-0.1,0-0.1c0,0-0.1,0-0.2,0l-4.2,0c-0.1,0-0.1,0-0.2,0c0,0,0,0.1,0,0.2l0,0.6c0,0.3,0,0.7,0,1.1c0,0.5,0,0.9-0.1,1.4
					c0,0.5-0.1,0.8-0.1,1.1c-0.1,0.3-0.2,0.6-0.3,0.7c-0.2,0.2-0.3,0.3-0.6,0.3l-0.2,0.1c0,0-0.1,0-0.1,0c0,0-0.1,0.1,0,0.2l0.3,1
					c0,0.1,0,0.1,0.1,0.1c0,0,0.1,0.1,0.2,0.1c0.1,0,0.3,0,0.6-0.1c0.3-0.1,0.5-0.2,0.8-0.4c0.3-0.2,0.5-0.5,0.7-1
					c0.1-0.4,0.2-0.8,0.3-1.3c0.1-0.5,0.1-1,0.1-1.5c0-0.5,0-0.9,0-1.1v-0.2L90.7,38.1L90.7,38.1z"/>
				<path class="st2" d="M96.7,43.5c0.4,0,0.8,0,1.2-0.1c0.4-0.1,0.8-0.2,1.1-0.5c0.3-0.3,0.5-0.5,0.6-0.9c0.1-0.3,0.1-0.6,0.1-0.9
					c0-0.3,0-0.6-0.1-0.8c-0.1-0.3-0.3-0.5-0.5-0.8c-0.3-0.3-0.6-0.4-1-0.5c-0.4-0.1-0.7-0.1-1.1-0.1l-0.8,0l0-2.4
					c0-0.1,0-0.2-0.1-0.2c0,0-0.1,0-0.1,0l-1.1,0.2c-0.2,0-0.4,0.1-0.4,0.1c0,0-0.1,0.1,0,0.2l0,6.3c0,0.1,0,0.1,0,0.2
					c0,0,0.1,0,0.2,0L96.7,43.5L96.7,43.5z M96.1,40.4l0.8,0c0.1,0,0.2,0,0.4,0c0.2,0,0.3,0.1,0.4,0.2c0.1,0.1,0.2,0.3,0.2,0.6
					c0,0.4-0.2,0.6-0.4,0.7c-0.2,0.1-0.5,0.1-0.8,0.1l-0.7,0L96.1,40.4L96.1,40.4z"/>
			</g>
			<g class="st1">
				<path class="st2" d="M21.9,30.8l1.6,4.7l-6.9,0c2.5,6.5,17.2,4.6,25.1,4.7C32.8,39,31,32.6,30,30.8L21.9,30.8L21.9,30.8z"/>
				<path class="st2" d="M38.3,8.4l0.7,0c0.5,0,0.5,0.2,0.5,0.6c0,0.3,0,0.5,0.1,0.6l0.7,0V9.5c-0.1,0-0.1-0.2-0.1-0.6
					c0-0.6-0.1-0.7-0.4-0.8C40,8,40.2,7.7,40.2,7.4c0-0.3-0.1-0.9-1-0.9l-1.6,0l0,3.1l0.6,0L38.3,8.4L38.3,8.4z M38.3,7h0.8
					c0.4,0,0.5,0.3,0.5,0.4c0,0.3-0.2,0.4-0.5,0.4l-0.8,0L38.3,7L38.3,7z"/>
				<path class="st2" d="M36.2,8c0-0.7,0.3-1.4,0.8-1.9c0.5-0.5,1.2-0.8,1.9-0.8c0.7,0,1.4,0.3,1.9,0.8c0.5,0.5,0.8,1.2,0.8,1.9
					c0,1.4-1.2,2.6-2.6,2.6C37.3,10.7,36.2,9.5,36.2,8L36.2,8z M36.5,5.7c-0.6,0.6-1,1.4-1,2.3c0,1.8,1.5,3.3,3.3,3.3
					c1.8,0,3.3-1.5,3.3-3.3c0-0.9-0.3-1.7-0.9-2.3c-0.6-0.6-1.4-1-2.3-1C37.9,4.8,37.1,5.1,36.5,5.7L36.5,5.7z"/>
				<path class="st2" d="M39.9,28.8l-20.8-0.1l1.5,4.7l-5,0l-2.9-9.4l3.6,0l1.1,0L22,9.9l-3,0l-1.5-4.7l6,0l1.7,0l1.4,0l2,0l1.7,0
					L36,24.1l2.4,0L39.9,28.8L39.9,28.8z M22.5,24l8.5,0l-4.2-13.5L22.5,24L22.5,24z"/>
				<path class="st2" d="M74.7,12.2c1.9-3.9,5.9-6.5,10.5-6.5c6.5,0,11.7,5.3,11.6,11.7c0,6.5-5.3,11.7-11.7,11.6
					c-5.7,0-10.4-4.1-11.4-9.4c-1.6,2.7-4.5,4.4-7.9,4.5h-0.2l-1.6,0l0,4.8l-4.7,0l0-4.8l-1.7,0l-0.1,0c-1,0-1.9-0.2-2.8-0.5
					c0.2,0.9,0.4,1.9,0.3,2.9c0,6.5-5.3,11.7-11.7,11.6c-4.9,0-9.1-3.1-10.8-7.3l5.4,0c1.3,1.6,3.2,2.6,5.5,2.6c3.1,0,5.7-2,6.7-4.7
					l-7.8,0L40.8,24l9.2,0c-1-2.7-3.5-4.6-6.6-4.6c-2.3,0-4.3,1-5.6,2.7l-1.5-5c2-1.5,4.4-2.4,7.1-2.4c1.8,0,3.5,0.4,5,1.1
					c0-0.4-0.1-0.8-0.1-1.2c0-1.7,0.5-3.3,1.3-4.7l-2.7,0l-1.5-4.7l12.3,0.1l8,0l1,0C70.6,5.9,73.7,8.6,74.7,12.2L74.7,12.2z
					 M78.2,17.3c0,3.9,3.1,7,7,7c3.9,0,7-3.1,7-7c0-3.9-3.1-7-7-7C81.3,10.3,78.2,13.5,78.2,17.3L78.2,17.3z M64.1,10.1l0,9.4l1.6,0
					c2.6,0,4.7-2.1,4.7-4.7c0-2.6-2.1-4.7-4.7-4.7L64.1,10.1L64.1,10.1z M59.4,19.4l0-9.4l-1.7,0c-2.6,0-4.7,2.1-4.7,4.7
					c0,2.6,2.1,4.7,4.7,4.7L59.4,19.4L59.4,19.4z"/>
			</g>
		</g>
		<g>
			<g>
				<path class="st2" d="M73.7,37.4l0-0.2c0.1-0.4,0.2-0.8,0.4-1.1c0.2-0.3,0.4-0.5,0.6-0.6c0.2-0.1,0.4-0.2,0.5-0.3l2.9-1.2
					c0.1-0.1,0.2-0.1,0.2-0.2c0-0.1,0-0.1,0-0.1l-0.5-1c-0.1-0.1-0.1-0.1-0.2-0.1c-0.1,0-0.2,0-0.2,0.1l-2.6,1.2
					c-0.5,0.2-1,0.6-1.3,1c-0.4,0.4-0.6,0.8-0.8,1.3c-0.1,0.4-0.2,0.8-0.3,1.3c0,0.5-0.1,0.9-0.1,1.4c0,0.5,0,0.9,0.1,1.4
					c0,0.5,0.2,0.9,0.4,1.4c0.2,0.5,0.5,0.8,0.8,1.1c0.3,0.2,0.6,0.4,0.9,0.5c0.3,0.1,0.6,0.1,0.8,0.1c0.5,0,1-0.1,1.4-0.4
					c0.4-0.3,0.8-0.6,1.1-1.1c0.3-0.5,0.4-1.2,0.4-2c0-1.1-0.2-1.9-0.7-2.5c-0.5-0.6-1.1-0.9-1.9-0.9c-0.5,0-0.9,0.1-1.2,0.3
					C74.3,36.7,74,37,73.7,37.4L73.7,37.4L73.7,37.4z M75.5,41.8c-0.4,0-0.6-0.1-0.8-0.4c-0.2-0.2-0.3-0.5-0.3-0.8
					c0-0.3-0.1-0.6-0.1-0.9c0-0.3,0-0.6,0.1-0.9c0-0.3,0.1-0.6,0.3-0.8c0.2-0.2,0.4-0.3,0.8-0.3c0.3,0,0.6,0.1,0.8,0.4
					c0.2,0.2,0.3,0.5,0.3,0.8c0,0.3,0.1,0.6,0,0.9c0,0.3,0,0.6-0.1,0.9c0,0.3-0.1,0.6-0.3,0.8C76.1,41.7,75.8,41.8,75.5,41.8
					L75.5,41.8z"/>
				<path class="st2" d="M58.5,42.9c0.1,0,0.1,0,0.2,0c0.1,0,0.1-0.1,0.1-0.2l0.1-4.4h0c0.1,0.2,0.1,0.5,0.2,0.8
					c0.1,0.3,0.2,0.5,0.2,0.8l0.7,2.1c0,0.1,0.1,0.1,0.1,0.2c0,0,0.1,0,0.2,0l0.7,0c0.1,0,0.1,0,0.2,0c0,0,0.1-0.1,0.1-0.1l0.7-2
					c0.1-0.3,0.2-0.5,0.2-0.8c0.1-0.3,0.2-0.5,0.2-0.8h0l0.1,4.4c0,0.1,0,0.2,0.1,0.2c0,0,0.1,0,0.2,0l0.9,0c0.1,0,0.2,0,0.2-0.1
					c0,0,0-0.1,0-0.1l-0.3-6.3c0-0.1,0-0.2-0.1-0.2c-0.1,0-0.1,0-0.2,0l-1.2,0c0,0-0.1,0-0.1,0c-0.1,0-0.1,0.1-0.1,0.1l-1.1,2.9
					c-0.1,0.2-0.2,0.4-0.2,0.7c-0.1,0.3-0.1,0.5-0.2,0.7h0c0-0.2-0.1-0.4-0.1-0.7c-0.1-0.3-0.1-0.5-0.2-0.8l-1-2.9
					c0-0.1-0.1-0.1-0.1-0.1c-0.1,0-0.1,0-0.1,0l-1.1,0c-0.1,0-0.1,0-0.2,0c-0.1,0-0.1,0.1-0.1,0.2l-0.4,6.3c0,0.1,0,0.1,0,0.1
					c0,0,0.1,0.1,0.2,0.1L58.5,42.9L58.5,42.9z"/>
				<path class="st2" d="M70.9,40c0.1,0,0.2,0,0.2-0.1c0.1,0,0.1-0.2,0.1-0.4c0-0.2,0-0.4,0-0.6c0-0.2-0.1-0.5-0.1-0.8
					c-0.1-0.4-0.2-0.7-0.4-1c-0.2-0.3-0.5-0.6-0.8-0.8c-0.3-0.2-0.8-0.3-1.4-0.3c-1,0-1.7,0.4-2.2,1.1c-0.5,0.7-0.8,1.6-0.8,2.7
					c0,0.2,0,0.6,0.1,0.9c0.1,0.4,0.2,0.8,0.4,1.1c0.2,0.4,0.5,0.7,0.9,1c0.4,0.3,1,0.4,1.7,0.4c0.4,0,0.8,0,1.2-0.1
					c0.4-0.1,0.7-0.2,1-0.4c0.1,0,0.1-0.1,0.1-0.1c0,0,0.1-0.1,0.1-0.2c0,0,0,0,0-0.1c0,0,0,0,0-0.1l-0.3-0.8c0,0,0-0.1-0.1-0.1
					c0,0-0.1,0-0.1,0c0,0-0.1,0-0.2,0c-0.1,0-0.1,0.1-0.2,0.1c-0.1,0.1-0.3,0.1-0.5,0.2c-0.2,0.1-0.5,0.1-0.8,0.1
					c-0.6,0-1-0.2-1.2-0.5c-0.2-0.3-0.3-0.7-0.3-1.2L70.9,40L70.9,40z M67.3,38.7c0-0.5,0.1-0.8,0.3-1.1c0.2-0.3,0.5-0.4,0.8-0.4
					c0.3,0,0.5,0.1,0.6,0.2c0.1,0.1,0.2,0.3,0.3,0.6c0,0,0,0.1,0,0.2c0,0.1,0,0.3,0,0.4L67.3,38.7L67.3,38.7z"/>
				<path class="st2" d="M84.9,40.1c0.1,0,0.2,0,0.2-0.1c0.1,0,0.1-0.2,0.1-0.4c0-0.2,0-0.4,0-0.6c0-0.2-0.1-0.5-0.1-0.8
					c-0.1-0.4-0.2-0.7-0.4-1c-0.2-0.3-0.5-0.6-0.8-0.8c-0.3-0.2-0.8-0.3-1.4-0.3c-1,0-1.7,0.4-2.2,1.1c-0.5,0.7-0.8,1.6-0.8,2.7
					c0,0.2,0,0.6,0.1,0.9c0.1,0.4,0.2,0.8,0.4,1.1c0.2,0.4,0.5,0.7,0.9,1c0.4,0.3,1,0.4,1.7,0.4c0.4,0,0.8,0,1.2-0.1
					c0.4-0.1,0.7-0.2,1-0.4c0.1,0,0.1-0.1,0.2-0.1c0,0,0.1-0.1,0.1-0.2c0,0,0,0,0-0.1c0,0,0,0,0-0.1l-0.3-0.8c0,0,0-0.1-0.1-0.1
					c0,0-0.1,0-0.1,0c0,0-0.1,0-0.2,0c-0.1,0-0.1,0.1-0.2,0.1c-0.1,0.1-0.3,0.1-0.6,0.2c-0.2,0.1-0.5,0.1-0.8,0.1
					c-0.6,0-1-0.2-1.2-0.5c-0.2-0.3-0.3-0.7-0.3-1.2L84.9,40.1L84.9,40.1z M81.3,38.8c0-0.5,0.1-0.8,0.3-1.1
					c0.2-0.3,0.5-0.4,0.8-0.4c0.3,0,0.5,0.1,0.6,0.2c0.1,0.1,0.3,0.3,0.3,0.6c0,0,0,0.1,0,0.3c0,0.1,0,0.3,0,0.4L81.3,38.8
					L81.3,38.8z"/>
				<path class="st2" d="M90.4,37.6l0,5.2c0,0.1,0,0.1,0,0.2c0,0,0.1,0,0.2,0l1.4,0c0.1,0,0.1,0,0.2,0c0,0,0-0.1,0-0.2l0-6.4
					c0-0.1,0-0.1,0-0.2c0,0-0.1,0-0.1,0l-4.2,0c-0.1,0-0.1,0-0.2,0c0,0,0,0.1,0,0.2l0,0.6c0,0.3,0,0.7,0,1.1c0,0.5,0,0.9-0.1,1.4
					c0,0.5-0.1,0.8-0.1,1.1c-0.1,0.3-0.2,0.6-0.3,0.7c-0.2,0.2-0.3,0.3-0.6,0.3l-0.2,0.1c0,0-0.1,0-0.1,0c0,0-0.1,0.1,0,0.2l0.3,1
					c0,0.1,0,0.1,0.1,0.1c0,0,0.1,0.1,0.2,0.1c0.1,0,0.3,0,0.6-0.1c0.3-0.1,0.5-0.2,0.8-0.4c0.3-0.2,0.5-0.5,0.7-1
					c0.1-0.4,0.2-0.8,0.3-1.3c0.1-0.5,0.1-1,0.1-1.5c0-0.5,0-0.9,0-1.1v-0.2L90.4,37.6L90.4,37.6z"/>
				<path class="st2" d="M96.3,43c0.4,0,0.8,0,1.2-0.1c0.4-0.1,0.8-0.2,1.1-0.5c0.3-0.3,0.5-0.5,0.6-0.9c0.1-0.3,0.1-0.6,0.1-0.9
					c0-0.3,0-0.6-0.1-0.8c-0.1-0.3-0.3-0.5-0.5-0.7c-0.3-0.3-0.6-0.4-1-0.5c-0.4-0.1-0.7-0.1-1.1-0.1h-0.8l0-2.4
					c0-0.1,0-0.2-0.1-0.2c0,0-0.1,0-0.2,0l-1.1,0.2c-0.2,0-0.4,0.1-0.4,0.1c0,0-0.1,0.1,0,0.2l0,6.3c0,0.1,0,0.1,0,0.2
					c0,0,0.1,0,0.2,0L96.3,43L96.3,43z M95.7,40h0.8c0.1,0,0.2,0,0.4,0c0.2,0,0.3,0.1,0.4,0.2c0.1,0.1,0.2,0.3,0.2,0.6
					c0,0.4-0.2,0.6-0.4,0.7c-0.2,0.1-0.5,0.1-0.8,0.1l-0.7,0L95.7,40L95.7,40z"/>
			</g>
			<g>
				<path class="st2" d="M21.6,30.3l1.6,4.7l-6.9,0c2.5,6.5,17.2,4.6,25.1,4.7c-8.9-1.1-10.7-7.5-11.6-9.3L21.6,30.3L21.6,30.3z"/>
				<path class="st2" d="M37.9,8l0.7,0c0.5,0,0.5,0.2,0.5,0.6c0,0.3,0,0.5,0.1,0.6l0.7,0l0-0.1c-0.1-0.1-0.1-0.2-0.1-0.6
					c0-0.6-0.1-0.7-0.4-0.8c0.3-0.1,0.5-0.4,0.5-0.7c0-0.3-0.1-0.9-1-0.9l-1.6,0l0,3.1l0.6,0L37.9,8L37.9,8z M37.9,6.6h0.8
					c0.4,0,0.5,0.3,0.5,0.4c0,0.3-0.2,0.4-0.5,0.4l-0.8,0L37.9,6.6L37.9,6.6z"/>
				<path class="st2" d="M35.8,7.6c0-0.7,0.3-1.4,0.8-1.9C37.1,5.2,37.7,5,38.4,5c0.7,0,1.4,0.3,1.9,0.8c0.5,0.5,0.8,1.2,0.8,1.9
					c0,1.4-1.2,2.6-2.6,2.6C37,10.2,35.8,9,35.8,7.6L35.8,7.6z M36.1,5.3c-0.6,0.6-1,1.4-1,2.3c0,1.8,1.5,3.3,3.3,3.3
					c1.8,0,3.3-1.5,3.3-3.3c0-0.9-0.3-1.7-1-2.3c-0.6-0.6-1.4-1-2.3-1C37.6,4.3,36.8,4.7,36.1,5.3L36.1,5.3z"/>
				<path class="st2" d="M39.6,28.3l-20.8-0.1l1.5,4.7l-5,0l-2.9-9.4l3.6,0l1.1,0l4.5-14.1l-3,0l-1.5-4.7l6,0l1.7,0l1.4,0l2,0l1.7,0
					l5.9,18.8l2.4,0L39.6,28.3L39.6,28.3z M22.1,23.5l8.5,0l-4.2-13.5L22.1,23.5L22.1,23.5z"/>
				<path class="st2" d="M74.3,11.7c1.9-3.9,5.9-6.5,10.5-6.5c6.5,0,11.7,5.3,11.6,11.7c0,6.5-5.3,11.7-11.7,11.6
					c-5.7,0-10.4-4.1-11.4-9.4c-1.6,2.7-4.5,4.4-7.9,4.5h-0.2l-1.6,0l0,4.8l-4.7,0l0-4.8l-1.7,0l-0.1,0c-1,0-1.9-0.2-2.8-0.5
					c0.2,0.9,0.4,1.9,0.3,2.9c0,6.5-5.3,11.7-11.7,11.6c-4.9,0-9.1-3.1-10.8-7.3l5.4,0C38.8,32,40.8,33,43,33c3.1,0,5.7-2,6.7-4.7
					l-7.8,0l-1.5-4.7l9.2,0c-1-2.7-3.5-4.6-6.6-4.6c-2.3,0-4.3,1-5.6,2.7l-1.5-5c2-1.5,4.4-2.4,7.1-2.4c1.8,0,3.5,0.4,5,1.1
					C48,15.1,48,14.7,48,14.3c0-1.7,0.5-3.3,1.3-4.7l-2.7,0l-1.5-4.7l12.3,0.1l8,0l1,0C70.2,5.5,73.3,8.2,74.3,11.7L74.3,11.7z
					 M77.8,16.9c0,3.9,3.1,7,7,7c3.9,0,7-3.1,7-7c0-3.9-3.1-7-7-7C81,9.9,77.8,13,77.8,16.9L77.8,16.9z M63.8,9.7l0,9.3l1.6,0
					c2.6,0,4.7-2.1,4.7-4.7c0-2.6-2.1-4.7-4.7-4.7L63.8,9.7L63.8,9.7z M59.1,19l0-9.4l-1.7,0c-2.6,0-4.7,2.1-4.7,4.7
					c0,2.6,2.1,4.7,4.7,4.7L59.1,19L59.1,19z"/>
			</g>
		</g>
	</g>
</g>
</svg>
