<?xml version="1.0" encoding="utf-8"?>
<!-- Generator: Adobe Illustrator 22.0.1, SVG Export Plug-In . SVG Version: 6.00 Build 0)  -->
<svg version="1.1" id="Слой_1" xmlns="http://www.w3.org/2000/svg" xmlns:xlink="http://www.w3.org/1999/xlink" x="0px" y="0px"
	 viewBox="0 0 36.184 27.862" style="enable-background:new 0 0 36.184 27.862;" xml:space="preserve">
<g>
	<path fill="#4C4E54" d="M25.927,19.892h-5.564c-0.112,0-0.208,0.136-0.208,0.297s0.095,0.298,0.208,0.298h5.563c0.113,0,0.208-0.137,0.208-0.298
		S26.04,19.892,25.927,19.892z"/>
	<path fill="#4C4E54" d="M15.311,7.871h9.115c0.112,0,0.208-0.137,0.208-0.298s-0.095-0.297-0.207-0.297h-9.116c-0.112,0-0.208,0.136-0.208,0.297
		S15.199,7.871,15.311,7.871z"/>
	<path fill="#4C4E54"  d="M30.333,21.9v-6.452l5.249-5.252c0.715-0.715,0.715-1.879,0-2.595c-0.714-0.713-1.877-0.714-2.594,0.001l-2.654,2.656
		V3.893c0-0.489-0.19-0.949-0.537-1.296l-2.014-2.014c-0.346-0.346-0.806-0.537-1.296-0.537H14.267
		c-1.011,0-1.834,0.823-1.834,1.835V9.22l-0.136-0.051c-0.65-0.247-1.308-0.373-1.953-0.373c-3.03,0-5.495,2.458-5.495,5.479
		c0,3.03,2.465,5.495,5.495,5.495c0.647,0,1.304-0.126,1.953-0.375l0.136-0.052v0.945H6.946c-3.816,0-6.92,3.104-6.92,6.921
		c0,0.357,0.28,0.638,0.638,0.638h19.429c0.357,0,0.638-0.28,0.638-0.638c0-1.159-0.296-2.31-0.855-3.327l-0.082-0.147h8.705
		C29.51,23.734,30.333,22.911,30.333,21.9z M33.568,8.184c0.191-0.191,0.445-0.298,0.716-0.298s0.525,0.106,0.716,0.298
		c0.395,0.394,0.395,1.036,0,1.432l-0.946,0.947L32.622,9.13L33.568,8.184z M32.43,9.323l1.432,1.433l-0.071,0.07l-4.368,4.371
		l-1.432-1.433l0.071-0.07L32.43,9.323z M29.048,15.575l-0.717,0.668l-2.083,0.695l0.769-2.199l0.598-0.598L29.048,15.575z
		 M26.063,0.868h0.333c0.149-0.008,0.503-0.008,0.808,0.297l2.012,2.013c0.303,0.302,0.299,0.645,0.297,0.81L29.51,4.271
		l-0.284,0.043l-3.063,0.001h-0.1V0.868z M12.377,18.463c-0.645,0.313-1.329,0.473-2.032,0.473c-2.57,0-4.661-2.091-4.661-4.661
		s2.091-4.661,4.661-4.661c0.705,0,1.389,0.158,2.032,0.472c0.379,0.186,0.73,0.419,1.043,0.695
		c1.008,0.888,1.586,2.161,1.586,3.494c0,1.332-0.578,2.605-1.586,3.494C13.107,18.045,12.755,18.279,12.377,18.463z M19.841,26.399
		l0.082,0.612H0.835l0.082-0.614c0.403-3.007,2.995-5.274,6.03-5.274h6.866c1.521,0,2.983,0.573,4.115,1.616
		c0.342,0.314,0.646,0.664,0.903,1.038C19.376,24.571,19.716,25.453,19.841,26.399z M19.229,22.912l-0.03-0.037
		c-1.325-1.644-3.289-2.587-5.387-2.587h-0.558v-1.364l0.046-0.029c1.235-0.792,2.115-2.07,2.415-3.506l0.017-0.079h5.019
		c0.113,0,0.208-0.136,0.208-0.297s-0.095-0.298-0.207-0.298h-4.939l0.007-0.105c0.002-0.041,0.006-0.082,0.009-0.122
		c0.006-0.07,0.012-0.142,0.012-0.213c0-0.892-0.214-1.747-0.638-2.543l-0.092-0.174l0.215,0.033h7.479
		c0.113,0,0.208-0.137,0.208-0.298s-0.095-0.297-0.207-0.297h-7.494c-0.095,0-0.179,0.103-0.198,0.243l-0.037,0.262l-0.146-0.22
		c-0.438-0.661-0.986-1.204-1.63-1.615l-0.046-0.029V1.881c0-0.559,0.455-1.013,1.013-1.013h10.975v3.858
		c0,0.227,0.184,0.411,0.41,0.411h3.859v5.943l-3.193,3.195c-0.045,0.045-0.079,0.099-0.1,0.161l-1.006,3.019
		c-0.05,0.149-0.012,0.31,0.099,0.42c0.112,0.113,0.272,0.148,0.419,0.1l3.02-1.006c0.06-0.02,0.115-0.054,0.16-0.099l0.601-0.602
		V21.9c0,0.558-0.454,1.012-1.013,1.012H19.229z"/>
</g>
</svg>
