<?xml version="1.0" encoding="utf-8"?>
<!-- Generator: Adobe Illustrator 22.0.1, SVG Export Plug-In . SVG Version: 6.00 Build 0)  -->
<svg version="1.1" id="Слой_1" xmlns="http://www.w3.org/2000/svg" xmlns:xlink="http://www.w3.org/1999/xlink" x="0px" y="0px"
	 viewBox="0 0 29.685 26.445" style="enable-background:new 0 0 29.685 26.445;" xml:space="preserve">
<style type="text/css">
	.st0{fill:#ffffff;}
</style>
<path class="st0" d="M27.491,8.966c-0.45,0-0.864,0.164-1.204,0.436c-1.174-5.245-5.859-9.179-11.453-9.179
	c-5.597,0-10.285,3.939-11.456,9.188C3.036,9.134,2.619,8.966,2.165,8.966c-1.138,0-2.065,1.022-2.065,2.279v3.751
	c0,1.257,0.926,2.279,2.065,2.279c0.513,0,0.976-0.215,1.338-0.558c1.017,5.031,4.454,8.771,8.575,8.934
	c0.176,0.336,0.584,0.571,1.061,0.571h3.751c0.637,0,1.153-0.42,1.153-0.939c0-0.519-0.516-0.939-1.153-0.939h-3.751
	c-0.354,0-0.659,0.137-0.871,0.342c-4.144-0.059-7.554-4.289-8.038-9.72v-3h0.033c0-5.829,4.742-10.571,10.571-10.571
	s10.571,4.742,10.571,10.571h0.022v3.03c0,1.257,0.926,2.279,2.065,2.279c1.138,0,2.065-1.022,2.065-2.279v-3.751
	C29.555,9.989,28.629,8.966,27.491,8.966z M3.103,14.997c0,0.637-0.42,1.153-0.939,1.153c-0.519,0-0.939-0.516-0.939-1.153v-3.751
	c0-0.637,0.42-1.153,0.939-1.153c0.519,0,0.939,0.516,0.939,1.153v0.445c-0.002,0.093-0.014,0.183-0.014,0.276h0.014V14.997z
	 M28.43,14.997c0,0.637-0.42,1.153-0.939,1.153c-0.519,0-0.939-0.516-0.939-1.153v-3.03h0.025c0-0.169-0.018-0.333-0.025-0.501
	v-0.22c0-0.637,0.42-1.153,0.939-1.153c0.519,0,0.939,0.516,0.939,1.153V14.997z"/>
</svg>
