<?xml version="1.0" encoding="utf-8"?>
<!-- Generator: Adobe Illustrator 22.0.1, SVG Export Plug-In . SVG Version: 6.00 Build 0)  -->
<svg version="1.1" id="Слой_1" xmlns="http://www.w3.org/2000/svg" xmlns:xlink="http://www.w3.org/1999/xlink" x="0px" y="0px"
	 viewBox="0 0 23.379 30.24" style="enable-background:new 0 0 23.379 30.24;" xml:space="preserve">
<path  fill="#ffffff" d="M23.292,0.388c-0.016-0.133-0.097-0.247-0.217-0.307c-0.12-0.06-0.26-0.056-0.376,0.016
	c-0.035,0.021-3.595,2.109-7.481,3.063c-2.811,0.688-4.516,3.558-5.323,5.338C9.87,8.472,9.842,8.449,9.811,8.432
	c-0.12-0.07-0.27-0.073-0.392-0.005C9.327,8.478,7.155,9.71,6.488,11.588c-0.65,1.827-0.728,2.601-0.729,2.606
	c-0.01,0.098,0.016,0.195,0.074,0.273c0.242,0.332,0.495,0.694,0.702,1.005c-0.266-0.124-0.56-0.268-0.833-0.407
	c-0.123-0.063-0.269-0.058-0.386,0.015c-0.118,0.072-0.188,0.198-0.188,0.336c0,0.053,0.006,1.312,0.502,2.51
	c0.304,0.736,0.614,1.164,0.834,1.401c-0.372,0.853-0.594,1.411-0.705,1.701H2.366c-0.217,0-0.394,0.177-0.394,0.394v2.133H1.373
	c-0.737,0-1.337,0.6-1.337,1.337v4.012c0,0.737,0.6,1.337,1.337,1.337h8.887c0.737,0,1.337-0.6,1.337-1.337v-4.012
	c0-0.737-0.6-1.337-1.337-1.337H9.661v-2.133c0-0.217-0.177-0.394-0.394-0.394H6.606c0.056-0.142,0.125-0.313,0.209-0.515
	c0.581,0.193,1.66,0.292,2.938-0.83c1.625-1.427,3.001-3.531,3.059-3.62c0.073-0.113,0.084-0.254,0.029-0.376
	c-0.055-0.122-0.167-0.208-0.3-0.229l-0.061-0.01c0.907-0.316,2.053-0.796,2.979-1.439c1.901-1.323,5.668-6.077,6.169-6.926
	c0.545-0.922,0.745-1.617,0.747-1.623c0.034-0.112,0.015-0.232-0.051-0.33c-0.065-0.098-0.17-0.161-0.287-0.173l-0.29-0.029
	c0.447-0.339,0.786-0.796,1.009-1.36C23.455,1.801,23.3,0.445,23.292,0.388z M10.809,28.904c0,0.303-0.246,0.55-0.549,0.55H1.373
	c-0.303,0-0.549-0.247-0.549-0.55v-4.012c0-0.303,0.247-0.55,0.549-0.55h8.887c0.303,0,0.549,0.247,0.549,0.55V28.904z M2.76,23.555
	v-1.739h6.112v1.739H2.76z M20.061,4.76c-0.207,0.005-0.376,0.171-0.385,0.378c-0.008,0.207,0.147,0.386,0.354,0.408l1.42,0.145
	c-0.106,0.253-0.27,0.602-0.5,0.992c-0.471,0.796-4.16,5.44-5.941,6.68c-1.708,1.188-4.397,1.82-4.425,1.826
	c-0.184,0.043-0.312,0.211-0.305,0.399c0.007,0.188,0.148,0.347,0.334,0.375l1.187,0.181c-0.534,0.749-1.503,2.014-2.567,2.947
	c-0.925,0.814-1.667,0.811-2.076,0.703l0.145-0.415c0.628-1.416,3.232-6.122,5.602-9.559c2.293-3.325,6.737-6.053,6.782-6.08
	c0.09-0.055,0.153-0.142,0.177-0.244c0.025-0.103,0.008-0.208-0.046-0.297c-0.114-0.186-0.355-0.245-0.542-0.132
	c-0.475,0.291-4.702,2.945-7.02,6.306c-2.15,3.119-4.484,7.237-5.422,9.151c-0.133-0.193-0.303-0.484-0.475-0.899
	c-0.225-0.544-0.335-1.114-0.39-1.546c1.286,0.624,1.435,0.547,1.579,0.477c0.11-0.055,0.189-0.155,0.218-0.275
	c0.04-0.162,0.09-0.364-1.198-2.144c0.054-0.29,0.216-1.022,0.665-2.285C7.603,10.805,8.576,9.964,9.217,9.5v0.844
	c0,0.195,0.146,0.362,0.338,0.39c0.193,0.028,0.379-0.092,0.435-0.279c0.016-0.057,1.686-5.615,5.417-6.53
	c3.066-0.751,5.892-2.165,7.108-2.822c-0.029,0.531-0.143,1.296-0.491,2.177C21.463,4.696,20.117,4.758,20.061,4.76z"/>
</svg>
