<?xml version="1.0" encoding="utf-8"?>
<!-- Generator: Adobe Illustrator 18.1.1, SVG Export Plug-In . SVG Version: 6.00 Build 0)  -->
<svg version="1.1" id="Logo" xmlns="http://www.w3.org/2000/svg" xmlns:xlink="http://www.w3.org/1999/xlink" x="0px" y="0px"
	 viewBox="0 0 360 198" enable-background="new 0 0 360 198" xml:space="preserve">
<g>
	<g>
		<path fill="#319B42" d="M350,198H10c-5.5,0-10-4.5-10-10V10C0,4.5,4.5,0,10,0h340c5.5,0,10,4.5,10,10v178
			C360,193.5,355.5,198,350,198z"/>
	</g>
	<g>
		<path fill="#FFFFFF" d="M342,183H18c-1.7,0-3-1.3-3-3V18c0-1.7,1.3-3,3-3h324c1.7,0,3,1.3,3,3v162C345,181.7,343.7,183,342,183z"
			/>
		<g>
			<g>
				<path fill="#319B42" d="M199.9,69.5l-16.7,36.3h-1.7V61.6h-23.7v74.8h20.1c5.3,0,10.1-3.1,12.3-7.9l16.7-36.3h1.7v44.2h23.7
					V61.6h-20.1C206.9,61.6,202.1,64.7,199.9,69.5z"/>
				<path fill="#319B42" d="M110.9,71.4l-9.9,34.4h-1.7l-9.9-34.4c-1.7-5.8-7-9.8-13-9.8H52.7v74.8h23.7V92.2h1.7l13.6,44.2h16.9
					l13.6-44.2h1.7v44.2h23.7V61.6h-23.7C117.9,61.6,112.6,65.6,110.9,71.4z"/>
				<path fill="#319B42" d="M242.5,95.6v40.8h23.7v-23.8h25.5c11.1,0,20.4-7.1,23.9-17H242.5z"/>
			</g>
			<linearGradient id="SVGID_1_" gradientUnits="userSpaceOnUse" x1="239.1159" y1="76.887" x2="317.0513" y2="76.887">
				<stop  offset="0" style="stop-color:#00A3E1"/>
				<stop  offset="0.3042" style="stop-color:#009ADD"/>
				<stop  offset="0.7987" style="stop-color:#0082D4"/>
				<stop  offset="1" style="stop-color:#0076CF"/>
			</linearGradient>
			<path fill="url(#SVGID_1_)" d="M291.6,61.6h-52.5c3.2,17.4,18.4,30.6,36.6,30.6h40.8c0.3-1.6,0.5-3.4,0.5-5.1
				C317.1,73,305.7,61.6,291.6,61.6z"/>
		</g>
	</g>
</g>
</svg>
