<?xml version="1.0" encoding="utf-8"?>
<!-- Generator: Adobe Illustrator 22.0.1, SVG Export Plug-In . SVG Version: 6.00 Build 0)  -->
<svg version="1.1" id="Слой_1" xmlns="http://www.w3.org/2000/svg" xmlns:xlink="http://www.w3.org/1999/xlink" x="0px" y="0px"
	 viewBox="0 0 28.75 28.75" style="enable-background:new 0 0 28.75 28.75;" xml:space="preserve">
<style type="text/css">
	.st0{fill:#797D80;}
	.st1{fill:#FFFFFF;}
</style>
<g>
	<g>
		<path d="M14.375,0.599c7.596,0,13.776,6.18,13.776,13.776s-6.18,13.776-13.776,13.776S0.599,21.971,0.599,14.375
			S6.779,0.599,14.375,0.599 M14.375,0C6.436,0,0,6.436,0,14.375C0,22.314,6.436,28.75,14.375,28.75S28.75,22.314,28.75,14.375
			C28.75,6.436,22.314,0,14.375,0L14.375,0z"/>
		<path class="st0" d="M14.375,0.41C6.662,0.41,0.41,6.662,0.41,14.375c0,7.713,6.252,13.965,13.965,13.965
			S28.34,22.088,28.34,14.375C28.34,6.662,22.088,0.41,14.375,0.41L14.375,0.41z"/>
	</g>
	<g>
		<g>
			<path class="st1" d="M9.895,18.207H8.832l-2.906-5.701l-0.032,0.011v5.691H4.826v-7.665h1.069L8.8,16.228l0.032-0.011v-5.675
				h1.063V18.207z"/>
		</g>
		<g>
			<path class="st1" d="M15.301,14.643h-2.842v2.753h3.295v0.811H11.39v-7.665h4.332v0.811h-3.264v2.479h2.842V14.643z"/>
		</g>
		<g>
			<path class="st1" d="M21.813,16.007h0.032l1.032-5.464h1.048l-1.548,7.665h-0.984l-1.3-5.443H20.06l-1.311,5.443h-0.984
				l-1.542-7.665h1.048l1.037,5.464h0.032l1.306-5.464h0.848L21.813,16.007z"/>
		</g>
	</g>
</g>
</svg>
