<?xml version="1.0" encoding="utf-8"?>
<!-- Generator: Adobe Illustrator 22.0.1, SVG Export Plug-In . SVG Version: 6.00 Build 0)  -->
<svg version="1.1" id="Слой_1" xmlns="http://www.w3.org/2000/svg" xmlns:xlink="http://www.w3.org/1999/xlink" x="0px" y="0px"
	 viewBox="0 0 48 48" style="enable-background:new 0 0 48 48;" xml:space="preserve">
<style type="text/css">
	.st0{fill:#797C80;}
</style>
<g>
	<g>
		<path class="st0" d="M24,1c12.682,0,23,10.318,23,23S36.682,47,24,47S1,36.682,1,24S11.318,1,24,1 M24,0C10.745,0,0,10.745,0,24
			c0,13.255,10.745,24,24,24s24-10.745,24-24C48,10.745,37.255,0,24,0L24,0z"/>
	</g>
	<g>
		<g>
			<path class="st0" d="M16.933,30.398h-1.775l-4.852-9.519l-0.053,0.018v9.501H8.469V17.602h1.784l4.852,9.492l0.053-0.018v-9.475
				h1.775V30.398z"/>
		</g>
		<g>
			<path class="st0" d="M25.959,24.448h-4.746v4.597h5.501v1.354h-7.286V17.602h7.233v1.354h-5.449v4.14h4.746V24.448z"/>
		</g>
		<g>
			<path class="st0" d="M36.831,26.725h0.053l1.723-9.123h1.749l-2.584,12.797h-1.644l-2.171-9.088h-0.053l-2.188,9.088h-1.644
				l-2.575-12.797h1.749l1.731,9.123h0.053l2.18-9.123h1.415L36.831,26.725z"/>
		</g>
	</g>
</g>
</svg>
