<?xml version="1.0" encoding="utf-8"?>
<!-- Generator: Adobe Illustrator 22.0.1, SVG Export Plug-In . SVG Version: 6.00 Build 0)  -->
<svg version="1.1" id="Слой_1" xmlns="http://www.w3.org/2000/svg" xmlns:xlink="http://www.w3.org/1999/xlink" x="0px" y="0px"
	 viewBox="0 0 28.75 28.75" style="enable-background:new 0 0 28.75 28.75;" xml:space="preserve">
<style type="text/css">
	.st0{fill:#797D80;}
	.st1{fill:#FFFFFF;}
</style>
<g>
	<g>
		<g>
			<path d="M14.375,0.599c7.596,0,13.776,6.18,13.776,13.776s-6.18,13.776-13.776,13.776c-7.596,0-13.776-6.18-13.776-13.776
				S6.779,0.599,14.375,0.599 M14.375,0C6.436,0,0,6.436,0,14.375C0,22.314,6.436,28.75,14.375,28.75S28.75,22.314,28.75,14.375
				C28.75,6.436,22.314,0,14.375,0L14.375,0z"/>
		</g>
		<path class="st0" d="M14.375,0.41C6.662,0.41,0.41,6.662,0.41,14.375c0,7.713,6.252,13.965,13.965,13.965
			S28.34,22.088,28.34,14.375C28.34,6.662,22.088,0.41,14.375,0.41L14.375,0.41z"/>
	</g>
	<g>
		<g>
			<path class="st1" d="M22.344,17.002c-0.015-0.305-0.087-0.553-0.144-0.707l-0.012-0.031l0.021-0.026
				c0.345-0.441,0.509-0.909,0.488-1.393c-0.021-0.533-0.26-0.95-0.457-1.207l-0.02-0.027l0.013-0.032
				c0.154-0.385,0.42-1.365-0.443-2.152c-0.563-0.513-1.522-0.741-2.853-0.677c-0.945,0.043-1.732,0.218-1.765,0.226l-0.017,0.001
				c-0.156,0.029-0.341,0.067-0.554,0.114l-0.068,0.015l-0.004-0.07c-0.015-0.233,0.025-0.817,0.454-2.118
				c0.499-1.519,0.471-2.678-0.085-3.445c-0.583-0.804-1.516-0.866-1.788-0.866c-0.255,0-0.486,0.105-0.651,0.297
				c-0.395,0.459-0.334,1.324-0.289,1.674l0.002,0.015l-0.005,0.014c-0.065,0.173-1.598,4.255-2.96,5.304
				c-0.021,0.015-0.036,0.03-0.052,0.046c-0.279,0.294-0.513,0.645-0.695,1.043l-0.027,0.058l-0.056-0.03
				c-0.212-0.115-0.443-0.173-0.686-0.173h-2.2c-0.794,0-1.441,0.646-1.441,1.441v5.862c0,0.794,0.646,1.441,1.441,1.441h2.2
				c0.3,0,0.588-0.091,0.831-0.263l0.019-0.013l0.87,0.104c0.024,0.003,2.384,0.309,4.8,0.263c0.454,0.034,0.848,0.051,1.21,0.051
				c0.642,0,1.202-0.051,1.665-0.15c1.086-0.231,1.826-0.689,2.2-1.363c0.282-0.509,0.285-1.012,0.238-1.344l-0.004-0.032
				l0.024-0.021C22.249,18.19,22.368,17.484,22.344,17.002z M10.278,20.152c0,0.323-0.263,0.587-0.587,0.587l-2.2,0.004
				c-0.323,0-0.587-0.263-0.587-0.587V14.29c0-0.323,0.263-0.586,0.587-0.586h2.2c0.323,0,0.587,0.263,0.587,0.586V20.152z
				 M21.319,16.409l0.009,0.017c0.06,0.118,0.151,0.338,0.166,0.613c0.026,0.493-0.21,0.93-0.702,1.299
				c-0.15,0.115-0.209,0.311-0.146,0.487l0.004,0.02c0.034,0.11,0.129,0.543-0.105,0.96c-0.252,0.451-0.801,0.769-1.634,0.946
				c-0.404,0.087-0.898,0.131-1.476,0.131c-0.358,0-0.749-0.017-1.17-0.05l-0.046,0c-2.345,0.049-4.678-0.254-4.698-0.257
				l-0.431-0.051l0.014-0.064c0.02-0.096,0.031-0.199,0.031-0.305V14.29c0-0.143-0.022-0.288-0.066-0.43l-0.005-0.016l0.004-0.017
				c0.074-0.276,0.261-0.807,0.685-1.263c1.601-1.271,3.192-5.6,3.259-5.784c0.025-0.066,0.032-0.139,0.019-0.211
				c-0.058-0.382-0.049-0.909,0.054-1.087l0.018-0.03l0.035,0.001c0.165,0.003,0.73,0.049,1.065,0.512
				c0.38,0.526,0.368,1.451-0.035,2.676c-0.597,1.809-0.655,2.756-0.194,3.165c0.229,0.205,0.525,0.201,0.726,0.129
				c0.253-0.058,0.454-0.099,0.638-0.129l0.042-0.01c1.155-0.253,3.127-0.393,3.835,0.252c0.617,0.564,0.185,1.309,0.133,1.392
				c-0.117,0.176-0.085,0.407,0.076,0.552c0.043,0.041,0.402,0.4,0.42,0.883c0.015,0.339-0.142,0.681-0.468,1.018
				C21.242,16.034,21.219,16.246,21.319,16.409z"/>
		</g>
		<g>
			<circle class="st1" cx="8.625" cy="18.922" r="0.605"/>
		</g>
	</g>
</g>
</svg>
