<?xml version="1.0" encoding="utf-8"?>
<!-- Generator: Adobe Illustrator 22.0.1, SVG Export Plug-In . SVG Version: 6.00 Build 0)  -->
<svg version="1.1" id="Слой_1" xmlns="http://www.w3.org/2000/svg" xmlns:xlink="http://www.w3.org/1999/xlink" x="0px" y="0px"
	 viewBox="0 0 48 48" style="enable-background:new 0 0 48 48;" xml:space="preserve">
<style type="text/css">
	.st0{fill:#797C80;}
</style>
<g>
	<g>
		<path class="st0" d="M24,1c12.682,0,23,10.318,23,23S36.682,47,24,47C11.318,47,1,36.682,1,24S11.318,1,24,1 M24,0
			C10.745,0,0,10.745,0,24c0,13.255,10.745,24,24,24s24-10.745,24-24C48,10.745,37.255,0,24,0L24,0z"/>
	</g>
	<g>
		<path class="st0" d="M37.304,28.429c-0.025-0.509-0.145-0.923-0.24-1.181l-0.02-0.052l0.035-0.044
			c0.576-0.736,0.851-1.518,0.815-2.325c-0.035-0.889-0.434-1.586-0.762-2.015l-0.034-0.045l0.021-0.053
			c0.257-0.643,0.701-2.278-0.74-3.593c-0.939-0.857-2.542-1.237-4.764-1.13c-1.577,0.072-2.891,0.364-2.946,0.377l-0.028,0.002
			c-0.261,0.048-0.569,0.111-0.924,0.19l-0.114,0.025l-0.007-0.117c-0.024-0.389,0.042-1.365,0.757-3.537
			c0.833-2.536,0.786-4.471-0.142-5.752c-0.973-1.342-2.531-1.446-2.985-1.446c-0.426,0-0.812,0.176-1.086,0.495
			c-0.659,0.767-0.557,2.21-0.482,2.795l0.003,0.024l-0.009,0.023c-0.108,0.289-2.667,7.104-4.941,8.855
			c-0.036,0.024-0.061,0.05-0.086,0.076c-0.466,0.491-0.857,1.077-1.16,1.741l-0.044,0.097l-0.094-0.051
			c-0.354-0.191-0.74-0.289-1.146-0.289h-3.674c-1.326,0-2.405,1.079-2.405,2.405v9.787c0,1.326,1.079,2.405,2.405,2.405h3.674
			c0.501,0,0.981-0.152,1.388-0.439l0.031-0.022l1.453,0.174c0.04,0.005,3.979,0.515,8.015,0.438
			c0.758,0.057,1.416,0.084,2.02,0.084c1.071,0,2.006-0.084,2.779-0.25c1.813-0.385,3.049-1.151,3.674-2.275
			c0.471-0.85,0.476-1.689,0.397-2.244l-0.007-0.053l0.04-0.036C37.146,30.413,37.345,29.232,37.304,28.429z M17.16,33.688
			c0,0.54-0.439,0.979-0.979,0.979l-3.673,0.006c-0.54,0-0.979-0.439-0.979-0.979v-9.793c0-0.54,0.439-0.979,0.979-0.979h3.673
			c0.54,0,0.979,0.439,0.979,0.979V33.688z M35.593,27.439l0.015,0.028c0.1,0.196,0.253,0.565,0.277,1.024
			c0.044,0.823-0.35,1.553-1.172,2.169c-0.25,0.192-0.349,0.519-0.243,0.813l0.006,0.034c0.056,0.184,0.215,0.906-0.175,1.603
			c-0.42,0.752-1.338,1.284-2.729,1.579c-0.674,0.146-1.499,0.218-2.465,0.218c-0.598,0-1.25-0.028-1.954-0.084l-0.077,0
			c-3.915,0.082-7.81-0.424-7.844-0.429l-0.72-0.085l0.023-0.107c0.034-0.161,0.052-0.332,0.052-0.509v-9.793
			c0-0.239-0.037-0.48-0.11-0.717l-0.008-0.027l0.007-0.028c0.124-0.46,0.437-1.347,1.144-2.108c2.673-2.122,5.33-9.35,5.442-9.657
			c0.042-0.11,0.053-0.231,0.031-0.352c-0.096-0.638-0.083-1.518,0.091-1.814l0.03-0.051l0.059,0.001
			c0.276,0.005,1.219,0.082,1.777,0.854c0.635,0.878,0.615,2.423-0.058,4.468c-0.997,3.021-1.094,4.601-0.324,5.284
			c0.383,0.342,0.876,0.336,1.213,0.215c0.423-0.097,0.758-0.165,1.065-0.215l0.07-0.017c1.928-0.422,5.221-0.656,6.403,0.421
			c1.031,0.941,0.309,2.186,0.223,2.325c-0.195,0.294-0.141,0.68,0.126,0.921c0.072,0.069,0.671,0.668,0.702,1.474
			c0.025,0.565-0.238,1.137-0.781,1.699C35.465,26.813,35.426,27.167,35.593,27.439z"/>
	</g>
	<g>
		<circle class="st0" cx="14.4" cy="31.635" r="1.01"/>
	</g>
</g>
</svg>
