<?xml version="1.0" encoding="utf-8"?>
<!-- Generator: Adobe Illustrator 22.0.1, SVG Export Plug-In . SVG Version: 6.00 Build 0)  -->
<svg version="1.1" id="Слой_1" xmlns="http://www.w3.org/2000/svg" xmlns:xlink="http://www.w3.org/1999/xlink" x="0px" y="0px"
	 viewBox="0 0 48 48" style="enable-background:new 0 0 48 48;" xml:space="preserve">
<style type="text/css">
	.st0{fill:#797C80;}
</style>
<g>
	<path class="st0" d="M24,1c12.682,0,23,10.318,23,23S36.682,47,24,47S1,36.682,1,24S11.318,1,24,1 M24,0C10.745,0,0,10.745,0,24
		s10.745,24,24,24s24-10.745,24-24S37.255,0,24,0L24,0z"/>
	<g>
		<path class="st0" d="M17.043,12.97c-1.474,0-2.682,0.542-3.591,1.612c-0.914,1.076-1.377,2.501-1.377,4.236
			c0,1.735,0.463,3.161,1.377,4.236c0.908,1.07,2.117,1.612,3.591,1.612s2.677-0.537,3.576-1.597
			c0.903-1.067,1.362-2.498,1.362-4.252c0-1.754-0.458-3.185-1.362-4.252C19.721,13.507,18.518,12.97,17.043,12.97z M19.425,22
			c-0.571,0.781-1.373,1.176-2.382,1.176c-0.988,0-1.784-0.401-2.366-1.191c-0.572-0.777-0.861-1.842-0.861-3.167
			s0.29-2.39,0.861-3.167c0.582-0.791,1.378-1.191,2.366-1.191c1.009,0,1.81,0.396,2.382,1.176c0.562,0.767,0.846,1.837,0.846,3.182
			C20.271,20.164,19.987,21.234,19.425,22z"/>
		<polygon class="st0" points="30.375,13.159 15.569,34.841 17.624,34.841 32.43,13.159 		"/>
		<path class="st0" d="M30.956,23.333c-1.475,0-2.678,0.537-3.575,1.596c-0.903,1.066-1.362,2.497-1.362,4.252
			s0.458,3.186,1.362,4.252c0.898,1.059,2.101,1.596,3.575,1.596c1.475,0,2.684-0.542,3.592-1.611
			c0.914-1.076,1.377-2.501,1.377-4.237c0-1.735-0.463-3.16-1.377-4.236C33.639,23.876,32.431,23.333,30.956,23.333z M33.322,32.348
			c-0.583,0.791-1.379,1.192-2.367,1.192c-1.01,0-1.811-0.396-2.382-1.177c-0.561-0.764-0.845-1.834-0.845-3.181
			c0-1.346,0.284-2.417,0.845-3.182c0.571-0.781,1.373-1.177,2.382-1.177c0.988,0,1.784,0.401,2.367,1.192
			c0.572,0.778,0.861,1.843,0.861,3.166C34.184,30.505,33.894,31.571,33.322,32.348z"/>
	</g>
</g>
</svg>
