<?xml version="1.0" encoding="utf-8"?>
<!-- Generator: Adobe Illustrator 22.0.1, SVG Export Plug-In . SVG Version: 6.00 Build 0)  -->
<svg version="1.1" id="Слой_1" xmlns="http://www.w3.org/2000/svg" xmlns:xlink="http://www.w3.org/1999/xlink" x="0px" y="0px"
	 viewBox="0 0 30 30" style="enable-background:new 0 0 30 30;" xml:space="preserve">
<style type="text/css">
	.st0{fill:#171C25;}
	.st1{opacity:0.88;fill:#797D80;}
	.st2{fill:#FFFFFF;}
</style>
<path class="st0" d="M15,0c8.271,0,15,6.729,15,15s-6.729,15-15,15S0,23.271,0,15S6.729,0,15,0"/>
<path class="st1" d="M15,0.428C6.952,0.428,0.428,6.952,0.428,15c0,8.048,6.524,14.572,14.572,14.572S29.572,23.048,29.572,15
	C29.572,6.952,23.048,0.428,15,0.428L15,0.428z"/>
<g>
	<g>
		<path class="st2" d="M10.463,7.807c-0.961,0-1.749,0.354-2.342,1.051c-0.596,0.702-0.898,1.631-0.898,2.763
			c0,1.132,0.302,2.061,0.898,2.763c0.592,0.698,1.38,1.052,2.342,1.052s1.746-0.35,2.332-1.041
			c0.589-0.696,0.888-1.629,0.888-2.773c0-1.144-0.299-2.077-0.888-2.773C12.209,8.157,11.425,7.807,10.463,7.807z M12.016,13.696
			c-0.373,0.509-0.895,0.767-1.553,0.767c-0.644,0-1.163-0.261-1.543-0.777c-0.373-0.507-0.562-1.201-0.562-2.065
			s0.189-1.558,0.562-2.065C9.3,9.04,9.819,8.779,10.463,8.779c0.658,0,1.18,0.258,1.553,0.767c0.366,0.5,0.552,1.198,0.552,2.075
			C12.568,12.498,12.383,13.196,12.016,13.696z"/>
	</g>
	<g>
		<polygon class="st2" points="19.158,7.93 9.502,22.07 10.842,22.07 20.498,7.93 		"/>
	</g>
	<g>
		<path class="st2" d="M19.536,14.565c-0.962,0-1.746,0.35-2.332,1.041c-0.589,0.695-0.888,1.628-0.888,2.773
			c0,1.145,0.299,2.078,0.888,2.773c0.586,0.69,1.37,1.041,2.332,1.041c0.962,0,1.75-0.353,2.342-1.051
			c0.596-0.702,0.898-1.631,0.898-2.763c0-1.131-0.302-2.061-0.898-2.763C21.286,14.919,20.498,14.565,19.536,14.565z M21.08,20.444
			c-0.38,0.516-0.899,0.777-1.543,0.777c-0.659,0-1.181-0.258-1.553-0.767c-0.366-0.498-0.551-1.196-0.551-2.075
			c0-0.878,0.185-1.576,0.551-2.075c0.373-0.509,0.895-0.767,1.553-0.767c0.644,0,1.164,0.261,1.543,0.778
			c0.373,0.507,0.562,1.202,0.562,2.065C21.641,19.243,21.453,19.937,21.08,20.444z"/>
	</g>
</g>
</svg>
