<?xml version="1.0" encoding="utf-8"?>
<!-- Generator: Adobe Illustrator 22.0.1, SVG Export Plug-In . SVG Version: 6.00 Build 0)  -->
<svg version="1.1" id="Слой_1" xmlns="http://www.w3.org/2000/svg" xmlns:xlink="http://www.w3.org/1999/xlink" x="0px" y="0px"
	 viewBox="0 0 27.862 30" style="enable-background:new 0 0 27.862 30;" xml:space="preserve">
<style type="text/css">
	.st0{fill:#4C4E54;}
</style>
<g>
	<path class="st0" d="M14.2,4.273c-1.898,0-3.442,1.544-3.442,3.442s1.544,3.442,3.442,3.442c1.898,0,3.443-1.544,3.443-3.442
		S16.098,4.273,14.2,4.273z M16.58,7.715c0,1.172-1.223,2.412-2.38,2.412c-1.167,0-2.401-1.24-2.401-2.412
		c0-1.161,1.234-2.39,2.401-2.39C15.356,5.326,16.58,6.554,16.58,7.715z"/>
	<path class="st0" d="M25.969,23.236c-0.675-2.103-1.312-4.09-1.941-6.159c-0.048-0.155-0.191-0.277-0.339-0.385
		c-1.675-1.223-2.484-1.831-3.837-2.916c1.37-2.731,2.064-4.77,2.064-6.061C21.917,3.461,18.455,0,14.2,0
		C9.946,0,6.484,3.461,6.484,7.715c0,1.331,0.735,3.449,2.183,6.298c-0.917,0.725-1.692,1.226-3.45,2.297
		c-0.213,0.13-0.341,0.259-0.394,0.394c-0.667,1.729-1.359,3.498-2.053,5.273c-0.908,2.323-1.848,4.726-2.727,7.026
		c-0.055,0.146-0.01,0.326,0.118,0.47c0.076,0.086,0.204,0.145,0.34,0.158c0.073,0.007,0.153,0.012,0.237-0.008
		c1.255-0.309,2.249-0.559,3.177-0.793c1.264-0.318,2.406-0.605,3.92-0.971c1.223,0.392,2.181,0.733,3.196,1.094
		c0.861,0.306,1.749,0.623,2.946,1.02C14.051,29.991,14.118,30,14.181,30c0.063,0,0.13-0.009,0.187-0.025l0.042-0.007
		c1.694-0.489,2.847-0.938,4.066-1.415c0.632-0.247,1.285-0.502,2.05-0.777c1.753,0.448,2.743,0.745,4.109,1.156
		c0.668,0.201,1.428,0.429,2.414,0.716c0.078,0.023,0.155,0.027,0.22,0.027c0.127,0.002,0.246-0.024,0.346-0.072
		c0.19-0.094,0.28-0.265,0.228-0.437v0C27.219,27.132,26.584,25.151,25.969,23.236z M13.672,28.764
		c-1.703-0.515-2.808-0.933-4.193-1.457c-0.303-0.115-0.617-0.234-0.954-0.36c0.232-1.871,0.499-3.7,0.758-5.469
		c0.238-1.625,0.482-3.302,0.701-5.017c0.421,0.75,0.77,1.335,1.196,2.043c0.156,0.255,0.32,0.521,0.476,0.771l0.139,0.225
		c1.002,1.614,1.755,2.745,1.858,2.885c0.002,0.003,0.005,0.007,0.009,0.011l0.007,1.591C13.676,25.609,13.683,27.146,13.672,28.764
		z M9.196,15.029c-0.241,1.578-0.481,3.125-0.718,4.664c-0.371,2.396-0.74,4.778-1.111,7.246c-1.84,0.474-3.175,0.835-5.01,1.332
		l-1.06,0.287c0.682-1.892,1.434-3.819,2.163-5.685c0.732-1.872,1.489-3.808,2.171-5.704c1.185-0.735,1.867-1.174,2.588-1.638
		c0.295-0.19,0.592-0.381,0.928-0.595L9.196,15.029z M20.961,7.715c0,3.005-5.016,10.96-6.761,13.634
		c-1.379-2.118-6.717-10.521-6.717-13.634c0-3.511,3.201-6.708,6.717-6.708C17.739,1.007,20.961,4.205,20.961,7.715z M14.679,24.224
		c0.007-0.593,0.014-1.185,0.018-1.776c0.015-0.015,0.031-0.033,0.051-0.058c0.124-0.146,0.919-1.369,1.862-2.89
		c0.204-0.324,0.398-0.641,0.611-0.997c0.489-0.812,0.952-1.608,1.38-2.372l1.246,10.849c-0.626,0.235-1.18,0.457-1.715,0.672
		c-1.075,0.431-2.093,0.839-3.48,1.266C14.643,27.362,14.661,25.768,14.679,24.224z M23.051,17.371
		c0.905,3.234,2.033,6.6,3.126,9.855l0.464,1.387c-0.661-0.201-1.221-0.373-1.73-0.529c-1.349-0.415-2.33-0.717-3.905-1.151
		c-0.273-2.075-0.533-4.102-0.792-6.127c-0.259-2.024-0.517-4.046-0.79-6.117C20.877,15.803,21.406,16.195,23.051,17.371z"/>
</g>
</svg>
