<?xml version="1.0" encoding="utf-8"?>
<!-- Generator: Adobe Illustrator 22.0.1, SVG Export Plug-In . SVG Version: 6.00 Build 0)  -->
<svg version="1.1" id="Layer_1" xmlns="http://www.w3.org/2000/svg" xmlns:xlink="http://www.w3.org/1999/xlink" x="0px" y="0px"
	 viewBox="0 0 30 20" style="enable-background:new 0 0 30 20;" xml:space="preserve">
<style type="text/css">
	.st0{fill:#4C4E54;}
</style>
<g>
	<path class="st0" d="M7.3,11.9c-0.7,0-1.3-0.5-1.3-1.2V8c0-0.7,0.6-1.2,1.3-1.2S8.5,7.3,8.5,8v2.7C8.5,11.3,8,11.9,7.3,11.9z"/>
	<path class="st0" d="M22.7,11.9c-0.7,0-1.3-0.5-1.3-1.2V8c0-0.7,0.6-1.2,1.3-1.2S24,7.3,24,8v2.7C24,11.3,23.4,11.9,22.7,11.9z"/>
	<path class="st0" d="M16.3,18h-2.9c-0.5,0-0.9-0.4-0.9-0.8s0.4-0.8,0.9-0.8h2.9c0.5,0,0.9,0.4,0.9,0.8S16.8,18,16.3,18z"/>
	<path class="st0" d="M13,17.5c-3.2,0-5.8-3.2-5.8-7.2h0.7c0,3.6,2.3,6.5,5.1,6.5V17.5z"/>
	<path class="st0" d="M22.6,8.1h-1.1C21.5,4.8,18.6,2,15,2c-3.6,0-6.5,2.7-6.5,6.1H7.4C7.4,4.2,10.8,1,15,1
		C19.2,1,22.6,4.2,22.6,8.1z"/>
</g>
</svg>
