<svg id="foreign.svg" xmlns="http://www.w3.org/2000/svg" width="50" height="50" viewBox="0 0 50 50">
  <defs>
    <style>
      .cls-1, .cls-2 {
        fill: #fff;
        fill-rule: evenodd;
      }

      .cls-1 {
        opacity: 0.9;
      }
    </style>
  </defs>
  <path id="Ellipse_301_copy_5" data-name="Ellipse 301 copy 5" class="cls-1" d="M522,375a9.99,9.99,0,0,0-6.81,17.308l0,0S517.82,394.66,519,396c1.135,1.289,2.533,2.78,2.969,4.344L522,400.29l0.031,0.054c0.436-1.564,1.834-3.055,2.969-4.344,1.179-1.34,3.812-3.688,3.812-3.688l0,0A9.99,9.99,0,0,0,522,375Zm0,16a6,6,0,1,1,6-6A6,6,0,0,1,522,391Z" transform="translate(-484 -373)"/>
  <path id="Ellipse_301_copy_4" data-name="Ellipse 301 copy 4" class="cls-2" d="M484,373h50v50H484V373Zm45.531,21.336a36.616,36.616,0,0,0-5.235,5.518A20.51,20.51,0,0,0,522.615,403h-1.23a20.51,20.51,0,0,0-1.681-3.146,36.616,36.616,0,0,0-5.235-5.518A12,12,0,1,1,529.531,394.336ZM522,381a4,4,0,1,0,4,4A4,4,0,0,0,522,381Zm-13-6a22.974,22.974,0,0,0-22.469,27.885,10.859,10.859,0,0,0,1.93.157c2.761-.056,4.269-2.947,6.2-3.761a20.033,20.033,0,0,1,6.5-1.321c1.626,0,1.931-.2,1.727-1.118s-3.15-2.846-4.675-3.76-2.439-3.151-2.236-5.387,1.016-4.675,4.269-4.675,4.065,1.423,5.285,2.846A12.222,12.222,0,0,0,508,388.352v2.254a10.475,10.475,0,0,1-3.8-2.561c-1.089-1.1-1.445-2.955-3.887-3.127-2.746-.193-3.835,5.465,1.116,7.811,4.232,2.006,4.154,5.477,2.609,6.507s-6.043.532-8.034,1.764-3.682,3.764-7,4a13.762,13.762,0,0,1-1.915-.02,23.072,23.072,0,0,0,11.127,13.33,6.5,6.5,0,0,0,.741-1.924c0-1.03-2.815-3.323-2.953-6.009-0.11-2.144.462-5.315,3.365-5.356,5.339-.076,7.828,2.558,9.545,4.1s2.9,4.807,1.356,6.953c-1.11,1.542-3.574,3.337-5.2,4.581a22.905,22.905,0,0,0,18.9-5.218,4.443,4.443,0,0,0-.283-1.54,7.7,7.7,0,0,0-3.544-3.532c-1.055-.5-2.957-1-4.331-1.489a8.56,8.56,0,0,1-5.594-10.08,7.62,7.62,0,0,1,1.257-2.694l1.541,1.156c-1.641,2.264-.97,4.82.144,7.306,1.321,2.947,6.088,2.859,9.553,5.285a7.328,7.328,0,0,1,2.864,4.067A22.9,22.9,0,0,0,532,398c0-.572-0.03-1.136-0.072-1.7l1.861-1.4a25.189,25.189,0,1,1-21.573-21.678l-1.474,1.842C510.167,375.029,509.587,375,509,375Zm-6.34,45.1a26.172,26.172,0,0,1,3.2-2.542c1.17-.836,3.121-2.9,3.121-3.957s-0.39-2.341-2.341-3.958a13.048,13.048,0,0,0-6.41-2.564c-1.337-.055-2.174.446-2.229,2.676s2.954,4.905,3.009,6.186a4.471,4.471,0,0,1-1.065,3.211A23.017,23.017,0,0,0,502.66,420.1Z" transform="translate(-484 -373)"/>
</svg>
