<svg id="privacy.svg" xmlns="http://www.w3.org/2000/svg" width="50" height="50" viewBox="0 0 50 50">
  <defs>
    <style>
      .cls-1, .cls-2 {
        fill: #fff;
        fill-rule: evenodd;
      }

      .cls-1 {
        opacity: 0.9;
      }
    </style>
  </defs>
  <path id="Rounded_Rectangle_838_copy_3" data-name="Rounded Rectangle 838 copy 3" class="cls-1" d="M356,291v2h8v-3h4v6H338v-6h4v3h8v-3h6v1Zm-16,15v-1h4v6H330v-6h4v3h6v-2Zm13,12a3,3,0,0,1,3,3v8h-6v-8A3,3,0,0,1,353,318Zm19-13h4v6H362v-6h4v3h6v-3Z" transform="translate(-328 -281)"/>
  <path id="Rounded_Rectangle_838_copy_2" data-name="Rounded Rectangle 838 copy 2" class="cls-2" d="M374,331a2,2,0,0,0,2-2V313h0a2,2,0,0,0,2-2v20h-4Zm-2-28h-2v3h-2v-3h-8v8a2,2,0,0,0,2,2v16h-4v-8a5,5,0,0,0-10,0v8h-4V313a2,2,0,0,0,2-2v-8h-8v3h-2v-3h-8V281h25a1,1,0,0,0-1,1v6h-4v3h-4v-3h-8v8a2,2,0,0,0,2,2h2v2a1,1,0,0,0,2,0v-2h22v2a1,1,0,0,0,2,0v-2h2a2,2,0,0,0,2-2v-8h-8v3h-4v-3h-4v-4h2v1a1,1,0,0,0,1,1h3a1,1,0,0,0,0-2h-2v-1a1,1,0,0,0-1-1h-3a1,1,0,0,0-1-1h25v22h-6Zm-16,6v-3a3,3,0,0,0-6,0v5h6v-2Zm-4-3a1,1,0,0,1,2,0v3h-2v-3Zm-22,7h0v16a2,2,0,0,0,2,2h-4V311A2,2,0,0,0,330,313Zm12,16H332V313h10v16Zm-2-7v-3a3,3,0,0,0-6,0v5h6v-2Zm-4-3a1,1,0,0,1,2,0v3h-2v-3Zm28-6h10v16H364V313Zm2,9v2h6v-5a3,3,0,0,0-6,0v3Zm3-4a1,1,0,0,1,1,1v3h-2v-3A1,1,0,0,1,369,318Z" transform="translate(-328 -281)"/>
</svg>
