<?xml version="1.0" encoding="utf-8"?>
<!-- Generator: Adobe Illustrator 22.0.1, SVG Export Plug-In . SVG Version: 6.00 Build 0)  -->
<svg version="1.1" id="Слой_1" xmlns="http://www.w3.org/2000/svg" xmlns:xlink="http://www.w3.org/1999/xlink" x="0px" y="0px"
	 viewBox="0 0 38.861 24.042" style="enable-background:new 0 0 38.861 24.042;" xml:space="preserve">
<g>
	<path d="M9.149,21.822c1.003,0,1.819-0.817,1.819-1.82c0-1.002-0.816-1.818-1.819-1.818c-1.002,0-1.818,0.816-1.818,1.818
		C7.33,21.006,8.146,21.822,9.149,21.822z M8.177,20.018c0-0.547,0.445-0.991,0.991-0.991s0.991,0.445,0.991,0.991
		S9.715,21.01,9.168,21.01S8.177,20.565,8.177,20.018z"/>
	<path d="M24.891,7.906v0.098c0,0.119,0,0.373-0.002,0.535c-0.002,0.354-0.002,0.707-0.001,1.062l0.002,0.982
		c-0.001,0.387-0.001,0.775,0.001,1.165c0.001,0.1,0,0.302-0.001,0.406l-0.001,0.099l0.486,0.001
		c0.755-0.002,2.779-0.002,3.975-0.001h0.994l-4.351-4.345H24.891z M28.395,11.449h-2.693c-0.013-0.561-0.008-1.209-0.004-1.836
		L25.7,9.41c0.002-0.24,0.003-0.48,0.004-0.714l0.733,0.749C27.17,10.194,28.15,11.195,28.395,11.449z"/>
	<path d="M38.798,12.756c-0.006-0.972-0.329-1.34-1.328-1.518c-0.696-0.124-1.405-0.242-2.099-0.357l-0.554-0.093
		c-0.812-0.135-1.646-0.273-2.464-0.42c-0.296-0.053-0.48-0.143-0.657-0.321c-0.175-0.176-0.411-0.418-0.69-0.703
		c-0.88-0.901-2.209-2.263-3.195-3.153c-0.108-0.097-0.202-0.188-0.304-0.286c-0.437-0.42-0.726-0.696-1.426-0.696l-1.146,0.003
		c-0.645,0.003-1.372,0.006-1.619,0.002c0-0.87,0.002-2.373,0.003-3.529l0.001-1.649H23.2C21.705,0.038,1.714,0.038,0.192,0.037
		H0.074v20.884l0.118,0.001c0.817,0.006,4.625,0.006,4.967,0.006l0.002,0.004c0.036,0.078,0.138,0.298,0.179,0.406
		c0.007,0.021,0.018,0.042,0.027,0.062l0.019,0.038c0.007,0.015,0.015,0.03,0.022,0.048c0.027,0.066,0.057,0.128,0.096,0.208
		l0.018,0.036c0.069,0.142,0.135,0.263,0.211,0.386c0.048,0.08,0.097,0.159,0.152,0.234c0.114,0.162,0.243,0.318,0.38,0.46
		l0.045,0.051c0.35,0.354,0.764,0.634,1.232,0.834l0.11,0.044c0.17,0.067,0.348,0.122,0.528,0.164
		c0.093,0.023,0.175,0.045,0.263,0.059c0.077,0.013,0.157,0.02,0.265,0.03l0.071,0.006c0.043,0.003,0.084,0.008,0.127,0.015
		c0.178,0.025,0.361,0.022,0.589-0.008l0.189-0.022c0.035-0.004,0.071-0.006,0.11-0.012c0.13-0.021,0.265-0.052,0.423-0.096
		c0.097-0.026,0.189-0.055,0.283-0.087c0.126-0.045,0.239-0.087,0.349-0.138c0.087-0.042,0.171-0.088,0.256-0.137l0.034-0.021
		c0.972-0.555,1.673-1.484,1.927-2.552h0.039c2.804,0.01,7.388,0.019,10.54,0c0.423-0.003,1.971-0.005,4.143-0.005
		c0.433,1.828,2.038,3.101,3.915,3.101c1.875,0,3.48-1.273,3.914-3.097l2.454,0.001c0.296,0,0.488-0.021,0.6-0.133
		c0.111-0.113,0.133-0.31,0.132-0.612c-0.004-1.124-0.002-2.251,0-3.381C38.803,15.482,38.805,14.105,38.798,12.756z M9.13,16.922
		c1.689,0,3.064,1.376,3.064,3.066c0,1.689-1.375,3.064-3.064,3.064c-1.69,0-3.065-1.375-3.065-3.064
		C6.065,18.298,7.44,16.922,9.13,16.922z M12.915,18.601c-0.037-0.098-0.071-0.192-0.112-0.28c-0.064-0.144-0.146-0.295-0.255-0.472
		l-0.033-0.057c-0.015-0.025-0.029-0.049-0.045-0.074c-0.569-0.842-1.442-1.429-2.461-1.651c-0.035-0.006-0.071-0.012-0.107-0.017
		L9.83,16.04c-0.219-0.038-0.442-0.061-0.667-0.067l-0.138-0.002c-0.121-0.004-0.247-0.007-0.381,0.004
		c-1.76,0.148-3.278,1.67-3.53,3.542c-0.014,0.11-0.022,0.34-0.025,0.432H1.063V1.019h21.272v18.943H13.18
		c-0.003-0.034-0.007-0.067-0.012-0.098c-0.005-0.032-0.009-0.066-0.011-0.098c-0.008-0.133-0.021-0.255-0.038-0.376l-0.007-0.052
		c-0.012-0.083-0.024-0.165-0.043-0.244c-0.018-0.087-0.036-0.171-0.059-0.248c-0.011-0.037-0.026-0.072-0.045-0.115
		c-0.012-0.029-0.025-0.058-0.036-0.089L12.915,18.601z M31.68,16.922c1.689,0,3.064,1.376,3.064,3.066
		c0,1.689-1.375,3.064-3.064,3.064c-1.69,0-3.065-1.375-3.065-3.064C28.615,18.298,29.99,16.922,31.68,16.922z M37.829,19.299v0.535
		c-0.126,0.001-0.496,0.005-1.038,0.01l-1.071,0.01c-0.082-2.18-1.841-3.883-4.02-3.883c-2.189,0-3.988,1.771-4.028,3.958
		c-2.456,0.022-3.845,0.032-4.356,0.033V6.238c0.902-0.016,2.635-0.009,3.202-0.007c0.211,0.209,3.508,3.487,4.623,4.619
		c0.193,0.196,0.407,0.384,0.657,0.428c1.688,0.298,3.492,0.594,5.361,0.883c0.497,0.076,0.68,0.277,0.677,0.742
		C37.822,14.948,37.811,17.128,37.829,19.299z"/>
	<path d="M31.7,21.822c1.002,0,1.818-0.817,1.818-1.82c0-1.002-0.816-1.818-1.818-1.818c-1.003,0-1.819,0.816-1.819,1.818
		C29.88,21.006,30.696,21.822,31.7,21.822z M30.727,20.018c0-0.547,0.445-0.991,0.991-0.991c0.547,0,0.991,0.445,0.991,0.991
		s-0.445,0.992-0.991,0.992C31.172,21.01,30.727,20.565,30.727,20.018z"/>
</g>
</svg>
