<?xml version="1.0" encoding="utf-8"?>
<!-- Generator: Adobe Illustrator 22.0.1, SVG Export Plug-In . SVG Version: 6.00 Build 0)  -->
<svg version="1.1" id="Слой_1" xmlns="http://www.w3.org/2000/svg" xmlns:xlink="http://www.w3.org/1999/xlink" x="0px" y="0px"
	 viewBox="0 0 28.542 27.997" style="enable-background:new 0 0 28.542 27.997;" xml:space="preserve">
<g>
	<path d="M28.526,15.425c0-1.182-0.001-2.363-0.005-3.544v-0.035c-0.002-0.723-0.002-0.751-0.59-0.751l-0.135,0.002
		c-0.143,0.002-0.323,0.006-0.444-0.006l-0.12-0.013l-0.06-1.14c-0.057-1.079-0.113-2.144-0.167-3.198l-0.117-2.331
		c-0.064-1.273-0.127-2.546-0.194-3.819c-0.024-0.461-0.135-0.574-0.566-0.574c-0.001,0-0.003,0-0.004,0
		c-0.633,0.001-1.266,0.012-1.899,0.022L23.411,0.05c-0.313,0.004-0.449,0.139-0.468,0.466l-0.058,0.989
		c-0.107,1.848-0.214,3.696-0.33,5.544c-0.056,0.891-0.123,1.782-0.19,2.676l-0.101,1.369h-1.017v-0.142
		c0-0.191,0.003-0.378,0.006-0.564c0.006-0.41,0.012-0.798-0.012-1.189c-0.026-0.432-0.103-0.679-0.236-0.754
		c-0.131-0.077-0.377-0.017-0.752,0.179c-0.673,0.351-1.34,0.714-2.006,1.078c-0.353,0.193-0.707,0.387-1.061,0.577
		c-0.092,0.05-0.186,0.093-0.303,0.147l-0.382,0.179l0.002-0.759c0.002-0.354,0.004-0.679-0.004-1.003
		c-0.005-0.201-0.043-0.459-0.201-0.553c-0.158-0.092-0.399-0.004-0.574,0.087c-0.659,0.341-1.315,0.687-1.971,1.033
		c-0.387,0.204-0.773,0.408-1.159,0.61c-0.139,0.073-0.28,0.142-0.445,0.221l-0.477,0.234l0-0.633c0-0.273,0-0.521-0.001-0.769
		c-0.002-0.325-0.07-0.537-0.197-0.612c-0.155-0.095-0.413,0.006-0.603,0.104c-0.686,0.359-1.369,0.724-2.052,1.09
		c-0.384,0.205-0.769,0.41-1.154,0.616c-0.105,0.055-0.212,0.107-0.342,0.169l-0.391,0.19l0.001-0.765
		c0-0.348,0.001-0.669-0.001-0.991C6.928,8.588,6.868,8.404,6.752,8.327C6.701,8.293,6.637,8.28,6.567,8.28
		c-0.133,0-0.289,0.05-0.414,0.101c-0.141,0.057-0.284,0.124-0.426,0.2L4.85,9.044c-1.478,0.779-2.956,1.558-4.427,2.35l-0.038,0.02
		c-0.171,0.09-0.348,0.184-0.348,0.516V27.38c0,0.499,0.072,0.615,0.778,0.615c3.61,0.016,7.219,0.01,10.708,0.005
		c1.528-0.003,3.063-0.006,4.61-0.006c0.476,0,0.585-0.108,0.586-0.578c0-0.361-0.001-0.753-0.003-1.162
		c-0.002-0.619-0.004-1.28-0.001-1.943c0.001-0.223,0.006-0.561,0.006-0.561l0.002-0.139l0.139-0.001
		c0.284-0.001,6.948-0.009,7.138,0.006l0.132,0.009v1.202c0,0.821-0.001,1.63,0,2.42c0.001,0.678,0.073,0.749,0.767,0.749
		c0.954,0.002,1.907,0.002,2.861,0c0.719,0,0.777-0.06,0.777-0.789L28.526,15.425z M27.674,27.168h-2.711l-0.002-1.037
		c-0.002-0.65-0.004-1.291,0.004-1.933c0.006-0.583,0.007-1.109,0.006-1.351c-0.243,0-0.763,0.001-1.302,0
		c-1.121-0.003-2.245-0.003-3.369,0c-1.196,0.002-2.394,0.003-3.595,0H15.89c0.001,0.192,0.002,0.547-0.001,0.85
		c0.007,1.085,0.006,2.053-0.002,3.151l-0.001,0.315L0.906,27.168l-0.005-0.136c-0.003-0.089-0.002-0.179,0-0.268l0.002-0.154
		c-0.001-2.539,0.001-5.052,0.004-7.567c0.002-2.131,0.004-4.264,0.004-6.415c0-0.4,0.102-0.58,0.456-0.799
		c1.15-0.632,2.202-1.189,3.317-1.778l0.935-0.495c0.049-0.025,0.101-0.044,0.182-0.073l0.34-0.124l0,0.709
		c-0.001,0.337-0.001,0.656,0.001,0.976c0.003,0.325,0.07,0.537,0.195,0.612c0.155,0.096,0.419-0.003,0.615-0.101
		c0.711-0.358,1.425-0.744,2.115-1.116c0.335-0.18,0.67-0.362,1.005-0.54c0.099-0.052,0.202-0.1,0.329-0.16l0.444-0.212
		l-0.001,0.631c-0.001,0.262-0.002,0.503,0.002,0.745c0.004,0.208,0.044,0.477,0.208,0.577c0.154,0.094,0.39,0.016,0.563-0.067
		c0.768-0.373,1.538-0.776,2.283-1.166c0.343-0.179,0.687-0.36,1.031-0.538c0.102-0.052,0.206-0.099,0.329-0.156l0.416-0.194
		l-0.001,0.738c-0.001,0.359-0.003,0.697,0.003,1.034c0.005,0.261,0.075,0.446,0.199,0.521c0.152,0.09,0.368,0.017,0.522-0.061
		c0.765-0.386,1.534-0.8,2.277-1.2c0.338-0.182,0.676-0.364,1.016-0.545c0.103-0.055,0.208-0.107,0.333-0.168l0.393-0.197
		l-0.001,0.734c-0.001,0.336-0.002,0.649,0.002,0.962c0.008,0.587,0.213,0.786,0.813,0.786c0.001,0,0.002,0,0.004,0l0.388,0.002
		c0.209-0.001,0.418,0.002,0.627-0.002c0.494-0.008,0.722-0.19,0.76-0.607c0.029-0.323,0.061-0.646,0.092-0.969
		c0.075-0.772,0.152-1.57,0.204-2.356c0.155-2.317,0.29-4.734,0.399-6.678l0.031-0.516l0.131-0.002c0,0,0.217-0.002,0.345,0
		c0.332,0.008,0.664,0.007,1.024,0.005l0.641-0.002l0.056,0.982c0.039,0.676,0.076,1.337,0.111,1.997
		c0.133,2.534,0.265,5.069,0.39,7.603c0.021,0.433,0.198,0.526,0.458,0.535c0.077,0.003,0.16,0.001,0.247-0.001
		c0.132-0.001,0.271-0.006,0.403,0.005l0.131,0.01V27.168z"/>
	<path d="M25.128,13.553c-0.454-0.007-0.907-0.007-1.36-0.005l-0.574,0.005l-0.596-0.001c-0.199,0-0.398,0-0.596,0
		c-0.265,0-0.529,0-0.793,0.002c-0.36,0.002-0.513,0.156-0.511,0.514c0.004,0.84,0.001,1.682-0.005,2.521
		c-0.001,0.179,0.039,0.311,0.119,0.392c0.081,0.081,0.212,0.123,0.39,0.123c0.915,0.005,1.831,0.006,2.746,0.007l1.177,0.002
		c0.001,0,0.002,0,0.003,0c0.362,0,0.517-0.151,0.52-0.505l0.006-0.752c0.005-0.589,0.011-1.177,0.008-1.765
		C25.66,13.68,25.541,13.56,25.128,13.553z M24.822,16.256h-3.297v-1.848h3.297V16.256z"/>
	<path d="M19.02,13.553c-0.453-0.008-0.906-0.006-1.36-0.005l-0.574,0.005l-0.596-0.001c-0.199,0-0.398,0-0.596,0
		c-0.265,0-0.529,0-0.793,0.002c-0.36,0.002-0.514,0.156-0.512,0.514c0.005,0.84,0.002,1.682-0.005,2.521
		c-0.001,0.179,0.039,0.311,0.119,0.392c0.081,0.081,0.212,0.123,0.39,0.123c0.915,0.005,1.831,0.006,2.745,0.007l1.177,0.002
		c0.001,0,0.002,0,0.003,0c0.362,0,0.518-0.151,0.52-0.505l0.006-0.752c0.005-0.589,0.011-1.177,0.008-1.765
		C19.552,13.68,19.432,13.56,19.02,13.553z M18.714,16.256h-3.297v-1.848h3.297V16.256z"/>
	<path d="M6.792,13.553c-0.453-0.008-0.906-0.006-1.36-0.005l-0.575,0.005l-0.596-0.001c-0.198,0-0.397,0-0.596,0
		c-0.264,0-0.529,0-0.793,0.002c-0.36,0.002-0.513,0.156-0.511,0.514c0.004,0.84,0.002,1.682-0.005,2.521
		c-0.001,0.179,0.039,0.31,0.119,0.392c0.08,0.081,0.211,0.123,0.39,0.123c0.915,0.005,1.831,0.006,2.746,0.007l1.177,0.002
		c0.001,0,0.002,0,0.003,0c0.362,0,0.518-0.151,0.52-0.505l0.006-0.704c0.005-0.605,0.011-1.209,0.009-1.813
		C7.324,13.68,7.204,13.56,6.792,13.553z M6.486,16.256H3.189v-1.848h3.297V16.256z"/>
	<path d="M12.899,13.553c-0.453-0.008-0.906-0.006-1.36-0.005l-0.574,0.005l-0.596-0.001c-0.199,0-0.398,0-0.596,0
		c-0.265,0-0.529,0-0.793,0.002c-0.36,0.002-0.514,0.156-0.512,0.514c0.005,0.84,0.002,1.682-0.005,2.521
		c-0.001,0.179,0.039,0.311,0.119,0.392c0.081,0.081,0.212,0.123,0.39,0.123c0.915,0.005,1.831,0.006,2.745,0.007l1.177,0.002
		c0.001,0,0.002,0,0.003,0c0.362,0,0.518-0.151,0.52-0.505l0.006-0.752c0.005-0.589,0.011-1.177,0.008-1.765
		C13.431,13.68,13.311,13.56,12.899,13.553z M12.593,16.256H9.295v-1.848h3.297V16.256z"/>
</g>
</svg>
