<?xml version="1.0" encoding="utf-8"?>
<!-- Generator: Adobe Illustrator 22.0.1, SVG Export Plug-In . SVG Version: 6.00 Build 0)  -->
<svg version="1.1" id="Слой_1" xmlns="http://www.w3.org/2000/svg" xmlns:xlink="http://www.w3.org/1999/xlink" x="0px" y="0px"
	 viewBox="0 0 29.637 30.134" style="enable-background:new 0 0 29.637 30.134;" xml:space="preserve">
<g>
	<path d="M29.564,27.649c-0.278-1.247-1.06-2.218-1.71-2.926c-1.781-1.939-3.543-3.83-5.238-5.621
		c-0.165-0.174-0.338-0.39-0.346-0.399l-0.042-0.053l0.033-0.059c0,0,0.164-0.292,0.254-0.447c1.327-2.286,1.822-4.809,1.47-7.498
		c-0.425-3.242-2.071-6.105-4.638-8.06c-2.565-1.954-5.758-2.78-8.992-2.332C6.934,0.731,3.883,2.664,1.983,5.558
		c-1.902,2.898-2.462,6.472-1.537,9.807c1.372,4.944,5.737,8.48,10.861,8.797c2.576,0.157,4.937-0.445,7.214-1.846l0.07-0.043
		l0.466,0.496c0.505,0.534,1.01,1.07,1.514,1.604c1.208,1.282,2.458,2.608,3.699,3.9c0.882,0.919,1.79,1.494,2.776,1.756
		c0.834,0.222,1.588,0.086,2.066-0.374C29.583,29.204,29.748,28.473,29.564,27.649z M12.046,23.238c-0.003,0-0.006,0-0.009,0
		c-2.955-0.002-5.738-1.16-7.834-3.261s-3.248-4.884-3.243-7.839c0.005-2.951,1.167-5.73,3.273-7.824
		c2.1-2.089,4.879-3.238,7.826-3.238c0.008,0,0.015,0,0.022,0c6.085,0.013,11.036,4.983,11.038,11.079
		c0,2.962-1.153,5.747-3.25,7.842C17.776,22.088,14.999,23.238,12.046,23.238z M28.463,28.915c-0.149,0.16-0.374,0.306-0.7,0.306
		c-0.23,0-0.51-0.073-0.849-0.263c-0.633-0.356-1.351-0.76-1.898-1.314c-1.387-1.406-2.823-2.934-4.21-4.41
		c-0.436-0.464-0.867-0.922-1.291-1.372l-0.069-0.073l0.073-0.069c0.01-0.01,0.038-0.034,0.079-0.071
		c0.171-0.149,0.623-0.547,1.034-0.963c0.34-0.342,0.65-0.698,0.835-0.91c0.081-0.091,0.135-0.153,0.154-0.171l0.077-0.073
		l0.068,0.08c0.043,0.05,0.378,0.404,0.84,0.894c1.155,1.223,3.305,3.5,4.438,4.772c0.582,0.653,1.043,1.438,1.43,2.124
		C28.672,27.749,28.934,28.41,28.463,28.915z"/>
	<path d="M9.628,19.114c-0.047-0.13-0.179-0.241-0.418-0.351l-0.086-0.037c-0.051-0.022-0.102-0.043-0.151-0.069
		c-2.729-1.401-4.13-3.993-4.12-6.921c0.01-2.907,1.413-4.688,4.126-6.074c0.053-0.027,0.11-0.05,0.167-0.074
		C9.264,5.541,9.354,5.473,9.43,5.424c0.146-0.095,0.223-0.375,0.134-0.55c-0.059-0.117-0.199-0.228-0.357-0.27
		c-0.137-0.031-0.355,0.06-0.506,0.134c-2.951,1.439-4.652,3.857-4.79,6.805C3.917,15.3,5.789,18.4,8.797,19.634
		c0.424,0.176,0.646,0.127,0.788-0.174C9.649,19.325,9.663,19.212,9.628,19.114z"/>
</g>
</svg>
