<?xml version="1.0" encoding="utf-8"?>
<!-- Generator: Adobe Illustrator 22.0.1, SVG Export Plug-In . SVG Version: 6.00 Build 0)  -->
<svg version="1.1" id="Слой_1" xmlns="http://www.w3.org/2000/svg" xmlns:xlink="http://www.w3.org/1999/xlink" x="0px" y="0px"
	 viewBox="0 0 30.005 30.03" style="enable-background:new 0 0 30.005 30.03;" xml:space="preserve">
<g>
	<path d="M6.203,2.827c-0.105,0-0.205,0.041-0.279,0.115v0.001L0.12,8.747c-0.154,0.154-0.154,0.405,0,0.56l20.595,20.593
		c0.074,0.075,0.173,0.116,0.279,0.116c0.105,0,0.205-0.041,0.28-0.116l5.803-5.803c0.155-0.154,0.155-0.405,0-0.559L6.483,2.943
		C6.408,2.868,6.309,2.827,6.203,2.827z M7.25,7.636C7.403,7.787,7.654,7.79,7.809,7.635l1.124-1.123l1.6,1.6L9.41,9.236
		c-0.154,0.154-0.154,0.405,0,0.56C9.563,9.947,9.814,9.95,9.969,9.795l1.124-1.123l1.612,1.612l-2.033,2.035
		c-0.075,0.074-0.116,0.173-0.116,0.279c0,0.105,0.041,0.205,0.116,0.28c0.154,0.154,0.404,0.154,0.56,0l2.033-2.034l1.6,1.6
		l-1.123,1.124c-0.154,0.154-0.154,0.405,0,0.56c0.153,0.151,0.404,0.154,0.559-0.001l1.124-1.123l1.604,1.604l-1.123,1.124
		c-0.154,0.154-0.154,0.405,0,0.56c0.075,0.074,0.174,0.115,0.28,0.115c0.105,0,0.205-0.041,0.279-0.115l1.124-1.124l1.588,1.588
		l-2.034,2.034c-0.154,0.154-0.154,0.405,0,0.559c0.075,0.075,0.174,0.116,0.28,0.116c0.105,0,0.205-0.041,0.279-0.115l2.035-2.034
		l1.6,1.6l-1.123,1.124c-0.075,0.074-0.116,0.173-0.116,0.279c0,0.105,0.041,0.205,0.116,0.28c0.155,0.155,0.405,0.153,0.56,0
		l1.123-1.123l1.6,1.6l-1.123,1.124c-0.075,0.074-0.116,0.173-0.116,0.279c0,0.105,0.041,0.205,0.116,0.28
		c0.155,0.155,0.405,0.153,0.56,0l1.123-1.123l2.17,2.17l-0.124,0.125l-5.12,5.12l-0.125-0.124L0.959,9.026l0.124-0.125l5.12-5.12
		l2.171,2.171L7.25,7.077C7.097,7.23,7.097,7.482,7.25,7.636z"/>
	<path d="M25.982,18.595l3.526,0.946c0.215,0.055,0.428-0.07,0.484-0.281c0.018-0.067,0.018-0.137,0-0.203l-0.947-3.526
		c-0.056-0.211-0.273-0.337-0.485-0.28c-0.067,0.019-0.129,0.054-0.178,0.104l-1.011,1.01l-0.125-0.124L13.655,2.648l1.014-1.015
		c0.154-0.154,0.154-0.405,0-0.56c-0.066-0.065-0.156-0.106-0.249-0.113l-3.457-0.932c-0.207-0.054-0.427,0.07-0.483,0.281
		c-0.018,0.066-0.018,0.136,0,0.203l0.946,3.527c0.056,0.209,0.269,0.332,0.485,0.279c0.068-0.019,0.129-0.054,0.177-0.103
		l1.012-1.011l0.125,0.124l13.592,13.593l-1.01,1.011c-0.076,0.075-0.117,0.173-0.118,0.28c0,0.105,0.04,0.205,0.115,0.28
		C25.853,18.54,25.914,18.576,25.982,18.595z M12.012,3.171l-0.59-2.204l2.204,0.59L12.012,3.171z M28.462,16.394l0.592,2.205
		l-2.205-0.591L28.462,16.394z"/>
</g>
</svg>
