<?xml version="1.0" encoding="utf-8"?>
<!-- Generator: Adobe Illustrator 22.0.1, SVG Export Plug-In . SVG Version: 6.00 Build 0)  -->
<svg version="1.1" id="Слой_1" xmlns="http://www.w3.org/2000/svg" xmlns:xlink="http://www.w3.org/1999/xlink" x="0px" y="0px"
	 viewBox="0 0 29.971 30.03" style="enable-background:new 0 0 29.971 30.03;" xml:space="preserve">
<g>
	<g>
		<path d="M17.788,5.161c0,0,0.001,0,0.002,0c1.282-0.001,2.35-0.927,2.54-2.201c0.18-1.212-0.591-2.419-1.794-2.806
			c-0.087-0.029-0.5-0.14-0.793-0.14c-0.343,0-0.623,0.113-0.712,0.142c-1.201,0.392-1.986,1.626-1.785,2.808
			C15.465,4.258,16.51,5.161,17.788,5.161z M17.781,0.984c0.001,0,0.001,0,0.002,0c0.447,0,0.859,0.167,1.162,0.471
			c0.302,0.303,0.467,0.716,0.465,1.162c-0.002,0.444-0.175,0.858-0.488,1.164c-0.303,0.298-0.705,0.461-1.133,0.461
			c-0.008,0-0.017,0-0.026,0c-0.442-0.007-0.849-0.183-1.148-0.495c-0.299-0.312-0.459-0.73-0.452-1.175
			C16.18,1.668,16.875,0.986,17.781,0.984z"/>
		<path d="M12.184,5.161c0,0,0.001,0,0.002,0c1.282-0.001,2.35-0.927,2.54-2.201c0.18-1.212-0.591-2.419-1.794-2.806
			c-0.087-0.029-0.5-0.14-0.793-0.14c-0.343,0-0.623,0.113-0.712,0.142c-1.201,0.392-1.986,1.626-1.785,2.808
			C9.86,4.258,10.906,5.161,12.184,5.161z M12.177,0.984c0.001,0,0.001,0,0.002,0c0.447,0,0.859,0.167,1.162,0.471
			c0.302,0.303,0.467,0.716,0.465,1.162c-0.002,0.444-0.175,0.858-0.488,1.164c-0.303,0.298-0.705,0.461-1.133,0.461
			c-0.008,0-0.017,0-0.026,0c-0.442-0.007-0.849-0.183-1.148-0.495c-0.299-0.312-0.459-0.73-0.452-1.175
			C10.576,1.668,11.271,0.986,12.177,0.984z"/>
		<path d="M29.806,22.117c-0.222-1.353-0.658-2.301-1.417-3.074c-1.003-1.026-1.943-2.143-2.853-3.223l-0.349-0.414
			c-0.205-0.244-0.344-0.617-0.352-0.949c-0.001-0.044,0-0.036-0.001-0.08c0,0,2.634,0.031,2.765,0.022
			c0.191-0.008,0.445-0.08,0.444-0.602c-0.001-0.927-0.001-1.853-0.001-2.781c0-1.308,0.001-2.617-0.003-3.925
			c-0.001-0.475-0.158-0.612-0.698-0.612c-8.231,0-16.463,0-24.693,0c-0.594,0-0.723,0.133-0.725,0.75
			C1.92,8.09,1.921,8.952,1.922,9.812l0,0.796c0,0.265-0.001,0.529-0.003,0.794c-0.004,0.727-0.009,1.479,0.021,2.216
			c0.008,0.195,0.179,0.439,0.336,0.571c0.155,0.228,2.852,0.136,2.852,0.136c-0.001,0.074,0,0.148-0.001,0.223
			c-0.005,0.282-0.126,0.61-0.301,0.814L4.529,15.71c-0.954,1.12-1.999,2.227-2.971,3.365c-0.744,0.872-1.048,1.462-1.282,2.48
			c-0.582,2.528-0.181,4.404,1.263,5.905c1.541,1.601,3.555,2.47,5.824,2.511c2.959,0.054,5.971,0.046,8.882,0.038
			c1.861-0.006,3.785-0.011,5.679,0.001c1.071,0.015,2.097-0.164,3.168-0.52C28.765,28.267,30.395,25.717,29.806,22.117z
			 M2.856,13.324c0.012-1.308,0.012-2.634,0.01-3.919L2.866,7.435h24.238l0,5.889h-2.274c-0.004-0.597-0.013-1.197-0.01-1.78
			c0.001-0.4,0.002-0.8,0.002-1.199c-0.001-0.663-0.093-0.754-0.753-0.755H11.983H5.916C5.242,9.591,5.141,9.695,5.14,10.384
			c0,0.407,0,0.813,0.001,1.22c0.001,0.563-0.005,1.143-0.008,1.72H2.856z M25.923,28.142c-1.295,0.624-2.556,0.928-3.85,0.928
			c-0.018,0-0.035,0-0.054,0c-2.088-0.015-4.211-0.011-6.265-0.007c-2.753,0.005-5.598,0.01-8.398-0.029
			c-1.937-0.027-3.695-0.771-5.087-2.151c-1.219-1.208-1.577-2.783-1.128-4.956c0.19-0.916,0.578-1.525,1.157-2.29
			c0.636-0.84,1.426-1.578,2.107-2.362C4.838,16.778,5.27,16.28,5.71,15.79c0.273-0.305,0.388-0.6,0.382-0.986
			c-0.015-0.986-0.012-1.958-0.01-2.986l0.002-1.325l4.143,0.001c4.231,0.002,8.604,0.002,12.906-0.012c0.003,0,0.005,0,0.008,0
			c0.232,0,0.466,0.022,0.613,0.172c0.116,0.119,0.164,0.299,0.155,0.584c-0.022,0.677-0.018,1.367-0.015,2.034
			c0.003,0.5,0.005,1-0.002,1.499c-0.006,0.419,0.109,0.73,0.386,1.039c0.261,0.291,0.524,0.581,0.788,0.871
			c1.026,1.132,2.087,2.301,3.037,3.527c0.506,0.653,0.708,1.603,0.815,2.26C29.343,25.072,28.336,26.981,25.923,28.142z"/>
	</g>
	<path d="M14.754,21.784c0.022,0.002,0.157,0.013,0.369,0.013c0.775,0,2.233-0.145,3.292-1.113c0.769-0.702,1.158-1.68,1.158-2.908
		c0-1.228-0.39-2.207-1.158-2.908c-1.344-1.229-3.364-1.12-3.612-1.102h-3.249v6.785h-1.508v1.235h1.508v1.027h-1.508v1.235h1.508
		v2.262h1.235v-2.262h2.639v-1.235h-2.639v-1.028L14.754,21.784z M12.788,20.551V15l2.078-0.002c0.015-0.004,1.711-0.138,2.717,0.78
		c0.502,0.458,0.756,1.13,0.756,1.998c0,0.865-0.253,1.536-0.753,1.994c-0.992,0.909-2.684,0.788-2.776,0.78H12.788z"/>
</g>
</svg>
