<?xml version="1.0" encoding="utf-8"?>
<!-- Generator: Adobe Illustrator 22.0.1, SVG Export Plug-In . SVG Version: 6.00 Build 0)  -->
<svg version="1.1" id="Слой_1" xmlns="http://www.w3.org/2000/svg" xmlns:xlink="http://www.w3.org/1999/xlink" x="0px" y="0px"
	 viewBox="0 0 29.571 29.988" style="enable-background:new 0 0 29.571 29.988;" xml:space="preserve">
<g>
	<path d="M28.809,24.199c-1.757-1.761-3.652-3.65-5.604-5.542c-0.174-0.169-0.404-0.285-0.649-0.408
		c-0.153-0.078-0.311-0.158-0.458-0.253c-0.185-0.121-0.404-0.287-0.473-0.504c-0.231-0.745-0.607-1.228-1.087-1.399
		c-0.446-0.158-0.985-0.04-1.555,0.339L18.882,16.5l-1.538-1.492l0.32-0.334l0.701-0.675c1.21-1.166,2.424-2.335,3.647-3.492
		c0.147-0.137,0.404-0.122,0.608-0.108c0.229,0.015,0.441,0.043,0.653,0.072c0.391,0.053,0.761,0.1,1.118,0.06
		c2.386-0.292,4.12-1.936,4.524-4.289c0.112-0.654,0.093-1.406-0.058-2.175c-0.056-0.287-0.17-0.471-0.32-0.516
		c-0.177-0.049-0.407,0.061-0.649,0.306c-0.407,0.411-0.819,0.819-1.229,1.226c-0.357,0.354-0.714,0.708-1.069,1.064
		c-0.309,0.312-0.68,0.405-1.135,0.283c-0.698-0.185-1.2-0.562-1.533-1.15c-0.477-0.844-0.408-1.405,0.253-2.072
		c0.377-0.381,0.762-0.754,1.147-1.127c0.331-0.321,0.661-0.641,0.987-0.967c0.125-0.124,0.265-0.311,0.23-0.494
		c-0.037-0.186-0.242-0.308-0.406-0.377c-0.176-0.074-0.356-0.131-0.55-0.183c-0.264-0.071-0.941-0.058-1.503,0.042
		c-3.177,0.567-5.006,3.202-4.452,6.381c0.046,0.266-0.107,0.614-0.274,0.783c-1.093,1.113-2.22,2.228-3.309,3.306l-0.212,0.21
		l-0.003-0.003l-0.831,0.804l-0.201,0.176l-0.252-0.24c-0.1-0.095-0.192-0.182-0.282-0.272l-1.733-1.737
		C10.469,8.448,9.41,7.386,8.347,6.325C8.059,6.037,7.795,5.737,7.74,5.245C7.715,5.011,7.557,4.714,7.337,4.488
		C6.659,3.789,5.945,3.1,5.254,2.436L4.803,1.999C4.578,1.781,4.354,1.776,4.142,1.981C3.22,2.869,2.306,3.774,1.532,4.542
		C1.31,4.762,1.302,4.984,1.508,5.2l0.275,0.29c0.722,0.762,1.469,1.549,2.238,2.283C4.175,7.92,4.398,8.008,4.634,8.101
		c0.115,0.046,0.231,0.092,0.339,0.145c0.065,0.032,0.135,0.059,0.204,0.086C5.35,8.4,5.529,8.47,5.664,8.604
		c1.56,1.538,3.134,3.114,4.656,4.639l0.6,0.6c0.071,0.071,0.135,0.149,0.185,0.208l0.136,0.158l-0.934,0.958
		c-1.141,1.171-2.22,2.277-3.334,3.396c-0.192,0.19-0.6,0.125-0.645,0.116c-1.841-0.328-3.372,0.078-4.552,1.218
		c-1.442,1.393-2.001,3.059-1.66,4.953c0.046,0.257,0.256,0.567,0.468,0.691c0.188,0.109,0.327-0.005,0.58-0.274l0.091-0.097
		c0.288-0.294,0.578-0.587,0.867-0.88c0.422-0.428,0.844-0.856,1.264-1.287c0.342-0.35,0.779-0.458,1.198-0.301
		c0.329,0.125,0.806,0.329,1.157,0.648c0.824,0.749,0.894,1.686,0.189,2.507c-0.609,0.71-1.245,1.417-1.86,2.099l-0.056,0.062
		c-0.189,0.211-0.271,0.412-0.232,0.567c0.046,0.181,0.251,0.286,0.414,0.343c0.45,0.156,0.846,0.218,1.196,0.209
		c1.705-0.09,3.234-0.922,4.196-2.283c0.882-1.249,1.176-2.778,0.787-4.09c-0.146-0.491,0.054-0.771,0.291-1.001
		c0.827-0.806,1.645-1.62,2.463-2.435c0.306-0.305,0.614-0.61,0.921-0.915l0.664-0.633l1.567,1.488l-0.072,0.107
		c-0.409,0.604-0.54,1.164-0.376,1.623c0.17,0.474,0.649,0.84,1.389,1.059c0.207,0.061,0.366,0.275,0.493,0.477
		c0.085,0.134,0.155,0.279,0.222,0.42c0.103,0.216,0.2,0.42,0.345,0.567c2.168,2.202,3.997,4.04,5.876,5.85
		c0.709,0.686,1.616,0.801,2.548,0.333c1.219-0.613,2.109-1.568,2.646-2.836C29.77,25.876,29.589,24.977,28.809,24.199z
		 M9.084,10.786c-0.99-0.989-1.981-1.979-2.97-2.969C5.817,7.52,5.569,7.344,5.153,7.364C4.976,7.384,4.74,7.269,4.471,7.036
		C3.968,6.599,3.475,6.15,3.006,5.725L2.388,5.163l2.207-2.315l0.412,0.433c0.565,0.594,1.146,1.205,1.72,1.82
		C6.82,5.198,6.913,5.368,6.91,5.528C6.9,6.072,7.21,6.422,7.648,6.857c1.254,1.241,2.5,2.489,3.746,3.738
		c0.593,0.594,1.187,1.189,1.782,1.783l-1.27,1.229C10.965,12.666,10.025,11.726,9.084,10.786z M9.621,21.614
		c-0.144,0.149-0.205,0.496-0.191,0.764c0.014,0.243,0.065,0.493,0.114,0.737c0.062,0.307,0.126,0.624,0.122,0.944
		c-0.026,2.013-1.844,3.968-3.89,4.184c-0.068,0.006-0.141,0.003-0.24-0.005c-0.045-0.003-0.098-0.008-0.16-0.011L5.07,28.212
		l0.595-0.699c0.314-0.368,0.611-0.716,0.903-1.067c0.987-1.187,0.957-2.427-0.087-3.588c-0.561-0.624-1.285-0.988-2.153-1.082
		c-0.528-0.059-1.016,0.107-1.385,0.477c-0.382,0.384-0.756,0.789-1.117,1.182c-0.165,0.18-0.33,0.359-0.496,0.537l-0.084,0.09
		l-0.32-0.193l-0.005-0.079c-0.003-0.036-0.007-0.071-0.012-0.107c-0.011-0.09-0.023-0.19-0.007-0.293
		c0.217-1.373,0.915-2.559,1.918-3.253c0.913-0.631,2.029-0.835,3.22-0.589c0.774,0.155,1.258,0.003,1.795-0.568
		c0.942-1,1.939-1.977,2.902-2.922c0.431-0.423,5.001-4.962,5.001-4.962c1.155-1.148,2.349-2.336,3.539-3.489
		c0.353-0.343,0.426-0.623,0.28-1.072c-0.397-1.217-0.182-2.595,0.576-3.686c0.808-1.165,2.114-1.843,3.678-1.908l0.383-0.017
		l-0.709,0.72c-0.29,0.293-0.563,0.57-0.833,0.85c-1.227,1.271-1.202,2.709,0.071,3.947c0.541,0.525,1.188,0.823,1.924,0.886
		c0.614,0.05,1.109-0.121,1.522-0.531c0.367-0.363,0.74-0.721,1.147-1.112l0.906-0.873l-0.033,0.4
		c-0.123,1.516-0.543,2.526-1.36,3.27c-1.259,1.147-2.633,1.497-4.089,1.041c-0.543-0.171-0.938-0.064-1.369,0.365
		c-1.102,1.093-2.242,2.184-3.344,3.239c-0.146,0.139-4.111,4.201-4.111,4.201C12.499,18.722,11.033,20.167,9.621,21.614z
		 M28.514,26.64c-0.455,0.987-1.163,1.744-2.105,2.25c-0.271,0.146-0.529,0.219-0.774,0.219c-0.358,0-0.692-0.155-1.006-0.466
		c-1.634-1.611-3.667-3.616-5.578-5.576c-0.239-0.244-0.407-0.638-0.5-1.172c-0.085-0.474-0.214-0.601-0.69-0.671
		c-0.36-0.053-0.705-0.21-1.025-0.372c-0.134-0.068-0.215-0.163-0.24-0.28c-0.03-0.139,0.024-0.288,0.162-0.457
		c0.748-0.909,0.748-0.909-0.081-1.725c-0.197-0.195-0.389-0.387-0.58-0.579c-0.244-0.244-0.489-0.486-0.736-0.728l1.348-1.41
		c0.323,0.328,0.646,0.657,0.97,0.984l0.664,0.674c0.414,0.419,0.565,0.418,1.007,0.015c0.02-0.019,0.037-0.036,0.062-0.051
		c0.066-0.039,0.146-0.092,0.227-0.144c0.35-0.23,0.481-0.314,0.593-0.193c0.224,0.242,0.489,0.564,0.555,0.914l0.013,0.069
		c0.141,0.748,0.141,0.748,0.923,0.894c0.346,0.065,0.682,0.242,0.914,0.469c1.417,1.386,2.822,2.784,4.228,4.182l1.338,1.329
		C28.72,25.328,28.827,25.959,28.514,26.64z"/>
	<path d="M25.577,26.525c-1.573-1.583-3.201-3.22-4.832-4.797l-0.034-0.034c-0.065-0.066-0.112-0.109-0.173-0.109
		c-0.081,0-0.2,0.074-0.334,0.209c-0.082,0.081-0.121,0.165-0.12,0.255c0.002,0.137,0.094,0.295,0.275,0.468
		c1.556,1.557,3.097,3.099,4.639,4.639c0.389,0.397,0.584,0.303,0.714,0.181h0.001c0.14-0.133,0.215-0.257,0.216-0.357
		c0.001-0.104-0.077-0.179-0.129-0.229L25.577,26.525z"/>
	<path d="M26.839,25.263c-1.574-1.583-3.201-3.22-4.832-4.797l-0.034-0.033c-0.065-0.067-0.112-0.11-0.172-0.11
		c-0.001,0-0.001,0-0.001,0c-0.081,0-0.199,0.074-0.333,0.208c-0.082,0.082-0.121,0.165-0.12,0.255
		c0.001,0.136,0.093,0.294,0.272,0.467c1.558,1.559,3.099,3.1,4.641,4.641c0.388,0.397,0.585,0.305,0.715,0.181
		c0.141-0.132,0.216-0.257,0.216-0.357c0.001-0.104-0.077-0.179-0.129-0.229L26.839,25.263z"/>
</g>
</svg>
