<svg id="companies.svg" xmlns="http://www.w3.org/2000/svg" width="50" height="50" viewBox="0 0 50 50">
  <defs>
    <style>
      .cls-1, .cls-2 {
        fill: #fff;
        fill-rule: evenodd;
      }

      .cls-1 {
        opacity: 0.9;
      }
    </style>
  </defs>
  <path id="Rounded_Rectangle_834_copy_5" data-name="Rounded Rectangle 834 copy 5" class="cls-1" d="M398.5,300a3.5,3.5,0,1,1,3.5-3.5A3.5,3.5,0,0,1,398.5,300Zm10-10a3.5,3.5,0,1,1,3.5-3.5A3.5,3.5,0,0,1,408.5,290ZM427,327a2,2,0,0,1-2,2H385a2,2,0,0,1-2-2V307h15v2H385v16a2,2,0,0,0,2,2h36a2,2,0,0,0,2-2V309H412v-2h15v20Zm-16.5-25a3.491,3.491,0,0,1,3.45,3h-6.9A3.491,3.491,0,0,1,410.5,302Z" transform="translate(-380 -281)"/>
  <path id="Rounded_Rectangle_834_copy_4" data-name="Rounded Rectangle 834 copy 4" class="cls-2" d="M418.781,288h1a0.992,0.992,0,0,1,.752.347h0.021L426.7,296h-2.435l-6.427-8h0.94Zm-29.533.347A0.992,0.992,0,0,1,390,288h1.941l-6.428,8h-2.435l6.149-7.653h0.021Zm40.474,7.885a0.8,0.8,0,0,0-.408-0.175l-7.3-9.09a0.956,0.956,0,0,0-.237-0.195,2.893,2.893,0,0,0-2.618-.7,1,1,0,0,0-.375-0.074H416v2h0v0.9l5.7,7.1H407a1,1,0,0,0,0,2h16.675a0.861,0.861,0,0,0,.088,0h3.2l-5.48,7H415.95a5.47,5.47,0,0,0-10.9,0H388.488l-5.444-7h2.974a0.861,0.861,0,0,0,.088,0H390a1,1,0,0,0,0-2h-1.922l6.149-7.653h0.021A0.992,0.992,0,0,1,395,288h5a1,1,0,0,0,0-2h-9a1,1,0,0,0-.375.074,2.893,2.893,0,0,0-2.618.7,0.974,0.974,0,0,0-.237.195l-7.327,9.12a0.8,0.8,0,0,0-.166.114,0.921,0.921,0,0,0-.277.784V281h28.5a5.5,5.5,0,1,0,5.5,5.5,5.5,5.5,0,0,0-5.5-5.5H430v15.848A0.893,0.893,0,0,0,429.722,296.232ZM398.5,291a5.5,5.5,0,1,0,5.5,5.5A5.5,5.5,0,0,0,398.5,291Zm-18.179,6.75,5.64,7.25H381v22a4,4,0,0,0,4,4h-5V297.032A0.978,0.978,0,0,0,380.321,297.75ZM410,319H400V307h10v12Zm-5-9a1.994,1.994,0,0,0-1,3.723V315a1,1,0,0,0,2,0v-1.277A1.994,1.994,0,0,0,405,310Zm18,1v14H387V311h11v8a2,2,0,0,0,2,2h10a2,2,0,0,0,2-2v-8h11Zm6,16V305h-4.977l5.655-7.225a1.279,1.279,0,0,0,.322-0.728V331h-5A4,4,0,0,0,429,327Z" transform="translate(-380 -281)"/>
</svg>
