<?xml version="1.0" encoding="utf-8"?>
<!-- Generator: Adobe Illustrator 22.0.1, SVG Export Plug-In . SVG Version: 6.00 Build 0)  -->
<svg version="1.1" id="Layer_1" xmlns="http://www.w3.org/2000/svg" xmlns:xlink="http://www.w3.org/1999/xlink" x="0px" y="0px"
	 viewBox="0 0 90 90" style="enable-background:new 0 0 90 90;" xml:space="preserve">
<style type="text/css">
	.st0{fill-rule:evenodd;clip-rule:evenodd;fill:#CE171F;}
	.st1{fill-rule:evenodd;clip-rule:evenodd;fill:#670000;}
	.st2{fill-rule:evenodd;clip-rule:evenodd;fill:#F6F6F6;}
</style>
<g>
	<g>
		<g>
			<polygon class="st0" points="0,0 90,0 90,90 0,90 0,0 			"/>
		</g>
		<g>
			<g>
				<path class="st1" d="M60.1,56.1l0-0.1c0-0.4,0.1-0.6,0.3-0.9c0.2-0.2,0.3-0.4,0.5-0.5c0.2-0.1,0.3-0.2,0.4-0.2l2.3-1
					c0.1,0,0.2-0.1,0.2-0.2c0-0.1,0-0.1,0-0.1l-0.4-0.8c0-0.1-0.1-0.1-0.2-0.1c-0.1,0-0.1,0-0.2,0.1l-2,0.9
					c-0.4,0.2-0.8,0.5-1.1,0.8c-0.3,0.3-0.5,0.7-0.6,1c-0.1,0.3-0.2,0.6-0.2,1c0,0.4,0,0.7-0.1,1.1c0,0.4,0,0.7,0.1,1.1
					c0,0.4,0.1,0.8,0.3,1.1c0.2,0.4,0.4,0.7,0.7,0.8c0.3,0.2,0.5,0.3,0.8,0.4c0.2,0.1,0.5,0.1,0.6,0.1c0.4,0,0.8-0.1,1.2-0.3
					c0.4-0.2,0.6-0.5,0.9-0.9c0.2-0.4,0.3-0.9,0.3-1.6c0-0.9-0.2-1.5-0.6-2c-0.4-0.5-0.9-0.7-1.5-0.7c-0.4,0-0.7,0.1-1,0.2
					C60.5,55.6,60.3,55.8,60.1,56.1L60.1,56.1L60.1,56.1z M61.5,59.6c-0.3,0-0.5-0.1-0.6-0.3c-0.1-0.2-0.2-0.4-0.2-0.7
					c0-0.3,0-0.5,0-0.7c0-0.2,0-0.5,0-0.7c0-0.3,0.1-0.5,0.2-0.6c0.1-0.2,0.3-0.3,0.6-0.3c0.3,0,0.5,0.1,0.6,0.3
					c0.1,0.2,0.2,0.4,0.2,0.6c0,0.3,0,0.5,0,0.7c0,0.2,0,0.5,0,0.7c0,0.3-0.1,0.5-0.2,0.7C62,59.5,61.8,59.6,61.5,59.6L61.5,59.6z"
					/>
				<path class="st1" d="M48,60.5c0,0,0.1,0,0.1,0c0,0,0.1-0.1,0.1-0.1l0.1-3.5h0c0.1,0.2,0.1,0.4,0.2,0.6c0.1,0.2,0.1,0.4,0.2,0.6
					l0.6,1.6c0,0.1,0.1,0.1,0.1,0.1c0,0,0.1,0,0.1,0l0.6,0c0,0,0.1,0,0.1,0c0,0,0.1,0,0.1-0.1l0.6-1.6c0.1-0.2,0.1-0.4,0.2-0.6
					c0.1-0.2,0.1-0.4,0.2-0.6h0l0.1,3.5c0,0.1,0,0.1,0.1,0.1c0,0,0.1,0,0.1,0h0.7c0.1,0,0.2,0,0.2,0c0,0,0-0.1,0-0.1l-0.3-5
					c0-0.1,0-0.1-0.1-0.2c0,0-0.1,0-0.1,0l-0.9,0c0,0-0.1,0-0.1,0c0,0-0.1,0-0.1,0.1l-0.8,2.3c-0.1,0.2-0.1,0.4-0.2,0.6
					c-0.1,0.2-0.1,0.4-0.1,0.6h0c0-0.1-0.1-0.3-0.1-0.6c-0.1-0.2-0.1-0.4-0.2-0.6l-0.8-2.3c0-0.1-0.1-0.1-0.1-0.1c0,0-0.1,0-0.1,0
					l-0.9,0c0,0-0.1,0-0.1,0c0,0-0.1,0.1-0.1,0.2l-0.3,5c0,0,0,0.1,0,0.1c0,0,0.1,0,0.2,0L48,60.5L48,60.5z"/>
				<path class="st1" d="M57.9,58.2c0.1,0,0.1,0,0.2,0c0,0,0.1-0.1,0.1-0.3c0-0.1,0-0.3,0-0.5c0-0.2,0-0.4-0.1-0.6
					c-0.1-0.3-0.2-0.6-0.3-0.8c-0.1-0.3-0.4-0.5-0.6-0.7C56.8,55,56.4,55,56,54.9c-0.8,0-1.4,0.3-1.8,0.8c-0.4,0.6-0.6,1.3-0.6,2.1
					c0,0.2,0,0.4,0.1,0.7c0,0.3,0.1,0.6,0.3,0.9c0.2,0.3,0.4,0.6,0.7,0.8c0.3,0.2,0.8,0.3,1.4,0.3c0.3,0,0.6,0,0.9-0.1
					c0.3-0.1,0.6-0.2,0.8-0.3c0,0,0.1-0.1,0.1-0.1c0,0,0-0.1,0.1-0.1c0,0,0,0,0,0c0,0,0,0,0-0.1l-0.3-0.6c0,0,0,0,0-0.1
					c0,0,0,0-0.1,0c0,0-0.1,0-0.1,0c0,0-0.1,0-0.2,0.1c-0.1,0.1-0.2,0.1-0.4,0.2c-0.2,0.1-0.4,0.1-0.7,0.1c-0.4,0-0.8-0.1-0.9-0.4
					c-0.2-0.2-0.3-0.6-0.3-1L57.9,58.2L57.9,58.2z M55,57.2c0-0.4,0.1-0.7,0.3-0.9c0.1-0.2,0.4-0.3,0.7-0.3c0.2,0,0.4,0.1,0.5,0.2
					c0.1,0.1,0.2,0.3,0.2,0.5c0,0,0,0.1,0,0.2c0,0.1,0,0.2,0,0.4L55,57.2L55,57.2z"/>
				<path class="st1" d="M69,58.2c0.1,0,0.1,0,0.2,0c0,0,0.1-0.1,0.1-0.3c0-0.1,0-0.3,0-0.5c0-0.2,0-0.4-0.1-0.6
					c-0.1-0.3-0.2-0.6-0.3-0.8c-0.1-0.3-0.4-0.5-0.6-0.7c-0.3-0.2-0.6-0.3-1.1-0.3c-0.8,0-1.4,0.3-1.8,0.8c-0.4,0.6-0.6,1.3-0.6,2.1
					c0,0.2,0,0.4,0.1,0.7c0,0.3,0.2,0.6,0.3,0.9c0.2,0.3,0.4,0.6,0.7,0.8c0.3,0.2,0.8,0.3,1.4,0.3c0.3,0,0.6,0,0.9-0.1
					c0.3-0.1,0.6-0.2,0.8-0.3c0,0,0.1-0.1,0.1-0.1c0,0,0.1-0.1,0.1-0.1c0,0,0,0,0,0c0,0,0,0,0-0.1l-0.3-0.6c0,0,0-0.1,0-0.1
					c0,0,0,0-0.1,0c0,0-0.1,0-0.1,0c0,0-0.1,0-0.2,0.1c-0.1,0.1-0.2,0.1-0.4,0.2c-0.2,0.1-0.4,0.1-0.7,0.1c-0.4,0-0.8-0.1-0.9-0.4
					c-0.2-0.2-0.3-0.6-0.3-1L69,58.2L69,58.2z M66.1,57.2c0-0.4,0.1-0.7,0.3-0.9c0.1-0.2,0.4-0.3,0.7-0.3c0.2,0,0.4,0.1,0.5,0.2
					c0.1,0.1,0.2,0.3,0.2,0.5c0,0,0,0.1,0,0.2c0,0.1,0,0.2,0,0.4L66.1,57.2L66.1,57.2z"/>
				<path class="st1" d="M73.3,56.3l0,4.1c0,0.1,0,0.1,0,0.1c0,0,0.1,0,0.1,0l1.1,0c0.1,0,0.1,0,0.1,0c0,0,0-0.1,0-0.1l0-5.1
					c0-0.1,0-0.1,0-0.1c0,0-0.1,0-0.1,0l-3.3,0c-0.1,0-0.1,0-0.1,0c0,0,0,0.1,0,0.1l0,0.5c0,0.2,0,0.5,0,0.9c0,0.4,0,0.7-0.1,1.1
					c0,0.4,0,0.7-0.1,0.9c-0.1,0.3-0.1,0.5-0.3,0.6c-0.1,0.1-0.3,0.2-0.5,0.2l-0.2,0c0,0-0.1,0-0.1,0c0,0,0,0.1,0,0.2l0.2,0.8
					c0,0,0,0.1,0.1,0.1c0,0,0.1,0,0.2,0.1c0.1,0,0.2,0,0.5-0.1c0.2,0,0.4-0.1,0.7-0.3c0.2-0.2,0.4-0.4,0.6-0.8
					c0.1-0.3,0.2-0.6,0.2-1.1c0.1-0.4,0.1-0.8,0.1-1.2c0-0.4,0-0.7,0-0.9v-0.1L73.3,56.3L73.3,56.3z"/>
				<path class="st1" d="M78,60.6c0.3,0,0.6,0,0.9-0.1c0.3,0,0.6-0.2,0.9-0.4c0.2-0.2,0.4-0.4,0.5-0.7c0.1-0.2,0.1-0.5,0.1-0.7
					c0-0.2,0-0.5-0.1-0.7c-0.1-0.2-0.2-0.4-0.4-0.6c-0.2-0.2-0.5-0.3-0.8-0.4c-0.3,0-0.6-0.1-0.9-0.1l-0.6,0l0-1.9
					c0-0.1,0-0.1-0.1-0.1c0,0-0.1,0-0.1,0l-0.8,0.2c-0.2,0-0.3,0.1-0.3,0.1c0,0-0.1,0.1,0,0.1l0,5c0,0.1,0,0.1,0,0.1
					c0,0,0.1,0,0.1,0L78,60.6L78,60.6z M77.6,58.2l0.7,0c0.1,0,0.2,0,0.3,0c0.1,0,0.2,0.1,0.3,0.2c0.1,0.1,0.2,0.2,0.2,0.5
					c0,0.3-0.1,0.5-0.3,0.6c-0.2,0.1-0.4,0.1-0.6,0.1l-0.5,0L77.6,58.2L77.6,58.2z"/>
			</g>
			<g>
				<path class="st1" d="M18.7,50.5l1.3,3.7l-5.5,0c2,5.2,13.6,3.6,19.9,3.7c-7.1-0.9-8.5-6-9.2-7.4L18.7,50.5L18.7,50.5z"/>
				<path class="st1" d="M31.6,32.7l0.5,0c0.4,0,0.4,0.1,0.4,0.5c0,0.3,0,0.4,0.1,0.5l0.6,0v-0.1c-0.1,0-0.1-0.1-0.1-0.5
					c0-0.5-0.1-0.5-0.3-0.6c0.2-0.1,0.4-0.3,0.4-0.6c0-0.2-0.1-0.7-0.8-0.7l-1.3,0l0,2.5l0.5,0L31.6,32.7L31.6,32.7z M31.6,31.6h0.6
					c0.3,0,0.4,0.2,0.4,0.3c0,0.2-0.1,0.3-0.4,0.3l-0.6,0L31.6,31.6L31.6,31.6z"/>
				<path class="st1" d="M30,32.4c0-0.6,0.2-1.1,0.6-1.5c0.4-0.4,0.9-0.6,1.5-0.6c0.6,0,1.1,0.2,1.5,0.6c0.4,0.4,0.6,0.9,0.6,1.5
					c0,1.1-0.9,2.1-2.1,2.1C30.9,34.5,30,33.6,30,32.4L30,32.4z M30.2,30.6c-0.5,0.5-0.8,1.1-0.8,1.8c0,1.4,1.2,2.6,2.6,2.6
					c1.4,0,2.6-1.2,2.6-2.6c0-0.7-0.3-1.4-0.8-1.8c-0.5-0.5-1.1-0.8-1.8-0.8C31.4,29.8,30.7,30.1,30.2,30.6L30.2,30.6z"/>
				<path class="st1" d="M33,48.9l-16.5-0.1l1.2,3.7l-4,0l-2.3-7.4l2.9,0l0.9,0l3.6-11.2l-2.4,0l-1.2-3.7l4.8,0l1.3,0l1.1,0l1.6,0
					l1.3,0l4.7,14.9l1.9,0L33,48.9L33,48.9z M19.1,45.1l6.8,0l-3.3-10.7L19.1,45.1L19.1,45.1z"/>
				<path class="st1" d="M60.6,35.7c1.5-3.1,4.7-5.2,8.4-5.2c5.1,0,9.3,4.2,9.2,9.3c0,5.1-4.2,9.3-9.3,9.2c-4.5,0-8.2-3.2-9.1-7.5
					c-1.3,2.1-3.6,3.5-6.3,3.6h-0.1l-1.3,0l0,3.8l-3.7,0l0-3.8l-1.4,0l-0.1,0c-0.8,0-1.5-0.1-2.2-0.4c0.2,0.7,0.3,1.5,0.3,2.3
					c0,5.1-4.2,9.3-9.3,9.2c-3.9,0-7.2-2.4-8.6-5.8l4.3,0c1,1.3,2.6,2.1,4.3,2.1c2.5,0,4.5-1.6,5.3-3.8l-6.2,0l-1.2-3.7l7.3,0
					c-0.8-2.1-2.8-3.7-5.2-3.7c-1.8,0-3.4,0.8-4.4,2.1l-1.2-4c1.6-1.2,3.5-1.9,5.6-1.9c1.4,0,2.8,0.3,4,0.9c0-0.3-0.1-0.6-0.1-1
					c0-1.4,0.4-2.6,1-3.7l-2.2,0l-1.2-3.7l9.8,0l6.4,0l0.8,0C57.3,30.7,59.8,32.9,60.6,35.7L60.6,35.7z M63.3,39.8
					c0,3.1,2.5,5.6,5.5,5.6c3.1,0,5.6-2.5,5.6-5.5c0-3.1-2.5-5.6-5.5-5.6C65.9,34.3,63.3,36.7,63.3,39.8L63.3,39.8z M52.2,34.1
					l0,7.4l1.3,0c2.1,0,3.7-1.6,3.7-3.7c0-2.1-1.6-3.7-3.7-3.7L52.2,34.1L52.2,34.1z M48.4,41.5l0-7.4l-1.4,0
					c-2.1,0-3.7,1.6-3.7,3.7c0,2.1,1.6,3.7,3.7,3.7L48.4,41.5L48.4,41.5z"/>
			</g>
		</g>
		<g>
			<g>
				<path class="st2" d="M59.8,55.8l0-0.1c0-0.3,0.1-0.6,0.3-0.9c0.2-0.2,0.3-0.4,0.5-0.5c0.2-0.1,0.3-0.2,0.4-0.2l2.3-1
					c0.1,0,0.2-0.1,0.2-0.2c0-0.1,0-0.1,0-0.1L63.1,52c0-0.1-0.1-0.1-0.2-0.1c-0.1,0-0.1,0-0.2,0.1l-2,0.9c-0.4,0.2-0.8,0.5-1.1,0.8
					c-0.3,0.3-0.5,0.7-0.6,1c-0.1,0.3-0.2,0.6-0.2,1c0,0.4,0,0.7-0.1,1.1c0,0.4,0,0.7,0.1,1.1c0,0.4,0.1,0.8,0.3,1.1
					c0.2,0.4,0.4,0.7,0.7,0.8c0.3,0.2,0.5,0.3,0.8,0.4c0.2,0.1,0.5,0.1,0.6,0.1c0.4,0,0.8-0.1,1.2-0.3c0.4-0.2,0.6-0.5,0.9-0.9
					c0.2-0.4,0.3-0.9,0.3-1.6c0-0.9-0.2-1.5-0.6-2c-0.4-0.5-0.9-0.7-1.5-0.7c-0.4,0-0.7,0.1-1,0.2C60.2,55.2,60,55.5,59.8,55.8
					L59.8,55.8L59.8,55.8z M61.2,59.3c-0.3,0-0.5-0.1-0.6-0.3c-0.1-0.2-0.2-0.4-0.2-0.7c0-0.3,0-0.5,0-0.7c0-0.2,0-0.5,0-0.7
					c0-0.3,0.1-0.5,0.2-0.6C60.7,56,61,56,61.2,56c0.3,0,0.5,0.1,0.6,0.3c0.1,0.2,0.2,0.4,0.2,0.6c0,0.3,0,0.5,0,0.7
					c0,0.2,0,0.5,0,0.7c0,0.3-0.1,0.5-0.2,0.7C61.7,59.2,61.5,59.3,61.2,59.3L61.2,59.3z"/>
				<path class="st2" d="M47.7,60.1c0,0,0.1,0,0.1,0c0,0,0.1-0.1,0.1-0.1l0.1-3.5h0c0.1,0.2,0.1,0.4,0.2,0.6
					c0.1,0.2,0.1,0.4,0.2,0.6l0.6,1.6c0,0.1,0.1,0.1,0.1,0.1c0,0,0.1,0,0.1,0l0.6,0c0,0,0.1,0,0.1,0c0,0,0.1,0,0.1-0.1l0.6-1.6
					c0.1-0.2,0.1-0.4,0.2-0.6c0.1-0.2,0.1-0.4,0.2-0.6h0l0.1,3.5c0,0.1,0,0.1,0.1,0.1c0,0,0.1,0,0.1,0l0.7,0c0.1,0,0.2,0,0.2,0
					c0,0,0-0.1,0-0.1l-0.3-5c0-0.1,0-0.1-0.1-0.2c0,0-0.1,0-0.1,0l-0.9,0c0,0-0.1,0-0.1,0c0,0-0.1,0-0.1,0.1l-0.8,2.3
					c-0.1,0.2-0.1,0.4-0.2,0.6c-0.1,0.2-0.1,0.4-0.1,0.6h0c0-0.1-0.1-0.3-0.1-0.5c-0.1-0.2-0.1-0.4-0.2-0.6l-0.8-2.3
					c0-0.1-0.1-0.1-0.1-0.1c0,0-0.1,0-0.1,0l-0.9,0c0,0-0.1,0-0.1,0c0,0-0.1,0.1-0.1,0.2l-0.3,5c0,0,0,0.1,0,0.1c0,0,0.1,0,0.2,0
					L47.7,60.1L47.7,60.1z"/>
				<path class="st2" d="M57.6,57.8c0.1,0,0.1,0,0.2,0c0,0,0.1-0.1,0.1-0.3c0-0.1,0-0.3,0-0.5c0-0.2,0-0.4-0.1-0.6
					c-0.1-0.3-0.2-0.6-0.3-0.8c-0.1-0.3-0.4-0.5-0.6-0.7c-0.3-0.2-0.6-0.3-1.1-0.3c-0.8,0-1.4,0.3-1.8,0.9c-0.4,0.6-0.6,1.3-0.6,2.1
					c0,0.2,0,0.4,0.1,0.7c0,0.3,0.1,0.6,0.3,0.9c0.2,0.3,0.4,0.6,0.7,0.8c0.3,0.2,0.8,0.3,1.4,0.3c0.3,0,0.6,0,0.9-0.1
					c0.3-0.1,0.6-0.2,0.8-0.3c0,0,0.1-0.1,0.1-0.1c0,0,0-0.1,0.1-0.1c0,0,0,0,0,0c0,0,0,0,0-0.1l-0.3-0.6c0,0,0-0.1,0-0.1
					c0,0,0,0-0.1,0c0,0-0.1,0-0.1,0c0,0-0.1,0-0.2,0.1c-0.1,0.1-0.2,0.1-0.4,0.2c-0.2,0.1-0.4,0.1-0.7,0.1c-0.4,0-0.8-0.1-0.9-0.4
					c-0.2-0.2-0.3-0.6-0.3-1L57.6,57.8L57.6,57.8z M54.7,56.8c0-0.4,0.1-0.7,0.3-0.9c0.1-0.2,0.4-0.3,0.7-0.3c0.2,0,0.4,0.1,0.5,0.2
					c0.1,0.1,0.2,0.3,0.2,0.5c0,0,0,0.1,0,0.2c0,0.1,0,0.2,0,0.4L54.7,56.8L54.7,56.8z"/>
				<path class="st2" d="M68.7,57.9c0.1,0,0.1,0,0.2,0c0,0,0.1-0.1,0.1-0.3c0-0.1,0-0.3,0-0.5c0-0.2,0-0.4-0.1-0.6
					c-0.1-0.3-0.2-0.6-0.3-0.8c-0.1-0.3-0.4-0.5-0.6-0.7c-0.3-0.2-0.6-0.3-1.1-0.3c-0.8,0-1.4,0.3-1.8,0.9c-0.4,0.6-0.6,1.3-0.6,2.1
					c0,0.2,0,0.4,0.1,0.7c0,0.3,0.1,0.6,0.3,0.9c0.2,0.3,0.4,0.6,0.7,0.8c0.3,0.2,0.8,0.3,1.4,0.3c0.3,0,0.6,0,0.9-0.1
					c0.3-0.1,0.6-0.2,0.8-0.3c0,0,0.1-0.1,0.1-0.1c0,0,0.1-0.1,0.1-0.1c0,0,0,0,0,0c0,0,0,0,0-0.1L68.5,59c0,0,0-0.1,0-0.1
					c0,0,0,0-0.1,0c0,0-0.1,0-0.1,0c0,0-0.1,0-0.2,0.1c-0.1,0.1-0.2,0.1-0.4,0.2c-0.2,0.1-0.4,0.1-0.7,0.1c-0.4,0-0.8-0.1-0.9-0.4
					c-0.2-0.2-0.3-0.6-0.3-1L68.7,57.9L68.7,57.9z M65.8,56.9c0-0.4,0.1-0.7,0.3-0.9c0.1-0.2,0.4-0.3,0.7-0.3c0.2,0,0.4,0.1,0.5,0.2
					c0.1,0.1,0.2,0.3,0.2,0.5c0,0,0,0.1,0,0.2c0,0.1,0,0.2,0,0.4L65.8,56.9L65.8,56.9z"/>
				<path class="st2" d="M73,55.9l0,4.1c0,0.1,0,0.1,0,0.1c0,0,0.1,0,0.1,0l1.1,0c0.1,0,0.1,0,0.1,0c0,0,0-0.1,0-0.1l0-5.1
					c0-0.1,0-0.1,0-0.1c0,0-0.1,0-0.1,0l-3.3,0c-0.1,0-0.1,0-0.1,0c0,0,0,0.1,0,0.1l0,0.5c0,0.2,0,0.5,0,0.9c0,0.4,0,0.7-0.1,1.1
					c0,0.4,0,0.7-0.1,0.9c-0.1,0.3-0.1,0.5-0.3,0.6c-0.1,0.1-0.3,0.2-0.5,0.2l-0.2,0c0,0-0.1,0-0.1,0c0,0,0,0.1,0,0.1l0.2,0.8
					c0,0,0,0.1,0.1,0.1c0,0,0.1,0,0.2,0.1c0.1,0,0.2,0,0.5-0.1c0.2,0,0.4-0.1,0.7-0.3c0.2-0.2,0.4-0.4,0.6-0.8
					c0.1-0.3,0.2-0.6,0.2-1.1C72,57.8,72,57.4,72,57c0-0.4,0-0.7,0-0.9v-0.1L73,55.9L73,55.9z"/>
				<path class="st2" d="M77.7,60.2c0.3,0,0.6,0,0.9-0.1c0.3,0,0.6-0.2,0.9-0.4c0.2-0.2,0.4-0.4,0.5-0.7c0.1-0.2,0.1-0.5,0.1-0.7
					c0-0.2,0-0.5-0.1-0.7c-0.1-0.2-0.2-0.4-0.4-0.6c-0.2-0.2-0.5-0.3-0.8-0.4c-0.3,0-0.6-0.1-0.9-0.1h-0.6l0-1.9
					c0-0.1,0-0.1-0.1-0.1c0,0-0.1,0-0.1,0l-0.8,0.2c-0.2,0-0.3,0.1-0.3,0.1c0,0,0,0.1,0,0.1l0,5c0,0.1,0,0.1,0,0.1c0,0,0.1,0,0.1,0
					L77.7,60.2L77.7,60.2z M77.3,57.8H78c0.1,0,0.2,0,0.3,0c0.1,0,0.2,0.1,0.3,0.2c0.1,0.1,0.2,0.2,0.2,0.5c0,0.3-0.1,0.5-0.3,0.6
					c-0.2,0.1-0.4,0.1-0.6,0.1l-0.5,0L77.3,57.8L77.3,57.8z"/>
			</g>
			<g>
				<path class="st2" d="M18.4,50.1l1.3,3.7l-5.5,0c2,5.2,13.6,3.6,19.9,3.7c-7.1-0.9-8.5-6-9.2-7.4L18.4,50.1L18.4,50.1z"/>
				<path class="st2" d="M31.4,32.4l0.5,0c0.4,0,0.4,0.1,0.4,0.5c0,0.3,0,0.4,0.1,0.5l0.6,0l0-0.1c-0.1,0-0.1-0.1-0.1-0.5
					c0-0.5-0.1-0.5-0.3-0.6c0.2-0.1,0.4-0.3,0.4-0.6c0-0.2-0.1-0.7-0.8-0.7l-1.3,0l0,2.5l0.5,0L31.4,32.4L31.4,32.4z M31.4,31.3H32
					c0.3,0,0.4,0.2,0.4,0.3c0,0.2-0.1,0.3-0.4,0.3l-0.6,0L31.4,31.3L31.4,31.3z"/>
				<path class="st2" d="M29.7,32.1c0-0.6,0.2-1.1,0.6-1.5c0.4-0.4,0.9-0.6,1.5-0.6c0.6,0,1.1,0.2,1.5,0.6c0.4,0.4,0.6,0.9,0.6,1.5
					c0,1.1-0.9,2.1-2.1,2.1C30.6,34.2,29.7,33.2,29.7,32.1L29.7,32.1z M29.9,30.3c-0.5,0.5-0.8,1.1-0.8,1.8c0,1.4,1.2,2.6,2.6,2.6
					c1.4,0,2.6-1.2,2.6-2.6c0-0.7-0.3-1.4-0.8-1.8c-0.5-0.5-1.1-0.8-1.8-0.8C31.1,29.5,30.4,29.8,29.9,30.3L29.9,30.3z"/>
				<path class="st2" d="M32.7,48.5l-16.5-0.1l1.2,3.7l-4,0L11,44.7l2.9,0l0.9,0l3.6-11.2l-2.4,0l-1.2-3.7l4.8,0l1.3,0l1.1,0l1.6,0
					l1.3,0l4.7,14.9l1.9,0L32.7,48.5L32.7,48.5z M18.8,44.8l6.8,0l-3.3-10.7L18.8,44.8L18.8,44.8z"/>
				<path class="st2" d="M60.3,35.4c1.5-3.1,4.7-5.2,8.4-5.2c5.1,0,9.3,4.2,9.2,9.3c0,5.1-4.2,9.3-9.3,9.2c-4.5,0-8.2-3.2-9.1-7.5
					c-1.3,2.1-3.6,3.5-6.3,3.6h-0.1l-1.3,0l0,3.8l-3.7,0l0-3.8l-1.4,0l-0.1,0c-0.8,0-1.5-0.1-2.2-0.4c0.2,0.7,0.3,1.5,0.3,2.3
					c0,5.1-4.2,9.3-9.3,9.2c-3.9,0-7.2-2.4-8.6-5.8l4.3,0c1,1.3,2.6,2.1,4.3,2.1c2.5,0,4.5-1.6,5.3-3.8l-6.2,0l-1.2-3.7l7.3,0
					c-0.8-2.1-2.8-3.7-5.2-3.7c-1.8,0-3.4,0.8-4.4,2.1l-1.2-4c1.6-1.2,3.5-1.9,5.6-1.9c1.4,0,2.8,0.3,4,0.9c0-0.3-0.1-0.6-0.1-1
					c0-1.4,0.4-2.6,1-3.7l-2.2,0l-1.2-3.7l9.8,0l6.4,0l0.8,0C57,30.4,59.5,32.5,60.3,35.4L60.3,35.4z M63,39.5
					c0,3.1,2.5,5.6,5.5,5.6c3.1,0,5.6-2.5,5.6-5.5c0-3.1-2.5-5.6-5.5-5.6C65.6,33.9,63.1,36.4,63,39.5L63,39.5z M51.9,33.7l0,7.4
					l1.3,0c2.1,0,3.7-1.6,3.7-3.7c0-2.1-1.6-3.7-3.7-3.7L51.9,33.7L51.9,33.7z M48.2,41.1l0-7.4l-1.4,0c-2.1,0-3.7,1.6-3.7,3.7
					c0,2.1,1.6,3.7,3.7,3.7L48.2,41.1L48.2,41.1z"/>
			</g>
		</g>
	</g>
</g>
</svg>
