<svg id="cybersecurity.svg" xmlns="http://www.w3.org/2000/svg" width="40" height="40" viewBox="0 0 40 40">
  <defs>
    <style>
      .cls-1, .cls-2 {
        fill: #fff;
        fill-rule: evenodd;
      }

      .cls-1 {
        opacity: 0.9;
      }
    </style>
  </defs>
  <path id="Rounded_Rectangle_955_copy_3" data-name="Rounded Rectangle 955 copy 3" class="cls-1" d="M914,319a3.992,3.992,0,0,1-3,3.858V313h3v2h0v4h0Zm-5,3.858A3.992,3.992,0,0,1,906,319v-6h3v9.859Z" transform="translate(-890 -296)"/>
  <path id="Rounded_Rectangle_955_copy_2" data-name="Rounded Rectangle 955 copy 2" class="cls-2" d="M929,303a6,6,0,0,1-6-6v-1h7v7h-1Zm-38,0h-1v-7h7v1A6,6,0,0,1,891,303Zm19,31.006V334a32.633,32.633,0,0,1-15-9.858A12.159,12.159,0,0,1,892,317V304.931A7.994,7.994,0,0,0,898.931,298h22.162A7.979,7.979,0,0,0,928,304.931v12.123a12.1,12.1,0,0,1-3,7.122A32.639,32.639,0,0,1,910,334.006ZM920,321a2,2,0,0,0-2-2h-2v-1h3a1,1,0,0,0,0-2h-3v-1h2a2,2,0,0,0,2-2v-3a1,1,0,0,0-2,0v3h-2v-1a5.973,5.973,0,0,0-3-5.168V305a1,1,0,0,0-2,0v1.1a5,5,0,0,0-2,0V305a1,1,0,0,0-2,0v1.832A5.973,5.973,0,0,0,904,312v1h-2v-3a1,1,0,0,0-2,0v3a2,2,0,0,0,2,2h2v1h-3a1,1,0,0,0,0,2h3v1h-2a2,2,0,0,0-2,2v2a1,1,0,0,0,2,0v-2h2.367a5.966,5.966,0,0,0,11.265,0H918v2a1,1,0,0,0,2,0v-2Zm-10-13a3.991,3.991,0,0,1,3.858,3h-7.716A3.991,3.991,0,0,1,910,308Zm0,28h0s20-5.982,20-19.939V336H890V316C890,330,910,336,910,336Z" transform="translate(-890 -296)"/>
</svg>
