<svg id="reliability.svg" xmlns="http://www.w3.org/2000/svg" width="50" height="50" viewBox="0 0 50 50">
  <defs>
    <style>
      .cls-1, .cls-2 {
        fill: #fff;
        fill-rule: evenodd;
      }

      .cls-1 {
        opacity: 0.9;
      }
    </style>
  </defs>
  <path id="Rounded_Rectangle_818_copy_6" data-name="Rounded Rectangle 818 copy 6" class="cls-1" d="M405,423h0Zm-1.962-32.462c1.636,1.409,4.4,4.793,8.854,4.511s5.526-1.015,5.526-1.015-1.748,4.117-4.906,5.921c0,0,1.917,4.963,5.865,7.219a20.226,20.226,0,0,1-5.921.845,21.219,21.219,0,0,1-4.737-.62l1.161-2.512,0.064-.061-0.968-7a1,1,0,0,0-1.979.289l0.56,4.4a9.758,9.758,0,0,0-5.436-1.541c-4.909,0-6.147,1.3-6.147,1.3v-13.2A5.711,5.711,0,0,1,398.019,388C399.655,388,401.4,389.128,403.038,390.538Z" transform="translate(-380 -373)"/>
  <path id="Rounded_Rectangle_818_copy_5" data-name="Rounded Rectangle 818 copy 5" class="cls-2" d="M405,423s25-5,25-25v25H405Zm-25-25c0,20,25,25,25,25H380V398Zm25-25c-0.035,0-.068,0-0.1,0-13.382.059-21.894,3-21.894,3l-2.75,18.531h0.018A25.105,25.105,0,0,0,380,398V373h25Zm0,50h0Zm24.75-28.469L427,376s-8.512-2.936-21.894-3c-0.035,0-.069,0-0.1,0h25v25a25.105,25.105,0,0,0-.268-3.469h0.018Zm-44.538-16.812s6.7-2.5,19.788-2.719a85.669,85.669,0,0,1,14.033,1.3,8.474,8.474,0,0,0-4.009,6.727c-0.174-.012-0.347-0.026-0.524-0.026a7.5,7.5,0,0,0-7.021,4.881,8.2,8.2,0,0,0,1.672,1.385,5.473,5.473,0,0,1,8.313-3.387,6.441,6.441,0,0,1,5.184-8.793c1.414,0.366,2.139.633,2.139,0.633l2.944,15.817-0.027.1c0.072,0.45.126,0.906,0.175,1.363h-6.052c-0.328.675-.677,1.359-1.033,2H428a21.979,21.979,0,0,1-13.669,20.1l-0.016.027L405,421l-9.315-3.876-0.016-.027a23.313,23.313,0,0,1-3.679-1.986c0-.017.01-0.032,0.01-0.049V385.723a2,2,0,1,0-2,0v27.93A21.53,21.53,0,0,1,382,397a21.2,21.2,0,0,1,.3-3.363l-0.027-.1ZM393,388v18a10.88,10.88,0,0,1,7.341-3.04,7.938,7.938,0,0,1,3.775.852L405,407a0.968,0.968,0,0,0,.162.513l-0.148.336a17.267,17.267,0,0,0,8.338,2.178,16.847,16.847,0,0,0,8.656-2.516,34.213,34.213,0,0,1-4.642-3.6,10.974,10.974,0,0,1-2.36-3.322,15.435,15.435,0,0,0,3.365-4.126A19.521,19.521,0,0,0,420,391c-8.889,3.948-12.47,1.177-14.052-.692s-4.6-4.242-7.948-4.308A6.389,6.389,0,0,0,393,388Z" transform="translate(-380 -373)"/>
</svg>
