<svg id="automat_logistic.svg" xmlns="http://www.w3.org/2000/svg" width="40" height="40" viewBox="0 0 40 40">
  <defs>
    <style>
      .cls-1, .cls-2 {
        fill: #fff;
        fill-rule: evenodd;
      }

      .cls-1 {
        opacity: 0.9;
      }
    </style>
  </defs>
  <path id="Rounded_Rectangle_970_copy_6" data-name="Rounded Rectangle 970 copy 6" class="cls-1" d="M470,380a9.987,9.987,0,0,0-8,15.989L462,396s0.087,0.114.234,0.294c0.036,0.046.074,0.09,0.111,0.135A26.025,26.025,0,0,0,466,400c1.553,1.243,3.781,4.187,4,5.562,0,0,.469-2.25,4-5.562,0.944-.885,1.72-1.646,2.335-2.265a10,10,0,0,0,1.588-1.65L478,396l0-.011A9.987,9.987,0,0,0,470,380Zm0,18a8,8,0,1,1,8-8A8,8,0,0,1,470,398Z" transform="translate(-450 -372)"/>
  <path id="Rounded_Rectangle_970_copy_8" data-name="Rounded Rectangle 970 copy 8" class="cls-2" d="M450,372h40v40H450V372Zm39.713,39.713a0.98,0.98,0,0,1-.725.286H483a1,1,0,1,1,0-2h3.6l-6.308-6.309a0.993,0.993,0,0,1,1.4-1.4L488,408.6V405a1,1,0,0,1,2,0v5.989A0.982,0.982,0,0,1,489.713,411.713ZM489,379a1,1,0,0,1-1-1v-2.6l-4.309,4.309a0.993,0.993,0,0,1-1.4-1.4L486.6,374H484a1,1,0,0,1,0-2h4.991A0.98,0.98,0,0,1,490,373.01V378A1,1,0,0,1,489,379Zm-10.4,19.357,0.005,0-0.026.02a12.022,12.022,0,0,1-1.75,1.48c-2.15,1.96-5.526,5.567-5.831,9.141h-2c-0.305-3.574-3.681-7.181-5.832-9.141a12.014,12.014,0,0,1-1.749-1.48l-0.026-.02,0.005,0A12,12,0,1,1,478.6,398.356Zm-22.293-18.643L452,375.4V378a1,1,0,0,1-2,0v-4.99a0.98,0.98,0,0,1,1.009-1.01H456a1,1,0,0,1,0,2h-2.6l4.309,4.309A0.993,0.993,0,0,1,456.309,379.713ZM450,405a1,1,0,0,1,2,0v3.6l6.309-6.309a0.993,0.993,0,0,1,1.4,1.4L453.405,410H457a1,1,0,1,1,0,2h-5.988a0.98,0.98,0,0,1-1.012-1.01V405Zm20-21a6,6,0,1,1-6,6A6,6,0,0,1,470,384Zm0,2a3.988,3.988,0,0,0-3.709,5.483l1.855-.742a1.99,1.99,0,0,1,2.879-2.45l1.025-1.709A3.956,3.956,0,0,0,470,386Z" transform="translate(-450 -372)"/>
</svg>
