<svg id="ser_leasing.svg" xmlns="http://www.w3.org/2000/svg" width="40" height="40" viewBox="0 0 40 40">
  <defs>
    <style>
      .cls-1, .cls-2 {
        fill: #fff;
        fill-rule: evenodd;
      }

      .cls-2 {
        opacity: 0.9;
      }
    </style>
  </defs>
  <path id="Ellipse_296_copy_6" data-name="Ellipse 296 copy 6" class="cls-1" d="M618,330h40v40H618V330Zm38,35h-2.05a5.47,5.47,0,0,1-10.9,0h-10.1a5.47,5.47,0,0,1-10.9,0H620l-1-1-1-3v-7l4-6,1-1h17l2,1,5,4.394L657,355l1,2v7Zm-7.5,3a3.5,3.5,0,1,0-3.5-3.5A3.5,3.5,0,0,0,648.5,368Zm-21,0a3.5,3.5,0,1,0-3.5-3.5A3.5,3.5,0,0,0,627.5,368ZM656,356.887l-10-2.548-5.43-4.629-1.8-.71H624.113L620,355v6l0.774,2h1.459a5.468,5.468,0,0,1,10.534,0h10.466a5.468,5.468,0,0,1,10.534,0H656v-6.113ZM623,357l-1-1v-1l3.322-4h13.289L644,355v1l-1,1H623Zm15.187-4-12.05-.032L624.388,355h16.423ZM627.5,363a1.5,1.5,0,1,1-1.5,1.5A1.5,1.5,0,0,1,627.5,363Zm21,0a1.5,1.5,0,1,1-1.5,1.5A1.5,1.5,0,0,1,648.5,363Zm3.5-21a4,4,0,0,0-4-4h-0.714L643,344H623l-1-1V331l1-1h20l4.285,6H648a6,6,0,0,1,6,6v10.028l-2-.743V342Z" transform="translate(-618 -330)"/>
  <path id="Ellipse_296_copy_7" data-name="Ellipse 296 copy 7" class="cls-2" d="M641.866,332H624v10h17.866l3.8-5Zm-5.155,7.7a1,1,0,0,1-1.415-1.414l2.962-3.993a1,1,0,0,1,1.414,1.415Zm-4,0a1,1,0,0,1-1.415-1.414l2.962-3.993a1,1,0,0,1,1.414,1.415Zm-4,0a1,1,0,0,1-1.415-1.414l2.962-3.993a1,1,0,0,1,1.414,1.415Z" transform="translate(-618 -330)"/>
</svg>
