<svg id="ser_management.svg" xmlns="http://www.w3.org/2000/svg" width="40" height="40" viewBox="0 0 40 40">
  <defs>
    <style>
      .cls-1, .cls-2 {
        fill: #fff;
        fill-rule: evenodd;
      }

      .cls-1 {
        opacity: 0.9;
      }
    </style>
  </defs>
  <path id="Ellipse_354_copy_3" data-name="Ellipse 354 copy 3" class="cls-1" d="M521,333a1,1,0,0,0-1-1H504a1,1,0,0,0-1,1v1h18v-1Zm-1.188,21.011-0.843-.3-1.156-.126a5.918,5.918,0,0,0-.695-1.672l0.74-.928,0.292-.637-0.423-1L516.8,348.9l-0.766.25-0.921.739a5.926,5.926,0,0,0-1.685-.7l-0.131-1.158-0.243-.656-1-.406-0.973.343-0.365.719-0.127,1.156a5.963,5.963,0,0,0-1.7.707l-0.9-.721-0.637-.292-1,.423-0.445.931,0.25,0.766,0.729,0.909a5.936,5.936,0,0,0-.7,1.7l-1.148.13-0.656.243-0.406,1,0.343,0.973,0.719,0.365,1.166,0.128a5.938,5.938,0,0,0,.71,1.686l-0.711.892-0.338.811,0.468,0.866,0.886,0.533,0.812-.382,0.907-.727a5.931,5.931,0,0,0,1.678.692l0.129,1.147,0.335,0.812,0.943,0.281,1-.25,0.3-.843,0.128-1.166a5.944,5.944,0,0,0,1.662-.7l0.915,0.729,0.811,0.338,0.866-.468,0.533-.886-0.382-.812-0.737-.919a5.939,5.939,0,0,0,.692-1.665l1.157-.13,0.812-.335,0.281-.943ZM512,359a4,4,0,1,1,4-4A4,4,0,0,1,512,359Zm0-6a2,2,0,1,0,2,2A2,2,0,0,0,512,353Z" transform="translate(-492 -330)"/>
  <path id="Ellipse_354_copy_2" data-name="Ellipse 354 copy 2" class="cls-2" d="M492,330h40v40H492V330Zm37,40H495a3,3,0,0,1-3-3V349.057a0.964,0.964,0,0,1,0-.152V343a3,3,0,0,1,3-3h6v-7a3,3,0,0,1,3-3h16a3,3,0,0,1,3,3v7h6a3,3,0,0,1,3,3v24A3,3,0,0,1,529,370Zm-8-34H503v4h18v-4Zm9,14.491-6,2.5-0.9-1.792,6.9-2.88V343a1,1,0,0,0-1-1H495a1,1,0,0,0-1,1v5.337l6.893,2.878L500,353l0,0.007-6-2.5V367a1,1,0,0,0,1,1h34a1,1,0,0,0,1-1V350.491Zm-9.487,7.388-1.159.154,0.733,0.945,0,1.354-0.334,1.062-1.334,1.333-1,.387-1.434-.059-0.938-.718-0.148,1.122-0.96,1.03-0.935.525L511.039,365l-0.978-.481-0.96-1.036-0.146-1.136-0.888.682-1.407.05-1.032-.291-1.379-1.4-0.352-1.031,0.054-1.412,0.7-.906-1.11-.146-1.03-.96L501.986,356,502,354.039l0.481-.978,1.036-.96,1.135-.145-0.681-.889-0.05-1.407,0.291-1.032,1.4-1.379,1.032-.352,1.411,0.054,0.9,0.692,0.149-1.174,0.96-.955,0.987-.514h1.886l0.979,0.433,0.972,1.054,0.154,1.159,0.945-.733,1.354,0,1.061,0.334,1.334,1.334,0.387,1-0.059,1.434-0.71.928,1.186,0.15,0.955,0.96L522,354.042v1.886l-0.433.979ZM512,353a2,2,0,1,0,2,2A2,2,0,0,0,512,353Z" transform="translate(-492 -330)"/>
</svg>
