<svg class="svg svg-basket" width="19" height="16" viewBox="0 0 19 16">
	<path data-name="Ellipse 2 copy 9" class="cls-1" d="M956.047,952.005l-0.939,1.009-11.394-.008-0.952-1-0.953-6h-2.857a0.862,0.862,0,0,1-.952-1,1.025,1.025,0,0,1,1.164-1h2.327c0.3,0,.6.006,0.6,0.006a1.208,1.208,0,0,1,1.336.918L943.817,947h12.23L957,948v1Zm-11.916-3,0.349,2h10.007l0.593-2Zm1.863,5a3,3,0,1,1-3,3A3,3,0,0,1,945.994,954.005ZM946,958a1,1,0,1,0-1-1A1,1,0,0,0,946,958Zm7.011-4a3,3,0,1,1-3,3A3,3,0,0,1,953.011,954.005ZM953,958a1,1,0,1,0-1-1A1,1,0,0,0,953,958Z" transform="translate(-938 -944)"></path>
</svg>