<svg width="14" height="14" viewBox="0 0 14 14">
	<path d="M730.067,193.754s-0.376.15-.991,0.346c0.291,0.569.454,0.95,0.454,0.95a1.211,1.211,0,0,1-.114,1.433l-0.933.933a1.211,1.211,0,0,1-1.433.114s-0.38-.163-0.947-0.453c-0.2.615-.349,0.99-0.349,0.99a1.246,1.246,0,0,1-1.094.933h-1.32a1.246,1.246,0,0,1-1.094-.933s-0.151-.374-0.348-0.987c-0.568.289-.948,0.45-0.948,0.45a1.243,1.243,0,0,1-1.433-.114l-0.933-.933a1.243,1.243,0,0,1-.114-1.433s0.161-.38.45-0.948c-0.613-.2-0.987-0.348-0.987-0.348A1.246,1.246,0,0,1,717,192.66v-1.32a1.246,1.246,0,0,1,.933-1.094s0.374-.151.987-0.348c-0.289-.568-0.45-0.948-0.45-0.948a1.243,1.243,0,0,1,.114-1.433l0.933-.933a1.243,1.243,0,0,1,1.433-.114s0.381,0.161.95,0.451c0.2-.613.346-0.988,0.346-0.988A1.214,1.214,0,0,1,723.34,185h1.32a1.214,1.214,0,0,1,1.094.933s0.15,0.376.346,0.991c0.569-.291.95-0.454,0.95-0.454a1.211,1.211,0,0,1,1.433.114l0.933,0.933a1.211,1.211,0,0,1,.114,1.433s-0.163.381-.454,0.949c0.615,0.2.991,0.347,0.991,0.347A1.214,1.214,0,0,1,731,191.34v1.32A1.214,1.214,0,0,1,730.067,193.754Zm-0.583-2.77s-0.729-.254-1.787-0.506c-0.006-.014-0.01-0.03-0.017-0.045,0.569-.925.905-1.62,0.905-1.62,0.258-.523.037-0.67-0.353-1.06s-0.538-.612-1.061-0.354c0,0-.7.335-1.633,0.909-0.01,0-.022,0-0.032-0.009-0.252-1.063-.506-1.8-0.506-1.8-0.188-.552-0.448-0.5-1-0.5s-0.813-.052-1,0.5c0,0-.257.734-0.51,1.8l-0.013,0a17.89,17.89,0,0,0-1.648-.905c-0.5-.236-0.692-0.059-1.083.332s-0.567.537-.331,1.082a17.265,17.265,0,0,0,.9,1.64s0,0.009,0,.013a18.163,18.163,0,0,0-1.791.518,0.8,0.8,0,0,0-.532,1c0,0.553-.021.782,0.532,1a17.494,17.494,0,0,0,1.781.519c0,0.008,0,.018.009,0.027a17.846,17.846,0,0,0-.891,1.625,0.794,0.794,0,0,0,.331,1.083c0.391,0.391.538,0.567,1.083,0.331a17.39,17.39,0,0,0,1.617-.883c0.013,0.006.028,0.008,0.041,0.013a18.13,18.13,0,0,0,.513,1.77,0.794,0.794,0,0,0,1,.531c0.552,0,.781.021,1-0.531a17.868,17.868,0,0,0,.515-1.77c0.018-.008.038-0.013,0.056-0.021,0.915,0.561,1.6.891,1.6,0.891,0.523,0.258.67,0.037,1.061-.353s0.611-.538.353-1.061c0,0-.331-0.689-0.9-1.61,0.008-.019.011-0.041,0.019-0.06,1.049-.25,1.776-0.5,1.776-0.5,0.553-.187.5-0.447,0.5-1S730.037,191.172,729.484,190.984ZM724,195a3,3,0,1,1,3-3A3,3,0,0,1,724,195Zm0-5a2,2,0,1,0,2,2A2,2,0,0,0,724,190Z" transform="translate(-717 -185)"/>
</svg>
