<svg width="17" height="17" viewBox="0 0 17 17">
	<path d="M838,939a4.976,4.976,0,0,1-8.03,3.953c-0.159.01-.309,0.047-0.47,0.047a7.5,7.5,0,0,1-7.5-7.5c0-.162.037-0.312,0.047-0.471a4.976,4.976,0,0,1,6.983-6.982c0.158-.01.309-0.048,0.47-0.048a7.5,7.5,0,0,1,7.5,7.5c0,0.161-.038.311-0.048,0.469A4.95,4.95,0,0,1,838,939Zm-5.225-2.9a2.08,2.08,0,0,0-.669-0.757,4.145,4.145,0,0,0-1.029-.5,13.468,13.468,0,0,0-1.347-.378c-0.394-.1-0.678-0.173-0.849-0.224a2.672,2.672,0,0,1-.5-0.21,1.156,1.156,0,0,1-.386-0.317,0.689,0.689,0,0,1-.137-0.428,0.832,0.832,0,0,1,.409-0.689,1.86,1.86,0,0,1,1.094-.293,1.684,1.684,0,0,1,1.06.267,2.215,2.215,0,0,1,.566.754,2.1,2.1,0,0,0,.351.5,0.673,0.673,0,0,0,.483.157,0.749,0.749,0,0,0,.582-0.259,0.856,0.856,0,0,0,.232-0.585,1.583,1.583,0,0,0-.183-0.716,2.214,2.214,0,0,0-.576-0.7,3.032,3.032,0,0,0-.988-0.53,4.433,4.433,0,0,0-1.406-.2,4.756,4.756,0,0,0-1.771.3,2.5,2.5,0,0,0-1.157.863,2.165,2.165,0,0,0-.4,1.286,2.086,2.086,0,0,0,.379,1.272,2.589,2.589,0,0,0,1.023.8,8.42,8.42,0,0,0,1.589.513,11.621,11.621,0,0,1,1.126.3,1.675,1.675,0,0,1,.677.4,0.908,0.908,0,0,1,.256.675,1.05,1.05,0,0,1-.48.879,2.081,2.081,0,0,1-1.267.357,2,2,0,0,1-.915-0.177,1.428,1.428,0,0,1-.537-0.448,3.455,3.455,0,0,1-.359-0.681,1.387,1.387,0,0,0-.339-0.537,0.714,0.714,0,0,0-.5-0.185,0.8,0.8,0,0,0-.593.236,0.787,0.787,0,0,0-.233.569,2.107,2.107,0,0,0,.38,1.146,2.836,2.836,0,0,0,.982.938A4.284,4.284,0,0,0,829.5,940a4.6,4.6,0,0,0,1.885-.357,2.732,2.732,0,0,0,1.212-.99,2.536,2.536,0,0,0,.415-1.428A2.389,2.389,0,0,0,832.775,936.1Z" transform="translate(-821 -927)"/>
</svg>