<svg width="15.063" height="9.094" viewBox="0 0 15.063 9.094">
  <path  class="cls-1" d="M871.994,931.77v3.257a0.339,0.339,0,0,0,.426.35c0.3-.02.978-2.8,1.279-3.4a1.932,1.932,0,0,1,.738-0.827,0.609,0.609,0,0,1,.367-0.155h2.878a0.464,0.464,0,0,1,.3.728c-0.225.5-2.155,3.61-2.255,3.736a1.311,1.311,0,0,0-.237.55,1.2,1.2,0,0,0,.312.626c0.2,0.227,1.816,2.006,1.967,2.155a1.2,1.2,0,0,1,.275.577,0.763,0.763,0,0,1-.8.613c-0.626,0-2.166,0-2.342,0a2.8,2.8,0,0,1-.952-0.565c-0.225-.2-1.059-1.152-1.184-1.277a0.407,0.407,0,0,0-.351-0.145c-0.15,0-.435.015-0.422,0.584a2,2,0,0,1-.238,1.14,0.993,0.993,0,0,1-.737.275,5,5,0,0,1-2.914-.727c-1.574-.978-3.366-3.589-4.2-5.254a6.513,6.513,0,0,1-.9-2.715c0.05-.176.05-0.3,0.226-0.3s2.389,0,2.6,0a0.845,0.845,0,0,1,.351.327c0.075,0.1.647,1.812,0.822,2.113s1.038,1.95,1.506,1.95a0.6,0.6,0,0,0,.474-0.7c0-.4,0-1.979,0-2.18a1.939,1.939,0,0,0-.978-1,1.261,1.261,0,0,1,.927-0.5c0.6-.025,2.105-0.025,2.43.024A0.782,0.782,0,0,1,871.994,931.77Z" transform="translate(-863 -931)"/>
</svg>