<svg width="15.031" height="15" viewBox="0 0 15.031 15">
  <path class="cls-1" d="M993.086,935.441a2.753,2.753,0,0,0-2.808-2.771h-0.056a2.738,2.738,0,0,0-2.672,3.007,2.674,2.674,0,0,0,2.665,2.921,2.849,2.849,0,0,0,2.875-2.807Zm-2.856-4.318a4.223,4.223,0,0,1,3.021,1.356v0a0.64,0.64,0,0,1,.614-0.7h0.09a0.7,0.7,0,0,1,.672.723l0,6.178a0.386,0.386,0,0,0,.645.354c0.953-1.019,2.093-5.24-.592-7.686a6.227,6.227,0,0,0-7.646-.624,6.155,6.155,0,0,0-1.932,7.214,5.747,5.747,0,0,0,7.153,3.092c1.108-.465,1.619,1.094.469,1.6a7.519,7.519,0,0,1-8.836-3.382,7.6,7.6,0,0,1,12.25-8.815c2.574,2.8,2.424,8.044-.087,10.082a1.745,1.745,0,0,1-2.817-1.325l-0.012-.441a4.141,4.141,0,0,1-3,1.3,4.47,4.47,0,0,1,0-8.931h0" transform="translate(-983 -928)"/>
</svg>