<svg id="facebook.svg" xmlns="http://www.w3.org/2000/svg" width="7" height="13.031" viewBox="0 0 7 13.031">
  <defs>
    <style>
      .cls-1 {
        fill: #333;
        fill-rule: evenodd;
      }
    </style>
  </defs>
  <path id="facebook_copy_23" data-name="facebook copy 23" class="cls-1" d="M885.988,930.98L886.3,929a15.907,15.907,0,0,0-2.4.018,2.247,2.247,0,0,0-1.427.784,2.457,2.457,0,0,0-.477,1.6c0,0.688,0,2.6,0,2.6h-2v2h2v6h2v-6l2.385-.016L887,934h-3s0.011-2.308.012-2.532a0.562,0.562,0,0,1,.671-0.486C885.122,930.979,885.988,930.98,885.988,930.98Z" transform="translate(-880 -928.969)"/>
</svg>
