<svg class="svg svg-cabinet-login" width="16" height="18" viewBox="0 0 16 18">
	<path data-name="Rounded Rectangle 803 copy" class="cls-1" d="M933.5,961H922.469v0a2.486,2.486,0,0,1-1.848-4.13c0.018-.026.026-0.052,0.046-0.077,1.374-1.7,4.476-2.79,6.833-2.79h1c2.357,0,5.459,1.089,6.833,2.79,0.02,0.025.028,0.051,0.046,0.077A2.475,2.475,0,0,1,936,958.5,2.5,2.5,0,0,1,933.5,961Zm0.5-2.533h0a1.509,1.509,0,0,0-.619-0.9A10.224,10.224,0,0,0,928.5,956h-1a10.224,10.224,0,0,0-4.872,1.566,1.5,1.5,0,0,0-.619.9h0c0,0.01,0,.024,0,0.033a0.5,0.5,0,0,0,.5.5h11a0.5,0.5,0,0,0,.5-0.5C934,958.491,934,958.477,934,958.467ZM928,953a5,5,0,1,1,5-5A5,5,0,0,1,928,953Zm0-8a3,3,0,1,0,3,3A3,3,0,0,0,928,945Z" transform="translate(-920 -943)"></path>
</svg>