<svg id="security.svg" xmlns="http://www.w3.org/2000/svg" width="40" height="40" viewBox="0 0 40 40">
  <defs>
    <style>
      .cls-1, .cls-2 {
        fill: #fff;
        fill-rule: evenodd;
      }

      .cls-1 {
        opacity: 0.9;
      }
    </style>
  </defs>
  <path class="cls-1" d="M756,389h0.908a6.941,6.941,0,0,1-1.329,3.176l-0.668-.668a0.992,0.992,0,1,0-1.4,1.4l0.667,0.667A6.952,6.952,0,0,1,751,394.9V394a1,1,0,0,0-2,0v0.9a6.963,6.963,0,0,1-3.175-1.321l0.667-.667a0.992,0.992,0,1,0-1.4-1.4l-0.668.668A6.941,6.941,0,0,1,743.092,389H744a1,1,0,0,0,0-2h-0.908a6.941,6.941,0,0,1,1.329-3.176l0.668,0.668a0.992,0.992,0,1,0,1.4-1.4l-0.667-.667A6.963,6.963,0,0,1,749,381.1V382a1,1,0,0,0,2,0v-0.9a6.952,6.952,0,0,1,3.175,1.321l-0.667.667a0.992,0.992,0,1,0,1.4,1.4l0.668-.668A6.941,6.941,0,0,1,756.908,387H756A1,1,0,0,0,756,389Zm-6-4a3,3,0,1,0,3,3A3,3,0,0,0,750,385Zm15,19V371H735v33h-3V368h36v36h-3Z" transform="translate(-730 -366)"/>
  <path id="Rounded_Rectangle_977_copy_6" data-name="Rounded Rectangle 977 copy 6" class="cls-2" d="M730,406v-2a2,2,0,0,0,2,2h36a2,2,0,0,0,2-2V368a2,2,0,0,0-2-2h2v40H730Zm7-2V373h26v31H737Zm3.5-2a1.5,1.5,0,1,0-1.5-1.5A1.5,1.5,0,0,0,740.5,402Zm0-27a1.5,1.5,0,1,0,1.5,1.5A1.5,1.5,0,0,0,740.5,375Zm19,0a1.5,1.5,0,1,0,1.5,1.5A1.5,1.5,0,0,0,759.5,375Zm0.5,12h-1.061A8.924,8.924,0,0,0,757,382.4l0.714-.714a0.992,0.992,0,0,0-1.4-1.4L755.6,381a8.914,8.914,0,0,0-4.6-1.936V378a1,1,0,0,0-2,0v1.059A8.914,8.914,0,0,0,744.4,381l-0.714-.713a0.992,0.992,0,0,0-1.4,1.4L743,382.4a8.916,8.916,0,0,0-1.935,4.6H740a1,1,0,0,0,0,2h1.061A8.916,8.916,0,0,0,743,393.6l-0.714.714a0.992,0.992,0,0,0,1.4,1.4l0.714-.713a8.914,8.914,0,0,0,4.6,1.936V398a1,1,0,0,0,2,0v-1.059a8.914,8.914,0,0,0,4.6-1.936l0.714,0.713a0.992,0.992,0,0,0,1.4-1.4L757,393.6a8.924,8.924,0,0,0,1.935-4.6H760A1,1,0,0,0,760,387Zm-0.5,12a1.5,1.5,0,1,0,1.5,1.5A1.5,1.5,0,0,0,759.5,399ZM730,368v-2h2A2,2,0,0,0,730,368Zm19,19h2v2h-2v-2Z" transform="translate(-730 -366)"/>
</svg>
