<svg id="optimalny.svg" xmlns="http://www.w3.org/2000/svg" width="40" height="40" viewBox="0 0 40 40">
  <defs>
    <style>
      .cls-1, .cls-2 {
        fill: #fff;
        fill-rule: evenodd;
      }

      .cls-1 {
        opacity: 0.9;
      }
    </style>
  </defs>
  <path id="Rounded_Rectangle_963_copy_3" data-name="Rounded Rectangle 963 copy 3" class="cls-1" d="M1060,334h-8V315h8v19Zm-3-6a1,1,0,0,0-2,0v2a1,1,0,0,0,2,0v-2Z" transform="translate(-1050 -296)"/>
  <path id="Rounded_Rectangle_963_copy_2" data-name="Rounded Rectangle 963 copy 2" class="cls-2" d="M1050,336v-2a2,2,0,0,0,2,2h8a1.987,1.987,0,0,0,1.62-.838A3.917,3.917,0,0,0,1064,336h19a3.982,3.982,0,0,0,3.04-6.575,3.957,3.957,0,0,0,1-6,3.958,3.958,0,0,0,1-6A3.99,3.99,0,0,0,1086,310h-11c-0.06,0-.11.019-0.16,0.022a15.885,15.885,0,0,0,.83-3.434c0.17-1.595.33-3.869,0.33-3.869v-0.93c0-2.209-1.41-5.785-4.15-5.788H1090v40h-40Zm27-6h6a2,2,0,0,1,0,4h-19a2,2,0,0,1-2-2h0V315.875h0l0.01-.008a2.019,2.019,0,0,1,.59-1.292l-0.01-.013,5.39-5.625,2.02-7.778v-2.212c0-1.105.74-.947,1.84-0.947,1.39,0,2.16,2.214,2.16,3.319v1.043s-0.07,2.28-.27,3.512a22.941,22.941,0,0,1-1.1,4.094,2.367,2.367,0,0,1-.63.8V312h14a2,2,0,0,1,0,4h-7a1,1,0,0,0,0,2h6a2,2,0,0,1,0,4h-7a1,1,0,1,0,0,2h6a2,2,0,1,1,0,4h-7A1,1,0,0,0,1077,330Zm-9-31.7v2.94L1066.01,308l-4.85,5.187,0.01,0.008c-0.03.037-.06,0.086-0.09,0.125A1.978,1.978,0,0,0,1060,313h-8a2,2,0,0,0-2,2V296h21.82C1069.62,296,1068,296.1,1068,298.3Z" transform="translate(-1050 -296)"/>
</svg>
