<svg id="persona.svg" xmlns="http://www.w3.org/2000/svg" width="40" height="40" viewBox="0 0 40 40">
  <defs>
    <style>
      .cls-1, .cls-2 {
        fill: #fff;
        fill-rule: evenodd;
      }

      .cls-1 {
        opacity: 0.9;
      }
    </style>
  </defs>
  <path id="Ellipse_301_copy_6" data-name="Ellipse 301 copy 6" class="cls-1" d="M1230,233a12.985,12.985,0,0,1,12.55,9.673l-7.65-1.662a6.975,6.975,0,0,0-9.8,0l-7.65,1.662A12.985,12.985,0,0,1,1230,233Zm-4.99,18.2,1.65,7.353a13.019,13.019,0,0,1-9.23-9.227l7.57,1.645A0.884,0.884,0,0,0,1225.01,251.2Zm9.99-.229,7.57-1.645a13.019,13.019,0,0,1-9.23,9.227l1.65-7.353A0.884,0.884,0,0,0,1235,250.969Z" transform="translate(-1210 -226)"/>
  <path id="Ellipse_301_copy_5" data-name="Ellipse 301 copy 5" class="cls-2" d="M1210,266V246a20,20,0,1,0,20-20h20v40h-40Zm20-38a18,18,0,1,1-18,18A18,18,0,0,1,1230,228Zm-2.63,32.755a0.969,0.969,0,0,0,.85.237,1.178,1.178,0,0,0,.19-0.079,14.573,14.573,0,0,0,3.18,0,1.178,1.178,0,0,0,.19.079,0.969,0.969,0,0,0,.85-0.237A15,15,0,1,0,1227.37,260.755ZM1223,246a7.007,7.007,0,0,0,.51,2.6l-6.45-1.4a11.92,11.92,0,0,1,0-2.389l6.45-1.4A7,7,0,0,0,1223,246Zm9.66,6.471-1.46,6.468c-0.39.037-.79,0.061-1.2,0.061s-0.81-.024-1.2-0.061l-1.46-6.468A6.952,6.952,0,0,0,1232.66,252.471ZM1230,251a5,5,0,1,1,5-5A5,5,0,0,1,1230,251Zm0-9h0a4,4,0,0,0-4,4h0a1,1,0,0,0,2,0h0a2,2,0,0,1,2-2h0A1,1,0,0,0,1230,242Zm7,4a7,7,0,0,0-.51-2.6l6.45,1.4a11.92,11.92,0,0,1,0,2.389l-6.45,1.4A7.007,7.007,0,0,0,1237,246Zm-27,0V226h20A20,20,0,0,0,1210,246Z" transform="translate(-1210 -226)"/>
</svg>
