<svg id="payment.svg" xmlns="http://www.w3.org/2000/svg" width="50" height="40" viewBox="0 0 50 40">
  <defs>
    <style>
      .cls-1, .cls-2 {
        fill: #fff;
        fill-rule: evenodd;
      }

      .cls-1 {
        opacity: 0.9;
      }
    </style>
  </defs>
  <path id="Rounded_Rectangle_956_copy_3" data-name="Rounded Rectangle 956 copy 3" class="cls-1" d="M991,425v3a1,1,0,0,1-1,1H957a1,1,0,0,1-1-1V403.445a3.965,3.965,0,0,0,2,.555h32a1,1,0,0,1,1,1v5H980.5a6.5,6.5,0,0,0,0,13H991v2Zm-29-15a1,1,0,0,0-2,0v14a1,1,0,0,0,2,0V410Z" transform="translate(-954 -391)"/>
  <path id="Rounded_Rectangle_956_copy_2" data-name="Rounded Rectangle 956 copy 2" class="cls-2" d="M976,416.5a4.5,4.5,0,0,1,4.5-4.5H991v9H980.5A4.5,4.5,0,0,1,976,416.5Zm6,0a1.5,1.5,0,1,0-1.5,1.5A1.5,1.5,0,0,0,982,416.5ZM954,431v-3a3,3,0,0,0,3,3h33a3,3,0,0,0,3-3V405a3,3,0,0,0-3-3H958a2,2,0,0,1,0-4h5v-2h-5a4,4,0,0,0-4,4v-9h14a3,3,0,0,0-3,3v6h2v-6a1,1,0,0,1,1-1h33a1,1,0,0,1,1,1v16h-6a1,1,0,0,0,0,2h6v4a1,1,0,0,1-1,1h-6v2h6a3,3,0,0,0,3-3V394a3,3,0,0,0-3-3h3v40H954Z" transform="translate(-954 -391)"/>
</svg>
