<svg id="_3years.svg" data-name="3years.svg" xmlns="http://www.w3.org/2000/svg" width="50" height="50" viewBox="0 0 50 50">
  <defs>
    <style>
      .cls-1, .cls-2 {
        fill: #fff;
        fill-rule: evenodd;
      }

      .cls-1 {
        opacity: 0.9;
      }
    </style>
  </defs>
  <path id="Ellipse_305_copy_11" data-name="Ellipse 305 copy 11" class="cls-1" d="M360,539v6a12,12,0,0,1-12,12h-6a12,12,0,0,1-12-12v-6a12,12,0,0,1,12-12h6A12,12,0,0,1,360,539Zm-7-1h-5l-1-3a2,2,0,0,0-4,0l-1,3h-5a1.995,1.995,0,0,0-1.028,3.707l0,0.012,3.5,2.281-1.341,4.281,0.011,0.009a1.991,1.991,0,0,0,3.045,2.317L345,548l3.906,2.688,0.012-.01a1.993,1.993,0,0,0,2.938-2.413l0.019-.015L350.534,544l3.56-2.281-0.012-.041A2,2,0,0,0,353,538Z" transform="translate(-328 -525)"/>
  <path id="Ellipse_305_copy_10" data-name="Ellipse 305 copy 10" class="cls-2" d="M328,575V545a14,14,0,0,0,14,14h6a14,14,0,0,0,14-14v-6a14,14,0,0,0-14-14h30v50H328Zm26-6v-7a1,1,0,0,0-2,0v7h0v3.26l-6-4.286V562a1,1,0,0,0-2,0v5.975l-6,4.286V566h0v-4a1,1,0,0,0-2,0v7h0v6h2l7-5,7,5h2v-6Zm24-35a8.976,8.976,0,0,0-4.924-8H371v8a1,1,0,0,1-1,1h-2a1,1,0,0,1-1-1v-8h-2.076a9.065,9.065,0,0,0-3.186,2.739l1.432,1.432a7.084,7.084,0,0,1,1.83-1.876V532h0v2a3,3,0,0,0,3,3h2a3,3,0,0,0,3-3v-5.706A6.975,6.975,0,0,1,369,541v2a9.03,9.03,0,0,0,2-.231v16.525a6.967,6.967,0,0,1,2,12.411V566a3,3,0,0,0-3-3h-2a3,3,0,0,0-3,3v5.705A6.974,6.974,0,0,1,369,559v-2a9.03,9.03,0,0,0-2,.231V540.706a6.985,6.985,0,0,1-2-.965V543h0v14.946A8.974,8.974,0,0,0,364.924,574H367v-8a1,1,0,0,1,1-1h2a1,1,0,0,1,1,1v8h2.076A8.974,8.974,0,0,0,373,557.946V542.053A8.989,8.989,0,0,0,378,534Zm-28.063,14.969L345,545.375,339.937,549l2.029-5.844L337,540l6.437-.031L345,535.062l1.469,4.907L352.906,540l-4.934,3.187ZM328,539V525h14A14,14,0,0,0,328,539Z" transform="translate(-328 -525)"/>
</svg>
