<svg id="action_icons.svg" xmlns="http://www.w3.org/2000/svg" width="150" height="256" viewBox="0 0 150 256">
  <defs>
    <style>
      .cls-1, .cls-2, .cls-6 {
        fill: #fff;
      }

      .cls-1, .cls-2, .cls-3, .cls-4, .cls-5, .cls-6 {
        fill-rule: evenodd;
      }

      .cls-2, .cls-4 {
        opacity: 0.9;
      }

      .cls-3, .cls-4 {
        fill: #f8f9fb;
      }

      .cls-5 {
        fill: #333;
      }

      .cls-6 {
        fill-opacity: 0.9;
      }
    </style>
  </defs>
  <path id="Shape_943_copy_3" data-name="Shape 943 copy 3" class="cls-1" d="M1658,335h90v90h-90V335Zm86.93,14.352-20.02,47.017a0.978,0.978,0,0,1-.71.575,0.869,0.869,0,0,1-.21.042,1,1,0,0,1-.39-0.076c-0.02-.011-0.04-0.033-0.06-0.046l-15.19-6.173-12.57,13.928a0.014,0.014,0,0,1-.01.014c-0.02.021-.03,0.038-0.05,0.057a1.069,1.069,0,0,1-.25.2l-0.03.013a1.072,1.072,0,0,1-.23.1,0.993,0.993,0,0,1-.88-0.24s0,0-.01,0v-0.009a0.976,0.976,0,0,1-.21-0.27c-0.01-.03-0.03-0.06-0.04-0.092s-0.04-.075-0.06-0.119l-4.83-21.5-19.75-7.918a0.934,0.934,0,0,1-.37-1.268h0a0.956,0.956,0,0,1,.48-0.5,0.323,0.323,0,0,1,.07-0.041,0.034,0.034,0,0,1,.02-0.013l72.54-24.526c0.03-.014.07-0.022,0.1-0.033l1.44-.474a0.972,0.972,0,0,1,1.14.465,0.92,0.92,0,0,1,.08.152c0,0.007.01,0.012,0.01,0.02a0.455,0.455,0,0,1,.02.114,0.723,0.723,0,0,1,.03.253,1.05,1.05,0,0,1-.03.178A1,1,0,0,1,1744.93,349.352Zm-24.86-8.819,1.55-1.5a45.167,45.167,0,0,1,12.69,8.656l-2.33.538A43.062,43.062,0,0,0,1720.07,340.533Zm-12.29,9.229a1.113,1.113,0,0,1-1.52-.127,1,1,0,0,1,.14-1.455l11.82-12.943a1.113,1.113,0,0,1,1.52.127,1,1,0,0,1-.14,1.454ZM1703,337a43,43,0,0,0-38.3,62.544l-1.58,1.3a44.991,44.991,0,0,1,50.4-64.589l-1.7,1.666A43.193,43.193,0,0,0,1703,337Zm-26.78,54.255a1.061,1.061,0,0,1,1.52.136,1.125,1.125,0,0,1-.14,1.558l-15.82,16.8a1.061,1.061,0,0,1-1.52-.136,1.127,1.127,0,0,1,.14-1.559Zm28.04,24.355a1.126,1.126,0,0,1,.14-1.559l8.82-8.8a1.061,1.061,0,0,1,1.52.136,1.127,1.127,0,0,1-.14,1.559l-8.82,8.8A1.061,1.061,0,0,1,1704.26,415.609ZM1703,423a43.02,43.02,0,0,0,39.6-59.782l1.01-2.623a45,45,0,0,1-76.15,46.989l1.53-1.286A42.924,42.924,0,0,0,1703,423Zm-7.81-22.614-4.03-17.907,48.89-30.358-8.33,7.07L1694.54,384l2.71,10.415Zm28.26-5.713-20.59-8.365,2.53-2.146L1722,391l17.35-35.661,1.44-1.227Zm-33.53-13.755-17.07-6.841,4.41-1.5,13.16,5.606,33.97-21.614,10.36-3.518Z" transform="translate(-1658 -335)"/>
  <path id="Shape_943_copy_2" data-name="Shape 943 copy 2" class="cls-2" d="M1691.16,382.478l48.89-30.358h0Zm34.22-25.984-34.96,22.151-14.08-5.76Zm-35.46,24.423-17.07-6.841h0Zm16.45,8.973-8.82,9.78,4.04-11.724Zm32.98-34.551-0.7,2.532-16.34,33.9-16.03-6.316-0.89-1.289Zm-36.49,30.968h0l10.3,4.182Zm-2.48-.523a0.977,0.977,0,0,0-.28.425c-0.02.044-.05,0.08-0.07,0.129l-2.78,8.076-1.32-.982L1693.85,384l37.35-25.63,0.52,0.821Z" transform="translate(-1658 -335)"/>
  <path id="Rounded_Rectangle_919_copy" data-name="Rounded Rectangle 919 copy" class="cls-3" d="M1750,383v-3a3,3,0,0,0,3,3h34a3,3,0,0,0,3-3v3h-40Zm40-48v11l-11-11h11Zm-10,9v-5l6,6h-5A1,1,0,0,1,1780,344Zm8,3h0v33l-1,1h-34l-1-1v-2h31.54a1.971,1.971,0,0,0,1.46-1.461V347h-5a2,2,0,0,1-2-2v-1a3,3,0,0,0,3,3h7Zm-38-9v-3h2.99A3,3,0,0,0,1750,338Z" transform="translate(-1658 -335)"/>
  <path id="Rounded_Rectangle_919_copy_2" data-name="Rounded Rectangle 919 copy 2" class="cls-4" d="M1784,378h-32V338a1,1,0,0,1,1-1h25v8a2,2,0,0,0,2,2h5v30A1,1,0,0,1,1784,378Zm-25-6h10a1,1,0,0,0,0-2h-10A1,1,0,0,0,1759,372Zm12-26h-12a1,1,0,0,0,0,2h12A1,1,0,0,0,1771,346Zm10,12h-22a1,1,0,0,0,0,2h22A1,1,0,0,0,1781,358Zm0,4h-22a1,1,0,0,0,0,2h22A1,1,0,0,0,1781,362Zm0,4h-22a1,1,0,0,0,0,2h22A1,1,0,0,0,1781,366Z" transform="translate(-1658 -335)"/>
  <path id="Rounded_Rectangle_704_copy_2" data-name="Rounded Rectangle 704 copy 2" class="cls-1" d="M1750,385h58v56h-58V385Zm53.09,56.007h-48.18c-3.52,0-4.91-1.381-4.91-4.794V409l1-2,9.56-6.8,1.56,1.256-9.59,6.886L1779,427.058l26.47-18.718-9.59-6.886,1.56-1.256L1807,407l1,2v27.214C1808,439.626,1806.6,441.007,1803.09,441.007ZM1781,414a2,2,0,1,1-2-2A2,2,0,0,1,1781,414Zm3.28-14.31c-3.51,3.51-4.19,3.1-4.28,7.311a1,1,0,0,1-2,0c0.01-4.4,1.2-5.462,4.76-8.68,1.54-1.462,3.23-3.279,3.25-5.452,0.03-4.155-3.42-5.9-6.64-5.922-4.07-.024-6.28,1.854-7.07,5.158A5.953,5.953,0,0,0,1772,394v0a1,1,0,0,1-1.99.034h-0.02a7.336,7.336,0,0,1,.61-3.043c1.24-3.667,4.34-5.976,8.89-5.976,4.65,0,8.5,2.882,8.5,7.729C1787.99,395.877,1786.42,397.684,1784.28,399.689Zm21.5,37.411c-0.8-.691-1.8-1.548-2.92-2.51l0.03,0.031A1.84,1.84,0,0,0,1803,434V412.572h0c1.16-.836,2.19-1.58,3-2.161V436A2.886,2.886,0,0,1,1805.78,437.1ZM1755,434a1.84,1.84,0,0,0,.11.621c-1.11.95-2.1,1.8-2.89,2.479a2.886,2.886,0,0,1-.22-1.1V410.406c0.81,0.579,1.84,1.32,3,2.154V434Zm2,2h44a2.191,2.191,0,0,0,.29-0.029l3.11,2.664a2.946,2.946,0,0,1-1.4.364h-48a2.946,2.946,0,0,1-1.4-.364l3.11-2.664A2.191,2.191,0,0,0,1757,436Z" transform="translate(-1658 -335)"/>
  <path id="Rounded_Rectangle_704_copy_5" data-name="Rounded Rectangle 704 copy 5" class="cls-2" d="M1802.89,434.621c-3.2-2.746-7.47-6.4-11.45-9.817l-1.76,1.239,11.61,9.928a2.191,2.191,0,0,1-.29.029h-44a2.191,2.191,0,0,1-.29-0.029l11.61-9.928-1.76-1.239c-3.98,3.416-8.25,7.071-11.45,9.817A1.84,1.84,0,0,1,1755,434V412.56c6.14,4.4,16.33,11.7,21.04,14.966a5.852,5.852,0,0,1,.58.447A3.284,3.284,0,0,0,1779,429a3.4,3.4,0,0,0,2.4-1.039c0.18-.148.41-0.346,0.64-0.5,4.77-3.262,14.87-10.5,20.96-14.883V434A1.84,1.84,0,0,1,1802.89,434.621Z" transform="translate(-1658 -335)"/>
  <path id="Rounded_Rectangle_840_copy_8" data-name="Rounded Rectangle 840 copy 8" class="cls-2" d="M1725.38,454.572a2.006,2.006,0,0,0-2.83,0l-19.23,19.172-1.41,1.411-1.42-1.411-7.07-7.057a2,2,0,0,0-2.83,0,1.978,1.978,0,0,0,0,2.823l7.45,7.438,2.45,2.442a2.034,2.034,0,0,0,.66.438,2,2,0,0,0,2.17-.438l2.44-2.432,19.62-19.563A2,2,0,0,0,1725.38,454.572Z" transform="translate(-1658 -335)"/>
  <path id="Rounded_Rectangle_840_copy_7" data-name="Rounded Rectangle 840 copy 7" class="cls-1" d="M1668,427h80v80h-80V427Zm40,80a40,40,0,1,1,40-40A40,40,0,0,1,1708,507Zm0-78a38,38,0,1,0,38,38A38,38,0,0,0,1708,429Zm30.74,52.529-0.03-.017a0.969,0.969,0,0,1-.84.488,1,1,0,0,1-1-1,1.021,1.021,0,0,1,.15-0.488l-0.01,0A31.934,31.934,0,0,0,1740,467a1,1,0,0,1,2,0A33.8,33.8,0,0,1,1738.74,481.529ZM1708,501a33.864,33.864,0,0,1-20.66-7l0.02-.017a0.968,0.968,0,0,1-.36-0.751,1,1,0,0,1,1-1,0.96,0.96,0,0,1,.61.23l0.01,0a31.975,31.975,0,0,0,45.57-7.087l0.03,0.023a0.993,0.993,0,1,1,1.46,1.335A33.954,33.954,0,0,1,1708,501Zm-3.26-20.2a4.025,4.025,0,0,1-2.07,1.1,3.989,3.989,0,0,1-3.59-1.1h0l-9.91-9.88a4,4,0,1,1,5.66-5.646l7.08,7.058,19.23-19.172a4,4,0,0,1,5.66,5.646ZM1717,436.25a1.043,1.043,0,0,1-.26-0.052v0.02a31.965,31.965,0,0,0-29.55,6.484l-0.02-.026a1,1,0,0,1-1.73-.676,0.986,0.986,0,0,1,.46-0.822,33.947,33.947,0,0,1,31.41-6.876v0.01a0.987,0.987,0,0,1,.69.938A1,1,0,0,1,1717,436.25ZM1683.43,446.5a32.1,32.1,0,0,0-5.59,9.807l-0.02-.009a1,1,0,0,1-1.95-.3,1.055,1.055,0,0,1,.11-0.434v0a33.791,33.791,0,0,1,5.78-10.184l0.01,0.008a0.975,0.975,0,0,1,.79-0.419,1,1,0,0,1,1,1,0.9,0.9,0,0,1-.16.508Z" transform="translate(-1658 -335)"/>
  <g>
    <path id="Ellipse_285_copy_2" data-name="Ellipse 285 copy 2" class="cls-1" d="M1720,535V518.5a9.449,9.449,0,0,0,2.23,6.107l-0.01.017s5.59,5.816,6.78,10.375h1s0.26-3.2,6.94-10.563l-0.02-.02A9.489,9.489,0,0,0,1729.5,509h9.5v26h-19Zm7-16.5a2.5,2.5,0,1,1,2.5,2.5A2.5,2.5,0,0,1,1727,518.5Zm5.78,8.094a20.513,20.513,0,0,0-3.28,5.062c-0.21-.481-0.89-1.5-1.35-2.29a36.439,36.439,0,0,1,5.02-6.546l0.88-1.3c1.3-1.624,1.44-2.912,1.44-5.151a8.964,8.964,0,0,0,.22-2.081,7.495,7.495,0,0,1,.29,7.944l0.03,0.046S1733.85,525.362,1732.78,526.594Zm-9.03-9.251c0-2.829,1.8-4.6,4.75-4.625,2.15-.015,2.82,1.022,3.63,2.149a4.434,4.434,0,0,0-2.63-.867,4.481,4.481,0,0,0-3.63,7.134A4.108,4.108,0,0,1,1723.75,517.343ZM1720,518.5V509h9.5A9.5,9.5,0,0,0,1720,518.5Z" transform="translate(-1658 -335)"/>
    <path id="Ellipse_286_copy_4" data-name="Ellipse 286 copy 4" class="cls-2" d="M1733.92,522.417l0.02,0.02a44.128,44.128,0,0,0-5.51,7.21,23.151,23.151,0,0,0-2.06-3.022c-0.46-.554-1.78-2.236-2.58-3.273-0.12-.143-0.24-0.292-0.35-0.444-0.18-.239-0.31-0.408-0.31-0.408l0.01-.037a7.5,7.5,0,0,1,12.57-8.172A9.212,9.212,0,0,1,1733.92,522.417Zm-1.79-7.55A4.488,4.488,0,1,0,1734,518.5,4.461,4.461,0,0,0,1732.13,514.867Z" transform="translate(-1658 -335)"/>
    <path id="Rounded_Rectangle_804_copy_5" data-name="Rounded Rectangle 804 copy 5" class="cls-2" d="M1702,514h12a1,1,0,0,1,1,1v9a1,1,0,0,1-1,1h-7.5l-1.5,2.206V527a1,1,0,0,0-1-1h-0.06v-1H1702a1,1,0,0,1-1-1v-9A1,1,0,0,1,1702,514Zm9,9a1.994,1.994,0,0,0,.63-3.888l0.21-.6a1.047,1.047,0,0,0-.33-1.425,1.035,1.035,0,0,0-1.4.424l-0.9,2.615A1.986,1.986,0,0,0,1711,523Zm-5,0a1.994,1.994,0,0,0,.63-3.888l0.21-.6a1.047,1.047,0,0,0-.33-1.425,1.035,1.035,0,0,0-1.4.424l-0.9,2.615a1.981,1.981,0,0,0-.21.876A2,2,0,0,0,1706,523Z" transform="translate(-1658 -335)"/>
    <path id="Rounded_Rectangle_888_copy_2" data-name="Rounded Rectangle 888 copy 2" class="cls-1" d="M1699,532v-7a3,3,0,0,0,3,3h1v3l1,1h1l4-4h6a3,3,0,0,0,3-3v7h-19Zm19-17a3,3,0,0,0-2.99-3H1718v3Zm-16,10h1.94v1H1702a1,1,0,0,1-1-1v-1A1,1,0,0,0,1702,525Zm14-10v10a1,1,0,0,1-1,1h-6.77l-3.23,3.208v-2l1.5-2.206h7.5a1.016,1.016,0,0,1,1-1v-9a1,1,0,0,0-1-1h-12a1,1,0,0,0-1,1h0a1,1,0,0,1,1-1h13A1,1,0,0,1,1716,515Zm-17,0v-3h2.98A3,3,0,0,0,1699,515Z" transform="translate(-1658 -335)"/>
    <path id="Rounded_Rectangle_596_copy_10" data-name="Rounded Rectangle 596 copy 10" class="cls-2" d="M1693,523.5l-0.63-.563-1.62,1.134,1.83,1.719a0.952,0.952,0,0,1-.58.211h-9.82l2.06-1.937-1.62-1.127L1680,525.3v-6.2l7,4.9h0.08l0.39,0.313,0.42-.313H1688l5-3.5v3Z" transform="translate(-1658 -335)"/>
    <path id="Rounded_Rectangle_889_copy" data-name="Rounded Rectangle 889 copy" class="cls-1" d="M1695.01,515H1697v2A2,2,0,0,0,1695.01,515Zm1.99,12v2h-2A2,2,0,0,0,1697,527Zm-4-6.5,2-1.4v6.2l-2-1.8v-3Zm-12.58-3.5h14.16l-7.09,5Zm1.76,9H1692a0.952,0.952,0,0,0,.58-0.211l1.29,1.21h-12.75Zm-4.18,3v-2a2,2,0,0,0,2,2h-2Zm0-12v-2h1.99A2,2,0,0,0,1678,517Z" transform="translate(-1658 -335)"/>
    <path id="Shape_915_copy_15" data-name="Shape 915 copy 15" class="cls-2" d="M1669.96,525.206a6.682,6.682,0,0,1-1.99,2.335,6.85,6.85,0,0,1-1.84.819,8.144,8.144,0,0,1-1.6-1.119c-0.24-.24-0.74-0.673-1.23-1.206l-0.65-.686c-0.5-.524-0.9-1.057-1.13-1.32a7.779,7.779,0,0,1-1.52-3.62,3.94,3.94,0,0,1,.8-2.894,1.665,1.665,0,0,1,1.79-.47,3.242,3.242,0,0,1,.92,1.069,12.608,12.608,0,0,0-.85,1.43,3.471,3.471,0,0,0-.18,1.813,2.8,2.8,0,0,0,.37,1.02c-0.05.531,0.55,1.068,1.21,1.788l0.65,0.686c0.87,0.913,1.46,1.747,2.12,1.034A2.7,2.7,0,0,1,1669.96,525.206Z" transform="translate(-1658 -335)"/>
    <path id="Shape_915_copy_13" data-name="Shape 915 copy 13" class="cls-1" d="M1670.47,528.01a3.056,3.056,0,0,1-2.54.972,7.572,7.572,0,0,1-2.24-.784,6.061,6.061,0,0,0,1.75-.819A6.581,6.581,0,0,0,1669.4,525a1.925,1.925,0,0,1,1.51,1.1A1.955,1.955,0,0,1,1670.47,528.01Zm-7.66-5.067a7.571,7.571,0,0,1-.69-1.424,3.325,3.325,0,0,1,.1-1.894,3.065,3.065,0,0,1,1.29-1.511,3.6,3.6,0,0,1,.52,1.394,2.434,2.434,0,0,1-.94,2.392A3.143,3.143,0,0,0,1662.81,522.943Zm5.44,8.057a5.013,5.013,0,0,0,3.66-1.815,3.332,3.332,0,0,0,.06-4.865,3.56,3.56,0,0,0-3.09-1.342c-1.73.028-2.24,1.261-2.43,1.025a5.412,5.412,0,0,0-.4-0.43l-0.64-.685c-0.17-.183-0.32-0.356-0.4-0.427-0.22-.193.93-0.739,0.96-2.584a5.46,5.46,0,0,0-1.71-3.785c-0.96-1.008-2.61-1.861-4.56.065a5.628,5.628,0,0,0-1.67,4.627,9.933,9.933,0,0,0,2.25,4.649c0.35,0.367.69,0.852,1.09,1.287l0.64,0.686c0.41,0.429.86,0.789,1.21,1.155a8.893,8.893,0,0,0,4.36,2.41,3.961,3.961,0,0,0,.43.029H1658V513h16.9a1,1,0,0,0-.64.281l-4.26,4.26V515a1,1,0,0,0-2,0v5a1,1,0,0,0,1,1h5a1,1,0,0,0,0-2h-2.61l4.3-4.291a0.995,0.995,0,0,0-.65-1.707H1676v18h-7.75Z" transform="translate(-1658 -335)"/>
  </g>
  <g id="Group_1_copy" data-name="Group 1 copy">
    <path class="cls-5" d="M1736.92,552.417l0.02,0.02C1730.26,559.8,1730,563,1730,563h-1c-1.19-4.559-6.78-10.375-6.78-10.375l0.01-.017A9.5,9.5,0,1,1,1736.92,552.417ZM1729.5,539a7.491,7.491,0,0,0-6.36,11.463l-0.01.037s0.13,0.169.31,0.408c0.11,0.152.23,0.3,0.35,0.444,0.8,1.037,2.12,2.719,2.58,3.273a26.68,26.68,0,0,1,3.13,5.031,20.513,20.513,0,0,1,3.28-5.062c1.07-1.232,3.25-4.313,3.25-4.313l-0.03-.046A7.495,7.495,0,0,0,1729.5,539Zm0,12a4.5,4.5,0,1,1,4.5-4.5A4.5,4.5,0,0,1,1729.5,551Zm0-7a2.5,2.5,0,1,0,2.5,2.5A2.5,2.5,0,0,0,1729.5,544Z" transform="translate(-1658 -335)"/>
    <path id="Rounded_Rectangle_804_copy" data-name="Rounded Rectangle 804 copy" class="cls-5" d="M1715,556h-6l-4,4h-1l-1-1v-3h-1a3,3,0,0,1-3-3V543a3,3,0,0,1,3-3h13a3,3,0,0,1,3,3v10A3,3,0,0,1,1715,556Zm1-13a1,1,0,0,0-1-1h-13a1,1,0,0,0-1,1v10a1,1,0,0,0,1,1h2a1,1,0,0,1,1,1v2.207l3.23-3.208H1715a1,1,0,0,0,1-1V543Zm-5,8a1.986,1.986,0,0,1-1.79-2.875l0.9-2.615a1.035,1.035,0,0,1,1.4-.424,1.047,1.047,0,0,1,.33,1.425l-0.21.6A1.994,1.994,0,0,1,1711,551Zm-5,0a2,2,0,0,1-2-2,1.981,1.981,0,0,1,.21-0.876l0.9-2.615a1.035,1.035,0,0,1,1.4-.424,1.047,1.047,0,0,1,.33,1.425l-0.21.6A1.994,1.994,0,0,1,1706,551Z" transform="translate(-1658 -335)"/>
    <path id="Rounded_Rectangle_596_copy_8" data-name="Rounded Rectangle 596 copy 8" class="cls-5" d="M1695,557h-15a2,2,0,0,1-2-2V545a2,2,0,0,1,2-2h15a2,2,0,0,1,2,2v10A2,2,0,0,1,1695,557Zm-13.88-2h12.75l-3.12-2.929,1.62-1.134L1695,553.3v-6.2l-7,4.9h-1l-7-4.9v6.2l2.62-2.363,1.62,1.128Zm13.46-10h-14.16l7.07,5Z" transform="translate(-1658 -335)"/>
    <path id="Shape_915_copy_11" data-name="Shape 915 copy 11" class="cls-5" d="M1675.69,542.707l-4.3,4.291H1674a1,1,0,0,1,0,2h-5a1,1,0,0,1-1-1v-5a1,1,0,0,1,2,0v2.543l4.26-4.26A1.01,1.01,0,0,1,1675.69,542.707Zm-8.11,16.264a8.9,8.9,0,0,1-4.36-2.409c-0.35-.367-0.8-0.727-1.21-1.156h0l-0.64-.686h0c-0.4-.435-0.74-0.92-1.09-1.287a9.933,9.933,0,0,1-2.25-4.649,5.628,5.628,0,0,1,1.67-4.627c1.95-1.926,3.6-1.073,4.56-.065a5.46,5.46,0,0,1,1.71,3.785c-0.03,1.845-1.18,2.391-.96,2.584,0.08,0.071.23,0.244,0.4,0.427l0.64,0.685a5.412,5.412,0,0,1,.4.43c0.19,0.236.7-1,2.43-1.025a3.56,3.56,0,0,1,3.09,1.342,3.332,3.332,0,0,1-.06,4.865A4.921,4.921,0,0,1,1667.58,558.971Zm3.33-4.872a2.043,2.043,0,0,0-1.69-1.105,2.271,2.271,0,0,0-2.39.891c-0.66.713-1.25-.121-2.12-1.034l-0.65-.686c-0.85-.935-1.63-1.561-0.97-2.264a2.436,2.436,0,0,0,.94-2.393,4.038,4.038,0,0,0-1.44-2.463,1.665,1.665,0,0,0-1.79.47,3.94,3.94,0,0,0-.8,2.894,7.779,7.779,0,0,0,1.52,3.62c0.23,0.263.63,0.8,1.13,1.32l0.65,0.686c0.49,0.533.99,0.966,1.23,1.206a7.023,7.023,0,0,0,3.4,1.741,3.056,3.056,0,0,0,2.54-.972A1.955,1.955,0,0,0,1670.91,554.1Z" transform="translate(-1658 -335)"/>
    <path id="Ellipse_286_copy_3" data-name="Ellipse 286 copy 3" class="cls-1" d="M1720,591V574.5a9.449,9.449,0,0,0,2.23,6.107l-0.01.017s5.59,5.816,6.78,10.375h1s0.26-3.2,6.94-10.563l-0.02-.02A9.489,9.489,0,0,0,1729.5,565h9.5v26h-19Zm9.5-24a7.495,7.495,0,0,1,6.5,11.235l0.03,0.046s-2.18,3.081-3.25,4.313a20.513,20.513,0,0,0-3.28,5.062,26.68,26.68,0,0,0-3.13-5.031c-0.46-.554-1.78-2.236-2.58-3.273-0.12-.143-0.24-0.292-0.35-0.444-0.18-.239-0.32-0.408-0.32-0.408l0.02-.037A7.491,7.491,0,0,1,1729.5,567Zm0,12a4.5,4.5,0,1,0-4.5-4.5A4.5,4.5,0,0,0,1729.5,579Zm0-7a2.5,2.5,0,1,1-2.5,2.5A2.5,2.5,0,0,1,1729.5,572Zm-9.5,2.5V565h9.5A9.5,9.5,0,0,0,1720,574.5Z" transform="translate(-1658 -335)"/>
    <path id="Rounded_Rectangle_804_copy_3" data-name="Rounded Rectangle 804 copy 3" class="cls-1" d="M1718,571a3,3,0,0,0-2.99-3H1718v3Zm-2,0v10a1,1,0,0,1-1,1h-6.77l-3.23,3.207V583a1,1,0,0,0-1-1h-2a1,1,0,0,1-1-1V571a1,1,0,0,1,1-1h13A1,1,0,0,1,1716,571Zm-9.37,4.111,0.21-.6a1.047,1.047,0,0,0-.33-1.425,1.035,1.035,0,0,0-1.4.424l-0.9,2.615a1.981,1.981,0,0,0-.21.876A2,2,0,1,0,1706.63,575.11Zm5,0,0.21-.6a1.047,1.047,0,0,0-.33-1.425,1.035,1.035,0,0,0-1.4.424l-0.9,2.615A2,2,0,1,0,1711.63,575.11ZM1699,571v-3h2.98A3,3,0,0,0,1699,571Zm3,13h1v3l1,1h1l4-4h6a3,3,0,0,0,3-3v7h-19v-7A3,3,0,0,0,1702,584Z" transform="translate(-1658 -335)"/>
    <path id="Rounded_Rectangle_596_copy_11" data-name="Rounded Rectangle 596 copy 11" class="cls-1" d="M1695.01,571H1697v2A2,2,0,0,0,1695.01,571Zm1.99,12v2h-2A2,2,0,0,0,1697,583Zm-6.25-2.929,3.12,2.929h-12.75l3.12-2.935-1.62-1.128L1680,581.3v-6.2l7,4.9h1l7-4.9v6.2l-2.63-2.363ZM1680.42,573h14.16l-7.09,5Zm-2.42,0v-2h1.99A2,2,0,0,0,1678,573Zm2,12h-2v-2A2,2,0,0,0,1680,585Z" transform="translate(-1658 -335)"/>
    <path id="Shape_915_copy_14" data-name="Shape 915 copy 14" class="cls-1" d="M1664.71,580.851c0.87,0.914,1.46,1.747,2.12,1.034a2.271,2.271,0,0,1,2.39-.891,2.043,2.043,0,0,1,1.69,1.105,1.955,1.955,0,0,1-.44,1.911,3.056,3.056,0,0,1-2.54.972,7.023,7.023,0,0,1-3.4-1.741c-0.24-.24-0.74-0.673-1.23-1.206l-0.65-.686c-0.5-.524-0.9-1.057-1.13-1.32a7.779,7.779,0,0,1-1.52-3.62,3.94,3.94,0,0,1,.8-2.894,1.665,1.665,0,0,1,1.79-.47,4.038,4.038,0,0,1,1.44,2.463,2.436,2.436,0,0,1-.94,2.393c-0.66.7,0.12,1.329,0.97,2.264Zm3.54,6.149a5.013,5.013,0,0,0,3.66-1.815,3.332,3.332,0,0,0,.06-4.865,3.56,3.56,0,0,0-3.09-1.342c-1.73.028-2.24,1.261-2.43,1.025a5.412,5.412,0,0,0-.4-0.43l-0.64-.685c-0.17-.183-0.32-0.356-0.4-0.427-0.22-.193.93-0.739,0.96-2.584a5.46,5.46,0,0,0-1.71-3.785c-0.96-1.008-2.61-1.861-4.56.065a5.628,5.628,0,0,0-1.67,4.627,9.933,9.933,0,0,0,2.25,4.649c0.35,0.367.69,0.852,1.09,1.287l0.64,0.686c0.41,0.429.86,0.789,1.21,1.156a8.9,8.9,0,0,0,4.36,2.409,3.961,3.961,0,0,0,.43.029H1658V569h16.9a1,1,0,0,0-.64.281l-4.26,4.26V571a1,1,0,0,0-2,0v5a1,1,0,0,0,1,1h5a1,1,0,0,0,0-2h-2.61l4.3-4.291a0.995,0.995,0,0,0-.65-1.707H1676v18h-7.75Z" transform="translate(-1658 -335)"/>
  </g>
  <g>
    <path class="cls-5" d="M1755.96,553.018l0.01,0.012c-5.72,6.178-5.97,7.97-5.97,7.97h-1c-0.55-1.678-4.09-5.867-5.47-7.453A8.5,8.5,0,1,1,1755.96,553.018ZM1749.5,541a6.5,6.5,0,0,0-6.5,6.5,6.418,6.418,0,0,0,1.02,3.464L1744,551c0.08,0.065,1.11,1.545,3.06,3.754a15.174,15.174,0,0,1,2.35,3.246h0.15a13.294,13.294,0,0,1,2.41-3.25A32.028,32.028,0,0,0,1755,551l-0.02-.036A6.418,6.418,0,0,0,1756,547.5,6.5,6.5,0,0,0,1749.5,541Zm0,11a4.5,4.5,0,1,1,4.5-4.5A4.5,4.5,0,0,1,1749.5,552Zm0-7a2.5,2.5,0,1,0,2.5,2.5A2.5,2.5,0,0,0,1749.5,545Z" transform="translate(-1658 -335)"/>
    <path id="Ellipse_287_copy" data-name="Ellipse 287 copy" class="cls-1" d="M1741,534V520.5a8.474,8.474,0,0,0,2.53,6.047c1.38,1.586,4.92,5.775,5.47,7.453h1s0.25-1.792,5.97-7.97l-0.01-.012A8.461,8.461,0,0,0,1758,520.5V534h-17Zm14-10a32.028,32.028,0,0,1-3.03,3.75,13.294,13.294,0,0,0-2.41,3.25h-0.15a15.174,15.174,0,0,0-2.35-3.246c-1.95-2.209-2.98-3.689-3.06-3.754l0.02-.036A6.418,6.418,0,0,1,1743,520.5a6.5,6.5,0,0,1,13,0,6.418,6.418,0,0,1-1.02,3.464Zm-5.5-8a4.5,4.5,0,1,0,4.5,4.5A4.5,4.5,0,0,0,1749.5,516Zm0,7a2.5,2.5,0,1,1,2.5-2.5A2.5,2.5,0,0,1,1749.5,523Zm0-11h8.5v8.5A8.5,8.5,0,0,0,1749.5,512Zm-8.5,8.5V512h8.5A8.5,8.5,0,0,0,1741,520.5Z" transform="translate(-1658 -335)"/>
    <path id="Ellipse_285_copy_6" data-name="Ellipse 285 copy 6" class="cls-1" d="M1741,586V572.5a8.474,8.474,0,0,0,2.53,6.047c1.38,1.586,4.92,5.775,5.47,7.452h1s0.25-1.791,5.97-7.969l-0.01-.012A8.461,8.461,0,0,0,1758,572.5V586h-17Zm14-10a32.028,32.028,0,0,1-3.03,3.75,13.294,13.294,0,0,0-2.41,3.25h-0.15c-0.25-.476-0.73-1.173-1.01-1.581,0.69-1.166,2.38-2.947,5.57-6.389l-0.01-.012a8.412,8.412,0,0,0,1.88-3.906,6.35,6.35,0,0,1,.16,1.388,6.418,6.418,0,0,1-1.02,3.464Zm-9.13-.866a4.48,4.48,0,0,1-.58-6.787,6.057,6.057,0,0,1,2.12-1.253,1.4,1.4,0,0,1,.59-0.075,4.4,4.4,0,0,1,.5-0.019,4.462,4.462,0,0,1,3.63,1.866,4.44,4.44,0,0,0-2.63-.866A4.481,4.481,0,0,0,1745.87,575.134ZM1749.5,570a2.5,2.5,0,1,1-2.5,2.5A2.5,2.5,0,0,1,1749.5,570Zm0-6h8.5v8.5A8.5,8.5,0,0,0,1749.5,564Zm-8.5,8.5V564h8.5A8.5,8.5,0,0,0,1741,572.5Z" transform="translate(-1658 -335)"/>
    <path id="Ellipse_285_copy_8" data-name="Ellipse 285 copy 8" class="cls-6" d="M1754.36,575.3l-0.43.512a37.6,37.6,0,0,0-5.09,6.452c-0.44-.627-1.15-1.79-1.78-2.509-1.95-2.209-2.98-3.689-3.06-3.754l0.02-.036A6.418,6.418,0,0,1,1743,572.5a6.494,6.494,0,0,1,12.84-1.388A8.933,8.933,0,0,1,1754.36,575.3Zm-2.23-6.433a4.479,4.479,0,0,0-6.84-.519h0a4.427,4.427,0,0,0-.94,1.419c-0.02.046-.03,0.1-0.05,0.145a5.19,5.19,0,0,0-.21.689,4.453,4.453,0,0,0-.09.9,4.57,4.57,0,0,0,1.97,3.634,4.262,4.262,0,0,0,3.53,1.832A4.466,4.466,0,0,0,1752.13,568.866Z" transform="translate(-1658 -335)"/>
  </g>
</svg>
