<svg id="casco.svg" xmlns="http://www.w3.org/2000/svg" width="50" height="50" viewBox="0 0 50 50">
  <defs>
    <style>
      .cls-1, .cls-2 {
        fill: #fff;
        fill-rule: evenodd;
      }

      .cls-1 {
        opacity: 0.9;
      }
    </style>
  </defs>
  <path id="Ellipse_301_copy_8" data-name="Ellipse 301 copy 8" class="cls-1" d="M387.233,516H385l-1-1v-6h20v7h-6.233A5.468,5.468,0,0,0,387.233,516ZM426,510v6h-3.233a5.468,5.468,0,0,0-10.534,0H406v-7h10Z" transform="translate(-380 -473)"/>
  <path id="Ellipse_301_copy_7" data-name="Ellipse 301 copy 7" class="cls-2" d="M427.393,493.017A7.773,7.773,0,0,0,423.5,492a7.508,7.508,0,0,0-4.519,1.43,20.949,20.949,0,0,0-9.826-17.185A21.977,21.977,0,0,1,427.393,493.017Zm-21.393.6V476.8a18.96,18.96,0,0,1,10.985,16.808A10.15,10.15,0,0,0,406,493.617ZM417.5,523a5.483,5.483,0,0,0,5.45-5H427l1-1v-8l-1-1-10-1-5-5-2-1H393l-2,1-3,5h-5l-1,1v8l2,2h3.05a5.483,5.483,0,0,0,5.45,5H380V497h2c0-1.657,2.015-3,4.5-3s4.5,1.342,4.5,3h2c0-1.657,2.462-3,5.5-3s5.5,1.342,5.5,3h2c0-1.657,2.462-3,5.5-3s5.5,1.342,5.5,3h2c0-1.657,2.015-3,4.5-3s4.5,1.342,4.5,3h2v26H417.5Zm-25-9a3.5,3.5,0,1,1-3.5,3.5A3.5,3.5,0,0,1,392.5,514Zm0,5a1.5,1.5,0,1,0-1.5-1.5A1.5,1.5,0,0,0,392.5,519Zm25-5a3.5,3.5,0,1,1-3.5,3.5A3.5,3.5,0,0,1,417.5,514Zm0,5a1.5,1.5,0,1,0-1.5-1.5A1.5,1.5,0,0,0,417.5,519Zm-19.784-16H410l4,4H396.287Zm-7.24,4,2.34-4h2.9l-1.429,4h-3.808Zm7.474,11h14.1a5.483,5.483,0,0,0,5.45,5h-25A5.483,5.483,0,0,0,397.95,518ZM406,474a1,1,0,0,0-1-1h25v24a3.911,3.911,0,0,0-.144-1.038A23.961,23.961,0,0,0,406,474Zm-2,2.8v16.815a10.15,10.15,0,0,0-10.985-.007A18.96,18.96,0,0,1,404,476.8ZM386.5,492a7.773,7.773,0,0,0-3.893,1.018,21.977,21.977,0,0,1,18.238-16.773,20.949,20.949,0,0,0-9.826,17.185A7.51,7.51,0,0,0,386.5,492ZM404,474a23.961,23.961,0,0,0-23.856,21.962A3.906,3.906,0,0,0,380,497V473h25A1,1,0,0,0,404,474Z" transform="translate(-380 -473)"/>
</svg>
