<svg id="control.svg" xmlns="http://www.w3.org/2000/svg" width="50" height="50" viewBox="0 0 50 50">
  <defs>
    <style>
      .cls-1, .cls-2 {
        fill: #fff;
        fill-rule: evenodd;
      }

      .cls-1 {
        opacity: 0.9;
      }
    </style>
  </defs>
  <path id="Rectangle_715_copy_4" data-name="Rectangle 715 copy 4" class="cls-1" d="M434,566a3,3,0,0,1,3-3h40a3,3,0,0,1,3,3v1H467a3,3,0,0,0-3,3v3H450v-3a3,3,0,0,0-3-3H434v-1Z" transform="translate(-432 -525)"/>
  <path id="Rectangle_715_copy_3" data-name="Rectangle 715 copy 3" class="cls-2" d="M432,575h50v-9a5,5,0,0,0-5-5h0v-2a2,2,0,0,0-2-2h-6a2,2,0,0,0-2,2v2h-6V551h2l3.626-13.181-0.033-.013A9.984,9.984,0,0,0,457,525h25v50H432Zm39-31a1,1,0,0,0,1,1h5a1,1,0,1,0,0-2h-5A1,1,0,0,0,471,544Zm1-6a1,1,0,0,0,1,1h6a1,1,0,1,0,0-2h-6A1,1,0,0,0,472,538Zm9-7h-7a1,1,0,0,0,0,2h7A1,1,0,0,0,481,531Zm-36,28v2h-6v-2h6Zm10,2V551h4v10h-4Zm6.438-12h-8.875l-3.282-11.844,0.012-.036A8,8,0,1,1,464.738,537l0.012,0.032Zm-2.224-19.551A5.92,5.92,0,0,0,457,529a5.928,5.928,0,0,0-5.788,7.5l-0.019.007,2.2,7.376,1.858-.491-2.154-7.517,0.007-.007A3.941,3.941,0,0,1,453,535a4,4,0,0,1,4-4,3.959,3.959,0,0,1,1.663.372l0.013-.032a0.969,0.969,0,0,0,.324.066,1,1,0,0,0,1-1A0.987,0.987,0,0,0,459.214,529.449ZM475,559v2h-6v-2h6Zm5,10v4H466v-3a1,1,0,0,1,1-1h13Zm-32,1v3H434v-4h13A1,1,0,0,1,448,570Zm-1-35a9.988,9.988,0,0,0,.381,2.706l-0.007,0L451,551h2v10h-6v-2a2,2,0,0,0-2-2h-6a2,2,0,0,0-2,2v2h0a5,5,0,0,0-5,5V532a1,1,0,0,0,1,1h7a1,1,0,0,0,0-2h-7a1,1,0,0,0-1,1v-7h25A10,10,0,0,0,447,535Zm-6,2h-6a1,1,0,1,0,0,2h6A1,1,0,1,0,441,537Zm1,6h-5a1,1,0,1,0,0,2h5A1,1,0,1,0,442,543Z" transform="translate(-432 -525)"/>
</svg>
