<svg id="defect.svg" xmlns="http://www.w3.org/2000/svg" width="50" height="50" viewBox="0 0 50 50">
  <defs>
    <style>
      .cls-1, .cls-2 {
        fill: #fff;
        fill-rule: evenodd;
      }

      .cls-1 {
        opacity: 0.9;
      }
    </style>
  </defs>
  <path id="Rounded_Rectangle_974_copy_9" data-name="Rounded Rectangle 974 copy 9" class="cls-1" d="M518.993,544.811a7.479,7.479,0,0,0-2.805-2.805,7.606,7.606,0,0,0,2.812-2.83,7.6,7.6,0,0,0,2.812,2.83A7.61,7.61,0,0,0,518.993,544.811ZM509,553.7a6.015,6.015,0,0,0-1.7-1.7,6.035,6.035,0,0,0,1.7-1.687A6.035,6.035,0,0,0,510.7,552,6.051,6.051,0,0,0,509,553.7Z" transform="translate(-484 -525)"/>
  <path id="Rounded_Rectangle_974_copy_8" data-name="Rounded Rectangle 974 copy 8" class="cls-2" d="M484,575v-2h1l2,2h4l2-2h2l2,2h4l2-2h2l2,2h4l2-2h2l2,2h4l2-2h2l2,2h4l2-2h1V525h0v50H484Zm6-48h-2l-2-2h6Zm8,0-2-2h6l-2,2h-2Zm10,0-2-2h6l-2,2h-2Zm10,0-2-2h6l-2,2h-2Zm10,0-2-2h6l-2,2h-2Zm0,46-2-2h-4l-2,2h-2l-2-2h-4l-2,2h-2l-2-2h-4l-2,2h-2l-2-2h-4l-2,2h-2l-2-2V528h0.493l1,1h3.014l2-2h2.986l2,2h3.014l2-2h2.986l2,2h3.014l2-2h2.986l2,2h3.014l2-2h2.986l2,2h3.014l0.854-.963L532,528v43l-2,2h-2Zm-33-37a1,1,0,0,0-2,0v28a1,1,0,0,0,2,0V536Zm28,28a1,1,0,0,0,2,0V547.6l-2,3.2V564Zm-10,0a1,1,0,0,0,2,0v-6.6l-2,2.4V564Zm-10,0a1,1,0,0,0,2,0v-4.2l-2-2.4V564Zm2-28a1,1,0,0,0-2,0v10.571l2-2.285V536Zm5,11a1,1,0,0,0-2,0,4,4,0,0,1-4,4,1,1,0,0,0,0,2,4,4,0,0,1,4,4,1,1,0,0,0,2,0,4,4,0,0,1,4-4,1,1,0,0,0,0-2A4,4,0,0,1,510,547Zm16-6v-0.051c-0.167.016-.329,0.051-0.5,0.051a5.5,5.5,0,0,1-5.5-5.5c0-.171.035-0.333,0.05-0.5H520a1,1,0,0,0-2,0h-0.05c0.015,0.167.05,0.329,0.05,0.5a5.5,5.5,0,0,1-5.5,5.5c-0.171,0-.333-0.035-0.5-0.051V541a1,1,0,0,0,0,2v0.05c0.167-.015.329-0.05,0.5-0.05a5.5,5.5,0,0,1,5.5,5.5c0,0.171-.035.333-0.05,0.5H518a1,1,0,0,0,2,0h0.05c-0.015-.167-0.05-0.329-0.05-0.5a5.5,5.5,0,0,1,5.5-5.5c0.171,0,.333.035,0.5,0.05V543A1,1,0,0,0,526,541Z" transform="translate(-484 -525)"/>
</svg>
