<svg id="official.svg" xmlns="http://www.w3.org/2000/svg" width="50" height="50" viewBox="0 0 50 50">
  <defs>
    <style>
      .cls-1, .cls-2 {
        fill: #fff;
        fill-rule: evenodd;
      }

      .cls-1 {
        opacity: 0.9;
      }
    </style>
  </defs>
  <path id="Rounded_Rectangle_990_copy_4" data-name="Rounded Rectangle 990 copy 4" class="cls-1" d="M457,483a14.993,14.993,0,0,1,4,29.444v-7.391A8.987,8.987,0,0,0,461.11,489H459v8a1,1,0,0,1-1,1h-2a1,1,0,0,1-1-1v-8h-2.11a8.985,8.985,0,0,0,.11,16.051v7.393A14.993,14.993,0,0,1,457,483Z" transform="translate(-432 -473)"/>
  <path id="Rounded_Rectangle_990_copy_3" data-name="Rounded Rectangle 990 copy 3" class="cls-2" d="M432,523V498a25,25,0,1,0,25-25h25v50H432Zm25-48a23,23,0,1,1-23,23A23,23,0,0,1,457,475Zm-2,2.105v0a20.711,20.711,0,0,0-7.235,2.083,0.985,0.985,0,0,0-.765.952,1,1,0,0,0,1,1,0.97,0.97,0,0,0,.55-0.187l0.023,0.04A18.8,18.8,0,0,1,455,479.106h0A1,1,0,0,0,455,477.105Zm11.23,2.077A20.737,20.737,0,0,0,459,477.1v0a1,1,0,0,0,0,2h0a18.8,18.8,0,0,1,6.46,1.9l0.022-.036a0.967,0.967,0,0,0,.518.165,1,1,0,0,0,1-1A0.987,0.987,0,0,0,466.23,479.182ZM474.719,487a0.987,0.987,0,0,0-.336-0.736,21.14,21.14,0,0,0-4.613-4.877A0.981,0.981,0,0,0,469,481a1,1,0,0,0-1,1,0.984,0.984,0,0,0,.447.811l-0.024.038a19.147,19.147,0,0,1,4.5,4.8l0.037-.024a0.986,0.986,0,0,0,.762.374A1,1,0,0,0,474.719,487Zm-10.714,29.624a1,1,0,0,0,1.242.677,0.645,0.645,0,0,0,.058-0.031v0a20.665,20.665,0,0,0,6.147-4.121,0.987,0.987,0,0,0,.519-1.158,1,1,0,0,0-1.593-.492l-0.037-.033a18.812,18.812,0,0,1-5.625,3.875l0.011,0.035c-0.015,0-.029,0-0.044,0A1,1,0,0,0,464.005,516.624Zm-12,1.248a0.986,0.986,0,0,0,.962.7,20.849,20.849,0,0,0,7.906.022,0.985,0.985,0,0,0,.434-0.022,1,1,0,0,0,.678-1.242,0.987,0.987,0,0,0-1.093-.69l-0.016-.059a18.828,18.828,0,0,1-7.708,0l-0.007.038a0.973,0.973,0,0,0-.479.008A1,1,0,0,0,452.01,517.872Zm-9.976-5.381a0.979,0.979,0,0,0,.224.384l-0.027.026a21.123,21.123,0,0,0,6.263,4.267c0.009,0.006.019,0.01,0.028,0.015s0.03,0.015.045,0.022l0-.007a0.986,0.986,0,0,0,.695.06,1,1,0,0,0,.677-1.241,0.979,0.979,0,0,0-.626-0.642l0.008-.019a19.115,19.115,0,0,1-5.533-3.735,0.99,0.99,0,0,0-1.079-.371A1,1,0,0,0,442.034,512.491ZM457,515a17,17,0,1,0-17-17A17,17,0,0,0,457,515Zm-17.688-28a1,1,0,0,0,1,1,0.982,0.982,0,0,0,.752-0.36l0.016,0.01a19.165,19.165,0,0,1,4.58-4.86l-0.026-.034A0.983,0.983,0,0,0,446,482a1,1,0,0,0-1-1,0.983,0.983,0,0,0-.76.371,21.111,21.111,0,0,0-4.836,5.189l0.014,0.01A0.986,0.986,0,0,0,439.312,487ZM450,497a6.985,6.985,0,0,1,3-5.741V497a3,3,0,0,0,3,3h2a3,3,0,0,0,3-3v-5.741A7,7,0,0,1,457,504v2a9.03,9.03,0,0,0,2-.231v7.082a13.5,13.5,0,0,1-4,0v-9.145A7,7,0,0,1,450,497Zm-18,1V473h25A25,25,0,0,0,432,498Z" transform="translate(-432 -473)"/>
</svg>
