<svg id="guarantee.svg" xmlns="http://www.w3.org/2000/svg" width="50" height="50" viewBox="0 0 50 50">
  <defs>
    <style>
      .cls-1, .cls-2 {
        fill: #fff;
        fill-rule: evenodd;
      }

      .cls-1 {
        opacity: 0.9;
      }
    </style>
  </defs>
  <path id="Rectangle_670_copy" data-name="Rectangle 670 copy" class="cls-1" d="M473,296h-4.579l5.98-6H479Zm-6-6,6-6v4.577l-6,6.008V290Zm-10,27a10.974,10.974,0,0,0,10.023-15.5l1.5-1.5h3.3A16.02,16.02,0,1,1,463,291.174v3.31l-1.5,1.5A10.994,10.994,0,1,0,457,317Z" transform="translate(-432 -281)"/>
  <path id="Shape_934_copy_9" data-name="Shape 934 copy 9" class="cls-2" d="M481.052,331a0.981,0.981,0,0,0,.948-0.98V331h-0.948Zm-5.7-8.068A24.881,24.881,0,0,0,482,306v24.006a0.99,0.99,0,0,0-.292-0.7Zm3.027-25.367a23.051,23.051,0,1,1-12.948-12.947l1.538-1.538A24.911,24.911,0,0,0,457,281h16.5a1.475,1.475,0,0,0-1.152.575l-7.359,7.255V296.6l-6.7,6.7a3.027,3.027,0,1,0,1.409,1.414l6.7-6.707h7.77l7.16-7.263A1.5,1.5,0,0,0,482,289.5V306a24.9,24.9,0,0,0-2.081-9.973Zm-4.432,2.424h-2.128a0.076,0.076,0,0,0,0,.011h-1.945l-2.777,1.7c-0.037-.086-0.066-0.177-0.1-0.263l-0.846.846-0.153.094,0.013,0.046-0.548.548a9.035,9.035,0,1,1-5.437-5.437L461.562,296c-0.066-.03-0.137-0.052-0.2-0.081L463,292.993v-1.819l0.011,0V289.05A18.057,18.057,0,1,0,473.95,299.989ZM480.5,288H475v-5.5h0s0,0,0,0a1.5,1.5,0,0,0-1.5-1.5H482v8.5A1.5,1.5,0,0,0,480.5,288ZM432,306V281h25A25,25,0,0,0,432,306Zm0.291,23.308a0.993,0.993,0,0,0-.291.7V306a24.881,24.881,0,0,0,6.645,16.932ZM432.948,331H432v-0.98A0.979,0.979,0,0,0,432.948,331Zm7.108-6.655A24.884,24.884,0,0,0,457,331H433.049a0.994,0.994,0,0,0,.657-0.282Zm40.238,6.373a0.992,0.992,0,0,0,.657.282H457a24.884,24.884,0,0,0,16.944-6.655Z" transform="translate(-432 -281)"/>
</svg>
