<?xml version="1.0" encoding="utf-8"?>
<!-- Generator: Adobe Illustrator 18.1.1, SVG Export Plug-In . SVG Version: 6.00 Build 0)  -->
<svg version="1.1" id="Layer_1" xmlns="http://www.w3.org/2000/svg" xmlns:xlink="http://www.w3.org/1999/xlink" x="0px" y="0px"
	 viewBox="0 0 100 100" enable-background="new 0 0 100 100" xml:space="preserve">
<g>
	<path fill="none" stroke="#151D57" stroke-width="3" stroke-miterlimit="10" d="M65.6,72.8H34.2c-1.7,0-3-1.3-3-3V31.3
		c0-1.6,1.4-3,3-3h31.3c1.7,0,3,1.4,3,3v38.5C68.6,71.4,67.2,72.8,65.6,72.8z"/>
	<g>
		<polyline fill="none" stroke="#151D57" stroke-width="2" stroke-miterlimit="10" points="36.4,37.3 39.3,40.1 43.5,35.5 		"/>
		<line fill="none" stroke="#151D57" stroke-width="2" stroke-miterlimit="10" x1="47.4" y1="38.8" x2="63.5" y2="38.8"/>
	</g>
	<g>
		<polyline fill="none" stroke="#151D57" stroke-width="2" stroke-miterlimit="10" points="36.4,46.7 39.3,49.4 43.5,44.9 		"/>
		<line fill="none" stroke="#151D57" stroke-width="2" stroke-miterlimit="10" x1="47.4" y1="48.1" x2="63.5" y2="48.1"/>
	</g>
	<g>
		<polyline fill="none" stroke="#151D57" stroke-width="2" stroke-miterlimit="10" points="36.4,56 39.3,58.8 43.5,54.2 		"/>
		<line fill="none" stroke="#151D57" stroke-width="2" stroke-miterlimit="10" x1="47.4" y1="57.5" x2="63.5" y2="57.5"/>
	</g>
</g>
</svg>
