<?xml version="1.0" encoding="utf-8"?>
<!-- Generator: Adobe Illustrator 18.1.1, SVG Export Plug-In . SVG Version: 6.00 Build 0)  -->
<svg version="1.1" id="Layer_1" xmlns="http://www.w3.org/2000/svg" xmlns:xlink="http://www.w3.org/1999/xlink" x="0px" y="0px"
	 viewBox="0 0 100 100" enable-background="new 0 0 100 100" xml:space="preserve">
<g>
	<g>
		<path fill="none" stroke="#151D57" stroke-width="3" stroke-miterlimit="10" d="M49.2,66h6.9c-0.1-8.1,5.4-11.2,5.4-17.8v0
			c0-6.6-5.4-12-12-12h0.1c-6.6,0-11.9,5.4-11.9,12v0c0,6.6,5.5,9.7,5.4,17.8h6.9"/>
	</g>
	
		<line fill="none" stroke="#151D57" stroke-width="3" stroke-linecap="round" stroke-linejoin="round" stroke-miterlimit="10" x1="44" y1="69.6" x2="55.4" y2="69.6"/>
	
		<line fill="none" stroke="#151D57" stroke-width="2" stroke-linecap="round" stroke-linejoin="round" stroke-miterlimit="10" x1="23.9" y1="49" x2="30.9" y2="49"/>
	
		<line fill="none" stroke="#151D57" stroke-width="2" stroke-linecap="round" stroke-linejoin="round" stroke-miterlimit="10" x1="30.9" y1="67.6" x2="35.9" y2="62.7"/>
	
		<line fill="none" stroke="#151D57" stroke-width="2" stroke-linecap="round" stroke-linejoin="round" stroke-miterlimit="10" x1="36.1" y1="35.2" x2="31.1" y2="30.2"/>
	
		<line fill="none" stroke="#151D57" stroke-width="2" stroke-linecap="round" stroke-linejoin="round" stroke-miterlimit="10" x1="49.7" y1="29.5" x2="49.7" y2="22.5"/>
	
		<line fill="none" stroke="#151D57" stroke-width="2" stroke-linecap="round" stroke-linejoin="round" stroke-miterlimit="10" x1="75.9" y1="49" x2="68.9" y2="49"/>
	
		<line fill="none" stroke="#151D57" stroke-width="2" stroke-linecap="round" stroke-linejoin="round" stroke-miterlimit="10" x1="68.4" y1="67.6" x2="63.5" y2="62.7"/>
	
		<line fill="none" stroke="#151D57" stroke-width="2" stroke-linecap="round" stroke-linejoin="round" stroke-miterlimit="10" x1="63.6" y1="35.2" x2="68.6" y2="30.2"/>
	
		<line fill="none" stroke="#151D57" stroke-width="3" stroke-linecap="round" stroke-linejoin="round" stroke-miterlimit="10" x1="44" y1="73.2" x2="55.4" y2="73.2"/>
	
		<line fill="none" stroke="#151D57" stroke-width="3" stroke-linecap="round" stroke-linejoin="round" stroke-miterlimit="10" x1="46.4" y1="76.8" x2="52.9" y2="76.8"/>
	<path fill="none" stroke="#151D57" stroke-width="2" stroke-miterlimit="10" d="M41.9,47.2c0-3.8,3-6.8,6.8-6.8"/>
</g>
</svg>
