<?xml version="1.0" encoding="utf-8"?>
<!-- Generator: Adobe Illustrator 22.0.1, SVG Export Plug-In . SVG Version: 6.00 Build 0)  -->
<svg version="1.1" id="Ñëîé_1" xmlns="http://www.w3.org/2000/svg" xmlns:xlink="http://www.w3.org/1999/xlink" x="0px" y="0px"
	 viewBox="0 0 932.6 1326.5" style="enable-background:new 0 0 932.6 1326.5;" xml:space="preserve">
<style type="text/css">
	.st0{fill:#EBEBEB;}
</style>
<path class="st0" d="M863.6,540.4C863.6,540.4,863.6,540.4,863.6,540.4l0-148.8C863.7,175.2,688.3-0.1,472-0.1h-11.4
	C244.3-0.1,68.9,175.2,68.9,391.6v148.8c0,0,0,0,0,0C28.5,557.2,0,597.2,0,643.8v570.9c0,61.8,50.1,111.9,111.9,111.9h708.8
	c61.8,0,111.9-50.1,111.9-111.9V643.8C932.6,597.2,904.1,557.2,863.6,540.4z M109,531.9c1,0,1.9,0,2.9,0
	C110.9,531.8,110,531.9,109,531.9z M81.7,536C81.7,536,81.7,536,81.7,536C81.7,536,81.7,536,81.7,536z M84.3,535.3
	C84.3,535.3,84.4,535.3,84.3,535.3C84.4,535.3,84.3,535.3,84.3,535.3z M87,534.6c0.1,0,0.1,0,0.2,0C87.1,534.6,87,534.6,87,534.6z
	 M89.6,534.1c0.1,0,0.2,0,0.3-0.1C89.8,534,89.7,534,89.6,534.1z M92.3,533.5c0.1,0,0.3,0,0.4-0.1C92.6,533.5,92.5,533.5,92.3,533.5
	z M95.1,533.1c0.2,0,0.4-0.1,0.6-0.1C95.4,533.1,95.2,533.1,95.1,533.1z M97.8,532.7c0.3,0,0.5-0.1,0.8-0.1
	C98.3,532.7,98.1,532.7,97.8,532.7z M100.6,532.4c0.3,0,0.7-0.1,1-0.1C101.2,532.4,100.9,532.4,100.6,532.4z M103.4,532.2
	c0.4,0,0.8-0.1,1.3-0.1C104.2,532.1,103.8,532.1,103.4,532.2z M106.2,532c0.5,0,1.1,0,1.6-0.1C107.3,531.9,106.7,532,106.2,532z
	 M531.2,934.6v112.8c0,35.8-29,64.9-64.9,64.9c-35.8,0-64.9-29-64.9-64.9V934.6c-24.7-19.3-40.5-49.3-40.5-83.1
	c0-58.2,47.2-105.4,105.4-105.4c58.2,0,105.4,47.2,105.4,105.4C571.7,885.3,555.8,915.3,531.2,934.6z M199.5,531.8V391.6
	c0-144,117.1-261.1,261.1-261.1H472c144,0,261.1,117.1,261.1,261.1v140.3H199.5z M823.5,531.9c-1,0-1.9,0-2.9,0
	C821.6,531.8,822.6,531.9,823.5,531.9z M850.9,536C850.9,536,850.9,536,850.9,536C850.9,536,850.9,536,850.9,536z M848.3,535.3
	C848.2,535.3,848.2,535.3,848.3,535.3C848.2,535.3,848.2,535.3,848.3,535.3z M845.6,534.6c-0.1,0-0.1,0-0.2,0
	C845.5,534.6,845.6,534.6,845.6,534.6z M842.9,534.1c-0.1,0-0.2,0-0.3-0.1C842.7,534,842.8,534,842.9,534.1z M840.2,533.5
	c-0.1,0-0.3,0-0.4-0.1C840,533.5,840.1,533.5,840.2,533.5z M837.5,533.1c-0.2,0-0.4-0.1-0.6-0.1C837.1,533,837.3,533.1,837.5,533.1z
	 M834.8,532.7c-0.3,0-0.5-0.1-0.8-0.1C834.3,532.7,834.5,532.7,834.8,532.7z M832,532.4c-0.3,0-0.7-0.1-1-0.1
	C831.3,532.4,831.7,532.4,832,532.4z M829.2,532.2c-0.4,0-0.8-0.1-1.3-0.1C828.4,532.1,828.8,532.1,829.2,532.2z M826.4,532
	c-0.6,0-1.1,0-1.7-0.1C825.3,531.9,825.8,532,826.4,532z"/>
</svg>
