<?xml version="1.0" encoding="utf-8"?>
<!-- Generator: Adobe Illustrator 18.1.1, SVG Export Plug-In . SVG Version: 6.00 Build 0)  -->
<svg version="1.1" id="Layer_1" xmlns="http://www.w3.org/2000/svg" xmlns:xlink="http://www.w3.org/1999/xlink" x="0px" y="0px"
	 viewBox="0 0 100 100" enable-background="new 0 0 100 100" xml:space="preserve">
<g>
	<path fill="none" stroke="#151D57" stroke-width="3" stroke-miterlimit="10" d="M42.5,29.4c2.4,1.5,6.5,9.9,6.5,9.9
		s-9.4,0.3-11.8-1.2s-3.2-4.6-1.7-7S40.1,28,42.5,29.4z"/>
	<path fill="none" stroke="#151D57" stroke-width="3" stroke-miterlimit="10" d="M56.8,29.4c-2.4,1.5-6.5,9.9-6.5,9.9
		s9.4,0.3,11.8-1.2s3.2-4.6,1.7-7S59.2,28,56.8,29.4z"/>
	<path fill="none" stroke="#151D57" stroke-width="3" stroke-miterlimit="10" d="M67.1,46.2v22.3c0,1.7-1.3,3-3,3h-29
		c-1.7,0-3-1.3-3-3V46.2"/>
	<path fill="none" stroke="#151D57" stroke-width="3" stroke-miterlimit="10" d="M68.2,47.2H31c-1.1,0-2-0.9-2-2v-3.8
		c0-1.1,0.9-2,2-2h37.3c1.1,0,2,0.9,2,2v3.8C70.2,46.3,69.3,47.2,68.2,47.2z"/>
	<rect x="46.3" y="39.9" fill="none" stroke="#151D57" stroke-width="2" stroke-miterlimit="10" width="6.5" height="31.4"/>
</g>
</svg>
