<svg id="ideal.svg" xmlns="http://www.w3.org/2000/svg" width="40" height="40" viewBox="0 0 40 40">
  <defs>
    <style>
      .cls-1, .cls-2 {
        fill: #fff;
        fill-rule: evenodd;
      }

      .cls-1 {
        opacity: 0.9;
      }
    </style>
  </defs>
  <path id="Rounded_Rectangle_978_copy_7" data-name="Rounded Rectangle 978 copy 7" class="cls-1" d="M580.4,237l-3.434-7.274L572.6,237h7.8ZM584,237H596l-6-8.3Zm19.032-7.274L599.6,237h7.8Z" transform="translate(-570 -226)"/>
  <path id="Rounded_Rectangle_978_copy_6" data-name="Rounded Rectangle 978 copy 6" class="cls-2" d="M590.226,266H591l19-27v-2l-7-11h7v40H590.226ZM570,237V226h7Zm19,29H570V239Zm-5.623-27h13.268L590,261.465Zm9.016,21.544L598.764,239h8.544Zm5.43-24.484L592,228h9.632c-0.009.023-.028,0.039-0.035,0.063Zm-10.195,24.513L572.692,239h8.575Zm-5.451-24.513-3.776-8c-0.008-.024-0.026-0.04-0.036-0.063H588Z" transform="translate(-570 -226)"/>
</svg>
