<svg id="management_venture.svg" xmlns="http://www.w3.org/2000/svg" width="40" height="40" viewBox="0 0 40 40">
  <defs>
    <style>
      .cls-1, .cls-2 {
        fill: #fff;
        fill-rule: evenodd;
      }

      .cls-1 {
        opacity: 0.9;
      }
    </style>
  </defs>
  <path id="Rectangle_725_copy_5" data-name="Rectangle 725 copy 5" class="cls-1" d="M563,466.5a8.5,8.5,0,1,0-8.5,8.5A8.5,8.5,0,0,0,563,466.5ZM552,472a1.581,1.581,0,0,1-1-3v-1a1,1,0,0,1,0-2v-4a1,1,0,0,1,1-1h3.5a3.5,3.5,0,0,1,0,7H553v1h3a1,1,0,0,1,0,2h-3A1,1,0,0,1,552,472Zm2-6h1.5a1.5,1.5,0,1,0,0-3H553v3h1Z" transform="translate(-534 -456)"/>
  <path id="Rectangle_725_copy_4" data-name="Rectangle 725 copy 4" class="cls-2" d="M534,456h40v40H534V456Zm39.782,21.792c-0.919,4.548-5.469,5.7-8.345,5.1a4.147,4.147,0,0,1-3.2-2.843A5.851,5.851,0,0,0,561.5,480a6.439,6.439,0,0,0-5.945,4H563l1,1-0.531,4-1,1h-0.276l-0.714,5-1,1H547.473l-1-1-0.714-5H545.5l-1-1-0.5-4,1-1h7.683a6.971,6.971,0,0,0-5.739-4.913,4.152,4.152,0,0,1-1.392,2.649c-2.136,1.885-7.454,1.755-9.548-.986a8.446,8.446,0,0,1-2.047-5.792,3.42,3.42,0,0,0,4.032.861c2.324-1.154,5.873-2.869,7.563-.986a5.7,5.7,0,0,1,1.209,2.213,8.953,8.953,0,0,1,6.352,3.492,11.113,11.113,0,0,1,.077-3.628,10.52,10.52,0,1,1,2.022.054,9.7,9.7,0,0,0-.03,3.888A8.438,8.438,0,0,1,561.5,478c0.175,0,.347.014,0.519,0.026a4.973,4.973,0,0,1,.174-0.879c0.691-2.332,4.8-2.511,7.511-2.6a3.075,3.075,0,0,0,3.06-2.534C573.377,473.315,574.435,474.561,573.782,477.792Zm-25.438,16.177L559.656,494l0.51-4H547.817ZM546.5,488h15.031l0.25-2H546.219Zm-3.313-12c-1.5.015-2.473,1.014-3.759,1.459a10.286,10.286,0,0,1-2.834.572c0.5,1.594,2.868,2.969,4.843,2.969,1.68,0,3.081-.691,3.473-1.91a7.188,7.188,0,0,0-.91.2v-0.086l-1.528.245a1,1,0,0,1-.381-1.964l2.663-.426A1.676,1.676,0,0,0,543.187,476Zm28.75-.25a3,3,0,0,1-2.125.844,29.714,29.714,0,0,0-4.156.406,1.792,1.792,0,0,0-1.523,1.022l2.733-.365a1,1,0,1,1,.239,1.985l-2.722.364a3.363,3.363,0,0,0,2.492.994,6.743,6.743,0,0,0,4.344-2.031A4.742,4.742,0,0,0,571.937,475.75ZM554,466h1.5a1.5,1.5,0,1,0,0-3H553v3h1Z" transform="translate(-534 -456)"/>
</svg>
