<svg width="19" height="20" viewBox="0 0 19 20">
	<path class="cls-1" d="M1715,611h-6l-4,4h-1l-1-1v-3h-1a3,3,0,0,1-3-3V598a3,3,0,0,1,3-3h13a3,3,0,0,1,3,3v10A3,3,0,0,1,1715,611Zm1-13a1,1,0,0,0-1-1h-13a1,1,0,0,0-1,1v10a1,1,0,0,0,1,1h2a1,1,0,0,1,1,1v2.207l3.23-3.208H1715a1,1,0,0,0,1-1V598Zm-5,8a1.986,1.986,0,0,1-1.79-2.875l0.9-2.615a1.035,1.035,0,0,1,1.4-.424,1.047,1.047,0,0,1,.33,1.425l-0.21.6A1.994,1.994,0,0,1,1711,606Zm-5,0a2,2,0,0,1-2-2,1.981,1.981,0,0,1,.21-0.876l0.9-2.615a1.035,1.035,0,0,1,1.4-.424,1.047,1.047,0,0,1,.33,1.425l-0.21.6A1.994,1.994,0,0,1,1706,606Z" transform="translate(-1699 -595)"/>
</svg>					