<svg width="21" height="15" viewBox="0 0 21 15">
	<path d="M856.5,942H844.656v0A4.791,4.791,0,0,1,840,937.124a4.863,4.863,0,0,1,3.011-4.536c-0.012-.145-0.042-0.284-0.042-0.432A5.073,5.073,0,0,1,847.953,927a4.928,4.928,0,0,1,4.081,2.209,3.992,3.992,0,0,1,1.31-.24,4.2,4.2,0,0,1,4.106,3.8A4.686,4.686,0,0,1,856.5,942Zm-6-10a3.5,3.5,0,1,0,3.5,3.5A3.5,3.5,0,0,0,850.5,932Zm1.078,4h-1.156a0.422,0.422,0,0,1-.422-0.422c0-.006,0-0.011,0-0.017s0-.01,0-0.016v-2.091a0.454,0.454,0,0,1,.454-0.454h0.029a0.454,0.454,0,0,1,.454.454v1.7h0.641A0.422,0.422,0,0,1,851.578,936Z" transform="translate(-840 -927)"/>
</svg>