<svg width="13" height="10" viewBox="0 0 13 10">
	<path d="M907.5,187h1a0.5,0.5,0,0,1,0,1h-1A0.5,0.5,0,0,1,907.5,187Zm4,0h8a0.5,0.5,0,0,1,0,1h-8A0.5,0.5,0,0,1,911.5,187Zm-4,3h1a0.5,0.5,0,0,1,0,1h-1A0.5,0.5,0,0,1,907.5,190Zm4,0h8a0.5,0.5,0,0,1,0,1h-8A0.5,0.5,0,0,1,911.5,190Zm-4,3h1a0.5,0.5,0,0,1,0,1h-1A0.5,0.5,0,0,1,907.5,193Zm4,0h8a0.5,0.5,0,0,1,0,1h-8A0.5,0.5,0,0,1,911.5,193Zm-4,3h1a0.5,0.5,0,0,1,0,1h-1A0.5,0.5,0,0,1,907.5,196Zm4,0h8a0.5,0.5,0,0,1,0,1h-8A0.5,0.5,0,0,1,911.5,196Z" transform="translate(-907 -187)"/>
</svg>