<svg width="17" height="22" viewBox="0 0 17 22">
	<path class="cls-1" d="M1755.96,608.018l0.01,0.012c-5.72,6.178-5.97,7.97-5.97,7.97h-1c-0.55-1.678-4.09-5.867-5.47-7.453A8.5,8.5,0,1,1,1755.96,608.018ZM1749.5,596a6.5,6.5,0,0,0-6.5,6.5,6.418,6.418,0,0,0,1.02,3.464L1744,606c0.08,0.065,1.11,1.545,3.06,3.754a15.174,15.174,0,0,1,2.35,3.246h0.15a13.294,13.294,0,0,1,2.41-3.25A32.028,32.028,0,0,0,1755,606l-0.02-.036A6.418,6.418,0,0,0,1756,602.5,6.5,6.5,0,0,0,1749.5,596Zm0,11a4.5,4.5,0,1,1,4.5-4.5A4.5,4.5,0,0,1,1749.5,607Zm0-7a2.5,2.5,0,1,0,2.5,2.5A2.5,2.5,0,0,0,1749.5,600Z" transform="translate(-1741 -594)"/>
</svg>