<svg width="13" height="13" viewBox="0 0 13 13">
	<path d="M682.5,197.5A6.5,6.5,0,1,1,689,191,6.5,6.5,0,0,1,682.5,197.5Zm0-12A5.5,5.5,0,1,0,688,191,5.5,5.5,0,0,0,682.5,185.5Zm1.821,5.26c-0.226.193-.321,0.258-0.588,0.475a2.15,2.15,0,0,0-.576.5,1.438,1.438,0,0,0-.157.763h-1l-0.011-.014a2.564,2.564,0,0,1,.059-0.808,1.42,1.42,0,0,1,.271-0.589,5.392,5.392,0,0,1,.655-0.527,6.887,6.887,0,0,1,.6-0.41,0.759,0.759,0,0,0,.4-0.721,0.832,0.832,0,0,0-.387-0.753,1.662,1.662,0,0,0-1.124-.176,1.7,1.7,0,0,0-1.14.254,1.2,1.2,0,0,0-.392.706l-0.946.009a2.056,2.056,0,0,1,.712-1.446,2.635,2.635,0,0,1,1.779-.554,2.471,2.471,0,0,1,1.883.529,1.905,1.905,0,0,1,.625,1.447,2.143,2.143,0,0,1-.153.751A1.758,1.758,0,0,1,684.321,190.76Zm-1.165,3.9h-1.312v-1.312h1.312v1.312Z" transform="translate(-676 -184.5)"/>
</svg>