<svg width="13" height="11" viewBox="0 0 13 11">
  <path class="cls-1" d="M924.256,933.4s0.237-3.348,2.571-3.377c1.9-.025,2.264.838,2.264,0.838a4.285,4.285,0,0,0,1.557-.862,2.551,2.551,0,0,1-.637,1.508,1.574,1.574,0,0,0,.99-0.359,1.941,1.941,0,0,1-1.038,1.244,9.716,9.716,0,0,1-1.6,5.917c-1.7,2.468-4.792,2.653-6.488,2.674a9.046,9.046,0,0,1-3.867-1.127s2.573,0.031,3.725-.81a18.237,18.237,0,0,1-2.55-2.107,2.542,2.542,0,0,0,.923-0.093,13.754,13.754,0,0,1-2.1-2.9,3.357,3.357,0,0,0,.968.05s-1.5-2.436-.79-4.015C918.184,929.985,920.719,933.187,924.256,933.4Z" transform="translate(-918 -930)"/>
</svg>