<svg width="7.219" height="13.031" viewBox="0 0 7.219 13.031">
  <path class="cls-1" d="M892.5,929a3.5,3.5,0,1,1-3.518,3.5A3.506,3.506,0,0,1,892.5,929Zm0.008,1.956a1.52,1.52,0,1,1-1.535,1.519A1.527,1.527,0,0,1,892.505,930.954Zm-0.008,6.06a5.822,5.822,0,0,0,1.965-.357,5.882,5.882,0,0,1,1.116-.564c0.22,0.008.583,0.373,0.521,1.317-0.035.538-1.018,0.761-1.364,0.967a2.266,2.266,0,0,1-.725.247s0.847,0.906,1.063,1.129a2.667,2.667,0,0,1,.948,1.278,1.342,1.342,0,0,1-1,1,4.493,4.493,0,0,1-1.4-1.12c-0.583-.556-1.115-1.07-1.115-1.07s-0.546.487-1.115,1.049a4.622,4.622,0,0,1-1.368,1.141,1.441,1.441,0,0,1-1.062-1.16,6.331,6.331,0,0,1,1.241-1.487,8.055,8.055,0,0,1,.8-0.757,1.9,1.9,0,0,1-.638-0.208c-0.481-.267-1.511-0.547-1.484-1.043,0.028-.512.159-1.3,0.616-1.3a6.116,6.116,0,0,1,1.119.542A4.376,4.376,0,0,0,892.5,937.014Z" transform="translate(-888.875 -929)"/>
</svg>