<svg class="subscribe_icon" viewBox="0 0 21 16">
	<path d="M778,405.856a0.949,0.949,0,0,1,0,.226c0,0.007,0,.013,0,0.02a0.955,0.955,0,0,1-.112.357l-4.958,10.883a0.927,0.927,0,0,1-.046.153,0.974,0.974,0,0,1-.179.214h0a0.974,0.974,0,0,1-.28.2c-0.017.008-.032,0.019-0.05,0.026a0.972,0.972,0,0,1-.267.063,1.07,1.07,0,0,1-.127.012,0.989,0.989,0,0,1-.213-0.036,1.01,1.01,0,0,1-.132-0.022c-0.021-.009-0.035-0.026-0.056-0.036s-0.036-.007-0.052-0.016l-3.133-1.8-3.523,4.4a22.232,22.232,0,0,1-.2.229,0.96,0.96,0,0,1-.218.147,0.838,0.838,0,0,1-.1.047,0.975,0.975,0,0,1-.3.06c-0.019,0-.035.011-0.054,0.011s-0.017,0-.026,0a0.968,0.968,0,0,1-.293-0.06,0.821,0.821,0,0,1-.1-0.033,0.61,0.61,0,0,1-.082-0.028,0.906,0.906,0,0,1-.131-0.116,1,1,0,0,1-.1-0.091,0.983,0.983,0,0,1-.13-0.192,0.941,0.941,0,0,1-.069-0.143,1.032,1.032,0,0,1-.043-0.213A0.964,0.964,0,0,1,763,420v-6.986l-5.32-3.05a0.979,0.979,0,0,1-.618-0.621,1.19,1.19,0,0,1-.044-0.118c0-.014-0.012-0.024-0.014-0.039a0.722,0.722,0,0,1,0-.081,0.966,0.966,0,0,1,1.118-1.113L776.851,405c0.027,0,.052,0,0.078,0s0.047,0,.071,0a0.98,0.98,0,0,1,.307.037,0.906,0.906,0,0,1,.089.042,0.96,0.96,0,0,1,.233.128,1.008,1.008,0,0,1,.122.13,0.957,0.957,0,0,1,.119.15c0.011,0.018.029,0.029,0.039,0.048a1,1,0,0,1,.059.212,0.661,0.661,0,0,1,.028.074A0.226,0.226,0,0,1,778,405.856Zm-6.453,9.739,3.332-7.314-8.3,4.467ZM765,417.17l1.651-2.064L765,414.16v3.01Zm-0.462-5.59,6.83-3.676-10.359,1.653Z" transform="translate(-757 -405)"/>
</svg>