<svg id="first.svg" xmlns="http://www.w3.org/2000/svg" width="40" height="40" viewBox="0 0 40 40">
  <defs>
    <style>
      .cls-1, .cls-2 {
        fill: #fff;
        fill-rule: evenodd;
      }

      .cls-1 {
        opacity: 0.9;
      }
    </style>
  </defs>
  <path id="Rounded_Rectangle_959_copy_3" data-name="Rounded Rectangle 959 copy 3" class="cls-1" d="M911,238c0-.025-0.013-0.047-0.015-0.071L913,236.752V252h-2V238Zm-4,2.258,2-1.169V252h-2V240.258Z" transform="translate(-890 -226)"/>
  <path id="Rounded_Rectangle_959_copy_2" data-name="Rounded Rectangle 959 copy 2" class="cls-2" d="M929,233a6,6,0,0,1-6-6v-1h7v7h-1Zm-38,0h-1v-7h7v1A6,6,0,0,1,891,233Zm19,31.006V264a32.633,32.633,0,0,1-15-9.858A12.159,12.159,0,0,1,892,247V234.931A7.994,7.994,0,0,0,898.931,228h22.162A7.979,7.979,0,0,0,928,234.931v12.123a12.1,12.1,0,0,1-3,7.122A32.639,32.639,0,0,1,910,264.006ZM917,252h-2V235a0.7,0.7,0,0,0-.016-0.077,0.919,0.919,0,0,0-.029-0.144,0.966,0.966,0,0,0-.077-0.233c-0.008-.016-0.008-0.035-0.017-0.051a0.915,0.915,0,0,0-.077-0.088,1.007,1.007,0,0,0-.132-0.152,1.283,1.283,0,0,0-.306-0.185,0.942,0.942,0,0,0-.3-0.061c-0.017,0-.032-0.009-0.049-0.009s-0.015,0-.024,0a0.968,0.968,0,0,0-.311.063c-0.026.01-.052,0.015-0.077,0.026s-0.063.015-.093,0.032l-11.99,7.007a1.019,1.019,0,0,0-.366,1.383,0.994,0.994,0,0,0,1.366.37l2.5-1.458V252h-2a1,1,0,1,0,0,2h14A1,1,0,1,0,917,252Zm-7,14h0s20-5.982,20-19.939V266H890V246C890,260,910,266,910,266Z" transform="translate(-890 -226)"/>
</svg>
